<?xml version="1.0" encoding="utf-8"?>
<!-- Generator: Adobe Illustrator 22.0.0, SVG Export Plug-In . SVG Version: 6.00 Build 0)  -->
<svg version="1.1" xmlns="http://www.w3.org/2000/svg" xmlns:xlink="http://www.w3.org/1999/xlink" x="0px" y="0px"
	 viewBox="0 0 1402 860" style="enable-background:new 0 0 1402 860;" xml:space="preserve">
<style type="text/css">
	.st0{fill:#F5EAE4;stroke:#7F64B3;stroke-width:10;stroke-linecap:round;stroke-miterlimit:10;}
	.st1{fill:none;stroke:#F1D7D3;stroke-width:100;stroke-linecap:round;stroke-linejoin:round;stroke-miterlimit:10;}
	.st2{fill:none;stroke:#7F64B3;stroke-width:4;stroke-linecap:round;stroke-linejoin:round;stroke-miterlimit:10;}
	.st3{fill:#7F64B3;stroke:#7F64B3;stroke-width:4;stroke-miterlimit:10;}
	.st4{fill:#F2B366;stroke:#DD8A3E;stroke-width:4;stroke-miterlimit:10;}
	.st5{fill:#7F64B3;}
	.st6{font-family:'Rubrik-SemiBold';}
	.st7{font-size:17.7261px;}
	.st8{fill:#F5EAE4;}
	.st9{font-size:18.8637px;}
	.st10{fill:#333333;}
	.st11{fill:none;stroke:#F2A8CB;stroke-width:4;stroke-linecap:round;stroke-linejoin:round;}
	.st12{fill:#F2A8CB;}
	.st13{fill:#BF7FC9;}
	.st14{font-size:12.8022px;}
	.st15{fill:none;stroke:#D94441;stroke-width:3;stroke-linecap:round;stroke-miterlimit:10;}
	.st16{fill:#D94441;}
	.st17{fill:#7F64B3;stroke:#7F64B3;stroke-width:4;stroke-linecap:round;stroke-linejoin:round;stroke-miterlimit:10;}
	.st18{font-size:18px;}
	.st19{fill:#DD8A3E;}
	.st20{font-size:15.1519px;}
	.st21{clip-path:url(#SVGID_2_);}
	.st22{fill:none;stroke:#DD8A3E;stroke-width:5;stroke-linecap:round;stroke-linejoin:round;stroke-miterlimit:10;}
	.st23{font-size:12px;}
	.st24{fill:#DD8A3E;stroke:#DD8A3E;stroke-linecap:round;stroke-linejoin:round;stroke-miterlimit:10;}
	.st25{clip-path:url(#SVGID_4_);}
	.st26{fill:none;}
	.st27{fill:none;stroke:#7F64B3;stroke-width:5;stroke-linecap:round;stroke-linejoin:round;stroke-miterlimit:10;}
	.st28{clip-path:url(#SVGID_6_);}
	.st29{fill:none;stroke:#F2A8CB;stroke-width:4;stroke-linecap:round;stroke-linejoin:round;stroke-miterlimit:10;}
	.st30{font-family:'DengXian-Bold';}
	.st31{font-size:16.6192px;}
	.st32{fill:#1A1A1A;}
	.st33{font-size:18.9653px;}
	.st34{font-size:23.9587px;}
	.st35{fill:#DD8A3E;stroke:#DD8A3E;stroke-width:4;stroke-miterlimit:10;}
	.st36{fill:#F2B366;}
	.st37{font-size:21.6999px;}
	.st38{font-size:27.341px;}
	.st39{fill:none;stroke:#1A1A1A;stroke-width:2;stroke-linecap:round;stroke-linejoin:round;stroke-miterlimit:10;}
	.st40{font-size:29.3835px;}
	.st41{font-size:26.6132px;}
	.st42{font-size:33.5315px;}
	.st43{fill:none;stroke:#1A1A1A;stroke-width:3;stroke-linecap:round;stroke-linejoin:round;stroke-miterlimit:10;}
	.st44{font-size:15px;}
	.st45{font-size:12.6893px;}
	.st46{display:none;fill:#F2B366;stroke:#DD8A3E;stroke-width:4;stroke-miterlimit:10;}
	.st47{fill:none;stroke:#333333;stroke-width:4;stroke-linecap:round;stroke-miterlimit:10;}
	.st48{fill:none;stroke:#333333;stroke-width:3;stroke-linecap:round;stroke-miterlimit:10;}
	.st49{fill:#333333;stroke:#333333;stroke-width:3;stroke-linecap:round;stroke-linejoin:round;stroke-miterlimit:10;}
	.st50{fill:#333333;stroke:#333333;stroke-width:2.5;stroke-linecap:round;stroke-linejoin:round;stroke-miterlimit:10;}
	.st51{font-size:17.7456px;}
	.st52{font-size:12.8163px;}
	.st53{fill:#D94441;stroke:#7F64B3;stroke-width:4;stroke-miterlimit:10;}
	.st54{font-size:18.8845px;}
	.st55{fill:none;stroke:#F2A8CB;stroke-width:4;stroke-miterlimit:10;}
	.st56{font-size:12.8921px;}
	.st57{font-size:11.6767px;}
	.st58{font-size:14.7121px;}
	.st59{font-size:21.3122px;}
	.st60{fill:#F2B366;stroke:#7F64B3;stroke-width:4;stroke-miterlimit:10;}
	.st61{fill:#B3B3B3;stroke:#7F64B3;stroke-width:4;stroke-miterlimit:10;}
	.st62{fill:none;stroke:#D94441;stroke-width:18;stroke-linejoin:round;stroke-miterlimit:10;}
	.st63{fill:#D94441;stroke:#D94441;stroke-width:4;stroke-linejoin:round;stroke-miterlimit:10;}
	.st64{fill:none;stroke:#B3B3B3;stroke-width:4;stroke-linecap:round;stroke-linejoin:round;}
	.st65{fill:none;stroke:#B3B3B3;stroke-width:4;stroke-linecap:round;stroke-linejoin:round;stroke-dasharray:11.6961,11.6961;}
	.st66{fill:none;stroke:#F2B366;stroke-width:4;stroke-linejoin:round;}
	.st67{fill:#999999;}
	.st68{fill:#F1D7D3;}
	.st69{fill:none;stroke:#BF7FC9;stroke-width:2;stroke-linecap:round;stroke-linejoin:round;stroke-miterlimit:10;}
	.st70{fill:none;stroke:#333333;stroke-width:4;stroke-linecap:round;stroke-linejoin:round;stroke-miterlimit:10;}
	.st71{font-size:16px;}
	.st72{fill:none;stroke:#E74954;stroke-width:4;stroke-linecap:round;stroke-linejoin:round;}
	.st73{fill:#E74954;}
</style>
<g id="bg">
	<path class="st0" d="M1055.8,811.1H346.3c-183,0-332.7-149.7-332.7-332.7V369.8c0-183,149.7-332.7,332.7-332.7h709.5
		c183,0,332.7,149.7,332.7,332.7v108.6C1388.5,661.4,1238.8,811.1,1055.8,811.1z"/>
	<path class="st1" d="M96.1,457.7c5.1,22.4,14.5,52.1,32.5,84c12.8,22.7,26.7,40.7,39,54.5"/>
</g>
<g id="_x31_.DNA">
	<g>
		<line class="st2" x1="309.7" y1="175.7" x2="522.5" y2="175.7"/>
		<path class="st3" d="M410.9,189.7h-27c-7.2,0-13.1-5.9-13.1-13.1v-1.7c0-7.2,5.9-13.1,13.1-13.1h27c7.2,0,13.1,5.9,13.1,13.1v1.7
			C424,183.8,418.1,189.7,410.9,189.7z"/>
		<path class="st4" d="M496,189.7h-27c-7.2,0-13.1-5.9-13.1-13.1v-1.7c0-7.2,5.9-13.1,13.1-13.1h27c7.2,0,13.1,5.9,13.1,13.1v1.7
			C509.1,183.8,503.2,189.7,496,189.7z"/>
		<g>
			<path class="st5" d="M363.5,142.6c0.6,0.6,0.6,1.6,0,2.2l-6.9,6.5l-5.5,5.2c-1,0.9-2.6,0.2-2.6-1.1v-6.4h-11.6
				c-0.8,0-1.5,0.7-1.5,1.5v24.8H325v-35.5c0-0.8,0.7-1.5,1.5-1.5h22V132c0-1.3,1.6-2,2.6-1.1l5.5,5.2L363.5,142.6z"/>
		</g>
		<text transform="matrix(1 0 0 1 311.9002 193.6507)" class="st5 st6 st7">Pnar</text>
		<text transform="matrix(0.9397 0 -0.342 0.9397 374.4616 182.0149)" class="st8 st6 st9">phyC</text>
		<text transform="matrix(0.9397 0 -0.342 0.9397 470.971 181.9534)" class="st10 st6 st9">cl</text>
		<g id="fnr激活pnar_2_">
			<g>
				<line class="st11" x1="389.3" y1="116.1" x2="369.2" y2="133.3"/>
				<g>
					<polygon class="st12" points="368.8,118.6 371.6,118.9 370,132.6 383.8,133.1 383.7,135.9 366.9,135.3 					"/>
				</g>
			</g>
		</g>
		<circle class="st13" cx="412.7" cy="99" r="20.6"/>
		<text transform="matrix(1 0 0 1 394.8533 105.1937)" class="st8 st6 st7">FNR</text>
	</g>
	<g>
		<line class="st2" x1="95.2" y1="235.7" x2="317.5" y2="235.7"/>
		<g>
			<path class="st5" d="M243.8,202.6c0.6,0.6,0.6,1.6,0,2.2l-6.9,6.5l-5.5,5.2c-1,0.9-2.6,0.2-2.6-1.1v-6.4h-11.6
				c-0.8,0-1.5,0.7-1.5,1.5v24.8h-10.4v-35.5c0-0.8,0.7-1.5,1.5-1.5h22V192c0-1.3,1.6-2,2.6-1.1l5.5,5.2L243.8,202.6z"/>
		</g>
		<text transform="matrix(1 0 0 1 197.176 253.7502)"><tspan x="0" y="0" class="st5 st6 st7">P</tspan><tspan x="11.5" y="0" class="st5 st6 st14">grac</tspan></text>
		<path class="st4" d="M296.3,248.6h-28.4c-7.2,0-13.1-5.9-13.1-13.1v-1.7c0-7.2,5.9-13.1,13.1-13.1h28.4c7.2,0,13.1,5.9,13.1,13.1
			v1.7C309.4,242.7,303.5,248.6,296.3,248.6z"/>
		<text transform="matrix(0.9397 0 -0.342 0.9397 272.0952 239.9398)" class="st10 st6 st9">cl</text>
		<circle class="st13" cx="133.5" cy="156.6" r="20.6"/>
		<text transform="matrix(1 0 0 1 116.4251 163.0246)" class="st8 st6 st7">Lacl</text>
		<path class="st3" d="M146.1,248.6h-28.4c-7.2,0-13.1-5.9-13.1-13.1v-1.7c0-7.2,5.9-13.1,13.1-13.1h28.4c7.2,0,13.1,5.9,13.1,13.1
			v1.7C159.2,242.7,153.3,248.6,146.1,248.6z"/>
		<text transform="matrix(0.9397 0 -0.342 0.9397 115.3561 240.8639)" class="st8 st6 st9">lacl</text>
		<g>
			<g>
				<line class="st15" x1="194.2" y1="187.4" x2="164.7" y2="169"/>
				<g>
					
						<rect x="184.4" y="185.9" transform="matrix(0.5303 -0.8478 0.8478 0.5303 -67.6505 252.6321)" class="st16" width="19.5" height="3"/>
				</g>
			</g>
		</g>
		<g id="fnr激活pnar_4_">
			<g>
				<line class="st11" x1="131.9" y1="209.9" x2="131.9" y2="187.4"/>
				<g>
					<polygon class="st12" points="143.3,196.7 141.3,198.6 131.9,188.5 122.5,198.6 120.4,196.7 131.9,184.3 					"/>
				</g>
			</g>
		</g>
	</g>
</g>
<g id="_x32_.">
	<path class="st17" d="M400,408l24.1-31.1l-15.2,1.5c-1.6-13.4,1.1-43.7,9.5-64.9c15-37.7,22.7-50.9,40.5-72.6
		c-10.2,8.5-23.7,20.6-42.1,47.9c-13.1,19.5-20.2,38-20.2,38s-7.5-18.3-24-31.5c-17.8-14.3-31.5-16.4-47.1-17
		c22.6,5.5,39.5,17.7,49.8,37.5c11.4,21.9,13,55.1,12.1,64.9l-17.2,1.5L400,408z"/>
	<text transform="matrix(1 0 0 1 179.5484 342.3947)" class="st6 st18">TRANSCRIPTION</text>
</g>
<g id="_x33_.mRNA">
	<g>
		<path d="M446.8,399.6"/>
		<text transform="matrix(1 0 0 1 192.7875 486.4344)" class="st19 st6 st20">mRNA</text>
		<g>
			<g>
				<defs>
					<path id="SVGID_1_" d="M303.1,560.6l-24.3-98.1c38.5,26.4,64.5,26.5,81.3,21.2c22-6.9,30-23.3,63.2-42.2
						c22.6-12.9,43.3-19.1,57.3-22.4l22.8,91.9L303.1,560.6z"/>
				</defs>
				<clipPath id="SVGID_2_">
					<use xlink:href="#SVGID_1_"  style="overflow:visible;"/>
				</clipPath>
				<g class="st21">
					<path class="st19" d="M283.4,447.5c3.3,1.1,5.7,2.3,8.2,3.6c0.3,0.2,0.2,0.4,0.1,0.7c0,0.2,0.1,0.5,0.1,0.7l0.3,1.3l0.7,2.6
						l2.6,10.6l2.6,10.6l1.3,5.3c-1.6,2.3-3.2,4.5-5.5,7c-3.2-1.1-5.6-2.4-8.1-3.6l-1.3-5.3l-2.6-10.6l-2.6-10.6l-0.7-2.6l-0.3-1.3
						c-0.1-0.2-0.1-0.5-0.2-0.6c-0.1-0.2-0.4-0.4-0.2-0.7C279.4,452.2,281,449.9,283.4,447.5z"/>
				</g>
				<g class="st21">
					<path class="st16" d="M302.8,457.4c3.3,1.1,5.7,2.3,8.2,3.6c0.3,0.2,0.2,0.4,0.1,0.7c0,0.2,0.1,0.5,0.1,0.7l0.3,1.3l0.7,2.6
						l2.6,10.6l2.6,10.6l1.3,5.3c-1.6,2.3-3.2,4.5-5.5,7c-3.2-1.1-5.6-2.4-8.1-3.6l-1.3-5.3l-2.6-10.6l-2.6-10.6L298,467l-0.3-1.3
						c-0.1-0.2-0.1-0.5-0.2-0.6c-0.1-0.2-0.4-0.4-0.2-0.7C298.9,462.1,300.4,459.9,302.8,457.4z"/>
				</g>
				<g class="st21">
					<path class="st12" d="M321.6,464.8c3.3,1.1,5.7,2.3,8.2,3.6c0.3,0.2,0.2,0.4,0.1,0.7c0,0.2,0.1,0.5,0.1,0.7l0.3,1.3l0.7,2.6
						l2.6,10.6l2.6,10.6l1.3,5.3c-1.6,2.3-3.2,4.5-5.5,7c-3.2-1.1-5.6-2.4-8.1-3.6l-1.3-5.3l-2.6-10.6l-2.6-10.6l-0.7-2.6l-0.3-1.3
						c-0.1-0.2-0.1-0.5-0.2-0.6c-0.1-0.2-0.4-0.4-0.2-0.7C317.7,469.5,319.2,467.2,321.6,464.8z"/>
				</g>
				<g class="st21">
					<path class="st19" d="M339,466.5c3.3,1.1,5.7,2.3,8.2,3.6c0.3,0.2,0.2,0.4,0.1,0.7c0,0.2,0.1,0.5,0.1,0.7l0.3,1.3l0.7,2.6
						L351,486l2.6,10.6l1.3,5.3c-1.6,2.3-3.2,4.5-5.5,7c-3.2-1.1-5.6-2.4-8.1-3.6l-1.3-5.3l-2.6-10.6l-2.6-10.6l-0.7-2.6l-0.3-1.3
						c-0.1-0.2-0.1-0.5-0.2-0.6c-0.1-0.2-0.4-0.4-0.2-0.7C335,471.2,336.6,469,339,466.5z"/>
				</g>
				<g class="st21">
					<path class="st12" d="M355.4,464.2c3.3,1.1,5.7,2.3,8.2,3.6c0.3,0.2,0.2,0.4,0.1,0.7c0,0.2,0.1,0.5,0.1,0.7l0.3,1.3l0.7,2.6
						l2.6,10.6l2.6,10.6l1.3,5.3c-1.6,2.3-3.2,4.5-5.5,7c-3.2-1.1-5.6-2.4-8.1-3.6l-1.3-5.3l-2.6-10.6l-2.6-10.6l-0.7-2.6l-0.3-1.3
						c-0.1-0.2-0.1-0.5-0.2-0.6c-0.1-0.2-0.4-0.4-0.2-0.7C351.4,469,353,466.7,355.4,464.2z"/>
				</g>
				<g class="st21">
					<path class="st5" d="M370.7,457.4c3.3,1.1,5.7,2.3,8.2,3.6c0.3,0.2,0.2,0.4,0.1,0.7c0,0.2,0.1,0.5,0.1,0.7l0.3,1.3l0.7,2.6
						l2.6,10.6l2.6,10.6l1.3,5.3c-1.6,2.3-3.2,4.5-5.5,7c-3.2-1.1-5.6-2.4-8.1-3.6l-1.3-5.3l-2.6-10.6l-2.6-10.6l-0.7-2.6l-0.3-1.3
						c-0.1-0.2-0.1-0.5-0.2-0.6c-0.1-0.2-0.4-0.4-0.2-0.7C366.7,462.2,368.3,459.9,370.7,457.4z"/>
				</g>
				<g class="st21">
					<path class="st19" d="M384.8,446c3.3,1.1,5.7,2.3,8.2,3.6c0.3,0.2,0.2,0.4,0.1,0.7c0,0.2,0.1,0.5,0.1,0.7l0.3,1.3l0.7,2.6
						l2.6,10.6l2.6,10.6l1.3,5.3c-1.6,2.3-3.2,4.5-5.5,7c-3.2-1.1-5.6-2.4-8.1-3.6l-1.3-5.3l-2.6-10.6l-2.6-10.6l-0.7-2.6l-0.3-1.3
						c-0.1-0.2-0.1-0.5-0.2-0.6c-0.1-0.2-0.4-0.4-0.2-0.7C380.8,450.8,382.4,448.5,384.8,446z"/>
				</g>
				<g class="st21">
					<path class="st16" d="M399.2,435.5c3.3,1.1,5.7,2.3,8.2,3.6c0.3,0.2,0.2,0.4,0.1,0.7c0,0.2,0.1,0.5,0.1,0.7l0.3,1.3l0.7,2.6
						l2.6,10.6l2.6,10.6l1.3,5.3c-1.6,2.3-3.2,4.5-5.5,7c-3.2-1.1-5.6-2.4-8.1-3.6l-1.3-5.3l-2.6-10.6l-2.6-10.6l-0.7-2.6l-0.3-1.3
						c-0.1-0.2-0.1-0.5-0.2-0.6c-0.1-0.2-0.4-0.4-0.2-0.7C395.2,440.2,396.8,437.9,399.2,435.5z"/>
				</g>
				<g class="st21">
					<path class="st16" d="M413.6,425.5c3.3,1.1,5.7,2.3,8.2,3.6c0.3,0.2,0.2,0.4,0.1,0.7c0,0.2,0.1,0.5,0.1,0.7l0.3,1.3l0.7,2.6
						l2.6,10.6l2.6,10.6l1.3,5.3c-1.6,2.3-3.2,4.5-5.5,7c-3.2-1.1-5.6-2.4-8.1-3.6l-1.3-5.3l-2.6-10.6l-2.6-10.6l-0.7-2.6l-0.3-1.3
						c-0.1-0.2-0.1-0.5-0.2-0.6c-0.1-0.2-0.4-0.4-0.2-0.7C409.7,430.2,411.2,428,413.6,425.5z"/>
				</g>
				<g class="st21">
					<path class="st19" d="M428.4,416.5c3.3,1.1,5.7,2.3,8.2,3.6c0.3,0.2,0.2,0.4,0.1,0.7c0,0.2,0.1,0.5,0.1,0.7l0.3,1.3l0.7,2.6
						l2.6,10.6l2.6,10.6l1.3,5.3c-1.6,2.3-3.2,4.5-5.5,7c-3.2-1.1-5.6-2.4-8.1-3.6l-1.3-5.3l-2.6-10.6l-2.6-10.6l-0.7-2.6l-0.3-1.3
						c-0.1-0.2-0.1-0.5-0.2-0.6c-0.1-0.2-0.4-0.4-0.2-0.7C424.4,421.3,426,419,428.4,416.5z"/>
				</g>
				<g class="st21">
					<path class="st12" d="M443.7,409.8c3.3,1.1,5.7,2.3,8.2,3.6c0.3,0.2,0.2,0.4,0.1,0.7c0,0.2,0.1,0.5,0.1,0.7l0.3,1.3l0.7,2.6
						l2.6,10.6l2.6,10.6l1.3,5.3c-1.6,2.3-3.2,4.5-5.5,7c-3.2-1.1-5.6-2.4-8.1-3.6l-1.3-5.3l-2.6-10.6l-2.6-10.6l-0.7-2.6l-0.3-1.3
						c-0.1-0.2-0.1-0.5-0.2-0.6c-0.1-0.2-0.4-0.4-0.2-0.7C439.7,414.6,441.3,412.3,443.7,409.8z"/>
				</g>
				<g class="st21">
					<path class="st5" d="M459.2,404.1c3.3,1.1,5.7,2.3,8.2,3.6c0.3,0.2,0.2,0.4,0.1,0.7c0,0.2,0.1,0.5,0.1,0.7l0.3,1.3l0.7,2.6
						l2.6,10.6l2.6,10.6l1.3,5.3c-1.6,2.3-3.2,4.5-5.5,7c-3.2-1.1-5.6-2.4-8.1-3.6l-1.3-5.3l-2.6-10.6l-2.6-10.6l-0.7-2.6l-0.3-1.3
						c-0.1-0.2-0.1-0.5-0.2-0.6c-0.1-0.2-0.4-0.4-0.2-0.7C455.3,408.8,456.8,406.6,459.2,404.1z"/>
				</g>
			</g>
			<path class="st22" d="M278.8,462.5c38.5,26.4,64.5,26.5,81.3,21.2c22-6.9,30-23.3,63.2-42.2c22.6-12.9,43.3-19.1,57.3-22.4"/>
			<text transform="matrix(0.9675 -0.2529 0.2529 0.9675 288.1712 485.1156)" class="st8 st6 st23">U</text>
			<text transform="matrix(0.9675 -0.2529 0.2529 0.9675 307.6738 493.4916)" class="st8 st6 st23">A</text>
			<text transform="matrix(0.9675 -0.2529 0.2529 0.9675 326.3566 500.0893)" class="st8 st6 st23">C</text>
			<text transform="matrix(0.9675 -0.2529 0.2529 0.9675 343.608 501.2397)" class="st8 st6 st23">U</text>
			<text transform="matrix(0.9675 -0.2529 0.2529 0.9675 358.9078 498.8551)" class="st8 st6 st23">C</text>
			<text transform="matrix(0.9675 -0.2529 0.2529 0.9675 374.4606 491.3192)" class="st8 st6 st23">G</text>
			<text transform="matrix(0.9675 -0.2529 0.2529 0.9675 389.2703 482.0478)" class="st8 st6 st23">U</text>
			<text transform="matrix(0.9675 -0.2529 0.2529 0.9675 403.5225 469.6999)" class="st8 st6 st23">A</text>
			<text transform="matrix(0.9675 -0.2529 0.2529 0.9675 418.0711 460.4914)" class="st8 st6 st23">A</text>
			<text transform="matrix(0.9675 -0.2529 0.2529 0.9675 433.2691 452.7792)" class="st8 st6 st23">U</text>
			<text transform="matrix(0.9675 -0.2529 0.2529 0.9675 463.1728 438.9557)" class="st8 st6 st23">G</text>
			<text transform="matrix(0.9675 -0.2529 0.2529 0.9675 447.7173 444.8522)" class="st8 st6 st23">C</text>
		</g>
		<circle class="st24" cx="490.7" cy="428" r="1.8"/>
		<circle class="st24" cx="499.7" cy="425.8" r="1.8"/>
		<circle class="st24" cx="508.6" cy="423.6" r="1.8"/>
		<circle class="st24" cx="255.5" cy="466" r="1.8"/>
		<circle class="st24" cx="263.7" cy="469.2" r="1.8"/>
		<circle class="st24" cx="272.1" cy="472.6" r="1.8"/>
	</g>
</g>
<g id="_x34_.t">
	<text transform="matrix(1 0 0 1 223.1561 606.6003)" class="st6 st18">DEGRADATION</text>
	<g>
		<path class="st17" d="M530.8,635.7l-7.6-46l-11,14.4c-14.2-9.7-22.3-10.7-43.9-29.1c-24.9-21.3-37.4-51.6-37.4-51.6
			s2.5,35.8,22.9,64.4c13,18.2,30.5,32.5,40,40l-9.8,12.7L530.8,635.7z"/>
		<path class="st17" d="M387.4,625.5l15-24.2c0.4-0.6,1.2-0.6,1.6-0.1l4.5,5c0.5,0.6,1.4,0.7,2,0.3c15.5-9,22.8-14.5,32.5-22.2
			c3.3-2.6,6.3-5,8.8-7.2c1.6-1.3,3.6,0.9,2.3,2.5c-1.8,1.9-3.7,4-6,6.3c-9.1,9.4-21.2,19.4-33,27.5c-0.7,0.5-0.9,1.5-0.4,2.3
			l2.5,3.8c0.4,0.6,0.1,1.4-0.6,1.6l-28.2,6C387.6,627.3,386.9,626.3,387.4,625.5z"/>
	</g>
	<text transform="matrix(1 0 0 1 454.5761 538.3483)" class="st6 st18">TRANSCRIPTION</text>
</g>
<g id="_x35_.CI_mRNA">
	<g>
		<g>
			<g>
				<defs>
					<path id="SVGID_3_" d="M185.2,786.3l-21.4-98.8c37.7,27.5,63.7,28.3,80.6,23.6c22.2-6.2,30.6-22.4,64.3-40.3
						c23-12.2,43.8-17.9,57.9-20.8l20.1,92.5L185.2,786.3z"/>
				</defs>
				<clipPath id="SVGID_4_">
					<use xlink:href="#SVGID_3_"  style="overflow:visible;"/>
				</clipPath>
				<g class="st25">
					<path class="st26" d="M178.1,715.3"/>
				</g>
				<g class="st25">
					<path class="st26" d="M168.8,672.7"/>
				</g>
				<g class="st25">
					<path class="st19" d="M179.7,681.9c3,1.7,5.1,3.4,7.3,5.1c0.2,0.2,0.1,0.5,0,0.7c-0.1,0.2,0,0.5,0,0.7l0.1,1.4l0.1,2.7
						l0.5,10.9l0.5,10.9l0.2,5.5c-2,1.9-4,3.8-6.7,5.8c-2.9-1.7-5-3.4-7.2-5.1l-0.2-5.5l-0.5-10.9l-0.5-10.9l-0.1-2.7l-0.1-1.4
						c0-0.2,0-0.5-0.1-0.7c-0.1-0.2-0.3-0.4,0-0.7C174.9,685.8,176.9,683.9,179.7,681.9z"/>
				</g>
				<g class="st25">
					<path class="st26" d="M207.6,736.5"/>
				</g>
				<g class="st25">
					<path class="st26" d="M203.9,693"/>
				</g>
				<g class="st25">
					<path class="st26" d="M233.1,736"/>
				</g>
				<g class="st25">
					<path class="st26" d="M223.8,693.3"/>
				</g>
				<g class="st25">
					<path class="st19" d="M246.1,690c3.2,1.2,5.6,2.5,8.1,3.8c0.3,0.2,0.2,0.4,0.1,0.7c0,0.2,0.1,0.5,0.1,0.7l0.3,1.3l0.6,2.7
						l2.3,10.7l2.3,10.7l1.2,5.3c-1.7,2.2-3.3,4.4-5.7,6.8c-3.1-1.2-5.5-2.5-8-3.8l-1.2-5.3l-2.3-10.7l-2.3-10.7l-0.6-2.7l-0.3-1.3
						c-0.1-0.2-0.1-0.5-0.2-0.7c-0.1-0.2-0.3-0.4-0.2-0.7C242,694.6,243.7,692.4,246.1,690z"/>
				</g>
				<g class="st25">
					<path class="st12" d="M276.2,669.9c3.2,1.2,5.6,2.5,8.1,3.8c0.3,0.2,0.2,0.4,0.1,0.7c0,0.2,0.1,0.5,0.1,0.7l0.3,1.3l0.6,2.7
						l2.3,10.7l2.3,10.7l1.2,5.3c-1.7,2.2-3.3,4.4-5.7,6.8c-3.1-1.2-5.5-2.5-8-3.8l-1.2-5.3l-2.3-10.7l-2.3-10.7l-0.6-2.7l-0.3-1.3
						c-0.1-0.2-0.1-0.5-0.2-0.7c-0.1-0.2-0.3-0.4-0.2-0.7C272.1,674.5,273.7,672.3,276.2,669.9z"/>
				</g>
				<g class="st25">
					<path class="st19" d="M314.6,646c3.2,1.2,5.6,2.5,8.1,3.8c0.3,0.2,0.2,0.4,0.1,0.7c0,0.2,0.1,0.5,0.1,0.7l0.3,1.3l0.6,2.7
						l2.3,10.7l2.3,10.7l1.2,5.3c-1.7,2.2-3.3,4.4-5.7,6.8c-3.1-1.2-5.5-2.5-8-3.8l-1.2-5.3l-2.3-10.7l-2.3-10.7l-0.6-2.7l-0.3-1.3
						c-0.1-0.2-0.1-0.5-0.2-0.7c-0.1-0.2-0.3-0.4-0.2-0.7C310.5,650.6,312.1,648.4,314.6,646z"/>
				</g>
				<g class="st25">
					<path class="st16" d="M330.1,639.7c3.2,1.2,5.6,2.5,8.1,3.8c0.3,0.2,0.2,0.4,0.1,0.7c0,0.2,0.1,0.5,0.1,0.7l0.3,1.3l0.6,2.7
						l2.3,10.7l2.3,10.7l1.2,5.3c-1.7,2.2-3.3,4.4-5.7,6.8c-3.1-1.2-5.5-2.5-8-3.8l-1.2-5.3l-2.3-10.7l-2.3-10.7l-0.6-2.7l-0.3-1.3
						c-0.1-0.2-0.1-0.5-0.2-0.7c-0.1-0.2-0.3-0.4-0.2-0.7C326,644.3,327.6,642.1,330.1,639.7z"/>
				</g>
			</g>
			<path class="st27" d="M163.8,687.5"/>
			<circle class="st5" cx="302.4" cy="673.8" r="2.4"/>
			<g>
				<path class="st26" d="M146.8,717.5"/>
			</g>
			<circle class="st8" cx="177.2" cy="721" r="4.7"/>
			<circle class="st8" cx="173.9" cy="716.4" r="2.9"/>
			<circle class="st16" cx="165.6" cy="709.5" r="3.4"/>
			<circle class="st12" cx="156.7" cy="716.3" r="1.1"/>
			<circle class="st19" cx="378.3" cy="664.7" r="2.4"/>
			<g>
				<defs>
					<path id="SVGID_5_" d="M183.1,776l-21.4-98.8c37.7,27.5,63.7,28.3,80.6,23.6c22.2-6.2,30.6-22.4,64.3-40.3
						c23-12.2,43.8-17.9,57.9-20.8l20.1,92.5L183.1,776z"/>
				</defs>
				<clipPath id="SVGID_6_">
					<use xlink:href="#SVGID_5_"  style="overflow:visible;"/>
				</clipPath>
				<g class="st28">
					<path class="st26" d="M176,705"/>
				</g>
				<g class="st28">
					<path class="st26" d="M166.7,662.4"/>
				</g>
				<g class="st28">
					<path class="st26" d="M179.5,715.3"/>
				</g>
				<g class="st28">
					<path class="st26" d="M177.6,671.6"/>
				</g>
				<g class="st28">
					<path class="st16" d="M201.8,682.7c3.1,1.6,5.3,3.2,7.5,4.8c0.3,0.2,0.1,0.4,0,0.7c-0.1,0.2,0,0.5,0,0.7l0.1,1.4l0.2,2.7
						l0.9,10.9l0.9,10.9l0.5,5.4c-2,2-3.9,4-6.5,6c-3-1.6-5.2-3.2-7.4-4.8l-0.5-5.4l-0.9-10.9l-0.9-10.9l-0.2-2.7l-0.1-1.4
						c0-0.2,0-0.5-0.1-0.7c-0.1-0.2-0.3-0.4-0.1-0.7C197.1,686.8,199,684.8,201.8,682.7z"/>
				</g>
				<g class="st28">
					<path class="st12" d="M221.7,683c3.2,1.2,5.6,2.5,8.1,3.8c0.3,0.2,0.2,0.4,0.1,0.7c0,0.2,0.1,0.5,0.1,0.7l0.3,1.3l0.6,2.7
						l2.3,10.7l2.3,10.7l1.2,5.3c-1.7,2.2-3.3,4.4-5.7,6.8c-3.1-1.2-5.5-2.5-8-3.8l-1.2-5.3l-2.3-10.7l-2.3-10.7l-0.6-2.7l-0.3-1.3
						c-0.1-0.2-0.1-0.5-0.2-0.7c-0.1-0.2-0.3-0.4-0.2-0.7C217.6,687.6,219.2,685.4,221.7,683z"/>
				</g>
				<g class="st28">
					<path class="st5" d="M297.5,644.2c3.2,1.2,5.6,2.5,8.1,3.8c0.3,0.2,0.2,0.4,0.1,0.7c0,0.2,0.1,0.5,0.1,0.7l0.3,1.3l0.6,2.7
						l2.3,10.7l2.3,10.7l1.2,5.3c-1.7,2.2-3.3,4.4-5.7,6.8c-3.1-1.2-5.5-2.5-8-3.8l-1.2-5.3l-2.3-10.7l-2.3-10.7l-0.6-2.7l-0.3-1.3
						c-0.1-0.2-0.1-0.5-0.2-0.7c-0.1-0.2-0.3-0.4-0.2-0.7C293.4,648.8,295,646.6,297.5,644.2z"/>
				</g>
				<g class="st28">
					<path class="st16" d="M351.1,622.3c3.2,1.2,5.6,2.5,8.1,3.8c0.3,0.2,0.2,0.4,0.1,0.7c0,0.2,0.1,0.5,0.1,0.7l0.3,1.3l0.6,2.7
						l2.3,10.7l2.3,10.7l1.2,5.3c-1.7,2.2-3.3,4.4-5.7,6.8c-3.1-1.2-5.5-2.5-8-3.8l-1.2-5.3l-2.3-10.7l-2.3-10.7l-0.6-2.7l-0.3-1.3
						c-0.1-0.2-0.1-0.5-0.2-0.7c-0.1-0.2-0.3-0.4-0.2-0.7C347,626.9,348.7,624.7,351.1,622.3z"/>
				</g>
			</g>
			<g>
				<path class="st22" d="M346.5,644.7c8.4-2.7,12.6-3.5,18.9-4.7"/>
				<path class="st22" d="M313.9,668.1c11.5-6.1,17.2-7.9,27.1-11.2"/>
				<path class="st22" d="M275.4,692.9c3.1-2.4,6.5-5,10.2-7.7"/>
				<path class="st22" d="M244.4,711.1c6.2-1.7,7.7-2.2,11.3-4.2"/>
				<path class="st22" d="M197.9,696.6c4.9,2.1,6.3,2.3,10.6,3.5c7.7,2,16.2,2.6,22.3,2.4"/>
				<path class="st22" d="M173.5,694.3c8.1,5.6,7.3,4.9,14.3,8.2"/>
				<circle class="st19" cx="269.6" cy="700.2" r="2.4"/>
				<circle class="st19" cx="260.1" cy="700.4" r="1.5"/>
				<circle class="st19" cx="164.1" cy="684.7" r="1.5"/>
				<circle class="st19" cx="375.6" cy="647.2" r="1.5"/>
			</g>
			<circle class="st12" cx="394.6" cy="658.5" r="1.5"/>
			<circle class="st8" cx="363.3" cy="656.2" r="5.2"/>
			<path class="st22" d="M293.4,666.3c2.1-1.4,4.4-2.9,7-4.3c2.9-1.6,5.8-2.9,8.3-4"/>
			<circle class="st8" cx="309.8" cy="678.8" r="3.6"/>
		</g>
		<text transform="matrix(0.9996 -2.786000e-02 2.786000e-02 0.9996 176.836 718.2658)" class="st8 st6 st23">U</text>
		<text transform="matrix(0.9984 -5.716000e-02 5.716000e-02 0.9984 200.5308 716.3823)" class="st8 st6 st23">A</text>
		<text transform="matrix(0.9853 -0.1711 0.1711 0.9853 225.6255 718.9689)" class="st8 st6 st23">C</text>
		<text transform="matrix(0.9744 -0.2247 0.2247 0.9744 249.4088 724.8652)" class="st8 st6 st23">U</text>
		<text transform="matrix(0.9744 -0.2247 0.2247 0.9744 279.8727 705.1992)" class="st8 st6 st23">C</text>
		<text transform="matrix(0.9744 -0.2247 0.2247 0.9744 301.7672 679.2421)" class="st8 st6 st23">G</text>
		<text transform="matrix(0.9744 -0.2247 0.2247 0.9744 318.0777 682.3591)" class="st8 st6 st23">U</text>
		<text transform="matrix(0.9744 -0.2247 0.2247 0.9744 334.4002 675.1279)" class="st8 st6 st23">A</text>
		<text transform="matrix(0.9744 -0.2247 0.2247 0.9744 355.9787 657.8474)" class="st8 st6 st23">A</text>
	</g>
	<g>
		<g id="fnr激活pnar_6_">
			<g>
				<line class="st11" x1="626.5" y1="742.7" x2="655.4" y2="745.7"/>
				<g>
					<polygon class="st12" points="645,756.1 643.3,753.9 654.3,745.6 645.2,735.2 647.3,733.3 658.4,746 					"/>
				</g>
			</g>
		</g>
		<path class="st29" d="M641,742.6"/>
		<path class="st29" d="M626.2,739.7"/>
		<g id="fnr激活pnar_1_">
			<g>
				<line class="st11" x1="661.3" y1="622.5" x2="718.3" y2="651.7"/>
				<g>
					<polygon class="st12" points="704.8,657.7 704,655 717.3,651.2 712.6,638.2 715.2,637.3 721,653.1 					"/>
				</g>
			</g>
		</g>
		<g>
			<line class="st29" x1="576.6" y1="721.1" x2="589.3" y2="721.1"/>
			<line class="st29" x1="582.9" y1="714.3" x2="582.9" y2="728.3"/>
		</g>
		<line class="st29" x1="610.5" y1="592" x2="623.2" y2="592"/>
		<line class="st29" x1="616.8" y1="585.1" x2="616.8" y2="599.1"/>
		<g>
			<g>
				<path class="st4" d="M715.4,552.3l-0.2-1.5c-0.3-1.8,0.5-3.6,2.1-4.6c6-3.7,8.2-12.6,1.4-19.5c-0.2-0.2-0.5-0.4-0.7-0.5
					c-10.6-5.4-19.9,2.8-18.5,11.8c0.7,4.8,4.3,8.5,8.8,9.6c1.8,0.4,3,2,3.3,3.7l0.2,1.5c0.3,1.8-0.5,3.6-2.1,4.6
					c-6,3.7-8.2,12.6-1.4,19.5c0.2,0.2,0.5,0.4,0.7,0.5c10.6,5.4,19.9-2.8,18.5-11.8c-0.7-4.8-4.3-8.5-8.8-9.6
					C717,555.6,715.7,554.1,715.4,552.3z"/>
				<text transform="matrix(0.9886 -0.1507 0.1507 0.9886 706.7141 540.7454)" class="st19 st30 st31">α</text>
				<text transform="matrix(0.9886 -0.1507 0.1507 0.9886 711.522 572.2825)" class="st19 st30 st31">β</text>
			</g>
			<text transform="matrix(0.9474 -0.3202 0.3202 0.9474 705.8075 561.9105)" class="st32 st6 st33">CI</text>
		</g>
		<g>
			<g>
				<path class="st4" d="M708.3,749.8l0-2c0-2.4,1.4-4.6,3.6-5.5c8.6-3.6,13.3-14.6,5.7-25c-0.2-0.3-0.5-0.6-0.9-0.8
					c-12.8-9.1-26.6-0.3-26.6,11.6c0,6.4,3.9,11.8,9.5,14.2c2.2,0.9,3.6,3.1,3.6,5.5v2c0,2.4-1.4,4.6-3.6,5.5
					c-8.6,3.6-13.3,14.6-5.7,25c0.2,0.3,0.5,0.6,0.9,0.8c12.8,9.1,26.6,0.3,26.6-11.6c0-6.4-3.9-11.8-9.5-14.2
					C709.7,754.4,708.3,752.2,708.3,749.8z"/>
			</g>
			<g>
				<path class="st4" d="M706.6,751.8l2.2-0.5c2.5-0.6,5.3,0.3,6.8,2.4c6.1,8.1,19.1,10.1,28.2-0.6c0.3-0.3,0.5-0.7,0.7-1.1
					c6.4-15.9-6.6-28.2-19.4-25c-6.8,1.7-11.7,7.3-12.7,13.8c-0.4,2.6-2.4,4.6-4.9,5.2l-2.2,0.5c-2.5,0.6-5.3-0.3-6.8-2.4
					c-6.1-8.1-19.1-10.1-28.2,0.6c-0.3,0.3-0.5,0.7-0.7,1.1c-6.4,15.9,6.6,28.2,19.4,25c6.8-1.7,11.7-7.3,12.7-13.8
					C702.1,754.5,704.1,752.4,706.6,751.8z"/>
				<text transform="matrix(0.2401 0.9708 -0.9708 0.2401 722.0441 737.8114)" class="st19 st30 st34">α</text>
				<text transform="matrix(0.2401 0.9708 -0.9708 0.2401 677.3987 748.8522)" class="st19 st30 st34">β</text>
			</g>
			<path class="st35" d="M699.6,742.3c1.8,0.8,3.1,2.4,3.5,4.3c0.7,0.1,1.4,0,2.1-0.2l2.2-0.5c0.5-0.1,0.9-0.3,1.4-0.5
				c0.4-1,1.1-1.8,1.9-2.4c6.3-2,10.8-7.8,10.8-14.8c0-2.3-0.5-4.6-1.5-6.6c-0.6-1.4-1.4-2.9-2.4-4.3c-0.2-0.3-0.5-0.6-0.9-0.8
				c-1.5-1.1-3.1-1.9-4.6-2.5c-0.1,0-0.1,0-0.2-0.1c-0.1,0-0.1,0-0.2-0.1c-1.8-0.7-3.7-1.1-5.8-1.1c0,0-0.1,0-0.1,0
				c-8.7-0.1-15.9,6.8-15.9,15.4C690,734.5,694,740,699.6,742.3z"/>
			<path class="st35" d="M721.6,769.3c0-7.2-4.8-13.2-11.4-15c-0.9-0.8-1.5-1.8-1.8-3l-2,0.5c-1.4,0.3-2.6,1.1-3.5,2.2
				c-7.1,1.4-12.5,7.7-12.5,15.3c0,0.4,0,0.7,0.1,1c-0.1,0.1-0.3,0.1-0.4,0.2c0.2,3.2,1.4,6.5,3.8,9.8c0.2,0.3,0.5,0.6,0.9,0.8
				c3.7,2.7,7.6,3.8,11.1,3.8c0.1,0,0.1,0,0.2,0c0.1,0,0.3,0,0.4,0c0.1,0,0.1,0,0.2,0C714.9,784.6,721.6,777.7,721.6,769.3z"/>
			<text transform="matrix(1.0153 0 0 1 699.2057 774.9191)" class="st36 st30 st37">β</text>
			<text transform="matrix(1.0153 0 0 1 699.2057 733.2648)" class="st36 st30 st37">α</text>
			<text transform="matrix(1 0 0 1 675.6949 759.4731)" class="st32 st6 st38">CI-CI</text>
		</g>
		<g>
			<g>
				<path class="st4" d="M646.2,577.6l-0.1-1.6c-0.2-1.8,0.7-3.6,2.4-4.4c6.2-3.3,9-12,2.6-19.4c-0.2-0.2-0.4-0.4-0.7-0.6
					c-10.2-6.1-20,1.5-19.3,10.6c0.4,4.9,3.7,8.8,8.1,10.2c1.7,0.6,2.9,2.2,3.1,4l0.1,1.6c0.2,1.8-0.7,3.6-2.4,4.4
					c-6.2,3.3-9,12-2.6,19.4c0.2,0.2,0.4,0.4,0.7,0.6c10.2,6.1,20-1.5,19.3-10.6c-0.4-4.9-3.7-8.8-8.1-10.2
					C647.5,581,646.4,579.4,646.2,577.6z"/>
				<text transform="matrix(0.9963 -8.606999e-02 8.606999e-02 0.9963 638.278 565.5616)" class="st19 st30 st31">α</text>
				<text transform="matrix(0.9963 -8.606999e-02 8.606999e-02 0.9963 641.0237 597.3446)" class="st19 st30 st31">β</text>
			</g>
			<text transform="matrix(0.9662 -0.2579 0.2579 0.9662 635.9451 586.6017)" class="st32 st6 st33">CI</text>
		</g>
		<g>
			<g>
				<path class="st4" d="M597.8,635l0.3-1.5c0.3-1.8,1.6-3.3,3.4-3.7c6.9-1.6,11.8-9.3,7.6-18.1c-0.1-0.3-0.3-0.5-0.5-0.8
					c-8.3-8.6-19.7-3.7-21.3,5.3c-0.8,4.8,1.3,9.4,5.2,11.9c1.5,1,2.2,2.8,1.9,4.6l-0.3,1.5c-0.3,1.8-1.6,3.3-3.4,3.7
					c-6.9,1.6-11.8,9.3-7.6,18.1c0.1,0.3,0.3,0.5,0.5,0.8c8.3,8.6,19.7,3.7,21.3-5.3c0.8-4.8-1.3-9.4-5.2-11.9
					C598.2,638.6,597.5,636.8,597.8,635z"/>
				<text transform="matrix(0.9848 0.1737 -0.1737 0.9848 593.2267 621.2317)" class="st19 st30 st31">α</text>
				<text transform="matrix(0.9848 0.1737 -0.1737 0.9848 587.6841 652.6478)" class="st19 st30 st31">β</text>
			</g>
			<text transform="matrix(1 0 0 1 585.6279 641.0144)" class="st32 st6 st33">CI</text>
		</g>
		<g>
			<g>
				<path class="st4" d="M555,708.6l-0.1-1.6c-0.2-1.8,0.7-3.6,2.4-4.4c6.2-3.3,9-12,2.6-19.4c-0.2-0.2-0.4-0.4-0.7-0.6
					c-10.2-6.1-20,1.5-19.3,10.6c0.4,4.9,3.7,8.8,8.1,10.2c1.7,0.6,2.9,2.2,3.1,4l0.1,1.6c0.2,1.8-0.7,3.6-2.4,4.4
					c-6.2,3.3-9,12-2.6,19.4c0.2,0.2,0.4,0.4,0.7,0.6c10.2,6.1,20-1.5,19.3-10.6c-0.4-4.9-3.7-8.8-8.1-10.2
					C556.3,712,555.2,710.4,555,708.6z"/>
				<text transform="matrix(0.9963 -8.606999e-02 8.606999e-02 0.9963 547.077 696.5216)" class="st19 st30 st31">α</text>
				<text transform="matrix(0.9963 -8.606999e-02 8.606999e-02 0.9963 549.8227 728.3046)" class="st19 st30 st31">β</text>
			</g>
			<text transform="matrix(0.9662 -0.2579 0.2579 0.9662 544.7441 717.5614)" class="st32 st6 st33">CI</text>
		</g>
		<g>
			<g>
				<path class="st4" d="M611.2,739.4l0.3-1.5c0.3-1.8,1.6-3.3,3.4-3.7c6.9-1.6,11.8-9.3,7.6-18.1c-0.1-0.3-0.3-0.5-0.5-0.8
					c-8.3-8.6-19.7-3.7-21.3,5.3c-0.8,4.8,1.3,9.4,5.2,11.9c1.5,1,2.2,2.8,1.9,4.6l-0.3,1.5c-0.3,1.8-1.6,3.3-3.4,3.7
					c-6.9,1.6-11.8,9.3-7.6,18.1c0.1,0.3,0.3,0.5,0.5,0.8c8.3,8.6,19.7,3.7,21.3-5.3c0.8-4.8-1.3-9.4-5.2-11.9
					C611.6,743,610.9,741.1,611.2,739.4z"/>
				<text transform="matrix(0.9848 0.1737 -0.1737 0.9848 606.5775 725.6047)" class="st19 st30 st31">α</text>
				<text transform="matrix(0.9848 0.1737 -0.1737 0.9848 601.035 757.0209)" class="st19 st30 st31">β</text>
			</g>
			<text transform="matrix(1 0 0 1 598.9789 745.3874)" class="st32 st6 st33">CI</text>
		</g>
		<g>
			<line class="st39" x1="598.7" y1="627.9" x2="603.2" y2="627.9"/>
			<line class="st39" x1="598.9" y1="640.4" x2="603.4" y2="640.3"/>
		</g>
		<g>
			<line class="st39" x1="645.4" y1="570.5" x2="649.6" y2="569.3"/>
			<line class="st39" x1="648.7" y1="582.5" x2="653" y2="581.2"/>
		</g>
		<g>
			<line class="st39" x1="714.4" y1="545.6" x2="718.4" y2="544.3"/>
			<line class="st39" x1="718.2" y1="556.9" x2="722.3" y2="555.5"/>
		</g>
		<g>
			<g>
				<g>
					<path class="st4" d="M778.1,676.3v-2.5c0-2.9,1.7-5.6,4.4-6.7c10.6-4.4,16.3-17.9,7-30.6c-0.3-0.4-0.7-0.8-1.1-1
						c-15.7-11.2-32.7-0.4-32.7,14.3c0,7.8,4.8,14.5,11.7,17.4c2.7,1.1,4.4,3.8,4.4,6.7l0,2.5c0,2.9-1.7,5.6-4.4,6.7
						c-10.6,4.4-16.3,17.9-7,30.6c0.3,0.4,0.7,0.8,1.1,1c15.7,11.2,32.7,0.4,32.7-14.3c0-7.8-4.8-14.5-11.7-17.4
						C779.8,681.9,778.1,679.2,778.1,676.3z"/>
				</g>
				<g>
					<path class="st4" d="M776,678.7l2.7-0.7c3.1-0.8,6.4,0.3,8.4,2.9c7.5,10,23.5,12.4,34.6-0.7c0.3-0.4,0.6-0.9,0.8-1.4
						c7.9-19.5-8.1-34.6-23.8-30.7c-8.4,2.1-14.3,8.9-15.6,17c-0.5,3.2-3,5.7-6.1,6.4l-2.7,0.7c-3.1,0.8-6.4-0.3-8.4-2.9
						c-7.5-10-23.5-12.4-34.6,0.7c-0.3,0.4-0.6,0.9-0.8,1.4c-7.9,19.5,8.1,34.6,23.8,30.7c8.4-2.1,14.3-8.9,15.6-17
						C770.4,682,772.9,679.5,776,678.7z"/>
					<text transform="matrix(0.2401 0.9708 -0.9708 0.2401 794.9366 661.5491)" class="st19 st30 st40">α</text>
					<text transform="matrix(0.2401 0.9708 -0.9708 0.2401 740.1825 675.0898)" class="st19 st30 st40">β</text>
				</g>
				<path class="st35" d="M767.4,667.1c2.3,0.9,3.8,3,4.2,5.3c0.9,0.1,1.7,0,2.6-0.2l2.7-0.7c0.6-0.1,1.2-0.4,1.7-0.6
					c0.5-1.2,1.3-2.2,2.4-3c7.7-2.4,13.2-9.6,13.2-18.1c0-2.9-0.7-5.6-1.8-8c-0.7-1.8-1.7-3.5-3-5.3c-0.3-0.4-0.7-0.8-1.1-1
					c-1.9-1.3-3.8-2.4-5.6-3.1c-0.1,0-0.1-0.1-0.2-0.1c-0.1,0-0.1,0-0.2-0.1c-2.2-0.9-4.6-1.4-7.1-1.4c0,0-0.1,0-0.1,0
					c-10.7-0.1-19.4,8.4-19.4,18.9C755.7,657.5,760.5,664.2,767.4,667.1z"/>
				<path class="st35" d="M794.4,700.2c0-8.8-5.9-16.2-14-18.4c-1.1-1-1.8-2.2-2.2-3.6l-2.4,0.6c-1.7,0.4-3.2,1.4-4.4,2.7
					c-8.7,1.8-15.3,9.5-15.3,18.7c0,0.4,0,0.8,0.1,1.3c-0.2,0.1-0.3,0.1-0.5,0.2c0.3,3.9,1.7,8,4.6,12c0.3,0.4,0.7,0.8,1.1,1
					c4.6,3.3,9.3,4.7,13.7,4.6c0.1,0,0.2,0,0.2,0c0.2,0,0.3,0,0.5,0c0.1,0,0.1,0,0.2,0C786.2,718.9,794.4,710.5,794.4,700.2z"/>
				<text transform="matrix(1.0153 0 0 1 766.9368 707.0668)" class="st36 st30 st41">β</text>
				<text transform="matrix(1.0153 0 0 1 766.9368 655.9818)" class="st36 st30 st41">α</text>
				<text transform="matrix(1 0 0 1 737.0594 687.3818)" class="st32 st6 st42">CI-CI</text>
			</g>
			<g>
				<line class="st43" x1="760.6" y1="665" x2="768.2" y2="665"/>
				<line class="st43" x1="760.6" y1="686.2" x2="768.2" y2="686.2"/>
			</g>
			<g>
				<line class="st43" x1="803.9" y1="665" x2="811.4" y2="665"/>
				<line class="st43" x1="803.9" y1="686.2" x2="811.4" y2="686.2"/>
			</g>
		</g>
		<g>
			<line class="st43" x1="695.1" y1="740.9" x2="701.3" y2="740.9"/>
			<line class="st43" x1="695.1" y1="758.2" x2="701.3" y2="758.2"/>
		</g>
		<g>
			<line class="st43" x1="730.1" y1="741.2" x2="736.3" y2="741.2"/>
			<line class="st43" x1="730.1" y1="758.4" x2="736.3" y2="758.4"/>
		</g>
		<g>
			<line class="st39" x1="612.3" y1="732.8" x2="616.7" y2="732.8"/>
			<line class="st39" x1="612.1" y1="745.2" x2="616.6" y2="745.3"/>
		</g>
		<g>
			<line class="st39" x1="554.2" y1="701.7" x2="558.5" y2="700.6"/>
			<line class="st39" x1="557.4" y1="713.8" x2="561.7" y2="712.6"/>
		</g>
	</g>
	<text transform="matrix(1 0 0 1 587.2639 687.3819)" class="st12 st6 st44">POLYMERIZATION</text>
</g>
<g id="_x36_.">
	<g>
		<path class="st17" d="M889.1,444.9l-12.5,41.9l13.8-7.2c6.7,14.4,28.2,61.7,8.2,123.2c-16.7,51.5-61.7,80.3-61.7,80.3
			s50.6-20.6,78.3-85.3c26-60.7,2.2-119.7-1.9-130.2l12.2-6.4L889.1,444.9z"/>
		<path class="st17" d="M957.4,657.1l-23.9-2.7c-0.6-0.1-0.9-0.7-0.7-1.3l2.2-5.9c0.3-0.7,0-1.4-0.5-1.9c-6-6.5-11-12.3-21.4-14
			c-10.8-1.8-24,4.7-24,4.7s11.2-10.7,22.2-9.9c11,0.8,18.8,3.9,26.8,12.4c0.6,0.6,1.5,0.2,1.9-0.6l2-3.7c0.3-0.6,1.1-0.7,1.4-0.1
			l14.8,21.4C958.7,656.2,958.2,657.2,957.4,657.1z"/>
	</g>
	<text transform="matrix(1 0 0 1 947.505 530.6633)" class="st6 st18">INHIBITION</text>
</g>
<g id="_x37_.cijiangjie">
	<g>
		<g>
			<path class="st4" d="M971.5,723.6l0.2-1.2c0.2-1.4,1.3-2.5,2.6-2.8c5.3-1.2,9-7.1,5.8-13.8c-0.1-0.2-0.2-0.4-0.4-0.6
				c-6.3-6.5-15.1-2.9-16.3,4c-0.6,3.7,1,7.2,4,9.1c1.2,0.8,1.7,2.2,1.5,3.5l-0.2,1.2c-0.2,1.4-1.3,2.5-2.6,2.8
				C960.8,727.1,971.3,724.9,971.5,723.6z"/>
			<text transform="matrix(0.9848 0.1737 -0.1737 0.9848 968.0488 713.0365)" class="st19 st30 st45">α</text>
		</g>
	</g>
	<g>
		<g>
			<path class="st4" d="M1019.1,698.4"/>
			<path class="st4" d="M1032.6,667.1v-2c0-2.4,1.4-4.6,3.6-5.5c8.6-3.6,13.3-14.6,5.7-25c-0.2-0.3-0.5-0.6-0.9-0.8
				c-12.8-9.1-26.6-0.3-26.6,11.6c0,6.4,3.9,11.8,9.5,14.2c2.2,0.9,3.6,3.1,3.6,5.5v2c0,2.4-1.4,4.6-3.6,5.5"/>
		</g>
		<g>
			<path class="st46" d="M1030.8,669.1l2.2-0.5c2.5-0.6,5.3,0.3,6.8,2.4c1.7,2.2,7,3.4,10.8,1.3c2.1-1.2,3.5-3.4,3-7
				c-0.4-3.2-6.8,0.3-5.4-7.9c1.1-6.6,7.1-1.4,7.1-6c0-4.7-2.5-7.2-6-7.2c-7,0-11.7,7.3-12.7,13.8c-0.4,2.6-2.4,4.6-4.9,5.2
				l-2.2,0.5c-2.5,0.6-5.3-0.3-6.8-2.4c-6.1-8.1-19.1-10.1-28.2,0.6c-0.3,0.3-0.5,0.7-0.7,1.1c-6.4,15.9,8.1,27.9,20.9,24.7
				c1.1-0.3-3.7-0.7-4.5-4c-0.6-2.6-0.1-6,3.1-8.2c2.1-1.5,6.5-0.7,8.3,1.1c2.3,2.2,1.5,6.8,2.5,3.3
				C1024.8,677.5,1028.3,669.7,1030.8,669.1z"/>
			<text transform="matrix(0.2401 0.9708 -0.9708 0.2401 1001.6564 666.1383)" class="st19 st30 st34">β</text>
		</g>
		<path class="st35" d="M1023.8,659.6c1.8,0.8,3.1,2.4,3.5,4.3c0.7,0.1,1.4,0,2.1-0.2l2.2-0.5c0.5-0.1,0.9-0.3,1.4-0.5
			c0.4-1,1.1-1.8,1.9-2.4c6.3-2,10.8-7.8,10.8-14.8c0-2.3-0.5-4.6-1.5-6.6c-0.6-1.4-1.4-2.9-2.4-4.3c-0.2-0.3-0.5-0.6-0.9-0.8
			c-1.5-1.1-3.1-1.9-4.6-2.5c-0.1,0-0.1,0-0.2-0.1c-0.1,0-0.1,0-0.2-0.1c-1.8-0.7-3.7-1.1-5.8-1.1c0,0-0.1,0-0.1,0
			c-8.7-0.1-15.9,6.8-15.9,15.4C1014.3,651.8,1018.2,657.3,1023.8,659.6z"/>
		<text transform="matrix(1.0153 0 0 1 1023.4634 650.5508)" class="st36 st30 st37">α</text>
		<text transform="matrix(1 0 0 1 999.9526 676.8529)" class="st32 st6 st38">CI-</text>
		<circle class="st19" cx="1032.7" cy="691.5" r="5.2"/>
		<circle class="st36" cx="1060.1" cy="686.2" r="3.9"/>
		<circle class="st36" cx="1067" cy="666.6" r="3"/>
		<circle class="st19" cx="1057.6" cy="701.6" r="1.4"/>
		<line class="st47" x1="1057.6" y1="659.3" x2="1057.6" y2="664.9"/>
		<line class="st47" x1="1057.6" y1="669.5" x2="1057.6" y2="669.7"/>
		<line class="st47" x1="1046.3" y1="675.1" x2="1046.1" y2="675.2"/>
		<path class="st47" d="M1050.7,662.7c-0.3-0.6-1.2-2.1-3.1-3c-2-1-4.3-0.9-6.1,0.2c-3.5,2-3.2,7-3.1,8.1c0.1,2.5,1.1,4.3,1.7,5.3"
			/>
	</g>
	<line class="st48" x1="977.9" y1="714.2" x2="977.9" y2="718.5"/>
	<line class="st48" x1="977.9" y1="722" x2="977.9" y2="722.2"/>
	<line class="st48" x1="969.4" y1="726.3" x2="969.2" y2="726.4"/>
	<path class="st48" d="M972.7,716.8c-0.2-0.4-0.9-1.6-2.4-2.3c-1.5-0.7-3.3-0.7-4.7,0.1c-2.7,1.5-2.4,5.3-2.4,6.2
		c0.1,1.9,0.8,3.3,1.3,4"/>
	<circle class="st19" cx="964.5" cy="735" r="4.4"/>
	<circle class="st36" cx="978.2" cy="740.4" r="1.9"/>
	<g>
		<line class="st43" x1="1019.2" y1="658.8" x2="1025.2" y2="658.8"/>
		<line class="st43" x1="1019.2" y1="675.6" x2="1025.2" y2="675.6"/>
	</g>
	<line class="st49" x1="1054.5" y1="658.2" x2="1060.6" y2="658.2"/>
	<line class="st50" x1="1006.7" y1="686.1" x2="1012.7" y2="686.1"/>
	<text transform="matrix(1 0 0 1 1081.9696 714.2406)" class="st6 st18">DEGRADATION</text>
	<g id="_x38_.tohold">
		<g>
			<line class="st2" x1="650.9" y1="370.3" x2="988.8" y2="370.3"/>
			<g>
				<path class="st5" d="M732.7,342.3c0.5,0.5,0.5,1.4,0,1.9l-5.9,5.5l-4.6,4.4c-0.8,0.8-2.2,0.2-2.2-0.9v-5.4h-9.8
					c-0.7,0-1.3,0.6-1.3,1.3v21h-8.8v-30c0-0.7,0.6-1.3,1.3-1.3H720v-5.4c0-1.1,1.4-1.7,2.2-0.9l4.6,4.4L732.7,342.3z"/>
			</g>
			<text transform="matrix(1 0 0 1 693.3531 393.6829)"><tspan x="0" y="0" class="st5 st6 st51">P</tspan><tspan x="11.5" y="0" class="st5 st6 st52">Cl</tspan></text>
			<path class="st53" d="M930.2,370.3c0-0.4,0-0.9,0-0.9c0-7.2,6.6-13.1,14.6-13.1h26.4c8.4,0,15.1,6.4,14.6,14
				c0.6,7.6-6.2,14-14.6,14h-26.4c-8,0-14.6-5.9-14.6-13.1C930.2,371.2,930.2,370.7,930.2,370.3z"/>
			<text transform="matrix(0.9397 0 -0.342 0.9397 932.1956 375.6323)" class="st8 st6 st54">mazF</text>
			<path class="st53" d="M921.9,369.4c0-0.4,0-0.9,0-0.9c0-7.2-7.2-13.1-15.9-13.1H796.1c-9.1,0-16.5,6.4-15.9,14
				c-0.6,7.6,6.8,14,15.9,14h109.8c8.8,0,15.9-5.9,15.9-13.1C921.9,370.2,921.9,369.8,921.9,369.4z"/>
			<text transform="matrix(0.9397 0 -0.342 0.9397 786.915 375.6323)" class="st8 st6 st54">toehold switch</text>
			<line class="st55" x1="662.8" y1="370.3" x2="748.2" y2="370.3"/>
			<g>
				<polyline class="st12" points="708.9,370.8 700.1,370.8 700.1,363.3 				"/>
			</g>
			<path class="st2" d="M704.3,370.3c0.7-7-5.5-11.9-11.6-10.4c-0.7,0.2-1.4,0.4-2,0.8c0,0-0.3-2.5-0.8-3.6
				c-0.3-0.8-0.8-1.6-1.4-2.4c-0.1-0.2-0.3-0.3-0.5-0.5c-0.8-0.6-1.7-1.1-2.5-1.4c0,0-0.1,0-0.1,0c0,0-0.1,0-0.1,0
				c-1-0.4-2.1-0.6-3.2-0.6c0,0,0,0,0,0c-4.8-0.1-8.8,3.8-8.8,8.5c0,3.5,2.2,6.5,5.3,7.8c1,0.4,0,1.8-0.6,1
				c-3.4-4.5-10.6-5.6-15.6,0.3c-0.2,0.2-0.3,0.4-0.4,0.6"/>
			<path class="st2" d="M747.4,370.4c0-7.4-5.3-12-11.6-10.5c-0.7,0.2-1.4,0.4-2,0.8c0,0,0,0,0,0c0-1.3-0.3-2.5-0.8-3.6
				c-0.3-0.8-0.8-1.6-1.4-2.4c-0.1-0.2-0.3-0.3-0.5-0.5c-0.8-0.6-1.7-1.1-2.5-1.4c0,0-0.1,0-0.1,0c0,0-0.1,0-0.1,0
				c-1-0.4-2.1-0.6-3.2-0.6c0,0,0,0,0,0c-4.8-0.1-8.8,3.8-8.8,8.5c0,3.5,2.2,6.5,5.3,7.8c1,0.4,0,1.8-0.6,1
				c-3.4-4.5-10.6-5.6-15.6,0.3c-0.2,0.2-0.3,0.4-0.4,0.6 M724,370.8"/>
			<g>
				<path class="st5" d="M708.6,336.7"/>
			</g>
			<g>
				<g>
					<g>
						<path class="st4" d="M635,352.3l-0.3-1.1c-0.3-1.2,0.1-2.6,1.2-3.3c4-3,5-9.4-0.3-13.8c-0.2-0.1-0.4-0.3-0.6-0.3
							c-7.9-3.1-13.9,3.3-12.4,9.6c0.8,3.3,3.6,5.7,6.8,6.1c1.3,0.2,2.3,1.2,2.6,2.4l0.3,1.1c0.3,1.2-0.1,2.6-1.2,3.3
							c-4,3-5,9.4,0.3,13.8c0.2,0.1,0.4,0.3,0.6,0.3c7.9,3.1,13.9-3.3,12.4-9.6c-0.8-3.3-3.6-5.7-6.8-6.1
							C636.3,354.5,635.3,353.5,635,352.3z"/>
					</g>
					<g>
						<path class="st4" d="M634.3,353.5l1.1-0.6c1.2-0.7,2.8-0.6,3.9,0.3c4.3,3.4,11.3,2.8,14.7-4c0.1-0.2,0.2-0.4,0.2-0.7
							c1.3-9.1-7.2-13.8-13.4-10.5c-3.3,1.8-5.1,5.3-4.8,8.9c0.1,1.4-0.7,2.7-1.9,3.4l-1.1,0.6c-1.2,0.7-2.8,0.6-3.9-0.3
							c-4.3-3.4-11.3-2.8-14.7,4c-0.1,0.2-0.2,0.4-0.2,0.7c-1.3,9.1,7.2,13.8,13.4,10.5c3.3-1.8,5.1-5.3,4.8-8.9
							C632.3,355.5,633.1,354.2,634.3,353.5z"/>
						<text transform="matrix(0.471 0.8822 -0.8822 0.471 640.5147 344.1882)" class="st19 st30 st56">α</text>
						<text transform="matrix(0.471 0.8822 -0.8822 0.471 618.6838 355.8428)" class="st19 st30 st56">β</text>
					</g>
					<path class="st35" d="M629.4,349.5c1.1,0.2,1.9,0.9,2.4,1.8c0.4-0.1,0.7-0.2,1.1-0.4l1.1-0.6c0.2-0.1,0.5-0.3,0.7-0.5
						c0.1-0.6,0.3-1.1,0.7-1.5c3-1.9,4.6-5.5,3.7-9.1c-0.3-1.2-0.9-2.3-1.6-3.2c-0.5-0.7-1.1-1.3-1.8-1.9c-0.2-0.1-0.4-0.3-0.6-0.3
						c-0.9-0.4-1.9-0.6-2.7-0.7c0,0-0.1,0-0.1,0c0,0-0.1,0-0.1,0c-1-0.1-2.1-0.1-3.2,0.2c0,0,0,0,0,0c-4.6,1.1-7.4,5.7-6.2,10.1
						C623.4,346.7,626.2,349,629.4,349.5z"/>
					<path class="st35" d="M644.5,360.7c-0.9-3.7-4.3-6.2-7.9-6.3c-0.6-0.3-1-0.8-1.3-1.3l-1,0.5c-0.7,0.4-1.2,0.9-1.6,1.6
						c-3.5,1.7-5.5,5.7-4.5,9.6c0,0.2,0.1,0.4,0.2,0.5c-0.1,0-0.1,0.1-0.2,0.1c0.5,1.6,1.6,3.2,3.3,4.6c0.2,0.1,0.4,0.3,0.6,0.3
						c2.3,0.9,4.5,1,6.3,0.5c0,0,0.1,0,0.1,0c0.1,0,0.1,0,0.2-0.1c0,0,0.1,0,0.1,0C643,369.5,645.6,365.1,644.5,360.7z"/>
					<text transform="matrix(0.9843 -0.2492 0.2454 0.9694 633.5214 366.5423)" class="st36 st30 st57">β</text>
					<text transform="matrix(0.9843 -0.2492 0.2454 0.9694 628.021 344.8136)" class="st36 st30 st57">α</text>
				</g>
			</g>
			<g>
				<text transform="matrix(0.9694 -0.2454 0.2454 0.9694 618.6923 361.386)" class="st32 st6 st58">CI-CI</text>
				<g>
					<line class="st39" x1="626.3" y1="349.4" x2="629.5" y2="348.5"/>
					<line class="st39" x1="628.6" y1="358.4" x2="631.8" y2="357.5"/>
				</g>
				<g>
					<line class="st39" x1="644.7" y1="344.7" x2="647.9" y2="343.9"/>
					<line class="st39" x1="647" y1="353.7" x2="650.2" y2="352.9"/>
				</g>
			</g>
			<text transform="matrix(0.9077 0 0 1 644.7449 332.9717)" class="st19 st30 st59">？</text>
		</g>
		<g>
			<line class="st2" x1="650.9" y1="245.9" x2="988.8" y2="245.9"/>
			<g>
				<path class="st5" d="M732.7,217.8c0.5,0.5,0.5,1.4,0,1.9l-5.9,5.5l-4.6,4.4c-0.8,0.8-2.2,0.2-2.2-0.9v-5.4h-9.8
					c-0.7,0-1.3,0.6-1.3,1.3v21h-8.8v-30c0-0.7,0.6-1.3,1.3-1.3H720v-5.4c0-1.1,1.4-1.7,2.2-0.9l4.6,4.4L732.7,217.8z"/>
			</g>
			<text transform="matrix(1 0 0 1 693.3531 280.4461)"><tspan x="0" y="0" class="st5 st6 st51">P</tspan><tspan x="11.5" y="0" class="st5 st6 st52">Cl</tspan></text>
			<path class="st60" d="M930.2,245.9c0-0.4,0-0.9,0-0.9c0-7.2,6.5-13.1,14.4-13.1h26c8.2,0,14.9,6.4,14.4,14
				c0.5,7.6-6.1,14-14.4,14h-26c-7.9,0-14.4-5.9-14.4-13.1C930.2,246.7,930.2,246.3,930.2,245.9z"/>
			<text transform="matrix(0.9397 0 -0.342 0.9397 932.1962 251.1904)" class="st8 st6 st54">mazF</text>
			<path class="st60" d="M921.9,244.9c0-0.4,0-0.9,0-0.9c0-7.2-7.2-13.1-15.9-13.1H796.1c-9.1,0-16.5,6.4-15.9,14
				c-0.6,7.6,6.8,14,15.9,14h109.8c8.8,0,15.9-5.9,15.9-13.1C921.9,245.8,921.9,245.4,921.9,244.9z"/>
			<text transform="matrix(0.9397 0 -0.342 0.9397 786.9148 251.1904)" class="st8 st6 st54">toehold switch</text>
			<line class="st55" x1="662.8" y1="245.9" x2="748.2" y2="245.9"/>
			<g>
				<polyline class="st12" points="708.9,246.3 700.1,246.3 700.1,238.8 				"/>
			</g>
			<g>
				<g>
					<g>
						<path class="st4" d="M683.4,248.1V247c0-1.3,0.8-2.5,1.9-3c4.6-1.9,7.1-7.9,3.1-13.4c-0.1-0.2-0.3-0.3-0.5-0.5
							c-6.9-4.9-14.3-0.2-14.3,6.3c0,3.4,2.1,6.4,5.1,7.6c1.2,0.5,1.9,1.7,1.9,3v1.1c0,1.3-0.8,2.5-1.9,3c-4.6,1.9-7.1,7.9-3.1,13.4
							c0.1,0.2,0.3,0.3,0.5,0.5c6.9,4.9,14.3,0.2,14.3-6.3c0-3.4-2.1-6.4-5.1-7.6C684.2,250.5,683.4,249.4,683.4,248.1z"/>
					</g>
					<g>
						<path class="st4" d="M682.5,249.1l1.2-0.3c1.4-0.3,2.8,0.1,3.7,1.3c3.3,4.4,10.3,5.5,15.2-0.3c0.2-0.2,0.3-0.4,0.4-0.6
							c3.5-8.6-3.6-15.2-10.5-13.5c-3.7,0.9-6.3,3.9-6.8,7.4c-0.2,1.4-1.3,2.5-2.7,2.8l-1.2,0.3c-1.4,0.3-2.8-0.1-3.7-1.3
							c-3.3-4.4-10.3-5.5-15.2,0.3c-0.2,0.2-0.3,0.4-0.4,0.6c-3.5,8.6,3.6,15.2,10.5,13.5c3.7-0.9,6.3-3.9,6.8-7.4
							C680,250.6,681.1,249.5,682.5,249.1z"/>
						<text transform="matrix(0.2401 0.9708 -0.9708 0.2401 690.8018 241.6329)" class="st19 st30 st56">α</text>
						<text transform="matrix(0.2401 0.9708 -0.9708 0.2401 666.7783 247.5739)" class="st19 st30 st56">β</text>
					</g>
					<path class="st35" d="M678.7,244c1,0.4,1.7,1.3,1.9,2.3c0.4,0,0.8,0,1.1-0.1l1.2-0.3c0.3-0.1,0.5-0.2,0.7-0.3
						c0.2-0.5,0.6-1,1-1.3c3.4-1.1,5.8-4.2,5.8-7.9c0-1.3-0.3-2.5-0.8-3.5c-0.3-0.8-0.8-1.5-1.3-2.3c-0.1-0.2-0.3-0.3-0.5-0.5
						c-0.8-0.6-1.7-1-2.5-1.4c0,0-0.1,0-0.1,0c0,0-0.1,0-0.1,0c-1-0.4-2-0.6-3.1-0.6c0,0,0,0,0,0c-4.7-0.1-8.5,3.7-8.5,8.3
						C673.6,239.8,675.7,242.8,678.7,244z"/>
					<path class="st35" d="M690.6,258.6c0-3.9-2.6-7.1-6.2-8.1c-0.5-0.4-0.8-1-1-1.6l-1,0.3c-0.8,0.2-1.4,0.6-1.9,1.2
						c-3.8,0.8-6.7,4.2-6.7,8.2c0,0.2,0,0.4,0,0.6c-0.1,0-0.2,0.1-0.2,0.1c0.1,1.7,0.7,3.5,2,5.3c0.1,0.2,0.3,0.3,0.5,0.5
						c2,1.4,4.1,2,6,2c0,0,0.1,0,0.1,0c0.1,0,0.1,0,0.2,0c0,0,0.1,0,0.1,0C687,266.8,690.6,263.1,690.6,258.6z"/>
					<text transform="matrix(1.0153 0 0 1 678.4977 261.5882)" class="st36 st30 st57">β</text>
					<text transform="matrix(1.0153 0 0 1 678.4977 239.1741)" class="st36 st30 st57">α</text>
				</g>
			</g>
			<path class="st2" d="M704.3,245.9c0.7-7-5.5-11.9-11.6-10.4c-0.7,0.2-1.4,0.4-2,0.8c0,0-0.3-2.5-0.8-3.6
				c-0.3-0.8-0.8-1.6-1.4-2.4c-0.1-0.2-0.3-0.3-0.5-0.5c-0.8-0.6-1.7-1.1-2.5-1.4c0,0-0.1,0-0.1,0c0,0-0.1,0-0.1,0
				c-1-0.4-2.1-0.6-3.2-0.6c0,0,0,0,0,0c-4.8-0.1-8.8,3.8-8.8,8.5c0,3.5,2.2,6.5,5.3,7.8c1,0.4,0,1.8-0.6,1
				c-3.4-4.5-10.6-5.6-15.6,0.3c-0.2,0.2-0.3,0.4-0.4,0.6"/>
			<path class="st2" d="M747.4,246c0-7.4-5.3-12-11.6-10.5c-0.7,0.2-1.4,0.4-2,0.8c0,0,0,0,0,0c0-1.3-0.3-2.5-0.8-3.6
				c-0.3-0.8-0.8-1.6-1.4-2.4c-0.1-0.2-0.3-0.3-0.5-0.5c-0.8-0.6-1.7-1.1-2.5-1.4c0,0-0.1,0-0.1,0c0,0-0.1,0-0.1,0
				c-1-0.4-2.1-0.6-3.2-0.6c0,0,0,0,0,0c-4.8-0.1-8.8,3.8-8.8,8.5c0,3.5,2.2,6.5,5.3,7.8c1,0.4,0,1.8-0.6,1
				c-3.4-4.5-10.6-5.6-15.6,0.3c-0.2,0.2-0.3,0.4-0.4,0.6 M724,246.4"/>
			<g>
				<text transform="matrix(1 0 0 1 665.3873 252.9505)" class="st32 st6 st58">CI-CI</text>
				<g>
					<line class="st39" x1="675.7" y1="243.1" x2="679" y2="243.1"/>
					<line class="st39" x1="675.7" y1="252.4" x2="679" y2="252.4"/>
				</g>
				<g>
					<line class="st39" x1="694.7" y1="243.1" x2="698" y2="243.1"/>
					<line class="st39" x1="694.7" y1="252.4" x2="698" y2="252.4"/>
				</g>
			</g>
		</g>
		<g>
			<line class="st2" x1="650.9" y1="127.5" x2="988.8" y2="127.5"/>
			<g>
				<path class="st5" d="M732.7,99.5c0.5,0.5,0.5,1.4,0,1.9l-5.9,5.5l-4.6,4.4c-0.8,0.8-2.2,0.2-2.2-0.9V105h-9.8
					c-0.7,0-1.3,0.6-1.3,1.3v21h-8.8v-30c0-0.7,0.6-1.3,1.3-1.3H720v-5.4c0-1.1,1.4-1.7,2.2-0.9l4.6,4.4L732.7,99.5z"/>
			</g>
			<text transform="matrix(1 0 0 1 693.3531 162.1342)"><tspan x="0" y="0" class="st5 st6 st51">P</tspan><tspan x="11.5" y="0" class="st5 st6 st52">Cl</tspan></text>
			<path class="st61" d="M930.2,127.5c0-0.4,0-0.9,0-0.9c0-7.2,6.5-13.1,14.5-13.1h26.1c8.3,0,15,6.4,14.4,14
				c0.5,7.6-6.2,14-14.4,14h-26.1c-7.9,0-14.5-5.9-14.5-13.1C930.2,128.4,930.2,128,930.2,127.5z"/>
			<text transform="matrix(0.9397 0 -0.342 0.9397 932.1963 132.8794)" class="st8 st6 st54">mazF</text>
			<path class="st61" d="M921.9,126.6c0-0.4,0-0.9,0-0.9c0-7.2-7.2-13.1-15.9-13.1H796.1c-9.1,0-16.5,6.4-15.9,14
				c-0.6,7.6,6.8,14,15.9,14h109.8c8.8,0,15.9-5.9,15.9-13.1C921.9,127.5,921.9,127.1,921.9,126.6z"/>
			<text transform="matrix(0.9397 0 -0.342 0.9397 786.9149 132.8795)" class="st8 st6 st54">toehold switch</text>
			<line class="st55" x1="662.8" y1="127.5" x2="748.2" y2="127.5"/>
			<g>
				<polyline class="st12" points="708.9,128 700.1,128 700.1,120.5 				"/>
			</g>
			<g>
				<g>
					<g>
						<path class="st4" d="M683.4,129.8v-1.1c0-1.3,0.8-2.5,1.9-3c4.6-1.9,7.1-7.9,3.1-13.4c-0.1-0.2-0.3-0.3-0.5-0.5
							c-6.9-4.9-14.3-0.2-14.3,6.3c0,3.4,2.1,6.4,5.1,7.6c1.2,0.5,1.9,1.7,1.9,3v1.1c0,1.3-0.8,2.5-1.9,3c-4.6,1.9-7.1,7.9-3.1,13.4
							c0.1,0.2,0.3,0.3,0.5,0.5c6.9,4.9,14.3,0.2,14.3-6.3c0-3.4-2.1-6.4-5.1-7.6C684.2,132.3,683.4,131.1,683.4,129.8z"/>
					</g>
					<g>
						<path class="st4" d="M682.5,130.9l1.2-0.3c1.4-0.3,2.8,0.1,3.7,1.3c3.3,4.4,10.3,5.5,15.2-0.3c0.2-0.2,0.3-0.4,0.4-0.6
							c3.5-8.6-3.6-15.2-10.5-13.5c-3.7,0.9-6.3,3.9-6.8,7.4c-0.2,1.4-1.3,2.5-2.7,2.8l-1.2,0.3c-1.4,0.3-2.8-0.1-3.7-1.3
							c-3.3-4.4-10.3-5.5-15.2,0.3c-0.2,0.2-0.3,0.4-0.4,0.6c-3.5,8.6,3.6,15.2,10.5,13.5c3.7-0.9,6.3-3.9,6.8-7.4
							C680.1,132.3,681.1,131.2,682.5,130.9z"/>
						<text transform="matrix(0.2401 0.9708 -0.9708 0.2401 690.8321 123.3402)" class="st19 st30 st56">α</text>
						<text transform="matrix(0.2401 0.9708 -0.9708 0.2401 666.8086 129.2813)" class="st19 st30 st56">β</text>
					</g>
					<path class="st35" d="M678.7,125.7c1,0.4,1.7,1.3,1.9,2.3c0.4,0,0.8,0,1.1-0.1l1.2-0.3c0.3-0.1,0.5-0.2,0.7-0.3
						c0.2-0.5,0.6-1,1-1.3c3.4-1.1,5.8-4.2,5.8-7.9c0-1.3-0.3-2.5-0.8-3.5c-0.3-0.8-0.8-1.5-1.3-2.3c-0.1-0.2-0.3-0.3-0.5-0.5
						c-0.8-0.6-1.7-1-2.5-1.4c0,0-0.1,0-0.1,0c0,0-0.1,0-0.1,0c-1-0.4-2-0.6-3.1-0.6c0,0,0,0,0,0c-4.7-0.1-8.5,3.7-8.5,8.3
						C673.6,121.5,675.7,124.5,678.7,125.7z"/>
					<path class="st35" d="M690.6,140.3c0-3.9-2.6-7.1-6.2-8.1c-0.5-0.4-0.8-1-1-1.6l-1,0.3c-0.8,0.2-1.4,0.6-1.9,1.2
						c-3.8,0.8-6.7,4.2-6.7,8.2c0,0.2,0,0.4,0,0.6c-0.1,0-0.2,0.1-0.2,0.1c0.1,1.7,0.7,3.5,2,5.3c0.1,0.2,0.3,0.3,0.5,0.5
						c2,1.4,4.1,2,6,2c0,0,0.1,0,0.1,0c0.1,0,0.1,0,0.2,0c0,0,0.1,0,0.1,0C687,148.5,690.6,144.8,690.6,140.3z"/>
					<text transform="matrix(1.0153 0 0 1 678.528 143.2953)" class="st36 st30 st57">β</text>
					<text transform="matrix(1.0153 0 0 1 678.528 120.8822)" class="st36 st30 st57">α</text>
				</g>
			</g>
			<g>
				<g>
					<g>
						<path class="st4" d="M726.6,129.5v-1.1c0-1.3,0.8-2.5,1.9-3c4.6-1.9,7.1-7.9,3.1-13.4c-0.1-0.2-0.3-0.3-0.5-0.5
							c-6.9-4.9-14.3-0.2-14.3,6.3c0,3.4,2.1,6.4,5.1,7.6c1.2,0.5,1.9,1.7,1.9,3v1.1c0,1.3-0.8,2.5-1.9,3c-4.6,1.9-7.1,7.9-3.1,13.4
							c0.1,0.2,0.3,0.3,0.5,0.5c6.9,4.9,14.3,0.2,14.3-6.3c0-3.4-2.1-6.4-5.1-7.6C727.4,132,726.6,130.8,726.6,129.5z"/>
					</g>
					<g>
						<path class="st4" d="M725.7,130.6l1.2-0.3c1.4-0.3,2.8,0.1,3.7,1.3c3.3,4.4,10.3,5.5,15.2-0.3c0.2-0.2,0.3-0.4,0.4-0.6
							c3.5-8.6-3.6-15.2-10.5-13.5c-3.7,0.9-6.3,3.9-6.8,7.4c-0.2,1.4-1.3,2.5-2.7,2.8l-1.2,0.3c-1.4,0.3-2.8-0.1-3.7-1.3
							c-3.3-4.4-10.3-5.5-15.2,0.3c-0.2,0.2-0.3,0.4-0.4,0.6c-3.5,8.6,3.6,15.2,10.5,13.5c3.7-0.9,6.3-3.9,6.8-7.4
							C723.2,132,724.3,130.9,725.7,130.6z"/>
						<text transform="matrix(0.2401 0.9708 -0.9708 0.2401 734.0004 123.0515)" class="st19 st30 st56">α</text>
						<text transform="matrix(0.2401 0.9708 -0.9708 0.2401 709.977 128.9925)" class="st19 st30 st56">β</text>
					</g>
					<path class="st35" d="M721.9,125.5c1,0.4,1.7,1.3,1.9,2.3c0.4,0,0.8,0,1.1-0.1l1.2-0.3c0.3-0.1,0.5-0.2,0.7-0.3
						c0.2-0.5,0.6-1,1-1.3c3.4-1.1,5.8-4.2,5.8-7.9c0-1.3-0.3-2.5-0.8-3.5c-0.3-0.8-0.8-1.5-1.3-2.3c-0.1-0.2-0.3-0.3-0.5-0.5
						c-0.8-0.6-1.7-1-2.5-1.4c0,0-0.1,0-0.1,0c0,0-0.1,0-0.1,0c-1-0.4-2-0.6-3.1-0.6c0,0,0,0,0,0c-4.7-0.1-8.5,3.7-8.5,8.3
						C716.7,121.3,718.9,124.2,721.9,125.5z"/>
					<path class="st35" d="M733.8,140c0-3.9-2.6-7.1-6.2-8.1c-0.5-0.4-0.8-1-1-1.6l-1,0.3c-0.8,0.2-1.4,0.6-1.9,1.2
						c-3.8,0.8-6.7,4.2-6.7,8.2c0,0.2,0,0.4,0,0.6c-0.1,0-0.2,0.1-0.2,0.1c0.1,1.7,0.7,3.5,2,5.3c0.1,0.2,0.3,0.3,0.5,0.5
						c2,1.4,4.1,2,6,2c0,0,0.1,0,0.1,0c0.1,0,0.1,0,0.2,0c0,0,0.1,0,0.1,0C730.2,148.2,733.8,144.5,733.8,140z"/>
					<text transform="matrix(1.0153 0 0 1 721.6959 143.0067)" class="st36 st30 st57">β</text>
					<text transform="matrix(1.0153 0 0 1 721.6959 120.5931)" class="st36 st30 st57">α</text>
				</g>
			</g>
			<path class="st2" d="M704.3,127.5c0.7-7-5.5-11.9-11.6-10.4c-0.7,0.2-1.4,0.4-2,0.8c0,0-0.3-2.5-0.8-3.6
				c-0.3-0.8-0.8-1.6-1.4-2.4c-0.1-0.2-0.3-0.3-0.5-0.5c-0.8-0.6-1.7-1.1-2.5-1.4c0,0-0.1,0-0.1,0c0,0-0.1,0-0.1,0
				c-1-0.4-2.1-0.6-3.2-0.6c0,0,0,0,0,0c-4.8-0.1-8.8,3.8-8.8,8.5c0,3.5,2.2,6.5,5.3,7.8c1,0.4,0,1.8-0.6,1
				c-3.4-4.5-10.6-5.6-15.6,0.3c-0.2,0.2-0.3,0.4-0.4,0.6"/>
			<path class="st2" d="M747.4,127.6c0-7.4-5.3-12-11.6-10.5c-0.7,0.2-1.4,0.4-2,0.8c0,0,0,0,0,0c0-1.3-0.3-2.5-0.8-3.6
				c-0.3-0.8-0.8-1.6-1.4-2.4c-0.1-0.2-0.3-0.3-0.5-0.5c-0.8-0.6-1.7-1.1-2.5-1.4c0,0-0.1,0-0.1,0c0,0-0.1,0-0.1,0
				c-1-0.4-2.1-0.6-3.2-0.6c0,0,0,0,0,0c-4.8-0.1-8.8,3.8-8.8,8.5c0,3.5,2.2,6.5,5.3,7.8c1,0.4,0,1.8-0.6,1
				c-3.4-4.5-10.6-5.6-15.6,0.3c-0.2,0.2-0.3,0.4-0.4,0.6 M724,128.1"/>
			<g>
				<path class="st5" d="M708.6,94"/>
			</g>
			<g>
				<text transform="matrix(1 0 0 1 665.4186 134.6586)" class="st32 st6 st58">CI-CI</text>
				<g>
					<line class="st39" x1="675.7" y1="124.8" x2="679.1" y2="124.8"/>
					<line class="st39" x1="675.7" y1="134.1" x2="679.1" y2="134.1"/>
				</g>
				<g>
					<line class="st39" x1="694.7" y1="124.8" x2="698.1" y2="124.8"/>
					<line class="st39" x1="694.7" y1="134.1" x2="698.1" y2="134.1"/>
				</g>
			</g>
			<g>
				<text transform="matrix(1 0 0 1 708.5856 134.3695)" class="st32 st6 st58">CI-CI</text>
				<g>
					<line class="st39" x1="718.9" y1="124.5" x2="722.2" y2="124.5"/>
					<line class="st39" x1="718.9" y1="133.8" x2="722.2" y2="133.8"/>
				</g>
				<g>
					<line class="st39" x1="737.9" y1="124.5" x2="741.2" y2="124.5"/>
					<line class="st39" x1="737.9" y1="133.8" x2="741.2" y2="133.8"/>
				</g>
			</g>
		</g>
		<text transform="matrix(0.9077 0 0 1 727.5932 393.6828)" class="st19 st30 st59">？</text>
	</g>
</g>
<g id="_x39_.">
	<g>
		<line id="fnr激活pnar_12_" class="st62" x1="1015.7" y1="370.3" x2="1135" y2="370.3"/>
		<polygon class="st63" points="1141.2,370.3 1122.8,350.7 1122.8,389.9 		"/>
	</g>
	<g id="fnr激活pnar_3_">
		<g>
			<line class="st64" x1="1030" y1="132.9" x2="1034" y2="137.4"/>
			<line class="st65" x1="1041.7" y1="146.1" x2="1146.6" y2="264.2"/>
			<line class="st64" x1="1150.5" y1="268.5" x2="1154.5" y2="273"/>
		</g>
	</g>
	<g id="fnr激活pnar_11_">
		<g>
			<line class="st66" x1="1023.5" y1="248.9" x2="1141.1" y2="324.7"/>
			<g>
				<polygon class="st36" points="1127.1,329.3 1126.6,326.5 1140.2,324.1 1136.8,310.7 1139.5,310 1143.7,326.3 				"/>
			</g>
		</g>
	</g>
	<text transform="matrix(1 0 0 1 1049.75 357.5)" class="st16 st6 st44">many</text>
	<text transform="matrix(0.8384 0.5451 -0.5451 0.8384 1066.2085 265.8074)" class="st36 st6 st44">little</text>
	<text transform="matrix(0.6569 0.754 -0.754 0.6569 1096.0535 181.9734)" class="st67 st6 st44">none</text>
	<text transform="matrix(1 0 0 1 1110.417 153.5159)" class="st6 st18">TRANSCRIPTION</text>
</g>
<g id="_x31_0.toholdbiaoda">
	<circle class="st68" cx="1262.5" cy="394.5" r="119.2"/>
	<path class="st10" d="M1344.5,465.9h-155.1c-5.3,0-9.6-4.3-9.6-9.6v-2.1c0-5.3,4.3-9.6,9.6-9.6h155.1c5.3,0,9.6,4.3,9.6,9.6v2.1
		C1354.1,461.5,1349.8,465.9,1344.5,465.9z"/>
	<g>
		<g>
			<line class="st69" x1="1230.8" y1="383.2" x2="1241" y2="383.2"/>
			<line class="st69" x1="1230.8" y1="387.5" x2="1241" y2="387.5"/>
			<line class="st69" x1="1230.8" y1="391.7" x2="1241" y2="391.7"/>
			<line class="st69" x1="1230.8" y1="396" x2="1241" y2="396"/>
			<line class="st69" x1="1230.8" y1="400.2" x2="1241" y2="400.2"/>
			<line class="st69" x1="1230.8" y1="404.5" x2="1241" y2="404.5"/>
			<line class="st69" x1="1230.8" y1="408.7" x2="1241" y2="408.7"/>
			<line class="st69" x1="1230.8" y1="413" x2="1241" y2="413"/>
			<line class="st69" x1="1230.8" y1="379" x2="1241" y2="379"/>
			<line class="st69" x1="1230.8" y1="417.2" x2="1241" y2="417.2"/>
			<line class="st69" x1="1230.8" y1="347.3" x2="1241" y2="347.3"/>
			<line class="st69" x1="1230.8" y1="351.6" x2="1241" y2="351.6"/>
			<line class="st69" x1="1230.8" y1="355.8" x2="1241" y2="355.8"/>
			<line class="st69" x1="1230.8" y1="360.1" x2="1241" y2="360.1"/>
			<line class="st69" x1="1230.8" y1="364.3" x2="1241" y2="364.3"/>
		</g>
		<path class="st70" d="M1336,417.2h-93.2V379c0,0,0-0.3,0-0.8c1.8-1.6,2.9-4.1,2.9-6.5c0-2.4-1.1-4.6-2.9-6.2c0-0.7,0-1.2,0-1.2
			V348c0,0,0-0.6,0-1.1c7.7-2.7,13.2-10.1,13-18.8c-0.2-10.3-8.5-18.7-18.8-19.1c-11.1-0.4-20.3,8.5-20.3,19.5
			c0,8.5,5.4,15.7,13,18.4c0,0.6,0,1.1,0,1.1v16.4c0,0,0,0.4,0,0.8c-2.1,1.6-3.4,3.9-3.4,6.5c0,2.6,1.3,4.9,3.4,6.5
			c0,0.5,0,0.8,0,0.8v38.2H1189"/>
		<path class="st2" d="M1242.8,346.8c7.7-2.7,13.2-10.1,13-18.8c-0.2-10.3-8.5-18.7-18.8-19.1c-8.2-0.3-15.3,4.4-18.5,11.4"/>
		<text transform="matrix(1 0 0 1 1189.5753 460.5639)" class="st8 st6 st71">Toehold Switch RNA</text>
		<path class="st2" d="M1242.8,378.2c1.8-1.6,2.9-4.1,2.9-6.5c0-2.4-1.1-4.6-2.9-6.2"/>
		<g>
			<g>
				<g>
					<line class="st72" x1="1343.1" y1="417.2" x2="1286.9" y2="417.2"/>
					<g>
						<polygon class="st73" points="1341.8,426.9 1341.8,407.5 1351.5,417.2 						"/>
					</g>
				</g>
			</g>
			<text transform="matrix(1 0 0 1 1296.8323 408.7084)" class="st73 st6 st44">mazF</text>
		</g>
	</g>
</g>
</svg>
