<?xml version="1.0" encoding="utf-8"?>
<!-- Generator: Adobe Illustrator 22.0.0, SVG Export Plug-In . SVG Version: 6.00 Build 0)  -->
<svg version="1.1" xmlns="http://www.w3.org/2000/svg" xmlns:xlink="http://www.w3.org/1999/xlink" x="0px" y="0px"
	 viewBox="0 0 1451 1000.4" style="enable-background:new 0 0 1451 1000.4;" xml:space="preserve">
<style type="text/css">
	.st0{fill:#7485CE;}
	.st1{fill:#FECB7F;}
	.st2{clip-path:url(#SVGID_2_);fill:#7DBC7D;}
	.st3{fill:#59993C;}
	.st4{fill:#FCDE95;}
	.st5{clip-path:url(#SVGID_4_);}
	.st6{fill:#F3CD8E;}
	.st7{fill:#E6C382;}
	.st8{fill:#FECF91;}
	.st9{fill:url(#SVGID_5_);}
	.st10{fill:#8C8984;}
	.st11{fill:none;stroke:#808080;stroke-width:10;stroke-linecap:round;stroke-linejoin:round;stroke-miterlimit:10;}
	.st12{fill:none;stroke:#666666;stroke-width:20;stroke-linecap:round;stroke-linejoin:round;stroke-miterlimit:10;}
	.st13{fill:none;stroke:#666666;stroke-width:10;stroke-linecap:round;stroke-linejoin:round;}
	.st14{fill:#666666;}
	.st15{fill:none;stroke:#ED5858;stroke-width:10;stroke-linecap:round;stroke-linejoin:round;stroke-miterlimit:10;}
	.st16{fill:#ED5858;stroke:#ED5858;stroke-width:35;stroke-linecap:round;stroke-linejoin:round;stroke-miterlimit:10;}
	.st17{fill:none;stroke:#FFDC73;stroke-width:10;stroke-linecap:round;stroke-linejoin:round;stroke-miterlimit:10;}
	.st18{fill:#FBB03B;stroke:#FBB03B;stroke-width:5;stroke-linecap:round;stroke-linejoin:round;stroke-miterlimit:10;}
	.st19{fill:#FFDC73;stroke:#FFDC73;stroke-width:5;stroke-linecap:round;stroke-linejoin:round;stroke-miterlimit:10;}
	.st20{fill:none;stroke:#F7931E;stroke-width:3;stroke-linecap:round;stroke-linejoin:round;stroke-miterlimit:10;}
	.st21{fill:none;stroke:#FFDC73;stroke-width:3;stroke-linecap:round;stroke-linejoin:round;stroke-miterlimit:10;}
	.st22{fill:none;stroke:#F7931E;stroke-width:0.5;stroke-linecap:round;stroke-linejoin:round;stroke-miterlimit:10;}
	.st23{fill:none;stroke:#ED5858;stroke-width:30;stroke-miterlimit:10;}
	.st24{fill:#ED5858;}
	.st25{fill:#808080;}
	.st26{fill:none;stroke:#4D4D4D;stroke-width:70;stroke-linecap:round;stroke-linejoin:round;stroke-miterlimit:10;}
	.st27{fill:#FFFFFF;}
	.st28{fill:#4D4D4D;}
	.st29{fill:none;stroke:#F2F2F2;stroke-width:35;stroke-linecap:round;stroke-linejoin:round;stroke-miterlimit:10;}
	.st30{fill:#F2F2F2;}
	.st31{font-family:'Rubrik-SemiBold';}
	.st32{font-size:99.6713px;}
</style>
<g id="_x35_">
	<g id="图层_4">
		<path class="st0" d="M542.1,939.2c0.9-23.7,6.4-63.4,34.3-96.7c67.8-81,231.7-79.8,301.5,1.7c29,33.9,35.3,74,36.8,95.8"/>
		<path class="st1" d="M672.3,737.9v52.2c19.1,24.6,38.3,49.1,57.4,73.7c18.6-24.3,37.1-48.5,55.7-72.8v-60L672.3,737.9z"/>
	</g>
	<g id="图层_5">
		<g>
			<defs>
				<polygon id="SVGID_1_" points="609.8,804.7 609.8,940 843.6,940 843.6,797.8 798.2,785.8 798.2,892 656.1,892 656.1,773.8 				
					"/>
			</defs>
			<clipPath id="SVGID_2_">
				<use xlink:href="#SVGID_1_"  style="overflow:visible;"/>
			</clipPath>
			<path class="st2" d="M543,939.2c0.9-23.7,6.4-63.4,34.3-96.7c67.8-81,231.7-79.8,301.5,1.7c29,33.9,35.3,74,36.8,95.8"/>
		</g>
	</g>
	<g id="图层_6">
		<circle class="st3" cx="635.9" cy="917.3" r="14.1"/>
		<circle class="st3" cx="819.2" cy="917.3" r="14.1"/>
	</g>
	<g>
		<g>
			<path class="st4" d="M612.8,659.5c0-28.3,32.5-126.8,67.7-126.8c20.6,0,29.1,26.6,47.1,26.6c18,0,25.7-26.6,40.3-26.6
				c21.4,0,73.7,56.5,73.7,131.9L612.8,659.5z"/>
		</g>
		<g>
			<defs>
				<path id="SVGID_3_" d="M612.8,656.9c0-28.3,32.5-126.8,67.7-126.8c20.6,0,29.1,26.6,47.1,26.6c18,0,25.7-26.6,40.3-26.6
					c21.4,0,73.7,56.5,73.7,131.9L612.8,656.9z"/>
			</defs>
			<clipPath id="SVGID_4_">
				<use xlink:href="#SVGID_3_"  style="overflow:visible;"/>
			</clipPath>
			<g class="st5">
				<path class="st6" d="M871.9,661.6H592.7v-41.1c74.4-9,147.3-18.7,279.2,0V661.6z"/>
			</g>
		</g>
		<g>
			<ellipse class="st7" cx="728" cy="700.6" rx="197" ry="55.2"/>
		</g>
	</g>
	<g>
		<circle class="st8" cx="619.7" cy="719.4" r="18.4"/>
	</g>
	<g>
		<circle class="st8" cx="835.5" cy="719.4" r="18.4"/>
	</g>
	<g>
		<linearGradient id="SVGID_5_" gradientUnits="userSpaceOnUse" x1="726.7152" y1="824.3696" x2="726.7152" y2="669.3391">
			<stop  offset="0" style="stop-color:#FFFFFF"/>
			<stop  offset="0" style="stop-color:#FFEDCF"/>
			<stop  offset="0.3547" style="stop-color:#FDECCD"/>
			<stop  offset="0.5502" style="stop-color:#F6E9C5"/>
			<stop  offset="0.7071" style="stop-color:#EAE4B7"/>
			<stop  offset="0.8433" style="stop-color:#D9DDA3"/>
			<stop  offset="0.965" style="stop-color:#C3D48A"/>
			<stop  offset="1" style="stop-color:#BCD182"/>
		</linearGradient>
		<path class="st9" d="M842.8,706.6c0-20.6-52-37.3-116.1-37.3S610.7,686,610.7,706.6c0,7,6,13.5,16.4,19.1
			c2.9,55,47,98.7,100.9,98.7c54.4,0,98.7-44.4,101-100.1C837.8,719,842.8,713,842.8,706.6z"/>
	</g>
	<g id="图层_3">
		<path class="st10" d="M634.6,683v46.3l-24.8-19.7v-16.3C619.2,683,634.6,683,634.6,683z"/>
		<path class="st10" d="M817.9,683v46.3l24.8-19.7v-16.3C833.4,683,817.9,683,817.9,683z"/>
		<circle cx="682.2" cy="726.3" r="12.4"/>
		<circle cx="773.8" cy="726.3" r="12.4"/>
		<g>
			<path class="st10" d="M737.4,760.1c6.9-5.6,15.5-3.8,17.1-3.5c6.5,1.4,10.8,5.3,14.8,9.9c5.3,6.1,6,16.3,14.3,18.5
				c10,2.7,18.9-1.3,21.3-2.6c0.1-0.1,0.2-0.1,0.2,0c0.2,0.3-15.9,16.3-36.8,18.8c-5.5,0.7-16.9,2.1-26.6-5.1
				c-1.6-1.2-11-8.2-11.1-19.7C730.5,774.7,730.4,765.8,737.4,760.1z"/>
			<path class="st10" d="M719.4,775.5"/>
			<path class="st10" d="M729.7,760.1c-6.9-5.6-15.5-3.8-17.1-3.5c-6.5,1.4-10.8,5.3-14.8,9.9c-5.3,6.1-6,16.3-14.3,18.5
				c-10,2.7-18.9-1.3-21.3-2.6c-0.1-0.1-0.2-0.1-0.2,0c-0.2,0.3,15.9,16.3,36.8,18.8c5.5,0.7,16.9,2.1,26.6-5.1
				c1.6-1.2,11-8.2,11.1-19.7C736.6,774.7,736.7,765.8,729.7,760.1z"/>
		</g>
		<path class="st11" d="M694.6,705.3c-2.1,2.8-7.6,9.3-17.7,13.3c-8.1,3.1-15.3,3.2-19.1,3"/>
		<path class="st11" d="M761,705.7c2.1,2.8,7.6,9.3,17.7,13.3c8.1,3.1,15.3,3.2,19.1,3"/>
	</g>
</g>
<g id="_x34_">
	<path class="st12" d="M81,606"/>
	<path class="st12" d="M81,343"/>
	<g>
		<g>
			<g>
				<path class="st13" d="M966.2,794h122.9c76.1,0,138.4-62.3,138.4-138.4v-28.1"/>
				<g>
					<path class="st14" d="M1007.2,822.8c0.9-1.4,0.5-3.3-0.9-4.1L967.6,794l38.7-24.7c1.4-0.9,1.8-2.7,0.9-4.1s-2.8-1.8-4.1-0.9
						l-42.7,27.2c-0.9,0.6-1.4,1.5-1.4,2.5s0.5,2,1.4,2.5l42.7,27.2c0.5,0.3,1.1,0.5,1.6,0.5
						C1005.7,824.2,1006.6,823.7,1007.2,822.8z"/>
				</g>
				<g>
					<path class="st14" d="M1250.1,628.6c0-12.5-10.1-22.6-22.6-22.6s-22.6,10.1-22.6,22.6c0,12.5,10.1,22.6,22.6,22.6
						S1250.1,641,1250.1,628.6z"/>
				</g>
			</g>
		</g>
		<g>
			<g>
				<path class="st13" d="M224.5,627.4v28.1c0,76.1,62.3,138.4,138.4,138.4h134.9"/>
				<g>
					<path class="st14" d="M201.9,628.6c0-12.5,10.1-22.6,22.6-22.6s22.6,10.1,22.6,22.6c0,12.5-10.1,22.6-22.6,22.6
						S201.9,641,201.9,628.6z"/>
				</g>
				<g>
					<path class="st14" d="M456.8,822.8c-0.9-1.4-0.5-3.3,0.9-4.1l38.7-24.7l-38.7-24.7c-1.4-0.9-1.8-2.7-0.9-4.1s2.8-1.8,4.1-0.9
						l42.7,27.2c0.9,0.6,1.4,1.5,1.4,2.5s-0.5,2-1.4,2.5l-42.7,27.2c-0.5,0.3-1.1,0.5-1.6,0.5C458.3,824.2,457.4,823.7,456.8,822.8z
						"/>
				</g>
			</g>
		</g>
	</g>
</g>
<g id="_x33_">
	<g>
		<path class="st15" d="M123,365.7c-3-8.5-1.7-12,0.1-13.5c4.8-3.9,15.3,4,24.2,0.1c7.5-3.3,3.7-13.8,10.3-16.8
			c6.7-3,13.5,5.2,21.5,2.7c5.9-1.9,4.9-7.8,6.6-14"/>
		<path class="st15" d="M135,502.3c6.3-6.5,9.9-7,12.1-6c5.7,2.5,3.4,15.4,10.8,21.6c6.3,5.2,14-3,19.7,1.6
			c5.7,4.6,1.4,14.4,7.3,20.4c4.4,4.4,9.2,0.8,15.5-0.5"/>
		<path class="st15" d="M349.7,508c-7.1-5.6-7.9-9.1-7.2-11.4c2-5.9,15-4.9,20.4-12.9c4.6-6.8-4.4-13.6-0.4-19.8
			c4-6.2,14.2-2.9,19.5-9.3c4-4.8-0.1-9.2-2-15.4"/>
		<g>
			<path class="st16" d="M340.8,451.8c0.3-0.5,0.6-1.1,0.9-1.6c26.6-50-39.2-97.9-79.4-58.1l-16.9,16.7c-0.5,0.5-1.4,0.5-2,0
				l-19.1-18.5c-37.7-36.5-99.6,2.9-81.6,52.2c1.1,3.1,2.6,6.2,4.3,9.2c0.1,0.1,0.2,0.3,0.3,0.4l95.7,83.4c0.5,0.5,1.3,0.5,1.9,0
				l95.7-83.4C340.7,452,340.8,451.9,340.8,451.8z"/>
			<polyline class="st17" points="67.5,437.8 78.1,437.8 90.5,427.1 102.2,437.8 112.5,437.8 120.7,451.8 127.6,437.8 146.1,437.8 
				155.2,428.3 163.1,455.1 170.2,437.8 195.4,437.8 203.9,391.3 220.4,478.7 230.4,437.8 244.6,437.8 270.2,314 289.1,575 
				305.2,438 331.7,438 345.3,424.9 356.2,437.9 361.3,437.9 367.1,449.5 372.7,437.9 389.5,437.8 			"/>
		</g>
	</g>
	<g>
		<g>
			<g>
				<g>
					<path class="st18" d="M1193.5,542.5h-94v16h0.5c0.6,5.3,21.1,9.5,46.2,9.5s45.6-4.2,46.2-9.5h1V542.5z"/>
					<ellipse class="st19" cx="1146.3" cy="541.3" rx="46.3" ry="9.8"/>
				</g>
				<line class="st20" x1="1103.5" y1="550.5" x2="1103.5" y2="560.5"/>
				<line class="st20" x1="1111.5" y1="553.5" x2="1111.5" y2="563.5"/>
				<line class="st20" x1="1115.5" y1="554.5" x2="1115.5" y2="564.5"/>
				<line class="st20" x1="1123.5" y1="556.5" x2="1123.5" y2="560.5"/>
				<line class="st20" x1="1123.5" y1="565.5" x2="1123.5" y2="566.5"/>
				<line class="st21" x1="1190.5" y1="549.5" x2="1190.5" y2="560.5"/>
				<line class="st21" x1="1183.5" y1="551.5" x2="1183.5" y2="554.5"/>
			</g>
			<g>
				<g>
					<path class="st18" d="M1192.5,523.5h-94v16h0.5c0.6,5.3,21.1,9.5,46.2,9.5s45.6-4.2,46.2-9.5h1V523.5z"/>
					<ellipse class="st19" cx="1145.3" cy="522.3" rx="46.3" ry="9.8"/>
				</g>
				<line class="st20" x1="1102.5" y1="531.5" x2="1102.5" y2="541.5"/>
				<line class="st20" x1="1110.5" y1="534.5" x2="1110.5" y2="544.5"/>
				<line class="st20" x1="1114.5" y1="535.5" x2="1114.5" y2="545.5"/>
				<line class="st20" x1="1122.5" y1="537.5" x2="1122.5" y2="541.5"/>
				<line class="st20" x1="1122.5" y1="546.5" x2="1122.5" y2="547.5"/>
				<line class="st21" x1="1189.5" y1="530.5" x2="1189.5" y2="541.5"/>
				<line class="st21" x1="1182.5" y1="532.5" x2="1182.5" y2="535.5"/>
			</g>
			<g>
				<g>
					<path class="st18" d="M1191.5,504.5h-94v16h0.5c0.6,5.3,21.1,9.5,46.2,9.5s45.6-4.2,46.2-9.5h1V504.5z"/>
					<ellipse class="st19" cx="1144.3" cy="503.3" rx="46.3" ry="9.8"/>
				</g>
				<line class="st20" x1="1101.5" y1="512.5" x2="1101.5" y2="522.5"/>
				<line class="st20" x1="1109.5" y1="515.5" x2="1109.5" y2="525.5"/>
				<line class="st20" x1="1113.5" y1="516.5" x2="1113.5" y2="526.5"/>
				<line class="st20" x1="1121.5" y1="518.5" x2="1121.5" y2="522.5"/>
				<line class="st20" x1="1121.5" y1="527.5" x2="1121.5" y2="528.5"/>
				<line class="st21" x1="1188.5" y1="511.5" x2="1188.5" y2="522.5"/>
				<line class="st21" x1="1181.5" y1="513.5" x2="1181.5" y2="516.5"/>
			</g>
			<g>
				<g>
					<path class="st18" d="M1189.5,485.5h-94v16h0.5c0.6,5.3,21.1,9.5,46.2,9.5s45.6-4.2,46.2-9.5h1V485.5z"/>
					<ellipse class="st19" cx="1142.3" cy="484.3" rx="46.3" ry="9.8"/>
				</g>
				<line class="st20" x1="1099.5" y1="493.5" x2="1099.5" y2="503.5"/>
				<line class="st20" x1="1107.5" y1="496.5" x2="1107.5" y2="506.5"/>
				<line class="st20" x1="1111.5" y1="497.5" x2="1111.5" y2="507.5"/>
				<line class="st20" x1="1119.5" y1="499.5" x2="1119.5" y2="503.5"/>
				<line class="st20" x1="1119.5" y1="508.5" x2="1119.5" y2="509.5"/>
				<line class="st21" x1="1186.5" y1="492.5" x2="1186.5" y2="503.5"/>
				<line class="st21" x1="1179.5" y1="494.5" x2="1179.5" y2="497.5"/>
			</g>
			<g>
				<g>
					<path class="st18" d="M1187.5,465.5h-94v16h0.5c0.6,5.3,21.1,9.5,46.2,9.5s45.6-4.2,46.2-9.5h1V465.5z"/>
					<ellipse class="st19" cx="1140.3" cy="464.3" rx="46.3" ry="9.8"/>
				</g>
				<line class="st20" x1="1097.5" y1="473.5" x2="1097.5" y2="483.5"/>
				<line class="st20" x1="1105.5" y1="476.5" x2="1105.5" y2="486.5"/>
				<line class="st20" x1="1109.5" y1="477.5" x2="1109.5" y2="487.5"/>
				<line class="st20" x1="1117.5" y1="479.5" x2="1117.5" y2="483.5"/>
				<line class="st20" x1="1117.5" y1="488.5" x2="1117.5" y2="489.5"/>
				<line class="st21" x1="1184.5" y1="472.5" x2="1184.5" y2="483.5"/>
				<line class="st21" x1="1177.5" y1="474.5" x2="1177.5" y2="477.5"/>
			</g>
			<g>
				<g>
					<path class="st18" d="M1187.5,447.5h-94v16h0.5c0.6,5.3,21.1,9.5,46.2,9.5s45.6-4.2,46.2-9.5h1V447.5z"/>
					<ellipse class="st19" cx="1140.3" cy="446.3" rx="46.3" ry="9.8"/>
				</g>
				<line class="st20" x1="1097.5" y1="455.5" x2="1097.5" y2="465.5"/>
				<line class="st20" x1="1105.5" y1="458.5" x2="1105.5" y2="468.5"/>
				<line class="st20" x1="1109.5" y1="459.5" x2="1109.5" y2="469.5"/>
				<line class="st20" x1="1117.5" y1="461.5" x2="1117.5" y2="465.5"/>
				<line class="st20" x1="1117.5" y1="470.5" x2="1117.5" y2="471.5"/>
				<line class="st21" x1="1184.5" y1="454.5" x2="1184.5" y2="465.5"/>
				<line class="st21" x1="1177.5" y1="456.5" x2="1177.5" y2="459.5"/>
			</g>
			<g>
				<g>
					<path class="st18" d="M1193.5,428.5h-94v16h0.5c0.6,5.3,21.1,9.5,46.2,9.5s45.6-4.2,46.2-9.5h1V428.5z"/>
					<ellipse class="st19" cx="1146.3" cy="427.3" rx="46.3" ry="9.8"/>
				</g>
				<line class="st20" x1="1103.5" y1="436.5" x2="1103.5" y2="446.5"/>
				<line class="st20" x1="1111.5" y1="439.5" x2="1111.5" y2="449.5"/>
				<line class="st20" x1="1115.5" y1="440.5" x2="1115.5" y2="450.5"/>
				<line class="st20" x1="1123.5" y1="442.5" x2="1123.5" y2="446.5"/>
				<line class="st20" x1="1123.5" y1="451.5" x2="1123.5" y2="452.5"/>
				<line class="st21" x1="1190.5" y1="435.5" x2="1190.5" y2="446.5"/>
				<line class="st21" x1="1183.5" y1="437.5" x2="1183.5" y2="440.5"/>
			</g>
			<g>
				<g>
					<path class="st18" d="M1203.5,409.5h-94v16h0.5c0.6,5.3,21.1,9.5,46.2,9.5s45.6-4.2,46.2-9.5h1V409.5z"/>
					<ellipse class="st19" cx="1156.3" cy="408.3" rx="46.3" ry="9.8"/>
					<g>
						<line class="st20" x1="1137" y1="400.8" x2="1154" y2="405"/>
						<line class="st20" x1="1156.7" y1="399.8" x2="1155.2" y2="405.3"/>
						<line class="st20" x1="1142.6" y1="405.9" x2="1168" y2="403.9"/>
						<line class="st20" x1="1151.1" y1="410.1" x2="1175" y2="408"/>
						<line class="st20" x1="1155.2" y1="405.3" x2="1171.2" y2="413.4"/>
					</g>
					<ellipse class="st22" cx="1156.3" cy="407.3" rx="46.3" ry="9.8"/>
				</g>
				<line class="st20" x1="1113.5" y1="417.5" x2="1113.5" y2="427.5"/>
				<line class="st20" x1="1121.5" y1="420.5" x2="1121.5" y2="430.5"/>
				<line class="st20" x1="1125.5" y1="421.5" x2="1125.5" y2="431.5"/>
				<line class="st20" x1="1133.5" y1="423.5" x2="1133.5" y2="427.5"/>
				<line class="st20" x1="1133.5" y1="432.5" x2="1133.5" y2="433.5"/>
				<line class="st21" x1="1200.5" y1="416.5" x2="1200.5" y2="427.5"/>
				<line class="st21" x1="1193.5" y1="418.5" x2="1193.5" y2="421.5"/>
			</g>
			<g>
				<g>
					<path class="st18" d="M1292.5,543.5h-94v16h0.5c0.6,5.3,21.1,9.5,46.2,9.5s45.6-4.2,46.2-9.5h1V543.5z"/>
					<ellipse class="st19" cx="1245.3" cy="542.3" rx="46.3" ry="9.8"/>
				</g>
				<line class="st20" x1="1202.5" y1="551.5" x2="1202.5" y2="561.5"/>
				<line class="st20" x1="1210.5" y1="554.5" x2="1210.5" y2="564.5"/>
				<line class="st20" x1="1214.5" y1="555.5" x2="1214.5" y2="565.5"/>
				<line class="st20" x1="1222.5" y1="557.5" x2="1222.5" y2="561.5"/>
				<line class="st20" x1="1222.5" y1="566.5" x2="1222.5" y2="567.5"/>
				<line class="st21" x1="1289.5" y1="550.5" x2="1289.5" y2="561.5"/>
				<line class="st21" x1="1282.5" y1="552.5" x2="1282.5" y2="555.5"/>
			</g>
			<g>
				<g>
					<path class="st18" d="M1288.5,524.5h-94v16h0.5c0.6,5.3,21.1,9.5,46.2,9.5s45.6-4.2,46.2-9.5h1V524.5z"/>
					<ellipse class="st19" cx="1241.3" cy="523.3" rx="46.3" ry="9.8"/>
				</g>
				<line class="st20" x1="1198.5" y1="532.5" x2="1198.5" y2="542.5"/>
				<line class="st20" x1="1206.5" y1="535.5" x2="1206.5" y2="545.5"/>
				<line class="st20" x1="1210.5" y1="536.5" x2="1210.5" y2="546.5"/>
				<line class="st20" x1="1218.5" y1="538.5" x2="1218.5" y2="542.5"/>
				<line class="st20" x1="1218.5" y1="547.5" x2="1218.5" y2="548.5"/>
				<line class="st21" x1="1285.5" y1="531.5" x2="1285.5" y2="542.5"/>
				<line class="st21" x1="1278.5" y1="533.5" x2="1278.5" y2="536.5"/>
			</g>
			<g>
				<g>
					<path class="st18" d="M1288.5,505.5h-94v16h0.5c0.6,5.3,21.1,9.5,46.2,9.5s45.6-4.2,46.2-9.5h1V505.5z"/>
					<ellipse class="st19" cx="1241.3" cy="504.3" rx="46.3" ry="9.8"/>
				</g>
				<line class="st20" x1="1198.5" y1="513.5" x2="1198.5" y2="523.5"/>
				<line class="st20" x1="1206.5" y1="516.5" x2="1206.5" y2="526.5"/>
				<line class="st20" x1="1210.5" y1="517.5" x2="1210.5" y2="527.5"/>
				<line class="st20" x1="1218.5" y1="519.5" x2="1218.5" y2="523.5"/>
				<line class="st20" x1="1218.5" y1="528.5" x2="1218.5" y2="529.5"/>
				<line class="st21" x1="1285.5" y1="512.5" x2="1285.5" y2="523.5"/>
				<line class="st21" x1="1278.5" y1="514.5" x2="1278.5" y2="517.5"/>
			</g>
			<g>
				<g>
					<path class="st18" d="M1290.5,486.5h-94v16h0.5c0.6,5.3,21.1,9.5,46.2,9.5s45.6-4.2,46.2-9.5h1V486.5z"/>
					<ellipse class="st19" cx="1243.3" cy="485.3" rx="46.3" ry="9.8"/>
				</g>
				<line class="st20" x1="1200.5" y1="494.5" x2="1200.5" y2="504.5"/>
				<line class="st20" x1="1208.5" y1="497.5" x2="1208.5" y2="507.5"/>
				<line class="st20" x1="1212.5" y1="498.5" x2="1212.5" y2="508.5"/>
				<line class="st20" x1="1220.5" y1="500.5" x2="1220.5" y2="504.5"/>
				<line class="st20" x1="1220.5" y1="509.5" x2="1220.5" y2="510.5"/>
				<line class="st21" x1="1287.5" y1="493.5" x2="1287.5" y2="504.5"/>
				<line class="st21" x1="1280.5" y1="495.5" x2="1280.5" y2="498.5"/>
				<g>
					<line class="st20" x1="1224" y1="477.8" x2="1241" y2="482"/>
					<line class="st20" x1="1243.7" y1="476.8" x2="1242.2" y2="482.3"/>
					<line class="st20" x1="1229.6" y1="482.9" x2="1255" y2="480.9"/>
					<line class="st20" x1="1238.1" y1="487.1" x2="1262" y2="485"/>
					<line class="st20" x1="1242.2" y1="482.3" x2="1258.2" y2="490.4"/>
				</g>
				<ellipse class="st22" cx="1243.3" cy="484.3" rx="46.3" ry="9.8"/>
			</g>
			<g>
				<g>
					<path class="st18" d="M1392.5,546.5h-94v16h0.5c0.6,5.3,21.1,9.5,46.2,9.5s45.6-4.2,46.2-9.5h1V546.5z"/>
					<ellipse class="st19" cx="1345.3" cy="545.3" rx="46.3" ry="9.8"/>
				</g>
				<line class="st20" x1="1302.5" y1="554.5" x2="1302.5" y2="564.5"/>
				<line class="st20" x1="1310.5" y1="557.5" x2="1310.5" y2="567.5"/>
				<line class="st20" x1="1314.5" y1="558.5" x2="1314.5" y2="568.5"/>
				<line class="st20" x1="1322.5" y1="560.5" x2="1322.5" y2="564.5"/>
				<line class="st20" x1="1322.5" y1="569.5" x2="1322.5" y2="570.5"/>
				<line class="st21" x1="1389.5" y1="553.5" x2="1389.5" y2="564.5"/>
				<line class="st21" x1="1382.5" y1="555.5" x2="1382.5" y2="558.5"/>
				<g>
					<line class="st20" x1="1326" y1="537.8" x2="1343" y2="542"/>
					<line class="st20" x1="1345.7" y1="536.8" x2="1344.2" y2="542.3"/>
					<line class="st20" x1="1331.6" y1="542.9" x2="1357" y2="540.9"/>
					<line class="st20" x1="1340.1" y1="547.1" x2="1364" y2="545"/>
					<line class="st20" x1="1344.2" y1="542.3" x2="1360.2" y2="550.4"/>
				</g>
				<ellipse class="st22" cx="1345.3" cy="544.3" rx="46.3" ry="9.8"/>
			</g>
			<g>
				<g>
					<path class="st18" d="M1362.8,534.7l-65-67.9l-11.6,11.1l0.4,0.4c-3.4,4.1,7.7,21.8,25.1,39.9c17.4,18.2,34.6,30,38.8,26.8
						l0.7,0.7L1362.8,534.7z"/>
					
						<ellipse transform="matrix(0.7221 -0.6917 0.6917 0.7221 24.1767 1059.5724)" class="st19" cx="1331" cy="499.7" rx="9.8" ry="46.3"/>
				</g>
				<line class="st20" x1="1294.8" y1="475.2" x2="1287.6" y2="482.1"/>
				<line class="st20" x1="1298.1" y1="483.1" x2="1290.9" y2="490"/>
				<line class="st20" x1="1300.2" y1="486.7" x2="1293" y2="493.6"/>
				<line class="st20" x1="1304.3" y1="493.8" x2="1301.4" y2="496.6"/>
				<line class="st20" x1="1297.8" y1="500" x2="1297.1" y2="500.7"/>
				<line class="st21" x1="1355.7" y1="537.4" x2="1347.7" y2="545"/>
				<line class="st21" x1="1349.4" y1="533.7" x2="1347.2" y2="535.8"/>
				<g>
					<line class="st20" x1="1323.1" y1="480.6" x2="1331.8" y2="495.8"/>
					<line class="st20" x1="1337.5" y1="494.1" x2="1332.5" y2="496.9"/>
					<line class="st20" x1="1323.3" y1="488.3" x2="1342.3" y2="505.1"/>
					<line class="st20" x1="1326.1" y1="497.2" x2="1344.2" y2="513.1"/>
					<line class="st20" x1="1332.5" y1="496.9" x2="1337.6" y2="514"/>
				</g>
				
					<ellipse transform="matrix(0.7221 -0.6917 0.6917 0.7221 24.8559 1059.8798)" class="st22" cx="1331.8" cy="499" rx="9.8" ry="46.3"/>
			</g>
		</g>
		<g>
			<g>
				<polyline class="st23" points="1105,290 1241,398 1297,367 1362,449.3 				"/>
				<g>
					<polygon class="st24" points="1318.6,466.8 1402,500 1389.1,411.2 					"/>
				</g>
			</g>
		</g>
	</g>
</g>
<g id="_x32_">
	<g>
		<g>
			<path class="st13" d="M1227.5,261.6v-38.3c0-55.4-62.3-100.8-138.4-100.8H362.9c-76.1,0-138.4,45.3-138.4,100.8v38.3"/>
			<g>
				<path class="st14" d="M1250.1,260.4c0,12.5-10.1,22.6-22.6,22.6s-22.6-10.1-22.6-22.6c0-12.5,10.1-22.6,22.6-22.6
					S1250.1,248,1250.1,260.4z"/>
			</g>
			<g>
				<path class="st14" d="M201.9,260.4c0,12.5,10.1,22.6,22.6,22.6s22.6-10.1,22.6-22.6c0-12.5-10.1-22.6-22.6-22.6
					S201.9,248,201.9,260.4z"/>
			</g>
		</g>
	</g>
</g>
<g id="_x31_铅">
	<g>
		<circle class="st14" cx="725.8" cy="45.4" r="341.6"/>
		<circle class="st25" cx="661.1" cy="-68.9" r="198.4"/>
		<g>
			<path class="st26" d="M978.8,45.4c0,139.7-113.3,253-253,253c-59.3,0-104.1-21.5-119.1-29.7"/>
			<circle class="st27" cx="598.1" cy="-133.9" r="47.8"/>
			<circle class="st28" cx="524.8" cy="206.4" r="34.5"/>
			<line class="st29" x1="624.6" y1="113.6" x2="624.6" y2="-46.4"/>
			<line class="st29" x1="675.1" y1="-46.4" x2="624.6" y2="-46.4"/>
			<line class="st29" x1="678" y1="53.7" x2="628.6" y2="53.7"/>
			<path class="st29" d="M678,53.7c27.6,0,50-22.4,50-50s-22.4-50-50-50"/>
			<line class="st29" x1="773.7" y1="-46.4" x2="773.7" y2="113.6"/>
			<line class="st29" x1="824.2" y1="113.6" x2="773.7" y2="113.6"/>
			<line class="st29" x1="818.1" y1="31.7" x2="777.6" y2="31.7"/>
			<path class="st29" d="M818.1,31.7c17.5,0,31.6,18.4,31.6,41s-14.2,41-31.6,41"/>
			<text transform="matrix(0.8848 0 0 1 686.158 238.0786)" class="st30 st31 st32">82</text>
		</g>
	</g>
</g>
</svg>
