<?xml version="1.0" encoding="utf-8"?>
<!-- Generator: Adobe Illustrator 22.0.0, SVG Export Plug-In . SVG Version: 6.00 Build 0)  -->
<svg version="1.1" xmlns="http://www.w3.org/2000/svg" xmlns:xlink="http://www.w3.org/1999/xlink" x="0px" y="0px"
	 viewBox="0 0 374.2 554.8" style="enable-background:new 0 0 374.2 554.8;" xml:space="preserve">
  <style type="text/css">
  	.st0_4{fill:none;stroke:#85AA41;stroke-width:10;stroke-linecap:round;stroke-linejoin:round;stroke-miterlimit:10;}
  	.st1_4{fill:none;stroke:#1D663D;stroke-width:10;stroke-linecap:round;stroke-linejoin:round;stroke-miterlimit:10;}
  	.st2_4{fill:#FFFFFF;stroke:#1D663D;stroke-width:10;stroke-linecap:round;stroke-linejoin:round;stroke-miterlimit:10;}
  	.st3_4{fill:#85AA41;stroke:#85AA41;stroke-width:10;stroke-linecap:round;stroke-linejoin:round;stroke-miterlimit:10;}
  	.st4_4{fill:none;stroke:#1D663D;stroke-width:5;stroke-linecap:round;stroke-linejoin:round;stroke-miterlimit:10;}
  	.st5_4{display:none;}
  	.st6_4{display:inline;}
  	.st7_4{fill:#1D663D;stroke:#1D663D;stroke-width:10;stroke-linecap:round;stroke-linejoin:round;stroke-miterlimit:10;}
  	.st8_4{fill:#FFFFFF;stroke:#85AA41;stroke-width:5;stroke-linecap:round;stroke-linejoin:round;stroke-miterlimit:10;}
  	.st9_4{fill:none;stroke:#85AA41;stroke-width:5;stroke-linecap:round;stroke-linejoin:round;stroke-miterlimit:10;}
  	.st10_4{display:inline;fill:none;stroke:#1D663D;stroke-width:10;stroke-linecap:round;stroke-miterlimit:10;}
  </style>
  <g id="升天">
  	<g>
  		<path class="st0_4" d="M333.2,349.5c13.2-6,19.4-20.6,16.6-31.4c-1.4-5.2-5.5-13.3-11-13.5c-6.9-0.3-8.7,11-20.3,23.7
  			c-11.6,12.7-22.4,11.1-33,20.3c-10.2,8.9-19.8,24.5-11.5,38.4c8.7,14.6,23.3,12.4,28.7,9.2c8.6-5.1,7.4-21.7-1-21.9"/>
  		<path class="st0_4" d="M350.2,333.7c0.6,0.9,8.3,5.5,4.8,17c-3,9.8-11.8,16.9-20.6,19.2"/>
  		<path class="st0_4" d="M353.1,359c4.2,10.7-2.9,17.4-10,23.5c-8.4,7.2-22.7,11-35.7,8.3"/>
  	</g>
  	<g>
  		<path class="st1" d="M104,407.5c-4.7,16.4-19.4,17.9-25.5,16.2C69,421,66,404.6,74,402.3"/>
  		<path class="st1" d="M37.3,386.2c-14.3-2.5-24-15-24-26.2c0-5.3,1.9-14.2,7.2-15.9c6.6-2,11.2,8.5,25.6,17.8
  			c14.5,9.4,24.5,5.1,37.1,11.3c12.1,6,25.3,18.7,20.8,34.2"/>
  		<path class="st1" d="M16.9,375.2c-0.3,1-6.6,7.5-0.4,17.7c5.3,8.7,15.6,13.4,24.8,13.3"/>
  		<path class="st1" d="M20.5,400.4c-1.3,11.4,7.2,16.1,15.6,20.2c10,4.9,24.7,4.9,36.6-1"/>
  	</g>
  	<g>
  		<path class="st2_4" d="M185.2,482.2c-5.6-1.2-11.1-2.9-16.2-5.2"/>
  		<path class="st2_4" d="M237.7,476.9c-5.8,2.5-12,4.5-18.3,5.7"/>
  		<path class="st2_4" d="M276.7,442.8c-2.2,3.6-4.7,7-7.3,10.3"/>
  		<path class="st2_4" d="M139.4,456c-14-15.3-22.5-35.7-22.5-58.1c0-47.6,38.6-86.2,86.2-86.2s86.2,38.6,86.2,86.2
  			c0,12.1-2.5,23.7-7,34.2"/>
  		<path class="st2_4" d="M152.9,468c-1.9-1.3-3.7-2.7-5.4-4.2"/>
  		<line class="st1" x1="161.9" y1="379.3" x2="196.1" y2="372.3"/>
  		<line class="st1" x1="239.1" y1="367.1" x2="262.5" y2="371.8"/>
  	</g>

  		<ellipse transform="matrix(0.9932 -0.1164 0.1164 0.9932 -31.0379 24.157)" class="st1" cx="191.2" cy="277.7" rx="49.4" ry="9.3"/>
  	<polygon class="st3_4" points="92.3,249.2 93.5,261 103.9,266.6 93.1,271.4 91,283.1 83,274.3 71.3,275.8 77.2,265.6 72.1,254.9
  		83.7,257.3 	"/>
  	<polygon class="st3_4" points="263.4,178.8 269.2,172.8 267.6,164.6 275.1,168.3 282.4,164.2 281.2,172.5 287.4,178.2 279.1,179.6
  		275.6,187.2 271.7,179.8 	"/>
  	<polygon class="st3_4" points="192.4,63.8 192.8,67.7 196.2,69.5 192.7,71.1 192,74.9 189.4,72 185.5,72.5 187.5,69.2 185.8,65.7
  		189.6,66.5 	"/>
  	<path class="st4_4" d="M175.4,378.8v8.2c0,3.7-3,6.7-6.7,6.7h0c-3.7,0-6.7-3-6.7-6.7v-5.5"/>
  </g>
  <g id="图层_2" class="st5_4">
  	<g class="st6">
  		<path class="st7_4" d="M278.9,478.6V494c0,6.2,5.1,11.3,11.3,11.3h21.3c6.2,0,11.3-5.1,11.3-11.3v-15.3c0-6.2-5.1-11.3-11.3-11.3
  			h-21.3C284,467.3,278.9,472.4,278.9,478.6z"/>
  		<path class="st2_4" d="M316.2,410.2c-1,0-2,0.1-3,0.2c-9.3-32.1-38.9-55.6-74-55.6c-42.5,0-77,34.5-77,77s34.5,77,77,77
  			c30,0,55.9-17.1,68.6-42.1c2.7,0.8,5.5,1.2,8.4,1.2c15.9,0,28.8-12.9,28.8-28.8S332.1,410.2,316.2,410.2z"/>
  		<path class="st1" d="M187.1,433.2l9.7-2.1c14.3-3.1,28.5,6,31.6,20.3s-6,28.5-20.3,31.6l-8.2,1.8"/>
  		<path class="st4_4" d="M222.2,392.4c9.3-0.3,21.1,0.4,34.3,3.5c9.4,2.2,17.6,5.2,24.4,8.3"/>
  		<path class="st4_4" d="M274.4,383.3c-6.3,3.4-12.8,7.1-19.5,11.3c-9.4,5.8-18,11.7-25.8,17.5"/>
  		<path class="st4_4" d="M253,439c1.2-3.6,3-7.3,5.2-7.3c2.9-0.1,5.9,6.1,8.6,5.9c2.9-0.2,1.3-7.7,5.1-9c2-0.7,4.6,1,8.7,6.9"/>
  		<path class="st7_4" d="M221.8,490.8c-2.4,4-3.6,7.6-3.6,7.6c-0.2,6.2,4.8,7.8,11,8l21.3,0.7c6.2,0.2,11.5-4.7,11.7-11l0.5-15.3
  			c0.2-6.2-4.7-11.5-11-11.7l-6.1-0.2C237.1,469.3,224.5,486.3,221.8,490.8z"/>
  		<path class="st8_4" d="M286.8,346.9c-0.2,3,0.1,7.2,2.7,9c4.2,2.9,11.5-2.4,14,0.3c2.1,2.2-2,6.6,0.3,10.3c2,3.2,8.3,0.3,10.5,3.7
  			c1.5,2.3,0.5,7.2-1.5,9"/>
  		<path class="st8_4" d="M165.1,371.2c2.9,0.7,7.1,1.2,9.3-1.1c3.6-3.6-0.4-11.7,2.7-13.7c2.6-1.7,6.2,3.1,10.2,1.4
  			c3.5-1.5,1.7-8.2,5.4-9.7c2.5-1.1,7.1,0.7,8.6,3"/>
  		<path class="st9_4" d="M198.4,405.8v8.2c0,3.7-3,6.7-6.7,6.7h0c-3.7,0-6.7-3-6.7-6.7v-5.5"/>
  	</g>
  	<g class="st6">
  		<path class="st4_4" d="M187.7,125.6c10.1,0.8,17.5,3.2,17.5,6c0,2.9-7.7,6.6-18.4,8.9"/>
  		<path class="st4_4" d="M240.4,128.7c-7.5-0.2-13.6,1.5-14.1,4.1c-0.6,2.8,5.1,7.4,14.4,10.3"/>
  		<path class="st4_4" d="M201.8,158.4c1.4-3.1,2.6-3.7,4.6-3.7c1.8,0,2,3.3,3.5,3.3c3.1,0.1,5.3-3.4,7.9-3.1c2.3,0.3,3.8,3,4.5,5.6
  			c1.2,4.4,1.8,10.1-1.3,9.9c-2.8-0.2-7.5-4.5-9.7-4.7c-2.3-0.2-8.9,2.6-10.1,2.2C200.4,167.7,199.6,163.4,201.8,158.4z"/>
  		<path class="st9_4" d="M161.2,205.3c8,6,27,18.5,54.5,21.5c29.2,3.2,51.5-6.1,60.5-10.5"/>
  		<path class="st9_4" d="M115.1,277.4c5.4,8.5,18.7,26.9,43.3,39.5c26.2,13.3,50.3,12.6,60.3,11.7"/>
  		<path class="st9_4" d="M48.1,367.1c6,8.1,20.6,25.5,46.1,36.2c27.1,11.4,51.1,8.9,61,7.3"/>
  		<path class="st9_4" d="M39.7,478.8c8.4,5.5,28,16.9,55.7,18.3c29.3,1.5,51.1-9.1,59.8-14"/>
  		<path class="st1" d="M156.5,470.6c2.8,20.1,7.2,34.2,9.3,38.9 M164.6,507.6"/>
  		<path class="st9_4" d="M137.4,128.7c3.2-0.6,7.5-1.9,8.7-5c2-5-5.4-11-3.2-14.3c1.8-2.7,7.5,0.3,10.7-3c2.8-2.9-1.8-8.5,1.2-11.6
  			c2-2.1,7.4-2.4,9.8-0.8"/>
  		<path class="st9_4" d="M300.6,195.3c-2.8,1.6-6.4,4.3-6.5,7.7c-0.2,5.4,8.8,8.5,7.8,12.4c-0.8,3.2-7.1,2.2-9.1,6.5
  			c-1.7,3.7,4.6,7.4,2.8,11.3c-1.2,2.7-6.1,4.7-8.9,4.1"/>
  		<path class="st9_4" d="M46,322.4c3.2-0.1,7.7-0.8,9.4-3.7c2.7-4.7-3.7-11.7-1-14.6c2.2-2.4,7.3,1.4,11-1.4c3.2-2.5-0.5-8.7,2.9-11.3
  			c2.3-1.8,7.6-1.2,9.8,0.6"/>
  		<path class="st9_4" d="M254,150.8v8.2c0,3.7,3.4,6.7,7.5,6.7l0,0c4.1,0,7.5-3,7.5-6.7v-5.5"/>
  	</g>
  	<path class="st10_4" d="M342.7,513.3H67c-14.6,0-27.1-10.7-29.1-25.2c-0.4-3-0.8-5.8-1.1-8.1c-3.9-32.6-6.7-73.3,9.2-112.9
  		c11.6-28.9,33.9-60.8,54.6-81.4c18.1-18.1,35.2-35.1,49.4-62.2c12.5-23.9,14.5-38.7,9.5-69c-5.4-32.7,16.7-63.6,49.4-69
  		c32.7-5.4,63.6,16.7,69,49.4c4.5,27.3,5.3,49,2.6,70.5c-3.1,24.4-11,48.6-24.2,73.8c-13.1,25-27.9,44.8-42,61"/>
  </g>
</svg>
