<?xml version="1.0" encoding="utf-8"?>
<!-- Generator: Adobe Illustrator 22.0.0, SVG Export Plug-In . SVG Version: 6.00 Build 0)  -->
<svg version="1.1" xmlns="http://www.w3.org/2000/svg" xmlns:xlink="http://www.w3.org/1999/xlink" x="0px" y="0px"
	 viewBox="0 0 1697.9 813.5" style="enable-background:new 0 0 1697.9 813.5;" xml:space="preserve">
  <style type="text/css">
  	.st0{fill:#85AA41;}
  	.st1{fill:none;}
  	.st2{fill:#4D4D4D;}
  	.st3{font-family:'Rubrik-SemiBold';}
  	.st4{font-size:40px;}
  	.st5{fill:#FFFFFF;}
  	.st6{font-size:27.3011px;}
  	.st7{font-family:'AdobeSongStd-Light-GBpc-EUC-H';}
  	.st8{font-size:25px;}
  	.st9{font-size:30px;}
  	.st10{fill:none;stroke:#4D4D4D;stroke-width:10;stroke-linecap:round;stroke-linejoin:round;stroke-miterlimit:10;}
  	.st11{fill:#4D4D4D;stroke:#4D4D4D;stroke-width:10;stroke-linecap:round;stroke-linejoin:round;stroke-miterlimit:10;}
  	.st12{display:none;}
  	.st13{display:inline;fill:none;stroke:#000000;stroke-width:10;stroke-linecap:round;stroke-linejoin:round;stroke-miterlimit:10;}
  </style>
  <g id="图层_4">
  	<g>
  		<path class="st0" d="M913.4,170.9h34.5c2,0,3.8-1.2,5.2-3.4l24.5-38.7c2.9-4.5,2.9-11.9,0-16.4l-24.5-38.7
  			c-1.4-2.2-3.3-3.4-5.2-3.4h-34.5l19.2,30.2l7.3,11.5c3,4.7,3,12.4,0,17.2l-7.3,11.5L913.4,170.9z"/>
  		<path class="st0" d="M915.4,113.7l-26.5-41.8c-0.6-1-1.5-1.5-2.3-1.5H622.9c-3.9,0-7.1,5-7.1,11.3v78.1c0,6.2,3.2,11.3,7.1,11.3
  			h263.6c0.9,0,1.7-0.5,2.3-1.5l26.5-41.8C917.8,123.7,917.8,117.5,915.4,113.7z"/>
  	</g>
  	<rect x="353.1" y="191.1" class="st1" width="281.9" height="90.5"/>
  	<text transform="matrix(1 0 0 0.98 389.3351 225.3219)" class="st2 st3 st4">Laboratory</text>
  	<rect x="971" y="176.4" class="st1" width="327.2" height="98"/>
  	<text transform="matrix(1 0 0 0.98 996.5415 210.5888)"><tspan x="0" y="0" class="st2 st3 st4">Biotechnology</tspan><tspan x="33.5" y="45.9" class="st2 st3 st4">Companies</tspan></text>
  	<rect x="693.4" y="744.8" class="st1" width="278" height="95.5"/>
  	<text transform="matrix(1 0 0 0.98 764.4944 778.9966)" class="st2 st3 st4">Farmer</text>
  	<rect x="602.5" y="87.8" class="st1" width="328.1" height="99.4"/>
  	<text transform="matrix(1 0 0 0.98 724.968 111.8174)"><tspan x="0" y="0" class="st5 st3 st6">Sale</tspan><tspan x="55.8" y="0" class="st5 st7 st6">，</tspan><tspan x="-78.1" y="33.4" class="st5 st3 st6">Technical Support</tspan></text>
  	<g>
  		<path class="st0" d="M634.6,313.4L618.8,286c-0.9-1.6-2.7-2.5-5.1-2.6l-41.9-1.8c-4.9-0.2-10.8,3.2-13,7.5l-19.4,37.2
  			c-1.1,2.1-1.2,4.1-0.3,5.7l15.8,27.4l15.2-29l5.8-11c2.4-4.6,8.5-8.1,13.6-7.9l12.4,0.5L634.6,313.4z"/>
  		<path class="st0" d="M588.3,338l-21,40.2c-0.5,0.9-0.5,1.9-0.1,2.6l120.7,209c1.8,3.1,7.3,3.4,12.2,0.5l61.9-35.7
  			c4.9-2.8,7.5-7.7,5.7-10.8l-120.7-209c-0.4-0.7-1.2-1.1-2.3-1.2l-45.3-1.9C595.1,331.4,590.2,334.3,588.3,338z"/>
  	</g>
  	<rect x="604.4" y="311.9" transform="matrix(0.866 -0.5 0.5 0.866 -143.9742 386.8943)" class="st1" width="91.1" height="300.4"/>
  	<text transform="matrix(0.5 0.866 -0.8487 0.49 636.6404 390.8094)"><tspan x="0" y="0" class="st5 st3 st8">Application</tspan><tspan x="10.6" y="30.6" class="st5 st3 st8">Feedback</tspan></text>
  	<g>
  		<path class="st0" d="M912.1,512.7l-15.8,27.4c-0.9,1.6-0.8,3.6,0.3,5.7l19.4,37.2c2.3,4.4,8.1,7.7,13,7.5l41.9-1.8
  			c2.4-0.1,4.2-1,5.1-2.6l15.8-27.4l-32.8,1.4l-12.4,0.5c-5.1,0.2-11.3-3.3-13.6-7.9l-5.8-11L912.1,512.7z"/>
  		<path class="st0" d="M956.6,540.6l45.3-1.9c1.1,0,1.9-0.5,2.3-1.2l120.7-209c1.8-3.1-0.7-8-5.7-10.8l-61.9-35.7
  			c-4.9-2.8-10.4-2.6-12.2,0.5l-120.7,209c-0.4,0.7-0.4,1.6,0.1,2.6l21,40.2C947.5,537.9,952.4,540.7,956.6,540.6z"/>
  	</g>
  	<rect x="886.6" y="368.1" transform="matrix(0.5 -0.866 0.866 0.5 160.2201 1104.7021)" class="st1" width="300.4" height="91.1"/>
  	<text transform="matrix(0.5 -0.866 0.8487 0.49 997.4468 434.732)"><tspan x="0" y="0" class="st5 st3 st8">Sale</tspan><tspan x="51.1" y="0" class="st5 st7 st8">，</tspan><tspan x="-51.3" y="30.6" class="st5 st3 st8">Soil Evaluation</tspan></text>
  	<rect x="1301.1" y="79.5" class="st1" width="358.5" height="190.5"/>
  	<text transform="matrix(1 0 0 0.98 1301.0839 105.1854)"><tspan x="0" y="0" class="st0 st3 st9">Cultivation and Expasion</tspan><tspan x="0" y="45.9" class="st0 st3 st9">Earthworm breeding</tspan></text>
  	<circle class="st0" cx="1277.9" cy="95.8" r="6.5"/>
  	<circle class="st0" cx="1277.9" cy="139.4" r="6.5"/>
  	<rect x="17" y="79.5" class="st1" width="343.9" height="179.3"/>
  	<text transform="matrix(1 0 0 0.98 85.9228 105.1854)"><tspan x="0" y="0" class="st0 st3 st9">Patent registration</tspan><tspan x="-61.4" y="45.9" class="st0 st3 st9">Technical improvement</tspan></text>
  	<circle class="st0" cx="381.6" cy="95.8" r="6.5"/>
  	<circle class="st0" cx="381.6" cy="139.8" r="6.5"/>
  	<rect x="955.3" y="646.3" class="st1" width="358.5" height="190.5"/>
  	<text transform="matrix(1 0 0 0.98 955.2587 671.9049)"><tspan x="0" y="0" class="st0 st3 st9">Inoculation</tspan><tspan x="0" y="45.9" class="st0 st3 st9">Regular replenishment</tspan></text>
  	<circle class="st0" cx="932.1" cy="662.6" r="6.5"/>
  	<circle class="st0" cx="932.1" cy="706.5" r="6.5"/>
  </g>
  <g id="图层_1">
  	<g>
  		<path class="st10" d="M527.6,53.2h-67.1c-4.3,0-7.8-3.5-7.8-7.8v-3.4c0-4.3,3.5-7.8,7.8-7.8h67.1c4.3,0,7.8,3.5,7.8,7.8v3.4
  			C535.4,49.6,531.9,53.2,527.6,53.2z"/>
  		<path class="st10" d="M553.4,140l-32-45.6c-2.4-3.4-3.7-7.5-3.7-11.8V53.2h-47.1v29.4c0,4.2-1.3,8.3-3.7,11.8l-32,45.6
  			c-7.5,10.7,0.2,25.5,13.3,25.5h92C553.2,165.5,560.9,150.7,553.4,140z"/>
  	</g>
  </g>
  <g id="图层_2">
  	<g>
  		<path class="st10" d="M1073.2,163.7c0-36.3,29.4-65.7,65.7-65.7s65.7,29.4,65.7,65.7"/>
  		<line class="st10" x1="1062.6" y1="163.7" x2="1216.6" y2="163.7"/>
  		<line class="st10" x1="1119.6" y1="122.4" x2="1119.6" y2="135.1"/>
  		<line class="st10" x1="1155.5" y1="122" x2="1155.5" y2="134.7"/>
  		<circle class="st10" cx="1083.9" cy="91.6" r="0.4"/>
  		<circle class="st10" cx="1130" cy="42" r="4.6"/>
  		<circle class="st10" cx="1190" cy="71.1" r="11.1"/>
  	</g>
  	<g>
  		<path class="st10" d="M876.6,690.8c-4.4-2.9-10.5-7.6-16.3-14.6c-7.2-8.6-11-17.1-13-22.6"/>
  		<line class="st10" x1="802.5" y1="688.9" x2="847.3" y2="653.6"/>
  		<path class="st10" d="M831.8,726.1c-4.3-2.5-10.7-6.8-16.7-14c-7.7-9-11-18.1-12.5-23.2"/>
  		<path class="st10" d="M861.7,702.5c-3.9-1.8-11.5-5.9-18.3-14.1c-7.7-9.3-10.2-18.8-11-23.1"/>
  		<path class="st10" d="M846.7,714.3c-4.2-2.4-11.4-7-17.9-15.2c-7-8.7-10-17.2-11.4-22"/>

  			<rect x="809.5" y="655" transform="matrix(-0.7857 0.6187 -0.6187 -0.7857 1874.8673 677.9055)" class="st11" width="21.1" height="17.5"/>

  			<rect x="785.7" y="598.3" transform="matrix(-0.7857 0.6187 -0.6187 -0.7857 1808.1841 636.5302)" class="st10" width="16.2" height="66.5"/>
  	</g>
  </g>
  <g id="图层_3" class="st12">
  	<polygon class="st13" points="879.3,748.7 1241.9,120.6 516.7,120.6 	"/>
  </g>
</svg>
