<?xml version="1.0" encoding="utf-8"?>
<!-- Generator: Adobe Illustrator 23.0.0, SVG Export Plug-In . SVG Version: 6.00 Build 0)  -->
<svg version="1.1" id="图层_1" xmlns="http://www.w3.org/2000/svg" xmlns:xlink="http://www.w3.org/1999/xlink" x="0px" y="0px"
	 viewBox="0 0 1011.7 1080" style="enable-background:new 0 0 1011.7 1080;" xml:space="preserve">
<style type="text/css">
	.st0{opacity:0.99;}
	.st1{fill:#F9D1B1;}
	.st2{display:none;opacity:0.99;}
	.st3{display:inline;fill:#F9D1B1;}
	.st4{fill:#DBAF91;}
	.st5{fill:#8E725F;}
	.st6{fill:#A4866C;}
	.st7{fill:#D1B59B;}
	.st8{fill:#FEF3E9;}
	.st9{fill:#E2B9A0;}
	.st10{fill:#D0BBA9;}
	.st11{fill:#F55E46;}
	.st12{clip-path:url(#SVGID_2_);fill:#FFCB95;}
	.st13{clip-path:url(#SVGID_4_);fill:#B63635;}
	.st14{opacity:0.73;clip-path:url(#SVGID_6_);}
	.st15{clip-path:url(#SVGID_8_);}
	.st16{fill:#8B2323;}
	.st17{clip-path:url(#SVGID_10_);}
	.st18{clip-path:url(#SVGID_12_);}
	.st19{clip-path:url(#SVGID_14_);}
	.st20{clip-path:url(#SVGID_16_);}
	.st21{clip-path:url(#SVGID_18_);}
	.st22{clip-path:url(#SVGID_20_);}
	.st23{clip-path:url(#SVGID_22_);}
	.st24{fill:#FFCB95;}
	.st25{fill:#B3E56A;}
	.st26{fill:#559E65;}
	.st27{fill:#56A166;}
	.st28{clip-path:url(#SVGID_24_);fill:#559E65;}
	.st29{clip-path:url(#SVGID_26_);fill:#56A166;}
	.st30{clip-path:url(#SVGID_28_);fill:#56A166;}
	.st31{clip-path:url(#SVGID_30_);fill:#B3E56A;}
	.st32{clip-path:url(#SVGID_32_);fill:#56A166;}
	.st33{fill:none;stroke:#FFFFFF;stroke-miterlimit:10;}
	.st34{fill:none;stroke:#FFFFFF;stroke-miterlimit:10;stroke-dasharray:12.1189,12.1189;}
	.st35{fill:none;stroke:#8E725F;stroke-width:2;stroke-miterlimit:10;}
</style>
<g id="灯光">

	<image style="display:none;overflow:visible;enable-background:new    ;" width="1920" height="1080" xlink:href="F:\Tencent Files\2746688976\3322035730\FileRecv\r-light.png"  transform="matrix(0.6076 0 0 1.0338 -46.6496 2.4235)">
	</image>

	<image style="overflow:visible;enable-background:new;" width="1920" height="1080" xlink:href="F:\Tencent Files\2746688976\3322035730\FileRecv\l-light.png"  transform="matrix(0.609 0 0 1.0415 -66.7234 0)">
	</image>
</g>
<g id="地">
	<g id="底">
		<g class="st0">
			<path class="st1" d="M532.6,806.2c-250.3,0-453.1,40.2-453.1,89.6c0,49.4,202.9,89.6,453.1,89.6c97.5,0,187.8-6.1,261.8-16.4
				c0-0.1,0-0.1,0-0.1h-0.1v-75.5c0,11.8,24.7,21.4,55.3,21.4c30.6,0,55.3-9.6,55.3-21.4v53.6c51-14.5,81-32.1,81-51.2
				C985.7,846.4,782.9,806.2,532.6,806.2z"/>
		</g>
		<g class="st2">
			<path class="st3" d="M851.9,959.5c-0.5,0.1-0.9,0.2-1.4,0.2C850.9,959.6,851.4,959.6,851.9,959.5z"/>
		</g>
		<g class="st2">
			<path class="st3" d="M844.5,960.9c-0.5,0.1-0.8,0.2-1.3,0.2C843.7,961,844.1,960.9,844.5,960.9z"/>
		</g>
		<g class="st2">
			<path class="st3" d="M855.5,958.8c-0.5,0.1-0.8,0.2-1.3,0.2C854.5,958.9,854.9,958.8,855.5,958.8z"/>
		</g>
		<g class="st2">
			<path class="st3" d="M862.3,957.4c-0.4,0.1-0.7,0.1-0.9,0.2C861.6,957.5,861.9,957.4,862.3,957.4z"/>
		</g>
		<g class="st2">
			<path class="st3" d="M815.4,965.9c-0.6,0.1-1.2,0.2-1.8,0.4C814.3,966,814.9,965.9,815.4,965.9z"/>
		</g>
		<g class="st2">
			<path class="st3" d="M858.9,957.9c-0.5,0.1-0.8,0.2-1.2,0.2C858.2,958.2,858.5,958.1,858.9,957.9z"/>
		</g>
		<g class="st2">
			<path class="st3" d="M819.4,965.2c-0.6,0.1-1.2,0.2-1.8,0.4C818.2,965.3,818.8,965.3,819.4,965.2z"/>
		</g>
	</g>
	<g>
		<ellipse class="st4" cx="849.5" cy="893.4" rx="54" ry="20.3"/>
		<path class="st5" d="M849.5,874.3c14.5,0,28,2.1,38.2,6.1c9.2,3.6,14.6,8.3,14.6,12.9c0,4.6-5.4,9.2-14.6,12.9
			c-10.2,4-23.7,6.1-38.2,6.1c-14.5,0-28-2.1-38.2-6.1c-9.2-3.6-14.6-8.3-14.6-12.9c0-4.6,5.4-9.2,14.6-12.9
			C821.5,876.6,835,874.3,849.5,874.3 M849.5,871.9c-30.4,0-55.3,9.6-55.3,21.4c0,11.8,24.7,21.4,55.3,21.4s55.3-9.6,55.3-21.4
			C904.7,881.5,880,871.9,849.5,871.9L849.5,871.9z"/>
	</g>
</g>
<g id="菌">
	<g>
		<g>
			<path class="st6" d="M346.6,897.6c0,4.3,0,8.5,0,12.9c0,0.8,0.7,1.5,1.5,1.5c1.1,0,2,0,3,0c2,0,2-3,0-3c-1.1,0-2,0-3,0
				c0.5,0.5,1.1,1.1,1.5,1.5c0-4.3,0-8.5,0-12.9C349.7,895.8,346.6,895.8,346.6,897.6L346.6,897.6z"/>
		</g>
	</g>
	<g>
		<g>
			<path class="st6" d="M372.4,897.6c0,4.3,0,8.5,0,12.9c0,0.8,0.7,1.5,1.5,1.5c1.1,0,2,0,3,0c2,0,2-3,0-3c-1.1,0-2,0-3,0
				c0.5,0.5,1.1,1.1,1.5,1.5c0-4.3,0-8.5,0-12.9C375.4,895.8,372.4,895.8,372.4,897.6L372.4,897.6z"/>
		</g>
	</g>
	<g>
		<g>
			<path class="st6" d="M390.3,875.7c4.2,4.3,10.3,6,16.2,4.7c1.9-0.5,1.1-3.4-0.8-2.9c-4.8,1.1-9.7-0.4-13.2-4
				C391.1,872.1,388.9,874.3,390.3,875.7L390.3,875.7z"/>
		</g>
	</g>
	<g>
		<g>
			<circle class="st7" cx="362.9" cy="868.8" r="35.6"/>
		</g>
		<g>
			<path class="st8" d="M351.5,834.9c-3.7,1.3-7.3,3.2-10.3,5.5c-5.5,8.7-7.1,19.8-3.5,30.2c6.3,18.6,26.5,28.6,45.1,22.4
				c3.7-1.3,7.3-3.2,10.3-5.5c5.5-8.7,7.1-19.8,3.5-30.2C390.3,838.6,370.2,828.6,351.5,834.9z"/>
		</g>
	</g>
	<g>
		<g>
			<path class="st6" d="M368.1,869.7c0.9,2.5,3.3,7.3,6.7,7c3.7-0.4,3.3-6.7,2.7-9c-0.2-0.9-1.8-0.6-1.5,0.5c0.4,1.3,1.1,7.4-1.6,7
				c-2.3-0.4-4.1-4-4.8-5.9C369.1,868.4,367.7,868.7,368.1,869.7L368.1,869.7z"/>
		</g>
	</g>
	<g>
		<g>
			<path class="st6" d="M355.8,856c0.5,2.1,1.1,4.3,1.5,6.4c0.7,2.9,5,1.6,4.4-1.2c-0.5-2.1-1.1-4.3-1.5-6.4
				C359.5,851.9,355.1,853,355.8,856L355.8,856z"/>
		</g>
	</g>
	<g>
		<g>
			<path class="st6" d="M376,852.9c0.5,2.1,1.1,4.3,1.5,6.4c0.7,2.9,5,1.6,4.4-1.2c-0.5-2.1-1.1-4.3-1.5-6.4
				C379.8,848.8,375.3,850,376,852.9L376,852.9z"/>
		</g>
	</g>
	<g>
		<g>
			<path class="st8" d="M357.4,872.5c-11.6,0.5-19.6,11.8-23.3,21.7c-0.7,1.9,2.2,2.7,2.9,0.8c3.2-8.4,10.2-19,20.3-19.4
				C359.3,875.5,359.4,872.3,357.4,872.5L357.4,872.5z"/>
		</g>
	</g>
</g>
<g id="蘑菇">
	<path class="st9" d="M282.2,898.9c-24.8-6.8-46.4-7.1-58.3-7.4c-36.4-0.5-41.2,0.1-44.5,3.6c-4.9,5.5-3.6,15,2.3,20.3
		c4.3,3.7,11.6,5.6,43,1.9c8.3-0.9,65.8-8,65.2-14.8C289.7,901.1,287,900.2,282.2,898.9z"/>
	<path class="st10" d="M236.4,853.5c-1.5,14.5-2.6,25.3,4.3,36.2c7.7,12.1,20.3,16.4,25.2,17.8c1.4,0.4,21.3,5,34.3-8
		c11-11,9.1-26.8,8.3-33.5c-0.7-5.6-3.4-13.7-11.7-28.2c-12.5-22-14.6-27.6-20.8-30.7c-1.6-0.8-10-4.7-18.4-1.9
		C240.9,811,238.1,838.2,236.4,853.5z"/>
	<g id="图层_6">
		<path class="st11" d="M249.1,702.2c-6.3,2-15.1,5.9-22.7,13.5c-8.3,8.3-11.4,17.3-12.9,21.4c-13.8,36.4-45.5,44.4-44.1,63.8
			c1.5,20.6,39,34.3,57.7,38.6c45.4,10.5,89.7-8.9,112.9-35c5.9-6.6,14.9-17,13.5-29.5c-1.2-10.9-9.4-14.1-29.5-32.5
			c-29.2-26.9-33.4-40-51.5-43C262.8,698.2,254.5,700.3,249.1,702.2z"/>
		<g>
			<g>
				<g>
					<g>
						<g>
							<g>
								<defs>
									<path id="SVGID_1_" d="M249.1,702.2c-6.3,2-15.1,5.9-22.7,13.5c-8.3,8.3-11.4,17.3-12.9,21.4
										c-13.8,36.4-45.5,44.4-44.1,63.8c1.5,20.6,39,34.3,57.7,38.6c45.4,10.5,89.7-8.9,112.9-35c5.9-6.6,14.9-17,13.5-29.5
										c-1.2-10.9-9.4-14.1-29.5-32.5c-29.2-26.9-33.4-40-51.5-43C262.8,698.2,254.5,700.3,249.1,702.2z"/>
								</defs>
								<clipPath id="SVGID_2_">
									<use xlink:href="#SVGID_1_"  style="overflow:visible;"/>
								</clipPath>
								<path class="st12" d="M251.2,689c-5.3,4.8,4,24.1,12.8,35c3.3,4,14.4,17.4,30.8,19.7c6,0.8,8-0.5,14.8,1.2
									c8.9,2.2,19.6,7.8,19,12.3c-0.4,2.9-5.3,2.9-17.2,9.2c-14.3,7.6-15.7,12.2-15.9,14.2c-0.1,0.6-0.8,5,1.9,8
									c5.9,6.4,22.7-0.8,29.5-3.6c11.1-4.8,18.6-8,20.8-13.5C357.2,747.1,263.5,677.7,251.2,689z"/>
							</g>
						</g>
					</g>
				</g>
			</g>
			<g>
				<g>
					<g>
						<g>
							<g>
								<defs>
									<path id="SVGID_3_" d="M249.1,702.2c-6.3,2-15.1,5.9-22.7,13.5c-8.3,8.3-11.4,17.3-12.9,21.4
										c-13.8,36.4-45.5,44.4-44.1,63.8c1.5,20.6,39,34.3,57.7,38.6c45.4,10.5,89.7-8.9,112.9-35c5.9-6.6,14.9-17,13.5-29.5
										c-1.2-10.9-9.4-14.1-29.5-32.5c-29.2-26.9-33.4-40-51.5-43C262.8,698.2,254.5,700.3,249.1,702.2z"/>
								</defs>
								<clipPath id="SVGID_4_">
									<use xlink:href="#SVGID_3_"  style="overflow:visible;"/>
								</clipPath>
								<path class="st13" d="M160.3,787.2c4.6-0.9,9.4,6.8,12.3,10.4c23.2,29.4,92.5,16.9,104.3,14.8c36.9-6.7,64.3-23.2,81-35.6
									c6,11.4,16.6,35.7,8,58.9c-15.6,41.9-82.1,48.5-120.8,42.4c-42.5-6.7-90.3-34.3-92.6-65.1
									C151.7,804,154.4,788.4,160.3,787.2z"/>
							</g>
						</g>
					</g>
				</g>
			</g>
			<g>
				<g>
					<g>
						<g>
							<g>
								<defs>
									<path id="SVGID_5_" d="M249.1,702.2c-6.3,2-15.1,5.9-22.7,13.5c-8.3,8.3-11.4,17.3-12.9,21.4
										c-13.8,36.4-45.5,44.4-44.1,63.8c1.5,20.6,39,34.3,57.7,38.6c45.4,10.5,89.7-8.9,112.9-35c5.9-6.6,14.9-17,13.5-29.5
										c-1.2-10.9-9.4-14.1-29.5-32.5c-29.2-26.9-33.4-40-51.5-43C262.8,698.2,254.5,700.3,249.1,702.2z"/>
								</defs>
								<clipPath id="SVGID_6_">
									<use xlink:href="#SVGID_5_"  style="overflow:visible;"/>
								</clipPath>
							</g>
						</g>
					</g>
				</g>
			</g>
			<g>
				<g>
					<g>
						<g>
							<g>
								<defs>
									<path id="SVGID_7_" d="M249.1,702.2c-6.3,2-15.1,5.9-22.7,13.5c-8.3,8.3-11.4,17.3-12.9,21.4
										c-13.8,36.4-45.5,44.4-44.1,63.8c1.5,20.6,39,34.3,57.7,38.6c45.4,10.5,89.7-8.9,112.9-35c5.9-6.6,14.9-17,13.5-29.5
										c-1.2-10.9-9.4-14.1-29.5-32.5c-29.2-26.9-33.4-40-51.5-43C262.8,698.2,254.5,700.3,249.1,702.2z"/>
								</defs>
								<clipPath id="SVGID_8_">
									<use xlink:href="#SVGID_7_"  style="overflow:visible;"/>
								</clipPath>
								<g class="st15">
									<g>
										<path class="st16" d="M174.6,782.4c-3.4,3.6-6.2,8.5-4.6,13.7c2,6.1,9,9.6,14.3,12.2c13.3,6.6,27.3,10.3,42.3,9.8
											c2-0.1,2-3.2,0-3c-12.4,0.4-24.7-2.1-36.1-7.3c-5.4-2.5-11.7-4.9-15.7-9.5c-4.1-4.7-1.9-9.7,1.9-13.8
											C178.1,783.1,175.9,781,174.6,782.4L174.6,782.4z"/>
									</g>
								</g>
							</g>
						</g>
					</g>
				</g>
			</g>
			<g>
				<g>
					<g>
						<g>
							<g>
								<defs>
									<path id="SVGID_9_" d="M249.1,702.2c-6.3,2-15.1,5.9-22.7,13.5c-8.3,8.3-11.4,17.3-12.9,21.4
										c-13.8,36.4-45.5,44.4-44.1,63.8c1.5,20.6,39,34.3,57.7,38.6c45.4,10.5,89.7-8.9,112.9-35c5.9-6.6,14.9-17,13.5-29.5
										c-1.2-10.9-9.4-14.1-29.5-32.5c-29.2-26.9-33.4-40-51.5-43C262.8,698.2,254.5,700.3,249.1,702.2z"/>
								</defs>
								<clipPath id="SVGID_10_">
									<use xlink:href="#SVGID_9_"  style="overflow:visible;"/>
								</clipPath>
								<g class="st17">
									<g>
										<path class="st16" d="M171.6,783.2c-4.3,7.4-6,16.2-2.5,24.2c3.4,7.7,10.4,13,17.2,17.4c14.4,9.4,29.7,15.9,46.7,18.7
											c2.9,0.5,4.2-4,1.2-4.4c-15-2.5-28.8-8-41.8-15.8c-6.4-4-13.5-8.2-17.6-14.6c-4.8-7.4-3.6-15.8,0.6-23.2
											C177.1,783,173.1,780.7,171.6,783.2L171.6,783.2z"/>
									</g>
								</g>
							</g>
						</g>
					</g>
				</g>
			</g>
			<g>
				<g>
					<g>
						<g>
							<g>
								<defs>
									<path id="SVGID_11_" d="M249.1,702.2c-6.3,2-15.1,5.9-22.7,13.5c-8.3,8.3-11.4,17.3-12.9,21.4
										c-13.8,36.4-45.5,44.4-44.1,63.8c1.5,20.6,39,34.3,57.7,38.6c45.4,10.5,89.7-8.9,112.9-35c5.9-6.6,14.9-17,13.5-29.5
										c-1.2-10.9-9.4-14.1-29.5-32.5c-29.2-26.9-33.4-40-51.5-43C262.8,698.2,254.5,700.3,249.1,702.2z"/>
								</defs>
								<clipPath id="SVGID_12_">
									<use xlink:href="#SVGID_11_"  style="overflow:visible;"/>
								</clipPath>
								<g class="st18">
									<g>
										<path class="st16" d="M197.6,815c15.7,19.9,39.8,30.4,64.9,30.4c2,0,2-3,0-3c-24.5,0-47.5-10.3-62.8-29.6
											C198.6,811.2,196.4,813.5,197.6,815L197.6,815z"/>
									</g>
								</g>
							</g>
						</g>
					</g>
				</g>
			</g>
			<g>
				<g>
					<g>
						<g>
							<g>
								<defs>
									<path id="SVGID_13_" d="M249.1,702.2c-6.3,2-15.1,5.9-22.7,13.5c-8.3,8.3-11.4,17.3-12.9,21.4
										c-13.8,36.4-45.5,44.4-44.1,63.8c1.5,20.6,39,34.3,57.7,38.6c45.4,10.5,89.7-8.9,112.9-35c5.9-6.6,14.9-17,13.5-29.5
										c-1.2-10.9-9.4-14.1-29.5-32.5c-29.2-26.9-33.4-40-51.5-43C262.8,698.2,254.5,700.3,249.1,702.2z"/>
								</defs>
								<clipPath id="SVGID_14_">
									<use xlink:href="#SVGID_13_"  style="overflow:visible;"/>
								</clipPath>
								<g class="st19">
									<g>
										<path class="st16" d="M229.3,820.8c7.7,13.3,20.8,22,35.9,24.7c2,0.4,2.8-2.7,0.8-2.9c-14.3-2.5-26.8-10.5-34.1-23.2
											C230.9,817.5,228.3,819.1,229.3,820.8L229.3,820.8z"/>
									</g>
								</g>
							</g>
						</g>
					</g>
				</g>
			</g>
			<g>
				<g>
					<g>
						<g>
							<g>
								<defs>
									<path id="SVGID_15_" d="M249.1,702.2c-6.3,2-15.1,5.9-22.7,13.5c-8.3,8.3-11.4,17.3-12.9,21.4
										c-13.8,36.4-45.5,44.4-44.1,63.8c1.5,20.6,39,34.3,57.7,38.6c45.4,10.5,89.7-8.9,112.9-35c5.9-6.6,14.9-17,13.5-29.5
										c-1.2-10.9-9.4-14.1-29.5-32.5c-29.2-26.9-33.4-40-51.5-43C262.8,698.2,254.5,700.3,249.1,702.2z"/>
								</defs>
								<clipPath id="SVGID_16_">
									<use xlink:href="#SVGID_15_"  style="overflow:visible;"/>
								</clipPath>
								<g class="st20">
									<g>
										<path class="st16" d="M259.9,825.4c1.5,3.7,4,6.8,7.4,8.9c1.8,1.1,3.3-1.6,1.5-2.7c-2.8-1.6-4.9-4.1-6.1-7
											C262.1,822.7,259,823.5,259.9,825.4L259.9,825.4z"/>
									</g>
								</g>
							</g>
						</g>
					</g>
				</g>
			</g>
			<g>
				<g>
					<g>
						<g>
							<g>
								<defs>
									<path id="SVGID_17_" d="M249.1,702.2c-6.3,2-15.1,5.9-22.7,13.5c-8.3,8.3-11.4,17.3-12.9,21.4
										c-13.8,36.4-45.5,44.4-44.1,63.8c1.5,20.6,39,34.3,57.7,38.6c45.4,10.5,89.7-8.9,112.9-35c5.9-6.6,14.9-17,13.5-29.5
										c-1.2-10.9-9.4-14.1-29.5-32.5c-29.2-26.9-33.4-40-51.5-43C262.8,698.2,254.5,700.3,249.1,702.2z"/>
								</defs>
								<clipPath id="SVGID_18_">
									<use xlink:href="#SVGID_17_"  style="overflow:visible;"/>
								</clipPath>
								<g class="st21">
									<g>
										<path class="st11" d="M286.2,818.8c-0.4,4.3-2.5,8.3-5.7,11.1c-1.5,1.3,0.7,3.5,2.1,2.1c3.9-3.4,6.1-8.2,6.6-13.3
											C289.4,816.8,286.3,816.8,286.2,818.8L286.2,818.8z"/>
									</g>
								</g>
							</g>
						</g>
					</g>
				</g>
			</g>
			<g>
				<g>
					<g>
						<g>
							<g>
								<defs>
									<path id="SVGID_19_" d="M249.1,702.2c-6.3,2-15.1,5.9-22.7,13.5c-8.3,8.3-11.4,17.3-12.9,21.4
										c-13.8,36.4-45.5,44.4-44.1,63.8c1.5,20.6,39,34.3,57.7,38.6c45.4,10.5,89.7-8.9,112.9-35c5.9-6.6,14.9-17,13.5-29.5
										c-1.2-10.9-9.4-14.1-29.5-32.5c-29.2-26.9-33.4-40-51.5-43C262.8,698.2,254.5,700.3,249.1,702.2z"/>
								</defs>
								<clipPath id="SVGID_20_">
									<use xlink:href="#SVGID_19_"  style="overflow:visible;"/>
								</clipPath>
								<g class="st22">
									<g>
										<path class="st11" d="M304,811c-1.5,10.7-7.1,20.3-15.8,26.7c-1.6,1.2-0.1,3.7,1.5,2.7c9.4-6.9,15.6-17,17.3-28.6
											C307.3,809.9,304.2,809.1,304,811L304,811z"/>
									</g>
								</g>
							</g>
						</g>
					</g>
				</g>
			</g>
			<g>
				<g>
					<g>
						<g>
							<g>
								<defs>
									<path id="SVGID_21_" d="M249.1,702.2c-6.3,2-15.1,5.9-22.7,13.5c-8.3,8.3-11.4,17.3-12.9,21.4
										c-13.8,36.4-45.5,44.4-44.1,63.8c1.5,20.6,39,34.3,57.7,38.6c45.4,10.5,89.7-8.9,112.9-35c5.9-6.6,14.9-17,13.5-29.5
										c-1.2-10.9-9.4-14.1-29.5-32.5c-29.2-26.9-33.4-40-51.5-43C262.8,698.2,254.5,700.3,249.1,702.2z"/>
								</defs>
								<clipPath id="SVGID_22_">
									<use xlink:href="#SVGID_21_"  style="overflow:visible;"/>
								</clipPath>
								<g class="st23">
									<g>
										<path class="st11" d="M335,799.3c-13,15.8-28.9,28.8-47,38.4c-1.8,0.9-0.2,3.5,1.5,2.7c18.3-9.7,34.4-22.9,47.5-38.9
											C338.5,800,336.3,797.8,335,799.3L335,799.3z"/>
									</g>
								</g>
							</g>
						</g>
					</g>
				</g>
			</g>
		</g>
		<circle class="st24" cx="284.3" cy="793.3" r="4.9"/>
	</g>
</g>
<g id="叶子">
	<g>
		<g>
			<path class="st25" d="M132,771.9c-3.4-7.6-12.9-11.4-20.6-8.2c-3.6,1.5-2,7.4,1.6,5.9c5.5-2.2,11.2,0,13.7,5.4
				C128.4,778.6,133.6,775.4,132,771.9L132,771.9z"/>
		</g>
	</g>
	<g>
		<g>
			<path class="st26" d="M215,892.8c-16.7-10.7-31.7-23.7-44.5-38.8c-17.9-21.2-30-46.4-36.2-73.3c-5.6-24.5-7.8-51.4-1.1-75.9
				c2.6-9.6,6.8-19.1,14.3-26c4.7-4.3,10.8-7.4,16.7-9.8c7.4-3,15.1-5.4,23.1-6.8c4.7-0.8,11.1-1.8,15.2,0.4
				c4.6,2.3,7.6,8.7,7.3,13.7c-0.5,6.4-8,8.4-13.3,6.8c-2.3-0.7-4-2-4-4.6c-0.1-3.5,2.2-6.9,6.1-5c3.5,1.6,6.7-3.6,3-5.3
				c-7.1-3.3-13.9,0.4-15.1,8.1c-0.9,6.3,2.5,11.2,8.5,12.9c5.9,1.5,13.2,0.4,17.3-4.2c4.7-5.2,4-12.8,1.2-18.6
				c-2.1-4.3-5.6-8.3-10.3-9.8c-5.7-2-12.4-0.9-18.3,0.1c-9.1,1.6-18.1,4.6-26.5,8.4c-6.1,2.8-12.2,6.2-16.9,11.1
				c-8.3,8.7-12.9,20.4-15.5,32c-3,14.2-3.5,28.8-2.3,43.2c2.3,31.6,11.8,62.9,29.2,89.5c14.1,21.4,32.7,39.7,53.9,54
				c1.8,1.2,3.4,2.3,5.3,3.4C215.3,900.3,218.3,894.9,215,892.8L215,892.8z"/>
		</g>
	</g>
	<g>
		<g>
			<path class="st26" d="M172.8,882.2c-8.4,2.7-18,3.3-24.9-3.2c-5-4.7-7.8-11.2-9.6-17.9c-3.7-13.5-4-27.9-3.9-41.8
				c0.2-30,8.8-58.8,17.4-87.2c6-19.9,12.5-39.8,18.5-59.7c4.1-13.5,8-27.2,9.8-41.2c1.8-12.9,1.5-25.6,0.4-38.5
				c-1.2-13.3-2.2-32.9-15-40.9c-13.8-8.4-33.4,3.2-39.2,16.3c-3,6.9-4.6,16.2-1.1,23.2c3.3,6.7,13.3,8.7,18.7,3.3
				c2.8-2.7,3.2-6.7,2.5-10.3c-0.7-3.9-6.7-2.2-5.9,1.6c0.7,3.9-2.1,6-5.9,5.5c-3.4-0.5-4.8-3.4-5.3-6.6c-1.2-8,2.1-16.3,7.7-21.8
				c5.2-4.9,12.9-8.8,20.3-7.7c6.6,0.9,10.3,6.7,12.4,12.4c2.6,7.1,3.5,14.9,4.2,22.5c0.6,6.4,1.2,12.9,1.2,19.3
				c0.1,11.6-1.4,23.1-3.9,34.3c-3.3,14.8-8,29.4-12.4,43.8c-6.1,19.6-12.3,39.1-18,58.9c-7.3,25.4-13.2,50.8-12.9,77.4
				c0.2,22.7,1.5,66.2,33.4,66.3c4.3,0,8.7-0.9,12.9-2.2C178.1,886.9,176.5,880.9,172.8,882.2L172.8,882.2z"/>
		</g>
	</g>
	<path class="st25" d="M169.8,550.7c1.6-5.5,6.9-5.2,20.8-15.3c12.9-9.5,12.6-12.9,20.3-16.6c13.7-6.7,28.7-2.7,33.7-1.2
		c21.9,6,23.9,19.9,43,30.7c26.3,14.9,54.3,9.2,62.6,7.4c13.1-2.9,20.5-7.8,20.6-7.7c0.1,0.4-61.8,29.6-132.2,39
		c-10.9,1.5-32.7,3.9-50.9-8.5C178.3,571.9,167.1,559.7,169.8,550.7z"/>
	<g>
		<g>
			<path class="st26" d="M194.6,661.6c10.9-4.1,19.9-11.9,25.2-22.2c1.8-3.5-3.5-6.7-5.3-3c-4.6,8.9-12.1,15.9-21.4,19.4
				C189.4,657,190.9,663,194.6,661.6L194.6,661.6z"/>
		</g>
	</g>
	<path class="st27" d="M128.1,698.6c-4.4-2.3-4.1-13.3,0-20.8c3-5.6,9.6-11.9,13.5-10.4c4.9,2,6.3,16.6-0.6,25.2
		C137.9,696.4,131.7,700.3,128.1,698.6z"/>
	<g>
		<g>
			<path class="st27" d="M130.8,710.5c-2.9-6.3-5.7-12.6-8.5-19c-1.6-3.6-6.9-0.5-5.3,3c2.9,6.3,5.7,12.6,8.5,19
				C127.1,717.2,132.5,714,130.8,710.5L130.8,710.5z"/>
		</g>
	</g>
	<path class="st25" d="M122.1,690.6c1.5-3.3,2.2-8.4,0-12.3c-7.4-12.9-45-4-45.1-5.3c-0.1-0.5,4-1.9,8.3-0.9
		c6.4,1.4,10.1,7.1,11,8.5c2.9,4.7,1.4,7.5,4.9,12.3c1.2,1.5,4.3,5.9,9.2,6.1C115.7,699.5,120.2,694.7,122.1,690.6z"/>
	<path class="st27" d="M128.1,752.6c0.2-8.8,13.1-15.9,23.3-15.9c5.7,0,11,2.7,21.8,8.3c11.2,5.9,19.9,12.2,20.3,11.7
		c0.1-0.2-0.7-1.2-1.9-1.9c-4.8-2.8-11.7,3-20.3,7.4c-6.1,3-19,9.7-30.1,5.5C135.3,765.3,127.9,759.4,128.1,752.6z"/>
	<path class="st25" d="M113.4,758.1c-5.2-15.9-24-20.7-32-22.7c-4.2-1.1-28.6-7.3-39.6,5.9c-2.5,2.9-3.6,6.2-4.3,8.5
		c0,0,4.4,9.4,4.9,10.4c3.3,6.9,11.7,17,22.4,22.4c14.1,7.1,37.9,9.2,46.6-3.6C117.3,770.5,114.1,759.9,113.4,758.1z"/>
	<g>
		<g>
			<path class="st26" d="M150.4,826.3c-9.5-3.7-16.4,4.7-17.3,13.3c-0.5,4,5.7,3.9,6.1,0c0.6-5.2,4.2-9.6,9.6-7.5
				C152.5,833.7,154.1,827.7,150.4,826.3L150.4,826.3z"/>
		</g>
	</g>
	<path class="st25" d="M127,837.8c-9.7-3.4-10.3-10.8-19-11.7c-9.7-0.9-17.6,7-19,8.5c-11.7,12.4-9.2,33.3-1.9,46
		c4.7,8.2,17.4,8.8,17.2,14.8c-0.1,1.6-1.1,3.4-1.5,3.4c-1.1-0.2-2.5-11.6,2.1-18.1c4.8-6.8,13.9-5.6,28.8-7.4
		c4-0.5,42.6-5.4,44.8-17.8c1.3-7-9.1-16.9-19.7-19.7C145.6,832.5,139.4,842.3,127,837.8z"/>
	<g>
		<g>
			<g>
				<g>
					<g>
						<g>
							<defs>
								<path id="SVGID_23_" d="M178.1,534.4c1.9,1.1-5.9,10.8-3.6,22.7c4.6,25.2,48.5,32.7,47.3,37.5c-1.4,5.4-60.9,9.1-68.1-17.8
									C148.3,556.8,175,532.7,178.1,534.4z"/>
							</defs>
							<clipPath id="SVGID_24_">
								<use xlink:href="#SVGID_23_"  style="overflow:visible;"/>
							</clipPath>
							<path class="st28" d="M169.8,550.7c1.6-5.5,6.9-5.2,20.8-15.3c12.9-9.5,12.6-12.9,20.3-16.6c13.7-6.7,28.7-2.7,33.7-1.2
								c21.9,6,23.9,19.9,43,30.7c26.3,14.9,54.3,9.2,62.6,7.4c13.1-2.9,20.5-7.8,20.6-7.7c0.1,0.4-61.8,29.6-132.2,39
								c-10.9,1.5-32.7,3.9-50.9-8.5C178.3,571.9,167.1,559.7,169.8,550.7z"/>
						</g>
					</g>
				</g>
			</g>
		</g>
	</g>
	<g>
		<g>
			<path class="st25" d="M141.4,552.3c-13.8,7.7-22,23.7-16.2,39c1.4,3.6,7.3,2.1,5.9-1.6c-4.9-13,1.8-25.6,13.3-32.2
				C147.8,555.7,144.8,550.4,141.4,552.3L141.4,552.3z"/>
		</g>
	</g>
	<g>
		<g>
			<g>
				<g>
					<g>
						<g>
							<defs>
								<path id="SVGID_25_" d="M114.9,665.1c-1.9,0.6,4.2,12.6-1.9,24.6c-4.8,9.5-13.7,11.6-12.9,14.2c1.2,3.4,18.4,4.6,25.2-4.3
									C134.7,687.2,117.5,664.3,114.9,665.1z"/>
							</defs>
							<clipPath id="SVGID_26_">
								<use xlink:href="#SVGID_25_"  style="overflow:visible;"/>
							</clipPath>
							<path class="st29" d="M122.1,690.6c1.6-3.6,1.9-8.5,0-12.3c-6.4-12.9-36.3-9.5-36.8-6.1c-0.4,1.6,6.8,1.9,11,8.5
								c2.9,4.7,1.4,7.5,4.9,12.3c1.2,1.5,4.3,5.9,9.2,6.1C115.7,699.5,120.2,694.7,122.1,690.6z"/>
						</g>
					</g>
				</g>
			</g>
		</g>
	</g>
	<g>
		<g>
			<g>
				<g>
					<g>
						<g>
							<defs>
								<path id="SVGID_27_" d="M44.4,766.4c1.9-1.5,7.6,7.1,24.6,15.3c18.9,9.1,31.4,7.7,32,12.3c0.6,4.7-12.1,12.6-23.9,11.7
									C54.3,803.6,41,769.2,44.4,766.4z"/>
							</defs>
							<clipPath id="SVGID_28_">
								<use xlink:href="#SVGID_27_"  style="overflow:visible;"/>
							</clipPath>
							<path class="st30" d="M113.4,758.1c-5.2-15.9-24-20.7-32-22.7c-4.2-1.1-28.6-7.3-39.6,5.9c-2.5,2.9-3.6,6.2-4.3,8.5
								c0,0,4.4,9.4,4.9,10.4c3.3,6.9,11.7,17,22.4,22.4c14.1,7.1,37.9,9.2,46.6-3.6C117.3,770.5,114.1,759.9,113.4,758.1z"/>
						</g>
					</g>
				</g>
			</g>
		</g>
	</g>
	<g>
		<g>
			<g>
				<g>
					<g>
						<g>
							<defs>
								<path id="SVGID_29_" d="M163.5,729.5c-3.6,4.2,0.5,14.8,6.4,20.3c13.3,12.6,38.9,3,39.6-3.6
									C210.5,737.2,170.9,721,163.5,729.5z"/>
							</defs>
							<clipPath id="SVGID_30_">
								<use xlink:href="#SVGID_29_"  style="overflow:visible;"/>
							</clipPath>
							<path class="st31" d="M128.1,752.6c0.2-8.8,13.1-15.9,23.3-15.9c5.7,0,11,2.7,21.8,8.3c11.2,5.9,19.9,12.2,20.3,11.7
								c0.1-0.2-0.7-1.2-1.9-1.9c-4.8-2.8-11.7,3-20.3,7.4c-6.1,3-19,9.7-30.1,5.5C135.3,765.3,127.9,759.4,128.1,752.6z"/>
						</g>
					</g>
				</g>
			</g>
		</g>
	</g>
	<g>
		<g>
			<path class="st25" d="M137.9,843.5c1.2-3.5,2.5-6.9,3.6-10.4c1.3-3.7-4.6-5.4-5.9-1.6c-1.2,3.5-2.5,6.9-3.6,10.4
				C130.6,845.7,136.6,847.3,137.9,843.5L137.9,843.5z"/>
		</g>
	</g>
	<g>
		<g>
			<path class="st25" d="M128.1,825.3c0,4.9,0,9.8,0,14.8c0,4,6.1,4,6.1,0c0-4.9,0-9.8,0-14.8C134.2,821.3,128.1,821.3,128.1,825.3
				L128.1,825.3z"/>
		</g>
	</g>
	<g>
		<g>
			<g>
				<g>
					<g>
						<g>
							<defs>
								<path id="SVGID_31_" d="M127,837.8c-9.7-3.4-10.3-10.8-19-11.7c-9.7-0.9-17.6,7-19,8.5c-11.7,12.4-9.2,33.3-1.9,46
									c4.7,8.2,17.4,8.8,17.2,14.8c-0.1,1.6-1.1,3.4-1.5,3.4c-1.1-0.2-2.5-11.6,2.1-18.1c4.8-6.8,13.9-5.6,28.8-7.4
									c4-0.5,42.6-5.4,44.8-17.8c1.3-7-9.1-16.9-19.7-19.7C145.6,832.5,139.4,842.3,127,837.8z"/>
							</defs>
							<clipPath id="SVGID_32_">
								<use xlink:href="#SVGID_31_"  style="overflow:visible;"/>
							</clipPath>
							<path class="st32" d="M68.7,862.4c0.2-0.2,9,10.4,22.4,10.8c6,0.2,11.1-1.8,14.8-3.6c3.6-2.9,7.4-5.7,11-8.5
								c0.9,0.8,4.7,4.1,4.9,4.3c6.1,5.3,46.4,6.6,52.1-11c2-6.1-0.4-13.9-1.2-17.2c-2.2-7.8-5.9-11.4-5.3-11.9
								c1.4-1.2,26.7,12.4,31.3,36.2c4.9,25.6-13,56.2-36.2,63.8C120.5,938.7,68,863.1,68.7,862.4z"/>
						</g>
					</g>
				</g>
			</g>
		</g>
	</g>
</g>
<g id="路径">
	<g>
		<g>
			<path class="st33" d="M495.1,855c0.8,0,2.1,0,3.7,0"/>
			<path class="st34" d="M506.4,855c42.7-0.1,186.4,0.1,285.9,4c7,0.2,24.4,0.4,40,12.1c27.4,20.5,32.2,62.4,32.5,89.1v74.8"/>
			<path class="st33" d="M865,964.4c0,1.4,0,2.8-0.1,4"/>
		</g>
	</g>
</g>
<g id="图层_7">
	<g>
		<g class="st0">
			<path class="st1" d="M849.5,914.8c-30.4,0-55.3-9.6-55.3-21.4v75.5h0.9c42.6-6,79.6-13.3,109.5-21.9v-53.6
				C904.7,905.2,880,914.8,849.5,914.8z"/>
		</g>
		<path class="st35" d="M903.5,894c0,11.8-24.1,21.4-54,21.4c-29.9,0-54-9.6-54-21.4"/>
	</g>
</g>
</svg>
