<?xml version="1.0" encoding="utf-8"?>
<!-- Generator: Adobe Illustrator 23.0.0, SVG Export Plug-In . SVG Version: 6.00 Build 0)  -->
<svg version="1.1" id="图层_1" xmlns="http://www.w3.org/2000/svg" xmlns:xlink="http://www.w3.org/1999/xlink" x="0px" y="0px"
	 viewBox="0 0 1920 1080" style="enable-background:new 0 0 1920 1080;" xml:space="preserve">
<style type="text/css">
	.st0{display:none;}
	.st1{display:inline;fill:#F9D1B1;}
	.st2{opacity:0.99;}
	.st3{fill:#F9D1B1;}
	.st4{display:none;opacity:0.99;}
	.st5{fill:#DBAF91;}
	.st6{fill:#8E725F;}
	.st7{fill:#564539;}
	.st8{fill:#BC9173;}
	.st9{fill:none;stroke:#FFFFFF;stroke-miterlimit:10;stroke-dasharray:12;}
	.st10{fill:#E2B9A0;}
	.st11{fill:#F55E46;}
	.st12{opacity:0.64;clip-path:url(#SVGID_2_);fill:#FFCB95;enable-background:new    ;}
	.st13{clip-path:url(#SVGID_4_);}
	.st14{display:inline;}
	.st15{fill:#A4866C;}
	.st16{fill:#D1B59B;}
	.st17{fill:#FEF3E9;}
	.st18{clip-path:url(#SVGID_6_);fill:#E2C6B3;}
	.st19{opacity:0.34;fill:#FFCB95;enable-background:new    ;}
	.st20{fill:#E2C6B3;}
	.st21{fill:#B59B8A;}
	.st22{clip-path:url(#SVGID_8_);fill:#B59B8A;}
	.st23{fill:none;}
	.st24{clip-path:url(#SVGID_10_);}
	.st25{display:none;clip-path:url(#SVGID_12_);}
	.st26{opacity:0.44;clip-path:url(#SVGID_14_);}
	.st27{fill:none;stroke:#8E725F;stroke-width:4;stroke-miterlimit:10;}
</style>
<g id="地">
	<g class="st0">
		<ellipse class="st1" cx="953.5" cy="841" rx="738.5" ry="146"/>
	</g>
	<g id="底">
		<g class="st2">
			<path class="st3" d="M953.5,695c407.9,0,738.5,65.4,738.5,146s-330.6,146-738.5,146c-158.9,0-306.1-9.9-426.6-26.8
				c0-0.1,0-0.1,0-0.2h0.1V837c0,19.3-40.3,35-90,35s-90-15.7-90-35v87.3C263.8,900.7,215,872,215,841
				C215,760.4,545.6,695,953.5,695z"/>
		</g>
		<g class="st4">
			<path class="st1" d="M433.2,944.6c0.7,0.1,1.5,0.3,2.2,0.4C434.6,944.9,433.9,944.8,433.2,944.6z"/>
		</g>
		<g class="st4">
			<path class="st1" d="M445.1,946.9c0.7,0.1,1.4,0.3,2.1,0.4C446.5,947.2,445.8,947,445.1,946.9z"/>
		</g>
		<g class="st4">
			<path class="st1" d="M427.4,943.5c0.7,0.1,1.4,0.3,2.1,0.4C428.8,943.7,428,943.6,427.4,943.5z"/>
		</g>
		<g class="st4">
			<path class="st1" d="M416.2,941.2c0.5,0.1,1,0.2,1.6,0.3C417.3,941.4,416.7,941.3,416.2,941.2z"/>
		</g>
		<g class="st4">
			<path class="st1" d="M492.5,955.1c1,0.2,1.9,0.3,2.9,0.5C494.4,955.4,493.4,955.2,492.5,955.1z"/>
		</g>
		<g class="st4">
			<path class="st1" d="M421.6,942.3c0.6,0.1,1.3,0.3,2,0.4C422.9,942.5,422.3,942.4,421.6,942.3z"/>
		</g>
		<g class="st4">
			<path class="st1" d="M486,954c0.9,0.2,1.9,0.3,2.8,0.5C487.8,954.3,486.9,954.2,486,954z"/>
		</g>
	</g>
	<g>
		<ellipse class="st5" cx="437" cy="837" rx="88" ry="33"/>
		<path class="st6" d="M437,806c23.6,0,45.6,3.5,62.2,10c15.1,5.9,23.8,13.6,23.8,21s-8.7,15.1-23.8,21c-16.5,6.4-38.6,10-62.2,10
			s-45.6-3.5-62.2-10c-15.1-5.9-23.8-13.6-23.8-21s8.7-15.1,23.8-21C391.4,809.5,413.4,806,437,806 M437,802c-49.7,0-90,15.7-90,35
			s40.3,35,90,35s90-15.7,90-35S486.7,802,437,802L437,802z"/>
	</g>
</g>
<g id="高塔开口处">
	<circle class="st7" cx="1292" cy="526" r="62"/>
	<path class="st8" d="M1215.3,453.9l-1.9,80.8c-0.1,10.1-0.3,20.2-0.4,30.3c10.4,0.1,20.8,0.3,31.1,0.4
		c-8.8-10.7-14.1-24.4-14.1-39.4c0-34.2,27.8-62,62-62"/>
</g>
<g id="大路径">
	<path class="st9" d="M1288.5,361.5v157c-37.2-7.3-95.3-13.8-163,0c-118.5,24.2-195.8,96.6-240,138c0,0-18.8,17.6-143,167
		c-16.7,0-42.8,0-60,0c-89.4,0-103.9,0.2-122,1c-61.5,2.8-92.3,4.2-108,12c-63.7,31.8-72.6,135.5-74,180"/>
</g>
<g id="高塔">
	<path class="st10" d="M1275.3,789.3c-37.8-38.2-75.8-27.8-195.7-29.7c-122.3-2-138.4,0.3-149.3,14.8c-16.7,22.2-12.3,60.7,7.7,81.7
		c20.9,21.9,53.4,16.3,144.2,7.4c149.3-14.6,206.2-10.2,212.8-35.6C1298.9,813.2,1283.2,797.3,1275.3,789.3z"/>
	<path class="st11" d="M1288,149c0,0-4.4,21.7-10.9,48.4c-0.6,2.5-0.9,3.8-1.2,4.7c-6.1,24.1-25,45.6-40.9,63
		c-26.7,29-44.4,45.3-55,71c-1.4,3.4-2.3,6-3,9c0,0-6.6,27.9,15.5,59.6c33.7,48.4,154.2,47.8,189.5,0.4c5.3-7.2,23.9-32.2,18-60
		c-0.3-1.6-0.8-3.7-2-7c-8.8-25.3-26.9-41.5-50.5-66.4c-19.1-20.1-39.9-44.6-47.7-69.5c-0.2-0.6-0.6-2.2-1.2-4.2
		C1291.3,171.1,1288,149,1288,149z"/>
	<g>
		<g>
			<defs>
				<path id="SVGID_1_" d="M1288,149c0,0-4.4,21.7-10.9,48.4c-0.6,2.5-0.9,3.8-1.2,4.7c-6.1,24.1-25,45.6-40.9,63
					c-26.7,29-44.4,45.3-55,71c-1.4,3.4-2.3,6-3,9c0,0-6.6,27.9,15.5,59.6c33.7,48.4,154.2,47.8,189.5,0.4c5.3-7.2,23.9-32.2,18-60
					c-0.3-1.6-0.8-3.7-2-7c-8.8-25.3-26.9-41.5-50.5-66.4c-19.1-20.1-39.9-44.6-47.7-69.5c-0.2-0.6-0.6-2.2-1.2-4.2
					C1291.3,171.1,1288,149,1288,149z"/>
			</defs>
			<clipPath id="SVGID_2_">
				<use xlink:href="#SVGID_1_"  style="overflow:visible;"/>
			</clipPath>
			<path class="st12" d="M1291,140c-10.1,5.5,12,105.5,12,106c0,0.1,0,0.3,0.1,0.6c0.2,2.5,1.1,10.5,3.9,20.4c0,0,7.6,26.8,24,40
				c1.2,1,3.1,2.5,6,4c4.5,2.3,7.7,2.6,13,4c0,0,5.3,1.4,12,4c11.1,4.4,22.9,14.7,21.2,19.1c-1.2,3-8.4,0.5-27.8,2
				c-18.7,1.4-24.1,4.6-27.4,8c-1.4,1.4-5.7,5.9-6,12c-0.8,16.1,27.1,29.1,46,38c9.3,4.4,14.1,6.5,20,7c19.9,1.5,36.4-13,40-17
				C1464.3,347.4,1311.6,128.7,1291,140z"/>
		</g>
		<g>
			<defs>
				<path id="SVGID_3_" d="M1288,149c0,0-4.4,21.7-10.9,48.4c-0.6,2.5-0.9,3.8-1.2,4.7c-6.1,24.1-25,45.6-40.9,63
					c-26.7,29-44.4,45.3-55,71c-1.4,3.4-2.3,6-3,9c0,0-6.6,27.9,15.5,59.6c33.7,48.4,154.2,47.8,189.5,0.4c5.3-7.2,23.9-32.2,18-60
					c-0.3-1.6-0.8-3.7-2-7c-8.8-25.3-26.9-41.5-50.5-66.4c-19.1-20.1-39.9-44.6-47.7-69.5c-0.2-0.6-0.6-2.2-1.2-4.2
					C1291.3,171.1,1288,149,1288,149z"/>
			</defs>
			<clipPath id="SVGID_4_">
				<use xlink:href="#SVGID_3_"  style="overflow:visible;"/>
			</clipPath>
			<g class="st13">
				
					<image style="overflow:visible;enable-background:new    ;" width="209" height="246" xlink:href="382363C1.png"  transform="matrix(1 0 0 1 1269 160)">
				</image>
			</g>
		</g>
	</g>
	<g id="图层_4" class="st0">
		<g class="st14">
			<g>
				<path class="st15" d="M1272.2,557.9c0,5.7,0,11.4,0,17.1c0,1.3,1.2,2.5,2.5,2.5c1.4,0,2.7,0,4.1,0c3.2,0,3.2-5,0-5
					c-1.4,0-2.7,0-4.1,0c0.8,0.8,1.7,1.7,2.5,2.5c0-5.7,0-11.4,0-17.1C1277.2,554.7,1272.2,554.7,1272.2,557.9L1272.2,557.9z"/>
			</g>
		</g>
		<g class="st14">
			<g>
				<path class="st15" d="M1306.4,557.9c0,5.7,0,11.4,0,17.1c0,1.3,1.2,2.5,2.5,2.5c1.4,0,2.7,0,4.1,0c3.2,0,3.2-5,0-5
					c-1.4,0-2.7,0-4.1,0c0.8,0.8,1.7,1.7,2.5,2.5c0-5.7,0-11.4,0-17.1C1311.4,554.7,1306.4,554.7,1306.4,557.9L1306.4,557.9z"/>
			</g>
		</g>
		<g class="st14">
			<g>
				<path class="st15" d="M1330.4,529.1c5.8,5.9,14,8.2,22,6.3c3.1-0.7,1.8-5.5-1.3-4.8c-6.3,1.4-12.7-0.5-17.1-5.1
					C1331.7,523.3,1328.1,526.8,1330.4,529.1L1330.4,529.1z"/>
			</g>
		</g>
		<g class="st14">
			<g>
				<circle class="st16" cx="1294.3" cy="519.6" r="47.3"/>
			</g>
			<g>
				<path class="st17" d="M1279.2,474.5c-5.1,1.7-9.6,4.2-13.6,7.3c-7.3,11.6-9.4,26.2-4.7,40.2c8.3,24.7,35.2,38,59.9,29.7
					c5.1-1.7,9.6-4.2,13.6-7.3c7.3-11.6,9.4-26.2,4.7-40.2C1330.8,479.4,1303.9,466.1,1279.2,474.5z"/>
			</g>
		</g>
		<g class="st14">
			<g>
				<path class="st15" d="M1284.1,502.7c0.7,2.9,1.4,5.7,2,8.6c1.1,4.7,8.3,2.7,7.2-2c-0.7-2.9-1.4-5.7-2-8.6
					C1290.2,496,1283,498,1284.1,502.7L1284.1,502.7z"/>
			</g>
		</g>
		<g class="st14">
			<g>
				<path class="st15" d="M1311,498.6c0.7,2.9,1.4,5.7,2,8.6c1.1,4.7,8.3,2.7,7.2-2c-0.7-2.9-1.4-5.7-2-8.6
					C1317.1,491.9,1309.9,493.9,1311,498.6L1311,498.6z"/>
			</g>
		</g>
		<g class="st14">
			<g>
				<path class="st17" d="M1286.9,523.9c-15.6,0.7-26.3,15.8-31.3,29.1c-1.1,3,3.7,4.3,4.8,1.3c4.2-11.1,13.3-24.9,26.5-25.4
					C1290.2,528.8,1290.2,523.8,1286.9,523.9L1286.9,523.9z"/>
			</g>
		</g>
	</g>
	<path class="st8" d="M1292,464c34.2,0,62,27.8,62,62c0,15.5-5.7,29.8-15.2,40.6c9.4,0.1,18.8,0.2,28.2,0.4
		c-1.6-39.9-3.1-79.8-4.7-119.7l25.8-19.9v-29.8h-198.6v25.8l25.8,25.8l-0.1,4.6"/>
	<g>
		<g>
			<defs>
				<path id="SVGID_5_" d="M1374,389c0.3,11,0.7,22,1,33c-7.3,6.7-14.7,13.3-22,20c0.5,12.3,1.3,29.5,2,50
					c4.4,123.5,2.4,166.2,9,167c7.9,1,15.4-59.5,50-147.3c15.8-40,31.7-71.8,43-93l-8-41.7C1424,381,1399,385,1374,389z"/>
			</defs>
			<clipPath id="SVGID_6_">
				<use xlink:href="#SVGID_5_"  style="overflow:visible;"/>
			</clipPath>
			<path class="st18" d="M1189.5,397.6v25.8l25.8,25.8l-2,85.4c-0.1,10.1-0.3,20.2-0.4,30.3c51.3,0.7,102.7,1.3,154,2
				c-1.6-39.9-3.1-79.8-4.7-119.7l25.8-19.9v-29.8L1189.5,397.6L1189.5,397.6z"/>
		</g>
	</g>
	<circle class="st19" cx="1301.5" cy="361.5" r="6.5"/>
	<g>
		<g>
			<path class="st20" d="M1315,444c17.7,0.9,35.4,0.4,53-1.4c1.6-0.2,1.6-2.7,0-2.5c-17.6,1.8-35.3,2.3-53,1.4
				C1313.4,441.4,1313.4,443.9,1315,444L1315,444z"/>
		</g>
	</g>
	<g>
		<g>
			<path class="st20" d="M1328,424c17.7,0.9,35.4,0.4,53-1.4c1.6-0.2,1.6-2.7,0-2.5c-17.6,1.8-35.3,2.3-53,1.4
				C1326.4,421.4,1326.4,423.9,1328,424L1328,424z"/>
		</g>
	</g>
	<g id="高塔外围">
		<path class="st6" d="M1195,586.3l0.5-47.7h35.8v15.9h15.9v-15.9h35.8v17.9h19.9v-17.9h33.8v19.9h17.9v-19.9
			c10.5,0.1,21.1,0.2,31.6,0.3c0,15.3,0,30.7,0,46c-5,11.3-10,22.7-15,34c3.3,71.3,6.7,142.7,10,214c5,6.3,10,12.7,15,19
			c-70.8,0.2-141.6,0.3-212.4,0.5l15.9-17.9l11.9-218.5L1195,586.3z"/>
		<g>
			<g>
				<path class="st21" d="M1313,621c17.7,0.8,35.4,0.4,53-1.4c1.6-0.2,1.6-2.7,0-2.5c-17.6,1.8-35.3,2.3-53,1.4
					C1311.4,618.4,1311.4,620.9,1313,621L1313,621z"/>
			</g>
		</g>
		<g>
			<g>
				<defs>
					<path id="SVGID_7_" d="M1195,586.3l0.5-47.7h35.8v15.9h15.9v-15.9h35.8v17.9h19.9v-17.9h33.8v19.9h17.9v-19.9
						c10.5,0.1,21.1,0.2,31.6,0.3c0,15.3,0,30.7,0,46c-5,11.3-10,22.7-15,34c3.3,71.3,6.7,142.7,10,214c5,6.3,10,12.7,15,19
						c-70.8,0.2-141.6,0.3-212.4,0.5l15.9-17.9l11.9-218.5L1195,586.3z"/>
				</defs>
				<clipPath id="SVGID_8_">
					<use xlink:href="#SVGID_7_"  style="overflow:visible;"/>
				</clipPath>
				<path class="st22" d="M1371,586c-3,10.7-6,21.3-9,32c1,70.7,2,141.3,3,212l4,31c0,0,65,7,65,4s-12-308-12-308s1-38-1-38
					s-47,7-47,7l0,0c0,0-0.7-1.8-2-5C1371.7,542.7,1371.3,564.3,1371,586z"/>
			</g>
		</g>
	</g>
</g>
<g id="三角开口处">
	<path class="st7" d="M989.5,897.3l37.7-29.5c1.4-10.3-0.8-21.6-6.9-30.9c-11.6-17.7-32.7-22-47.2-9.7s-16.8,36.6-5.3,54.3
		C973.5,889.9,981.3,895.3,989.5,897.3z"/>
</g>
<g id="小路径">
	<line class="st23" x1="885" y1="869.4" x2="986" y2="859.7"/>
</g>
<g id="三角">
	<g id="图层_6">
		<g>
			<g>
				<path class="st6" d="M912.8,704.7c0,21.8,0,43.5,0,65.3c0,1.6,2.5,1.6,2.5,0c0-21.8,0-43.5,0-65.3
					C915.3,703.1,912.8,703.1,912.8,704.7L912.8,704.7z"/>
			</g>
		</g>
		<polygon class="st11" points="875.7,723.5 895.3,713.1 915,702.7 915,723.5 915,744.3 895.3,733.9 		"/>
	</g>
	<path class="st10" d="M961.8,887.4c-43.1-32.5-78.6-61.2-129.5-57.2c-65.8,5.3-124.1,61.8-117.6,78.5c0,0.1,0.1,0.2,0.2,0.5
		c12.7,27,83.4,27,98.1,27c4.2,0,7.8-0.1,11.7-0.2c39.4-0.9,148.4-5.2,151.9-29.9C977.4,900.3,972.1,895.3,961.8,887.4z"/>
	<polygon class="st6" points="913.9,757 941.4,835.5 969,914 895.4,901.9 821.9,889.7 867.9,823.3 	"/>
	<g id="小人" class="st0">
		<g class="st14">
			<g>
				<circle class="st16" cx="981.8" cy="864" r="26.8"/>
			</g>
			<g>
				<path class="st17" d="M973.3,838.4c-2.9,1-5.5,2.4-7.7,4.1c-4.1,6.6-5.4,14.9-2.7,22.8c4.7,14,20,21.6,34,16.8
					c2.9-1,5.5-2.4,7.7-4.1c4.1-6.6,5.4-14.9,2.7-22.8C1002.5,841.2,987.3,833.7,973.3,838.4z"/>
			</g>
		</g>
		<g class="st14">
			<g>
				<path class="st15" d="M978.7,854.5c0.4,1.6,0.8,3.2,1.2,4.8c0.3,1.3,1.8,2.1,3.1,1.8c1.3-0.4,2.1-1.8,1.8-3.1
					c-0.4-1.6-0.8-3.2-1.2-4.8c-0.3-1.3-1.8-2.1-3.1-1.8C979.1,851.8,978.4,853.2,978.7,854.5L978.7,854.5z"/>
			</g>
		</g>
		<g class="st14">
			<g>
				<path class="st15" d="M994,852.2c0.4,1.6,0.8,3.2,1.2,4.8c0.3,1.3,1.8,2.1,3.1,1.8c1.3-0.4,2.1-1.8,1.8-3.1
					c-0.4-1.6-0.8-3.2-1.2-4.8c-0.3-1.3-1.8-2.1-3.1-1.8C994.4,849.5,993.6,850.9,994,852.2L994,852.2z"/>
			</g>
		</g>
	</g>
	<path class="st8" d="M1050.1,850.1l-64.9-44.6l-72-48.4l31.8,89.9l24,67c7.1-5.6,14.1-11.3,21.2-16.9c0,0,0,0,0-0.1l-0.2,0.2
		c-8.2-1.9-16.1-7.3-21.7-15.8c-11.6-17.6-9.4-41.9,5-54.3c14.4-12.4,35.6-8.1,47.2,9.5c6.1,9.3,8.4,20.4,7.1,30.7
		C1034.9,861.6,1042.5,855.8,1050.1,850.1z"/>
	<g>
		<g>
			<defs>
				<path id="SVGID_9_" d="M1008.9,821.8c-6.5,4.8-12.9,9.5-19.3,14.3c-12.9,9.3-25.8,18.5-38.6,27.8l-16.1-45.4l-21.3-61l50.2,33.5
					L1008.9,821.8z"/>
			</defs>
			<clipPath id="SVGID_10_">
				<use xlink:href="#SVGID_9_"  style="overflow:visible;"/>
			</clipPath>
			<g class="st24">
				
					<image style="overflow:visible;enable-background:new    ;" width="198" height="236" xlink:href="382363C3.png"  transform="matrix(1 0 0 1 843 645)">
				</image>
			</g>
		</g>
	</g>
	<g>
		<g>
			<defs>
				<path id="SVGID_11_" d="M1025.3,870.9c1.2-10.1-1.1-21-7-30.1c-11.6-17.7-32.7-22-47.2-9.7s-16.8,36.6-5.3,54.3
					c5.2,8,12.4,13.2,20,15.5L1025.3,870.9z"/>
			</defs>
			<clipPath id="SVGID_12_">
				<use xlink:href="#SVGID_11_"  style="overflow:visible;"/>
			</clipPath>
			<g class="st25">
				<g class="st14">
					<g>
						<ellipse class="st16" cx="999.1" cy="865.5" rx="29.6" ry="28.5"/>
					</g>
					<g>
						<path class="st17" d="M989.6,838.3c-3.2,1-6,2.5-8.5,4.4c-4.5,7-5.9,15.8-3,24.2c5.2,14.9,22,22.9,37.5,17.8
							c3.2-1,6-2.5,8.5-4.4c4.6-7,5.9-15.8,3-24.2C1022,841.3,1005.1,833.3,989.6,838.3z"/>
					</g>
				</g>
				<g class="st14">
					<g>
						<path class="st15" d="M992.6,855.4c0.4,1.7,0.8,3.4,1.3,5.2c0.8,3.1,5.6,1.8,4.8-1.3c-0.4-1.7-0.8-3.4-1.3-5.2
							C996.6,850.9,991.8,852.2,992.6,855.4L992.6,855.4z"/>
					</g>
				</g>
				<g class="st14">
					<g>
						<path class="st15" d="M1009.4,852.9c0.4,1.7,0.8,3.4,1.3,5.2c0.8,3.1,5.6,1.8,4.8-1.3c-0.4-1.7-0.8-3.4-1.3-5.2
							C1013.5,848.5,1008.7,849.8,1009.4,852.9L1009.4,852.9z"/>
					</g>
				</g>
			</g>
		</g>
	</g>
	<g>
		<g>
			<defs>
				<polygon id="SVGID_13_" points="913.5,756.9 940.8,835.3 968.2,913.6 895,901.5 821.9,889.5 867.7,823.2 				"/>
			</defs>
			<clipPath id="SVGID_14_">
				<use xlink:href="#SVGID_13_"  style="overflow:visible;"/>
			</clipPath>
			<g class="st26">
				
					<image style="overflow:visible;enable-background:new    ;" width="250" height="315" xlink:href="382363C6.png"  transform="matrix(1 0 0 1 824 614)">
				</image>
			</g>
		</g>
	</g>
</g>
<g id="遮罩">
	<g>
		<g class="st2">
			<path class="st3" d="M437,872c49.7,0,90-15.7,90-35v123h-1.5c-69.4-9.8-129.9-21.8-178.5-35.7V837C347,856.3,387.3,872,437,872z"
				/>
		</g>
		<path class="st27" d="M349,838c0,19.3,39.4,35,88,35s88-15.7,88-35"/>
	</g>
</g>
</svg>
