<?xml version="1.0" encoding="utf-8"?>
<!-- Generator: Adobe Illustrator 23.0.0, SVG Export Plug-In . SVG Version: 6.00 Build 0)  -->
<svg version="1.1" id="图层_1" xmlns="http://www.w3.org/2000/svg" xmlns:xlink="http://www.w3.org/1999/xlink" x="0px" y="0px"
	 viewBox="0 0 1920 1080" style="enable-background:new 0 0 1920 1080;" xml:space="preserve">
<style type="text/css">
	.st0{opacity:0.99;}
	.st1{fill:#F9D1B1;}
	.st2{display:none;opacity:0.99;}
	.st3{display:inline;fill:#F9D1B1;}
	.st4{fill:#DBAF91;}
	.st5{fill:#8E725F;}
	.st6{fill:#A4866C;}
	.st7{fill:#D1B59B;}
	.st8{fill:#FEF3E9;}
	.st9{fill:#E2B9A0;}
	.st10{fill:#D0BBA9;}
	.st11{fill:#F55E46;}
	.st12{clip-path:url(#SVGID_2_);fill:#FFCB95;}
	.st13{clip-path:url(#SVGID_4_);fill:#B63635;}
	.st14{opacity:0.73;clip-path:url(#SVGID_6_);}
	.st15{clip-path:url(#SVGID_8_);}
	.st16{fill:#8B2323;}
	.st17{clip-path:url(#SVGID_10_);}
	.st18{clip-path:url(#SVGID_12_);}
	.st19{clip-path:url(#SVGID_14_);}
	.st20{clip-path:url(#SVGID_16_);}
	.st21{clip-path:url(#SVGID_18_);}
	.st22{clip-path:url(#SVGID_20_);}
	.st23{clip-path:url(#SVGID_22_);}
	.st24{fill:#FFCB95;}
	.st25{fill:#B3E56A;}
	.st26{fill:#559E65;}
	.st27{fill:#56A166;}
	.st28{clip-path:url(#SVGID_24_);fill:#559E65;}
	.st29{clip-path:url(#SVGID_26_);fill:#56A166;}
	.st30{clip-path:url(#SVGID_28_);fill:#56A166;}
	.st31{clip-path:url(#SVGID_30_);fill:#B3E56A;}
	.st32{clip-path:url(#SVGID_32_);fill:#56A166;}
	.st33{fill:none;stroke:#FFFFFF;stroke-miterlimit:10;}
	.st34{fill:none;stroke:#FFFFFF;stroke-miterlimit:10;stroke-dasharray:12.1189,12.1189;}
	.st35{fill:none;stroke:#8E725F;stroke-width:4;stroke-miterlimit:10;}
</style>
<g id="地">
	<g id="底">
		<g class="st0">
			<path class="st1" d="M948.5,707C540.6,707,210,772.4,210,853s330.6,146,738.5,146c158.9,0,306.1-9.9,426.6-26.8
				c0-0.1,0-0.1,0-0.2h-0.1V849c0,19.3,40.3,35,90,35s90-15.7,90-35v87.3c83.2-23.6,132-52.3,132-83.3
				C1687,772.4,1356.4,707,948.5,707z"/>
		</g>
		<g class="st2">
			<path class="st3" d="M1468.8,956.6c-0.7,0.1-1.5,0.3-2.2,0.4C1467.4,956.9,1468.1,956.8,1468.8,956.6z"/>
		</g>
		<g class="st2">
			<path class="st3" d="M1456.9,958.9c-0.7,0.1-1.4,0.3-2.1,0.4C1455.5,959.2,1456.2,959,1456.9,958.9z"/>
		</g>
		<g class="st2">
			<path class="st3" d="M1474.7,955.5c-0.7,0.1-1.4,0.3-2.1,0.4C1473.3,955.7,1473.9,955.6,1474.7,955.5z"/>
		</g>
		<g class="st2">
			<path class="st3" d="M1485.8,953.2c-0.5,0.1-1.1,0.2-1.6,0.3C1484.8,953.4,1485.3,953.3,1485.8,953.2z"/>
		</g>
		<g class="st2">
			<path class="st3" d="M1409.6,967.1c-0.9,0.2-1.9,0.3-2.9,0.5C1407.7,967.4,1408.6,967.2,1409.6,967.1z"/>
		</g>
		<g class="st2">
			<path class="st3" d="M1480.4,954.3c-0.7,0.1-1.3,0.3-1.9,0.4C1479.1,954.5,1479.7,954.4,1480.4,954.3z"/>
		</g>
		<g class="st2">
			<path class="st3" d="M1416.1,966c-0.9,0.2-1.9,0.3-2.8,0.5C1414.2,966.3,1415.1,966.2,1416.1,966z"/>
		</g>
	</g>
	<g>
		<ellipse class="st4" cx="1465" cy="849" rx="88" ry="33"/>
		<path class="st5" d="M1465,818c23.6,0,45.6,3.5,62.2,10c15.1,5.9,23.8,13.5,23.8,21s-8.7,15.1-23.8,21c-16.6,6.4-38.6,10-62.2,10
			s-45.6-3.5-62.2-10c-15.1-5.9-23.8-13.5-23.8-21s8.7-15.1,23.8-21C1419.4,821.5,1441.4,818,1465,818 M1465,814
			c-49.7,0-90,15.7-90,35s40.3,35,90,35s90-15.7,90-35S1514.7,814,1465,814L1465,814z"/>
	</g>
</g>
<g id="菌">
	<g>
		<g>
			<path class="st6" d="M645.5,856c0,7,0,14,0,21c0,1.3,1.2,2.5,2.5,2.5c1.7,0,3.3,0,5,0c3.2,0,3.2-5,0-5c-1.7,0-3.3,0-5,0
				c0.8,0.8,1.7,1.7,2.5,2.5c0-7,0-14,0-21C650.5,852.8,645.5,852.8,645.5,856L645.5,856z"/>
		</g>
	</g>
	<g>
		<g>
			<path class="st6" d="M687.5,856c0,7,0,14,0,21c0,1.3,1.2,2.5,2.5,2.5c1.7,0,3.3,0,5,0c3.2,0,3.2-5,0-5c-1.7,0-3.3,0-5,0
				c0.8,0.8,1.7,1.7,2.5,2.5c0-7,0-14,0-21C692.5,852.8,687.5,852.8,687.5,856L687.5,856z"/>
		</g>
	</g>
	<g>
		<g>
			<path class="st6" d="M716.7,820.3c6.9,7.1,16.8,9.8,26.4,7.6c3.1-0.7,1.8-5.5-1.3-4.8c-7.9,1.8-15.9-0.6-21.6-6.4
				C718,814.4,714.5,818,716.7,820.3L716.7,820.3z"/>
		</g>
	</g>
	<g>
		<g>
			<circle class="st7" cx="672" cy="809" r="58"/>
		</g>
		<g>
			<path class="st8" d="M653.5,753.7c-6.2,2.1-11.8,5.2-16.7,8.9c-8.9,14.2-11.6,32.2-5.8,49.3c10.3,30.3,43.2,46.6,73.5,36.4
				c6.2-2.1,11.8-5.2,16.7-8.9c8.9-14.2,11.6-32.2,5.8-49.3C716.8,759.7,683.9,743.4,653.5,753.7z"/>
		</g>
	</g>
	<g>
		<g>
			<path class="st6" d="M680.4,810.4c1.5,4.1,5.4,11.9,10.9,11.4c6.2-0.5,5.3-10.8,4.4-14.6c-0.3-1.6-2.8-0.9-2.4,0.7
				c0.5,2.1,1.7,12-2.7,11.4c-3.9-0.5-6.7-6.4-7.8-9.6C682.2,808.2,679.8,808.8,680.4,810.4L680.4,810.4z"/>
		</g>
	</g>
	<g>
		<g>
			<path class="st6" d="M660.4,788c0.8,3.5,1.7,7,2.5,10.5c1.1,4.7,8.3,2.7,7.2-2c-0.8-3.5-1.7-7-2.5-10.5
				C666.5,781.3,659.3,783.3,660.4,788L660.4,788z"/>
		</g>
	</g>
	<g>
		<g>
			<path class="st6" d="M693.4,783c0.8,3.5,1.7,7,2.5,10.5c1.1,4.7,8.3,2.7,7.2-2c-0.8-3.5-1.7-7-2.5-10.5
				C699.5,776.3,692.3,778.3,693.4,783L693.4,783z"/>
		</g>
	</g>
	<g>
		<g>
			<path class="st8" d="M663,814.9c-18.9,0.8-31.9,19.3-37.9,35.3c-1.1,3,3.7,4.3,4.8,1.3c5.2-13.8,16.6-30.9,33.1-31.6
				C666.2,819.8,666.3,814.8,663,814.9L663,814.9z"/>
		</g>
	</g>
</g>
<g id="蘑菇">
	<path class="st9" d="M540.5,858c-40.4-11-75.6-11.7-95-12c-59.4-0.8-67.2,0.1-72.5,6c-8.1,9-6,24.5,3.8,33c7.1,6.2,18.9,9.2,70,3
		c13.6-1.6,107.3-13,106.3-24C552.8,861.7,548.5,860.2,540.5,858z"/>
	<path class="st10" d="M466,784c-2.5,23.7-4.2,41.3,7,59c12.5,19.7,33,26.7,41,29c2.2,0.5,34.8,8.2,56-13
		c17.9-17.9,14.8-43.7,13.5-54.5c-1.2-9.2-5.6-22.4-19-46c-20.4-35.8-23.8-45.1-34-50c-2.6-1.3-16.2-7.7-30-3
		C473.3,714.8,468.6,759,466,784z"/>
	<g>
		
			<image style="overflow:visible;enable-background:new    ;" width="197" height="250" xlink:href="7E150F76.png"  transform="matrix(1 0 0 1 433 667)">
		</image>
	</g>
	<g id="图层_6">
		<path class="st11" d="M486.5,537.5c-10.3,3.3-24.6,9.5-37,22c-13.5,13.6-18.5,28.3-21,35c-22.5,59.3-74.3,72.3-72,104
			c2.5,33.6,63.5,55.9,94,63c74.1,17.2,146.1-14.5,184-57c9.5-10.7,24.3-27.7,22-48c-2-17.8-15.3-22.9-48-53
			c-47.6-43.8-54.4-65.2-84-70C508.9,531,495.3,534.4,486.5,537.5z"/>
		<g>
			<g>
				<defs>
					<path id="SVGID_1_" d="M486.5,537.5c-10.3,3.3-24.6,9.5-37,22c-13.5,13.6-18.5,28.3-21,35c-22.5,59.3-74.3,72.3-72,104
						c2.5,33.6,63.5,55.9,94,63c74.1,17.2,146.1-14.5,184-57c9.5-10.7,24.3-27.7,22-48c-2-17.8-15.3-22.9-48-53
						c-47.6-43.8-54.4-65.2-84-70C508.9,531,495.3,534.4,486.5,537.5z"/>
				</defs>
				<clipPath id="SVGID_2_">
					<use xlink:href="#SVGID_1_"  style="overflow:visible;"/>
				</clipPath>
				<path class="st12" d="M490,516c-8.5,7.8,6.4,39.3,20.8,57c5.3,6.5,23.5,28.5,50.2,32c9.8,1.3,13-0.7,24,2
					c14.5,3.6,31.9,12.7,31,20c-0.6,4.8-8.6,4.7-28,15c-23.2,12.4-25.5,19.9-26,23c-0.2,1-1.3,8.3,3,13c9.6,10.5,37-1.3,48-6
					c18.1-7.8,30.4-13,34-22C662.8,610.6,510,497.6,490,516z"/>
			</g>
			<g>
				<defs>
					<path id="SVGID_3_" d="M486.5,537.5c-10.3,3.3-24.6,9.5-37,22c-13.5,13.6-18.5,28.3-21,35c-22.5,59.3-74.3,72.3-72,104
						c2.5,33.6,63.5,55.9,94,63c74.1,17.2,146.1-14.5,184-57c9.5-10.7,24.3-27.7,22-48c-2-17.8-15.3-22.9-48-53
						c-47.6-43.8-54.4-65.2-84-70C508.9,531,495.3,534.4,486.5,537.5z"/>
				</defs>
				<clipPath id="SVGID_4_">
					<use xlink:href="#SVGID_3_"  style="overflow:visible;"/>
				</clipPath>
				<path class="st13" d="M342,676c7.4-1.6,15.2,11,20,17c37.7,47.8,150.7,27.5,170,24c60.1-10.8,104.8-37.7,132-58
					c9.8,18.6,27,58.2,13,96c-25.4,68.4-133.7,79-197,69c-69.2-10.9-147.1-56-151-106C327.9,703.3,332.3,678,342,676z"/>
			</g>
			<g>
				<defs>
					<path id="SVGID_5_" d="M486.5,537.5c-10.3,3.3-24.6,9.5-37,22c-13.5,13.6-18.5,28.3-21,35c-22.5,59.3-74.3,72.3-72,104
						c2.5,33.6,63.5,55.9,94,63c74.1,17.2,146.1-14.5,184-57c9.5-10.7,24.3-27.7,22-48c-2-17.8-15.3-22.9-48-53
						c-47.6-43.8-54.4-65.2-84-70C508.9,531,495.3,534.4,486.5,537.5z"/>
				</defs>
				<clipPath id="SVGID_6_">
					<use xlink:href="#SVGID_5_"  style="overflow:visible;"/>
				</clipPath>
				<g class="st14">
					
						<image style="overflow:visible;enable-background:new    ;" width="232" height="194" xlink:href="7E150F7A.png"  transform="matrix(1 0 0 1 472 480)">
					</image>
				</g>
			</g>
			<g>
				<defs>
					<path id="SVGID_7_" d="M486.5,537.5c-10.3,3.3-24.6,9.5-37,22c-13.5,13.6-18.5,28.3-21,35c-22.5,59.3-74.3,72.3-72,104
						c2.5,33.6,63.5,55.9,94,63c74.1,17.2,146.1-14.5,184-57c9.5-10.7,24.3-27.7,22-48c-2-17.8-15.3-22.9-48-53
						c-47.6-43.8-54.4-65.2-84-70C508.9,531,495.3,534.4,486.5,537.5z"/>
				</defs>
				<clipPath id="SVGID_8_">
					<use xlink:href="#SVGID_7_"  style="overflow:visible;"/>
				</clipPath>
				<g class="st15">
					<g>
						<path class="st16" d="M365.2,668.2c-5.5,6-10.2,14-7.4,22.3c3.3,10,14.6,15.6,23.3,19.8c21.7,10.6,44.5,16.8,68.9,16.1
							c3.2-0.1,3.2-5.1,0-5c-20.3,0.6-40.3-3.4-58.8-11.9c-8.7-4-19-8-25.5-15.4c-6.7-7.7-3.1-15.8,3-22.5
							C370.9,669.4,367.4,665.8,365.2,668.2L365.2,668.2z"/>
					</g>
				</g>
			</g>
			<g>
				<defs>
					<path id="SVGID_9_" d="M486.5,537.5c-10.3,3.3-24.6,9.5-37,22c-13.5,13.6-18.5,28.3-21,35c-22.5,59.3-74.3,72.3-72,104
						c2.5,33.6,63.5,55.9,94,63c74.1,17.2,146.1-14.5,184-57c9.5-10.7,24.3-27.7,22-48c-2-17.8-15.3-22.9-48-53
						c-47.6-43.8-54.4-65.2-84-70C508.9,531,495.3,534.4,486.5,537.5z"/>
				</defs>
				<clipPath id="SVGID_10_">
					<use xlink:href="#SVGID_9_"  style="overflow:visible;"/>
				</clipPath>
				<g class="st17">
					<g>
						<path class="st16" d="M360.3,669.6c-7,12-9.8,26.3-4.1,39.5c5.5,12.5,17,21.2,28.1,28.4c23.5,15.2,48.5,25.9,76.2,30.6
							c4.7,0.8,6.8-6.4,2-7.2c-24.5-4.1-47-12.9-68.1-25.8c-10.4-6.4-21.9-13.4-28.6-23.9c-7.8-12-5.9-25.8,1-37.8
							C369.2,669.2,362.7,665.4,360.3,669.6L360.3,669.6z"/>
					</g>
				</g>
			</g>
			<g>
				<defs>
					<path id="SVGID_11_" d="M486.5,537.5c-10.3,3.3-24.6,9.5-37,22c-13.5,13.6-18.5,28.3-21,35c-22.5,59.3-74.3,72.3-72,104
						c2.5,33.6,63.5,55.9,94,63c74.1,17.2,146.1-14.5,184-57c9.5-10.7,24.3-27.7,22-48c-2-17.8-15.3-22.9-48-53
						c-47.6-43.8-54.4-65.2-84-70C508.9,531,495.3,534.4,486.5,537.5z"/>
				</defs>
				<clipPath id="SVGID_12_">
					<use xlink:href="#SVGID_11_"  style="overflow:visible;"/>
				</clipPath>
				<g class="st18">
					<g>
						<path class="st16" d="M402.7,721.3c25.6,32.4,64.8,49.7,105.8,49.7c3.2,0,3.2-5,0-5c-39.8,0-77.4-16.8-102.2-48.3
							C404.3,715.2,400.8,718.8,402.7,721.3L402.7,721.3z"/>
					</g>
				</g>
			</g>
			<g>
				<defs>
					<path id="SVGID_13_" d="M486.5,537.5c-10.3,3.3-24.6,9.5-37,22c-13.5,13.6-18.5,28.3-21,35c-22.5,59.3-74.3,72.3-72,104
						c2.5,33.6,63.5,55.9,94,63c74.1,17.2,146.1-14.5,184-57c9.5-10.7,24.3-27.7,22-48c-2-17.8-15.3-22.9-48-53
						c-47.6-43.8-54.4-65.2-84-70C508.9,531,495.3,534.4,486.5,537.5z"/>
				</defs>
				<clipPath id="SVGID_14_">
					<use xlink:href="#SVGID_13_"  style="overflow:visible;"/>
				</clipPath>
				<g class="st19">
					<g>
						<path class="st16" d="M454.3,730.8c12.5,21.7,34,35.8,58.5,40.2c3.2,0.5,4.5-4.3,1.3-4.8c-23.3-4.1-43.6-17.2-55.5-37.8
							C457,725.5,452.7,728,454.3,730.8L454.3,730.8z"/>
					</g>
				</g>
			</g>
			<g>
				<defs>
					<path id="SVGID_15_" d="M486.5,537.5c-10.3,3.3-24.6,9.5-37,22c-13.5,13.6-18.5,28.3-21,35c-22.5,59.3-74.3,72.3-72,104
						c2.5,33.6,63.5,55.9,94,63c74.1,17.2,146.1-14.5,184-57c9.5-10.7,24.3-27.7,22-48c-2-17.8-15.3-22.9-48-53
						c-47.6-43.8-54.4-65.2-84-70C508.9,531,495.3,534.4,486.5,537.5z"/>
				</defs>
				<clipPath id="SVGID_16_">
					<use xlink:href="#SVGID_15_"  style="overflow:visible;"/>
				</clipPath>
				<g class="st20">
					<g>
						<path class="st16" d="M504.1,738.2c2.4,6.1,6.5,11.1,12.1,14.5c2.8,1.7,5.3-2.7,2.5-4.3c-4.5-2.7-8-6.7-9.9-11.5
							C507.8,733.9,502.9,735.2,504.1,738.2L504.1,738.2z"/>
					</g>
				</g>
			</g>
			<g>
				<defs>
					<path id="SVGID_17_" d="M486.5,537.5c-10.3,3.3-24.6,9.5-37,22c-13.5,13.6-18.5,28.3-21,35c-22.5,59.3-74.3,72.3-72,104
						c2.5,33.6,63.5,55.9,94,63c74.1,17.2,146.1-14.5,184-57c9.5-10.7,24.3-27.7,22-48c-2-17.8-15.3-22.9-48-53
						c-47.6-43.8-54.4-65.2-84-70C508.9,531,495.3,534.4,486.5,537.5z"/>
				</defs>
				<clipPath id="SVGID_18_">
					<use xlink:href="#SVGID_17_"  style="overflow:visible;"/>
				</clipPath>
				<g class="st21">
					<g>
						<path class="st11" d="M547,727.5c-0.6,7.1-4,13.5-9.3,18.2c-2.4,2.1,1.1,5.7,3.5,3.5c6.3-5.6,10-13.4,10.7-21.8
							C552.3,724.3,547.3,724.3,547,727.5L547,727.5z"/>
					</g>
				</g>
			</g>
			<g>
				<defs>
					<path id="SVGID_19_" d="M486.5,537.5c-10.3,3.3-24.6,9.5-37,22c-13.5,13.6-18.5,28.3-21,35c-22.5,59.3-74.3,72.3-72,104
						c2.5,33.6,63.5,55.9,94,63c74.1,17.2,146.1-14.5,184-57c9.5-10.7,24.3-27.7,22-48c-2-17.8-15.3-22.9-48-53
						c-47.6-43.8-54.4-65.2-84-70C508.9,531,495.3,534.4,486.5,537.5z"/>
				</defs>
				<clipPath id="SVGID_20_">
					<use xlink:href="#SVGID_19_"  style="overflow:visible;"/>
				</clipPath>
				<g class="st22">
					<g>
						<path class="st11" d="M576.1,714.8c-2.5,17.4-11.7,33-25.8,43.5c-2.6,1.9-0.1,6.2,2.5,4.3c15.2-11.2,25.4-27.7,28.2-46.5
							C581.4,713,576.5,711.7,576.1,714.8L576.1,714.8z"/>
					</g>
				</g>
			</g>
			<g>
				<defs>
					<path id="SVGID_21_" d="M486.5,537.5c-10.3,3.3-24.6,9.5-37,22c-13.5,13.6-18.5,28.3-21,35c-22.5,59.3-74.3,72.3-72,104
						c2.5,33.6,63.5,55.9,94,63c74.1,17.2,146.1-14.5,184-57c9.5-10.7,24.3-27.7,22-48c-2-17.8-15.3-22.9-48-53
						c-47.6-43.8-54.4-65.2-84-70C508.9,531,495.3,534.4,486.5,537.5z"/>
				</defs>
				<clipPath id="SVGID_22_">
					<use xlink:href="#SVGID_21_"  style="overflow:visible;"/>
				</clipPath>
				<g class="st23">
					<g>
						<path class="st11" d="M626.7,695.7c-21.2,25.7-47.1,47-76.5,62.6c-2.8,1.5-0.3,5.8,2.5,4.3c29.7-15.8,56.1-37.4,77.5-63.4
							C632.3,696.8,628.8,693.2,626.7,695.7L626.7,695.7z"/>
					</g>
				</g>
			</g>
		</g>
		<circle class="st24" cx="544" cy="686" r="8"/>
	</g>
</g>
<g id="叶子">
	<g>
		<g>
			<path class="st25" d="M295.8,651c-5.6-12.4-21-18.6-33.6-13.3c-5.9,2.4-3.3,12.1,2.7,9.6c8.9-3.7,18.4,0,22.4,8.7
				C289.8,661.9,298.5,656.8,295.8,651L295.8,651z"/>
		</g>
	</g>
	<g>
		<g>
			<path class="st26" d="M431,848.2c-27.2-17.4-51.8-38.6-72.6-63.2c-29.1-34.5-48.9-75.5-58.9-119.5c-9.1-39.8-12.7-83.8-1.8-123.6
				c4.2-15.6,11.1-31.1,23.2-42.3c7.7-7.1,17.6-12,27.2-16c12-5,24.7-8.8,37.5-11c7.6-1.3,18.1-2.9,24.9,0.6
				c7.4,3.8,12.4,14.1,11.8,22.3c-0.8,10.5-13,13.7-21.8,11.1c-3.9-1.2-6.4-3.2-6.5-7.5c-0.1-5.8,3.7-11.2,10-8.3
				c5.8,2.7,10.9-5.9,5-8.6c-11.6-5.3-22.7,0.6-24.7,13.2c-1.6,10.3,4.1,18.4,14,21c9.5,2.5,21.5,0.6,28.3-6.9
				c7.7-8.4,6.5-20.8,1.9-30.4c-3.4-7.1-9.2-13.5-16.8-16.1c-9.4-3.2-20.2-1.5-29.7,0.2c-14.9,2.7-29.5,7.4-43.2,13.7
				c-10,4.6-19.8,10.2-27.5,18.2c-13.6,14.1-21,33.2-25.1,52.1c-5,23-5.7,47-3.9,70.4c3.9,51.5,19.2,102.4,47.6,145.7
				c22.9,34.9,53.3,64.6,87.7,88c2.8,1.9,5.6,3.8,8.5,5.6C431.4,860.3,436.4,851.6,431,848.2L431,848.2z"/>
		</g>
	</g>
	<g>
		<g>
			<path class="st26" d="M362.2,830.7c-13.7,4.3-29.4,5.3-40.7-5.1c-8.3-7.6-12.8-18.4-15.7-29.1c-6.1-22-6.5-45.5-6.3-68.2
				c0.4-48.8,14.4-95.8,28.4-142.1c9.8-32.5,20.4-64.8,30.1-97.4c6.6-22,12.9-44.3,16.1-67.2c2.9-21,2.5-41.7,0.6-62.8
				c-1.9-21.7-3.6-53.7-24.5-66.5c-22.5-13.8-54.3,5.1-63.9,26.5c-5,11.2-7.5,26.4-1.8,37.8c5.4,10.8,21.8,14.1,30.6,5.4
				c4.5-4.4,5.2-10.9,4.1-16.8c-1.1-6.3-10.8-3.6-9.6,2.7c1.1,6.3-3.5,9.8-9.5,8.9c-5.6-0.8-7.8-5.5-8.5-10.7
				c-1.9-12.9,3.4-26.5,12.6-35.4c8.4-8,21-14.3,33-12.6c10.7,1.5,16.8,10.8,20.2,20.2c4.2,11.7,5.8,24.3,6.9,36.6
				c1,10.5,1.9,21,2,31.5c0.2,18.9-2.2,37.6-6.3,56c-5.4,24.1-12.9,47.8-20.3,71.4c-10,31.9-20.1,63.8-29.3,95.9
				c-11.9,41.4-21.5,82.9-21,126.2c0.4,37.1,2.4,107.8,54.4,108c7.1,0,14.2-1.5,20.9-3.6C370.9,838.4,368.3,828.7,362.2,830.7
				L362.2,830.7z"/>
		</g>
	</g>
	<path class="st25" d="M357.5,290.5c2.7-8.9,11.2-8.4,34-25c21-15.4,20.6-20.9,33-27c22.4-10.9,46.7-4.3,55-2
		c35.7,9.8,39,32.5,70,50c43,24.3,88.5,15,102,12c21.4-4.8,33.4-12.7,33.5-12.5c0.2,0.5-100.8,48.2-215.5,63.5
		c-17.7,2.4-53.2,6.3-83-14C371.2,325.1,353.1,305.3,357.5,290.5z"/>
	<g>
		<g>
			<path class="st26" d="M397.8,471.3c17.7-6.7,32.4-19.4,41-36.3c2.9-5.7-5.7-10.8-8.6-5c-7.4,14.5-19.7,25.9-35,31.7
				C389.2,463.9,391.8,473.6,397.8,471.3L397.8,471.3z"/>
		</g>
	</g>
	<path class="st27" d="M289.5,531.5c-7.3-3.8-6.6-21.8,0-34c5-9.2,15.6-19.5,22-17c8,3.2,10.3,27.1-1,41
		C305.3,528,295.3,534.5,289.5,531.5z"/>
	<g>
		<g>
			<path class="st27" d="M293.8,551c-4.7-10.3-9.3-20.7-14-31c-2.6-5.9-11.3-0.8-8.6,5c4.7,10.3,9.3,20.7,14,31
				C287.8,561.9,296.5,556.8,293.8,551L293.8,551z"/>
		</g>
	</g>
	<path class="st25" d="M279.5,518.5c2.4-5.4,3.6-13.8,0-20c-12.1-21-73.3-6.5-73.5-8.5c-0.1-0.7,6.4-3.1,13.5-1.5
		c10.4,2.3,16.5,11.6,18,14c4.8,7.6,2.3,12.3,8,20c1.9,2.5,7.1,9.5,15,10C269.3,533,276.5,525.2,279.5,518.5z"/>
	<path class="st27" d="M289.5,619.5c0.4-14.4,21.4-26,38-26c9.3,0,18,4.4,35.5,13.5c18.4,9.6,32.5,19.8,33,19c0.2-0.3-1.2-2-3-3
		c-7.8-4.5-19,5-33,12c-10,5-31,15.8-49,9C301.1,640.3,289.2,630.5,289.5,619.5z"/>
	<path class="st25" d="M265.5,628.5c-8.4-26-39.2-33.8-52-37c-6.9-1.8-46.6-11.8-64.5,9.5c-4.1,4.8-6,10.1-7,14c0,0,7.2,15.3,8,17
		c5.4,11.2,19,27.7,36.5,36.5c22.9,11.6,61.9,15,76-6C271.7,648.8,266.5,631.6,265.5,628.5z"/>
	<g>
		<g>
			<path class="st26" d="M325.8,739.7c-15.5-6.1-26.7,7.7-28.3,21.8c-0.7,6.4,9.3,6.3,10,0c0.9-8.4,6.8-15.7,15.7-12.2
				C329.2,751.7,331.8,742,325.8,739.7L325.8,739.7z"/>
		</g>
	</g>
	<path class="st25" d="M287.5,758.5c-15.8-5.6-16.7-17.5-31-19c-15.8-1.6-28.7,11.5-31,14c-19,20.2-15,54.2-3,75
		c7.6,13.3,28.5,14.4,28,24c-0.1,2.7-1.8,5.6-2.5,5.5c-1.8-0.3-4-18.8,3.5-29.5c7.8-11.1,22.8-9.1,47-12c6.5-0.8,69.4-8.8,73-29
		c2.1-11.5-14.9-27.5-32-32C318,749.9,307.9,765.7,287.5,758.5z"/>
	<g>
		<g>
			<defs>
				<path id="SVGID_23_" d="M371,264c3.1,1.8-9.6,17.5-6,37c7.5,41.1,79,53.2,77,61c-2.3,8.8-99.3,14.9-111-29
					C322.4,300.5,365.8,261.1,371,264z"/>
			</defs>
			<clipPath id="SVGID_24_">
				<use xlink:href="#SVGID_23_"  style="overflow:visible;"/>
			</clipPath>
			<path class="st28" d="M357.5,290.5c2.7-8.9,11.2-8.4,34-25c21-15.4,20.6-20.9,33-27c22.4-10.9,46.7-4.3,55-2
				c35.7,9.8,39,32.5,70,50c43,24.3,88.5,15,102,12c21.4-4.8,33.4-12.7,33.5-12.5c0.2,0.5-100.8,48.2-215.5,63.5
				c-17.7,2.4-53.2,6.3-83-14C371.2,325.1,353.1,305.3,357.5,290.5z"/>
		</g>
	</g>
	<g>
		<g>
			<path class="st25" d="M311,293.2c-22.5,12.6-35.9,38.5-26.3,63.6c2.3,6,11.9,3.4,9.6-2.7c-8-21.1,2.8-41.8,21.7-52.4
				C321.6,298.7,316.6,290,311,293.2L311,293.2z"/>
		</g>
	</g>
	<g>
		<g>
			<defs>
				<path id="SVGID_25_" d="M268,477c-3,0.9,6.9,20.7-3,40c-7.9,15.4-22.4,18.9-21,23c1.9,5.5,30,7.4,41-7
					C300.1,513.1,272.2,475.7,268,477z"/>
			</defs>
			<clipPath id="SVGID_26_">
				<use xlink:href="#SVGID_25_"  style="overflow:visible;"/>
			</clipPath>
			<path class="st29" d="M279.5,518.5c2.7-6,3.1-13.9,0-20c-10.5-20.9-59.1-15.4-60-10c-0.5,2.6,11.1,3,18,14c4.8,7.6,2.3,12.3,8,20
				c1.9,2.5,7.1,9.5,15,10C269.3,533,276.5,525.2,279.5,518.5z"/>
		</g>
	</g>
	<g>
		<g>
			<defs>
				<path id="SVGID_27_" d="M153,642c3-2.5,12.4,11.7,40,25c30.8,14.8,51.1,12.6,52,20c0.9,7.6-19.6,20.7-39,19
					C169,702.7,147.5,646.6,153,642z"/>
			</defs>
			<clipPath id="SVGID_28_">
				<use xlink:href="#SVGID_27_"  style="overflow:visible;"/>
			</clipPath>
			<path class="st30" d="M265.5,628.5c-8.4-26-39.2-33.8-52-37c-6.9-1.8-46.6-11.8-64.5,9.5c-4.1,4.8-6,10.1-7,14c0,0,7.2,15.3,8,17
				c5.4,11.2,19,27.7,36.5,36.5c22.9,11.6,61.9,15,76-6C271.7,648.8,266.5,631.6,265.5,628.5z"/>
		</g>
	</g>
	<g>
		<g>
			<defs>
				<path id="SVGID_29_" d="M347.1,581.9c-6,6.9,0.8,24,10.4,33.1c21.8,20.6,63.3,5,64.5-6C423.7,594.6,359.2,568,347.1,581.9z"/>
			</defs>
			<clipPath id="SVGID_30_">
				<use xlink:href="#SVGID_29_"  style="overflow:visible;"/>
			</clipPath>
			<path class="st31" d="M289.5,619.5c0.4-14.4,21.4-26,38-26c9.3,0,18,4.4,35.5,13.5c18.4,9.6,32.5,19.8,33,19c0.2-0.3-1.2-2-3-3
				c-7.8-4.5-19,5-33,12c-10,5-31,15.8-49,9C301.1,640.3,289.2,630.5,289.5,619.5z"/>
		</g>
	</g>
	<g>
		<g>
			<path class="st25" d="M305.3,767.8c2-5.7,4-11.3,6-17c2.1-6.1-7.5-8.7-9.6-2.7c-2,5.7-4,11.3-6,17
				C293.5,771.3,303.2,773.9,305.3,767.8L305.3,767.8z"/>
		</g>
	</g>
	<g>
		<g>
			<path class="st25" d="M289.5,738c0,8,0,16,0,24c0,6.4,10,6.5,10,0c0-8,0-16,0-24C299.5,731.6,289.5,731.5,289.5,738L289.5,738z"
				/>
		</g>
	</g>
	<g>
		<g>
			<defs>
				<path id="SVGID_31_" d="M287.5,758.5c-15.8-5.6-16.7-17.5-31-19c-15.8-1.6-28.7,11.5-31,14c-19,20.2-15,54.2-3,75
					c7.6,13.3,28.5,14.4,28,24c-0.1,2.7-1.8,5.6-2.5,5.5c-1.8-0.3-4-18.8,3.5-29.5c7.8-11.1,22.8-9.1,47-12c6.5-0.8,69.4-8.8,73-29
					c2.1-11.5-14.9-27.5-32-32C318,749.9,307.9,765.7,287.5,758.5z"/>
			</defs>
			<clipPath id="SVGID_32_">
				<use xlink:href="#SVGID_31_"  style="overflow:visible;"/>
			</clipPath>
			<path class="st32" d="M192.5,798.5c0.3-0.3,14.7,16.9,36.5,17.5c9.8,0.3,18.1-2.9,24-6c6-4.7,12-9.3,18-14c1.6,1.4,7.6,6.7,8,7
				c10,8.6,75.6,10.7,85-18c3.3-9.9-0.5-22.8-2-28c-3.7-12.7-9.5-18.6-8.5-19.5c2.3-2,43.5,20.2,51,59c8.1,41.8-21.1,91.6-59,104
				C277.1,922.9,191.4,799.7,192.5,798.5z"/>
		</g>
	</g>
	<g>
		
			<image style="overflow:visible;enable-background:new    ;" width="295" height="131" xlink:href="7E150F7D.png"  transform="matrix(1 0 0 1 326 253)">
		</image>
	</g>
</g>
<g id="路径">
	<g>
		<g>
			<path class="st33" d="M889.5,834.5c1.3,0,3.3,0,6,0"/>
			<path class="st34" d="M907.6,834.5c68.3-0.1,297.9,0.2,456.9,6c11.2,0.4,38.8,0.5,64,18c43.8,30.5,51.5,93,52,132.9"/>
			<path class="st33" d="M1480.6,997.5c0,2.1,0,4.1-0.1,6"/>
		</g>
	</g>
</g>
<g id="图层_7">
	<g>
		<g class="st0">
			<path class="st1" d="M1465,884c-49.7,0-90-15.7-90-35v123h1.5c69.4-9.8,129.8-21.8,178.5-35.7V849
				C1555,868.3,1514.7,884,1465,884z"/>
		</g>
		<path class="st35" d="M1553,850c0,19.3-39.4,35-88,35s-88-15.7-88-35"/>
	</g>
</g>
</svg>
