<?xml version="1.0" encoding="utf-8"?>
<!-- Generator: Adobe Illustrator 23.0.0, SVG Export Plug-In . SVG Version: 6.00 Build 0)  -->
<svg version="1.1" id="图层_1" xmlns="http://www.w3.org/2000/svg" xmlns:xlink="http://www.w3.org/1999/xlink" x="0px" y="0px"
	 viewBox="0 0 1920 1080" style="enable-background:new 0 0 1920 1080;" xml:space="preserve">
<style type="text/css">
	.st0{display:none;}
	.st1{display:inline;fill:#F9D1B1;}
	.st2{display:inline;fill:#DBAF91;}
	.st3{display:inline;fill:#8E725F;}
	.st4{opacity:0.99;}
	.st5{fill:#F9D1B1;}
	.st6{display:none;opacity:0.99;}
	.st7{fill:#DBAF91;}
	.st8{fill:#8E725F;}
	.st9{fill:none;stroke:#FFFFFF;stroke-miterlimit:10;stroke-dasharray:12;}
	.st10{fill:#A4866C;}
	.st11{fill:#B59B8A;}
	.st12{fill:#FFFFFF;}
	.st13{opacity:0.44;fill:#8E725F;enable-background:new    ;}
	.st14{fill:#D1B59B;}
	.st15{fill:#FEF3E9;}
	.st16{fill:none;stroke:#8E725F;stroke-width:4;stroke-miterlimit:10;}
</style>
<g>
	<g class="st0">
		<ellipse class="st1" cx="1043.5" cy="840" rx="738.5" ry="146"/>
	</g>
	<g class="st0">
		<ellipse class="st2" cx="1560" cy="836" rx="88" ry="33"/>
		<path class="st3" d="M1560,805c23.6,0,45.6,3.5,62.2,10c15.1,5.9,23.8,13.5,23.8,21s-8.7,15.1-23.8,21c-16.6,6.4-38.6,10-62.2,10
			s-45.6-3.5-62.2-10c-15.1-5.9-23.8-13.5-23.8-21s8.7-15.1,23.8-21C1514.4,808.5,1536.4,805,1560,805 M1560,801
			c-49.7,0-90,15.7-90,35s40.3,35,90,35s90-15.7,90-35S1609.7,801,1560,801L1560,801z"/>
	</g>
	<g id="底">
		<g class="st4">
			<path class="st5" d="M1043.5,693C635.6,693,305,758.4,305,839s330.6,146,738.5,146c158.9,0,306.1-9.9,426.6-26.8
				c0-0.1,0-0.1,0-0.2h-0.1V835c0,19.3,40.3,35,90,35s90-15.7,90-35v87.3c83.2-23.6,132-52.3,132-83.3
				C1782,758.4,1451.4,693,1043.5,693z"/>
		</g>
		<g class="st6">
			<path class="st1" d="M1563.8,942.6c-0.7,0.1-1.5,0.3-2.2,0.4C1562.4,942.9,1563.1,942.8,1563.8,942.6z"/>
		</g>
		<g class="st6">
			<path class="st1" d="M1551.9,944.9c-0.7,0.1-1.4,0.3-2.1,0.4C1550.5,945.2,1551.2,945,1551.9,944.9z"/>
		</g>
		<g class="st6">
			<path class="st1" d="M1569.7,941.5c-0.7,0.1-1.4,0.3-2.1,0.4C1568.3,941.7,1568.9,941.6,1569.7,941.5z"/>
		</g>
		<g class="st6">
			<path class="st1" d="M1580.8,939.2c-0.5,0.1-1.1,0.2-1.6,0.3C1579.8,939.4,1580.3,939.3,1580.8,939.2z"/>
		</g>
		<g class="st6">
			<path class="st1" d="M1504.6,953.1c-0.9,0.2-1.9,0.3-2.9,0.5C1502.7,953.4,1503.6,953.2,1504.6,953.1z"/>
		</g>
		<g class="st6">
			<path class="st1" d="M1575.4,940.3c-0.7,0.1-1.3,0.3-1.9,0.4C1574.1,940.5,1574.7,940.4,1575.4,940.3z"/>
		</g>
		<g class="st6">
			<path class="st1" d="M1511.1,952c-0.9,0.2-1.9,0.3-2.8,0.5C1509.2,952.3,1510.1,952.2,1511.1,952z"/>
		</g>
	</g>
	<g>
		<ellipse class="st7" cx="1560" cy="835" rx="88" ry="33"/>
		<path class="st8" d="M1560,804c23.6,0,45.6,3.5,62.2,10c15.1,5.9,23.8,13.5,23.8,21s-8.7,15.1-23.8,21c-16.6,6.4-38.6,10-62.2,10
			s-45.6-3.5-62.2-10c-15.1-5.9-23.8-13.5-23.8-21s8.7-15.1,23.8-21C1514.4,807.5,1536.4,804,1560,804 M1560,800
			c-49.7,0-90,15.7-90,35s40.3,35,90,35s90-15.7,90-35S1609.7,800,1560,800L1560,800z"/>
	</g>
</g>
<g id="路径">
	<path class="st9" d="M-136.2,847.8c0,0,520.9,16.5,603.6-12.5c82.7-29,302.1-94.9,567-94.9s487,40,513,107.3
		c26,67.3,24.2,175.4,22.6,203"/>
</g>
<g>
	<g id="右手_3_">
		<g>
			<path class="st8" d="M1017.8,771c-10.2,3.9-20.4,7.8-30.6,11.7c0.8,0.2,1.6,0.4,2.4,0.6c-7.5-6.7-14.7-13.6-22.5-20
				c-2.5-2-6,1.5-3.5,3.5c7.7,6.3,15,13.3,22.5,20c0.6,0.6,1.6,1,2.4,0.6c10.2-3.9,20.4-7.8,30.6-11.7
				C1022.2,774.7,1020.8,769.8,1017.8,771L1017.8,771z"/>
		</g>
	</g>
	<g>
		<g>
			<path class="st10" d="M927.1,808.5c0,8.8,0,17.7,0,26.5c0,1.3,1.2,2.5,2.5,2.5c2.7,0,5.3,0,8,0c3.2,0,3.2-5,0-5c-2.7,0-5.3,0-8,0
				c0.8,0.8,1.7,1.7,2.5,2.5c0-8.8,0-17.7,0-26.5C932.1,805.2,927.1,805.2,927.1,808.5L927.1,808.5z"/>
		</g>
	</g>
	<g>
		<g>
			<path class="st10" d="M889.1,808.5c0,8.8,0,17.7,0,26.5c0,1.3,1.2,2.5,2.5,2.5c2.7,0,5.3,0,8,0c3.2,0,3.2-5,0-5c-2.7,0-5.3,0-8,0
				c0.8,0.8,1.7,1.7,2.5,2.5c0-8.8,0-17.7,0-26.5C894.1,805.2,889.1,805.2,889.1,808.5L889.1,808.5z"/>
		</g>
	</g>
	<circle class="st11" cx="908.4" cy="735.5" r="79.5"/>
	<g id="眼">
		<path class="st12" d="M943,697.2c3.2-3.4,21.7,32.3,21.7,32.3s-17.8,5-22.7-3.6C937,717.3,939.8,700.7,943,697.2z"/>
	</g>
	<g id="右手_1_">
		<g>
			<path class="st10" d="M903.3,785.5c-3.8-10.2-7.7-20.4-11.5-30.7c-0.2,0.8-0.4,1.6-0.6,2.4c6.7-7.4,13.7-14.7,20.1-22.4
				c2-2.5-1.5-6-3.5-3.5c-6.4,7.7-13.4,14.9-20.1,22.4c-0.6,0.6-1,1.6-0.6,2.4c3.8,10.2,7.7,20.4,11.5,30.7
				C899.6,789.8,904.4,788.5,903.3,785.5L903.3,785.5z"/>
		</g>
	</g>
	<path class="st13" d="M925.2,657.3c13.8,3.1,25.9,9.6,35.8,18.4c-41.6-6.6-81.8,20.2-91.1,62c-6.3,28.2,3.1,56.3,22.3,75.1
		c-0.5-0.1-1.1-0.2-1.6-0.3c-42.8-9.6-69.8-52.1-60.3-94.9S882.3,647.8,925.2,657.3z"/>
</g>
<g id="图层_3">
	<g>
		<g>
			<path class="st10" d="M1168.5,843.9c-5.5,2.2-10.9,4.4-16.4,6.6c1,0.6,2.1,1.2,3.1,1.8c-0.5-1.3-1.1-2.6-1.6-3.9
				c-1.2-2.9-6-1.7-4.8,1.3c0.5,1.3,1.1,2.6,1.6,3.9c0.5,1.1,1.7,2.3,3.1,1.8c5.5-2.2,10.9-4.4,16.4-6.6
				C1172.8,847.5,1171.5,842.7,1168.5,843.9L1168.5,843.9z"/>
		</g>
	</g>
	<g>
		<g>
			<path class="st10" d="M1155.2,830.5c-5.5,2.2-10.9,4.4-16.4,6.6c1,0.6,2.1,1.2,3.1,1.8c-0.5-1.3-1.1-2.6-1.6-3.9
				c-1.2-2.9-6-1.7-4.8,1.3c0.5,1.3,1.1,2.6,1.6,3.9c0.5,1.1,1.7,2.3,3.1,1.8c5.5-2.2,10.9-4.4,16.4-6.6
				C1159.5,834.2,1158.2,829.3,1155.2,830.5L1155.2,830.5z"/>
		</g>
	</g>
	<g>
		<g>
			<path class="st10" d="M1149.3,814.4c-4.7,4.8-11.3,6.7-17.8,5.3c-3.1-0.7-4.5,4.1-1.3,4.8c8.2,1.9,16.7-0.5,22.6-6.5
				C1155,815.6,1151.5,812.1,1149.3,814.4L1149.3,814.4z"/>
		</g>
	</g>
	<g>
		<g>
			<circle class="st14" cx="1190.2" cy="808.2" r="48.8"/>
		</g>
		<g>
			<path class="st15" d="M1205.7,761.6c5.2,1.8,9.9,4.3,14.1,7.5c7.5,12,9.8,27.1,4.9,41.5c-8.6,25.5-36.3,39.3-61.9,30.6
				c-5.2-1.8-9.9-4.3-14.1-7.5c-7.5-12-9.8-27.1-4.9-41.5C1152.5,766.7,1180.2,753,1205.7,761.6z"/>
		</g>
	</g>
	<g>
		<g>
			<path class="st10" d="M1197,783.2c-1.2,2.8-2.5,5.5-3.7,8.3c-0.8,1.8-0.5,4,1.3,5.1c1.6,0.9,4.3,0.5,5.1-1.3
				c1.2-2.8,2.5-5.5,3.7-8.3c0.8-1.8,0.5-4-1.3-5.1C1200.6,781,1197.8,781.4,1197,783.2L1197,783.2z"/>
		</g>
	</g>
	<g>
		<g>
			<path class="st10" d="M1176.7,772.6c-1.2,2.8-2.5,5.5-3.7,8.3c-0.8,1.8-0.5,4,1.3,5.1c1.6,0.9,4.3,0.5,5.1-1.3
				c1.2-2.8,2.5-5.5,3.7-8.3c0.8-1.8,0.5-4-1.3-5.1C1180.3,770.3,1177.6,770.7,1176.7,772.6L1176.7,772.6z"/>
		</g>
	</g>
	<g>
		<g>
			<path class="st15" d="M1197.3,823.2c6.9,10.7,14.8,20.8,24,29.6c2.3,2.2,5.9-1.3,3.5-3.5c-8.9-8.6-16.5-18.3-23.2-28.6
				C1199.8,818,1195.5,820.5,1197.3,823.2L1197.3,823.2z"/>
		</g>
	</g>
	<g>
		<g>
			<path class="st10" d="M1192.1,795.7c0.2,3,2.4,5.5,5.5,5.5c3,0,5.5-2.5,5.5-5.5c0-2.9-2.3-5.3-5.2-5.5
				C1194.6,790.1,1192.3,792.6,1192.1,795.7c-0.1,1.6,2.4,1.6,2.5,0c0.2-3.8,5.9-3.8,5.9,0c0,3.8-5.7,3.8-5.9,0
				C1194.5,794.1,1192,794.1,1192.1,795.7z"/>
		</g>
	</g>
	<g>
		<g>
			<path class="st10" d="M1167.7,784.1c0.2,3,2.4,5.5,5.5,5.5c3,0,5.5-2.5,5.5-5.5c0-2.9-2.3-5.3-5.2-5.5
				C1170.2,778.5,1167.9,781,1167.7,784.1c-0.1,1.6,2.4,1.6,2.5,0c0.2-3.8,5.9-3.8,5.9,0c0,3.8-5.7,3.8-5.9,0
				C1170.1,782.5,1167.6,782.5,1167.7,784.1z"/>
		</g>
	</g>
</g>
<g id="图层_4">
	<g>
		<g>
			<path class="st10" d="M1119.3,833.7c0,5.8,0,11.5,0,17.3c0.8-0.8,1.7-1.7,2.5-2.5c-1.4,0-2.7,0-4.1,0c-3.2,0-3.2,5,0,5
				c1.4,0,2.7,0,4.1,0c1.3,0,2.5-1.2,2.5-2.5c0-5.8,0-11.5,0-17.3C1124.3,830.5,1119.3,830.5,1119.3,833.7L1119.3,833.7z"/>
		</g>
	</g>
	<g>
		<g>
			<path class="st10" d="M1084.7,833.7c0,5.8,0,11.5,0,17.3c0.8-0.8,1.7-1.7,2.5-2.5c-1.4,0-2.7,0-4.1,0c-3.2,0-3.2,5,0,5
				c1.4,0,2.7,0,4.1,0c1.3,0,2.5-1.2,2.5-2.5c0-5.8,0-11.5,0-17.3C1089.7,830.5,1084.7,830.5,1084.7,833.7L1084.7,833.7z"/>
		</g>
	</g>
	<g>
		<g>
			<path class="st10" d="M1062,801.1c-4.5,4.6-11,6.6-17.3,5.1c-3.1-0.7-4.5,4.1-1.3,4.8c8.1,1.8,16.4-0.5,22.2-6.4
				C1067.8,802.3,1064.2,798.8,1062,801.1L1062,801.1z"/>
		</g>
	</g>
	<g>
		<g>
			<circle class="st14" cx="1102" cy="795" r="47.7"/>
		</g>
		<g>
			<path class="st15" d="M1117.2,749.5c5.1,1.7,9.7,4.2,13.8,7.3c7.3,11.7,9.5,26.5,4.8,40.6c-8.4,25-35.5,38.4-60.5,29.9
				c-5.1-1.7-9.7-4.2-13.8-7.3c-7.3-11.7-9.5-26.5-4.8-40.6C1065.2,754.5,1092.3,741.1,1117.2,749.5z"/>
		</g>
	</g>
	<g>
		<g>
			<path class="st10" d="M1105,776c-0.7,2.9-1.4,5.8-2.1,8.6c-1.1,4.7,6.1,6.7,7.2,2c0.7-2.9,1.4-5.8,2.1-8.6
				C1113.3,773.3,1106.1,771.3,1105,776L1105,776z"/>
		</g>
	</g>
	<g>
		<g>
			<path class="st10" d="M1077.8,771.8c-0.7,2.9-1.4,5.8-2.1,8.6c-1.1,4.7,6.1,6.7,7.2,2c0.7-2.9,1.4-5.8,2.1-8.6
				C1086.2,769.1,1078.9,767.1,1077.8,771.8L1077.8,771.8z"/>
		</g>
	</g>
	<g>
		<g>
			<path class="st15" d="M1109.4,804.5c13.3,0.6,22.6,14.5,26.8,25.7c1.1,3,6,1.7,4.8-1.3c-5-13.4-15.8-28.7-31.6-29.4
				C1106.2,799.3,1106.2,804.3,1109.4,804.5L1109.4,804.5z"/>
		</g>
	</g>
</g>
<g id="遮罩">
	<g>
		<g class="st4">
			<path class="st5" d="M1560,870c-49.7,0-90-15.7-90-35v123h1.5c69.4-9.8,129.8-21.8,178.5-35.7V835
				C1650,854.3,1609.7,870,1560,870z"/>
		</g>
		<path class="st16" d="M1648,836c0,19.3-39.4,35-88,35s-88-15.7-88-35"/>
	</g>
</g>
</svg>
