<?xml version="1.0" encoding="utf-8"?>
<!-- Generator: Adobe Illustrator 23.0.0, SVG Export Plug-In . SVG Version: 6.00 Build 0)  -->
<svg version="1.1" id="图层_1" xmlns="http://www.w3.org/2000/svg" xmlns:xlink="http://www.w3.org/1999/xlink" x="0px" y="0px"
	 viewBox="0 0 1451 1356.6" style="enable-background:new 0 0 1451 1356.6;" xml:space="preserve">
<style type="text/css">
	.st0{fill:#7485CE;}
	.st1{fill:#FECB7F;}
	.st2{clip-path:url(#SVGID_2_);fill:#7DBC7D;}
	.st3{fill:#59993C;}
	.st4{fill:#FCDE95;}
	.st5{clip-path:url(#SVGID_4_);}
	.st6{fill:#F3CD8E;}
	.st7{fill:#E6C382;}
	.st8{fill:#FECF91;}
	.st9{fill:url(#SVGID_5_);}
	.st10{fill:#8C8984;}
	.st11{fill:none;stroke:#808080;stroke-width:10;stroke-linecap:round;stroke-linejoin:round;stroke-miterlimit:10;}
	.st12{fill:none;stroke:#666666;stroke-width:20;stroke-linecap:round;stroke-linejoin:round;stroke-miterlimit:10;}
	.st13{fill:none;stroke:#666666;stroke-width:10;stroke-linecap:round;stroke-linejoin:round;}
	.st14{fill:#666666;}
	.st15{fill:none;stroke:#ED5858;stroke-width:10;stroke-linecap:round;stroke-linejoin:round;stroke-miterlimit:10;}
	.st16{fill:#ED5858;stroke:#ED5858;stroke-width:35;stroke-linecap:round;stroke-linejoin:round;stroke-miterlimit:10;}
	.st17{fill:none;stroke:#FFDC73;stroke-width:10;stroke-linecap:round;stroke-linejoin:round;stroke-miterlimit:10;}
	.st18{fill:#FBB03B;stroke:#FBB03B;stroke-width:5;stroke-linecap:round;stroke-linejoin:round;stroke-miterlimit:10;}
	.st19{fill:#FFDC73;stroke:#FFDC73;stroke-width:5;stroke-linecap:round;stroke-linejoin:round;stroke-miterlimit:10;}
	.st20{fill:none;stroke:#F7931E;stroke-width:3;stroke-linecap:round;stroke-linejoin:round;stroke-miterlimit:10;}
	.st21{fill:none;stroke:#FFDC73;stroke-width:3;stroke-linecap:round;stroke-linejoin:round;stroke-miterlimit:10;}
	.st22{fill:none;stroke:#F7931E;stroke-width:0.5;stroke-linecap:round;stroke-linejoin:round;stroke-miterlimit:10;}
	.st23{fill:none;stroke:#ED5858;stroke-width:30;stroke-miterlimit:10;}
	.st24{fill:#ED5858;}
	.st25{fill:#808080;}
	.st26{fill:none;stroke:#4D4D4D;stroke-width:70;stroke-linecap:round;stroke-linejoin:round;stroke-miterlimit:10;}
	.st27{fill:#FFFFFF;}
	.st28{fill:#4D4D4D;}
	.st29{fill:none;stroke:#F2F2F2;stroke-width:35;stroke-linecap:round;stroke-linejoin:round;stroke-miterlimit:10;}
	.st30{fill:#F2F2F2;}
	.st31{font-family:'Rubrik-SemiBold';}
	.st32{font-size:99.6713px;}
</style>
<g id="_x35_">
	<g id="图层_4">
		<path class="st0" d="M542.1,1295.4c0.9-23.7,6.4-63.4,34.3-96.7c67.8-81,231.7-79.8,301.5,1.7c29,33.9,35.3,74,36.8,95.8"/>
		<path class="st1" d="M672.3,1094.1v52.2c19.1,24.6,38.3,49.1,57.4,73.7c18.6-24.3,37.1-48.5,55.7-72.8v-60L672.3,1094.1z"/>
	</g>
	<g id="图层_5">
		<g>
			<g>
				<defs>
					<polygon id="SVGID_1_" points="609.8,1160.9 609.8,1296.2 843.6,1296.2 843.6,1154 798.2,1142 798.2,1248.2 656.1,1248.2 
						656.1,1130 					"/>
				</defs>
				<clipPath id="SVGID_2_">
					<use xlink:href="#SVGID_1_"  style="overflow:visible;"/>
				</clipPath>
				<path class="st2" d="M543,1295.4c0.9-23.7,6.4-63.4,34.3-96.7c67.8-81,231.7-79.8,301.5,1.7c29,33.9,35.3,74,36.8,95.8"/>
			</g>
		</g>
	</g>
	<g id="图层_6">
		<circle class="st3" cx="635.9" cy="1273.5" r="14.1"/>
		<circle class="st3" cx="819.2" cy="1273.5" r="14.1"/>
	</g>
	<g>
		<g>
			<path class="st4" d="M612.8,1015.7c0-28.3,32.5-126.8,67.7-126.8c20.6,0,29.1,26.6,47.1,26.6s25.7-26.6,40.3-26.6
				c21.4,0,73.7,56.5,73.7,131.9L612.8,1015.7z"/>
		</g>
		<g>
			<g>
				<defs>
					<path id="SVGID_3_" d="M612.8,1013.1c0-28.3,32.5-126.8,67.7-126.8c20.6,0,29.1,26.6,47.1,26.6s25.7-26.6,40.3-26.6
						c21.4,0,73.7,56.5,73.7,131.9L612.8,1013.1z"/>
				</defs>
				<clipPath id="SVGID_4_">
					<use xlink:href="#SVGID_3_"  style="overflow:visible;"/>
				</clipPath>
				<g class="st5">
					<path class="st6" d="M871.9,1017.8H592.7v-41.1c74.4-9,147.3-18.7,279.2,0V1017.8z"/>
				</g>
			</g>
		</g>
		<g>
			<ellipse class="st7" cx="728" cy="1056.8" rx="197" ry="55.2"/>
		</g>
	</g>
	<g>
		<circle class="st8" cx="619.7" cy="1075.6" r="18.4"/>
	</g>
	<g>
		<circle class="st8" cx="835.5" cy="1075.6" r="18.4"/>
	</g>
	<g>
		
			<linearGradient id="SVGID_5_" gradientUnits="userSpaceOnUse" x1="726.75" y1="533.7915" x2="726.75" y2="688.8915" gradientTransform="matrix(1 0 0 -1 0 1714.3829)">
			<stop  offset="0" style="stop-color:#FFFFFF"/>
			<stop  offset="0" style="stop-color:#FFEDCF"/>
			<stop  offset="0.3547" style="stop-color:#FDECCD"/>
			<stop  offset="0.5502" style="stop-color:#F6E9C5"/>
			<stop  offset="0.7071" style="stop-color:#EAE4B7"/>
			<stop  offset="0.8433" style="stop-color:#D9DDA3"/>
			<stop  offset="0.965" style="stop-color:#C3D48A"/>
			<stop  offset="1" style="stop-color:#BCD182"/>
		</linearGradient>
		<path class="st9" d="M842.8,1062.8c0-20.6-52-37.3-116.1-37.3s-116,16.7-116,37.3c0,7,6,13.5,16.4,19.1c2.9,55,47,98.7,100.9,98.7
			c54.4,0,98.7-44.4,101-100.1C837.8,1075.2,842.8,1069.2,842.8,1062.8z"/>
	</g>
	<g id="图层_3">
		<path class="st10" d="M634.6,1039.2v46.3l-24.8-19.7v-16.3C619.2,1039.2,634.6,1039.2,634.6,1039.2z"/>
		<path class="st10" d="M817.9,1039.2v46.3l24.8-19.7v-16.3C833.4,1039.2,817.9,1039.2,817.9,1039.2z"/>
		<circle cx="682.2" cy="1082.5" r="12.4"/>
		<circle cx="773.8" cy="1082.5" r="12.4"/>
		<g>
			<path class="st10" d="M737.4,1116.3c6.9-5.6,15.5-3.8,17.1-3.5c6.5,1.4,10.8,5.3,14.8,9.9c5.3,6.1,6,16.3,14.3,18.5
				c10,2.7,18.9-1.3,21.3-2.6c0.1-0.1,0.2-0.1,0.2,0c0.2,0.3-15.9,16.3-36.8,18.8c-5.5,0.7-16.9,2.1-26.6-5.1
				c-1.6-1.2-11-8.2-11.1-19.7C730.5,1130.9,730.4,1122,737.4,1116.3z"/>
			<path class="st10" d="M719.4,1131.7"/>
			<path class="st10" d="M729.7,1116.3c-6.9-5.6-15.5-3.8-17.1-3.5c-6.5,1.4-10.8,5.3-14.8,9.9c-5.3,6.1-6,16.3-14.3,18.5
				c-10,2.7-18.9-1.3-21.3-2.6c-0.1-0.1-0.2-0.1-0.2,0c-0.2,0.3,15.9,16.3,36.8,18.8c5.5,0.7,16.9,2.1,26.6-5.1
				c1.6-1.2,11-8.2,11.1-19.7C736.6,1130.9,736.7,1122,729.7,1116.3z"/>
		</g>
		<path class="st11" d="M694.6,1061.5c-2.1,2.8-7.6,9.3-17.7,13.3c-8.1,3.1-15.3,3.2-19.1,3"/>
		<path class="st11" d="M761,1061.9c2.1,2.8,7.6,9.3,17.7,13.3c8.1,3.1,15.3,3.2,19.1,3"/>
	</g>
</g>
<g id="_x34_">
	<path class="st12" d="M81,962.2"/>
	<path class="st12" d="M81,699.2"/>
	<g>
		<g>
			<g>
				<path class="st13" d="M966.2,1150.2h122.9c76.1,0,138.4-62.3,138.4-138.4v-28.1"/>
				<g>
					<path class="st14" d="M1007.2,1179c0.9-1.4,0.5-3.3-0.9-4.1l-38.7-24.7l38.7-24.7c1.4-0.9,1.8-2.7,0.9-4.1
						c-0.9-1.4-2.8-1.8-4.1-0.9l-42.7,27.2c-0.9,0.6-1.4,1.5-1.4,2.5s0.5,2,1.4,2.5l42.7,27.2c0.5,0.3,1.1,0.5,1.6,0.5
						C1005.7,1180.4,1006.6,1179.9,1007.2,1179z"/>
				</g>
				<g>
					<path class="st14" d="M1250.1,984.8c0-12.5-10.1-22.6-22.6-22.6s-22.6,10.1-22.6,22.6s10.1,22.6,22.6,22.6
						S1250.1,997.2,1250.1,984.8z"/>
				</g>
			</g>
		</g>
		<g>
			<g>
				<path class="st13" d="M224.5,983.6v28.1c0,76.1,62.3,138.4,138.4,138.4h134.9"/>
				<g>
					<path class="st14" d="M201.9,984.8c0-12.5,10.1-22.6,22.6-22.6s22.6,10.1,22.6,22.6s-10.1,22.6-22.6,22.6
						S201.9,997.2,201.9,984.8z"/>
				</g>
				<g>
					<path class="st14" d="M456.8,1179c-0.9-1.4-0.5-3.3,0.9-4.1l38.7-24.7l-38.7-24.7c-1.4-0.9-1.8-2.7-0.9-4.1
						c0.9-1.4,2.8-1.8,4.1-0.9l42.7,27.2c0.9,0.6,1.4,1.5,1.4,2.5s-0.5,2-1.4,2.5l-42.7,27.2c-0.5,0.3-1.1,0.5-1.6,0.5
						C458.3,1180.4,457.4,1179.9,456.8,1179z"/>
				</g>
			</g>
		</g>
	</g>
</g>
<g id="_x33_">
	<g>
		<path class="st15" d="M123,721.9c-3-8.5-1.7-12,0.1-13.5c4.8-3.9,15.3,4,24.2,0.1c7.5-3.3,3.7-13.8,10.3-16.8
			c6.7-3,13.5,5.2,21.5,2.7c5.9-1.9,4.9-7.8,6.6-14"/>
		<path class="st15" d="M135,858.5c6.3-6.5,9.9-7,12.1-6c5.7,2.5,3.4,15.4,10.8,21.6c6.3,5.2,14-3,19.7,1.6s1.4,14.4,7.3,20.4
			c4.4,4.4,9.2,0.8,15.5-0.5"/>
		<path class="st15" d="M349.7,864.2c-7.1-5.6-7.9-9.1-7.2-11.4c2-5.9,15-4.9,20.4-12.9c4.6-6.8-4.4-13.6-0.4-19.8
			s14.2-2.9,19.5-9.3c4-4.8-0.1-9.2-2-15.4"/>
		<g>
			<path class="st16" d="M340.8,808c0.3-0.5,0.6-1.1,0.9-1.6c26.6-50-39.2-97.9-79.4-58.1L245.4,765c-0.5,0.5-1.4,0.5-2,0
				l-19.1-18.5c-37.7-36.5-99.6,2.9-81.6,52.2c1.1,3.1,2.6,6.2,4.3,9.2c0.1,0.1,0.2,0.3,0.3,0.4l95.7,83.4c0.5,0.5,1.3,0.5,1.9,0
				l95.7-83.4C340.7,808.2,340.8,808.1,340.8,808z"/>
			<polyline class="st17" points="67.5,794 78.1,794 90.5,783.3 102.2,794 112.5,794 120.7,808 127.6,794 146.1,794 155.2,784.5 
				163.1,811.3 170.2,794 195.4,794 203.9,747.5 220.4,834.9 230.4,794 244.6,794 270.2,670.2 289.1,931.2 305.2,794.2 331.7,794.2 
				345.3,781.1 356.2,794.1 361.3,794.1 367.1,805.7 372.7,794.1 389.5,794 			"/>
		</g>
	</g>
	<g>
		<g>
			<g>
				<g>
					<path class="st18" d="M1193.5,898.7h-94v16h0.5c0.6,5.3,21.1,9.5,46.2,9.5s45.6-4.2,46.2-9.5h1v-16H1193.5z"/>
					<ellipse class="st19" cx="1146.3" cy="897.5" rx="46.3" ry="9.8"/>
				</g>
				<line class="st20" x1="1103.5" y1="906.7" x2="1103.5" y2="916.7"/>
				<line class="st20" x1="1111.5" y1="909.7" x2="1111.5" y2="919.7"/>
				<line class="st20" x1="1115.5" y1="910.7" x2="1115.5" y2="920.7"/>
				<line class="st20" x1="1123.5" y1="912.7" x2="1123.5" y2="916.7"/>
				<line class="st20" x1="1123.5" y1="921.7" x2="1123.5" y2="922.7"/>
				<line class="st21" x1="1190.5" y1="905.7" x2="1190.5" y2="916.7"/>
				<line class="st21" x1="1183.5" y1="907.7" x2="1183.5" y2="910.7"/>
			</g>
			<g>
				<g>
					<path class="st18" d="M1192.5,879.7h-94v16h0.5c0.6,5.3,21.1,9.5,46.2,9.5s45.6-4.2,46.2-9.5h1v-16H1192.5z"/>
					<ellipse class="st19" cx="1145.3" cy="878.5" rx="46.3" ry="9.8"/>
				</g>
				<line class="st20" x1="1102.5" y1="887.7" x2="1102.5" y2="897.7"/>
				<line class="st20" x1="1110.5" y1="890.7" x2="1110.5" y2="900.7"/>
				<line class="st20" x1="1114.5" y1="891.7" x2="1114.5" y2="901.7"/>
				<line class="st20" x1="1122.5" y1="893.7" x2="1122.5" y2="897.7"/>
				<line class="st20" x1="1122.5" y1="902.7" x2="1122.5" y2="903.7"/>
				<line class="st21" x1="1189.5" y1="886.7" x2="1189.5" y2="897.7"/>
				<line class="st21" x1="1182.5" y1="888.7" x2="1182.5" y2="891.7"/>
			</g>
			<g>
				<g>
					<path class="st18" d="M1191.5,860.7h-94v16h0.5c0.6,5.3,21.1,9.5,46.2,9.5s45.6-4.2,46.2-9.5h1v-16H1191.5z"/>
					<ellipse class="st19" cx="1144.3" cy="859.5" rx="46.3" ry="9.8"/>
				</g>
				<line class="st20" x1="1101.5" y1="868.7" x2="1101.5" y2="878.7"/>
				<line class="st20" x1="1109.5" y1="871.7" x2="1109.5" y2="881.7"/>
				<line class="st20" x1="1113.5" y1="872.7" x2="1113.5" y2="882.7"/>
				<line class="st20" x1="1121.5" y1="874.7" x2="1121.5" y2="878.7"/>
				<line class="st20" x1="1121.5" y1="883.7" x2="1121.5" y2="884.7"/>
				<line class="st21" x1="1188.5" y1="867.7" x2="1188.5" y2="878.7"/>
				<line class="st21" x1="1181.5" y1="869.7" x2="1181.5" y2="872.7"/>
			</g>
			<g>
				<g>
					<path class="st18" d="M1189.5,841.7h-94v16h0.5c0.6,5.3,21.1,9.5,46.2,9.5s45.6-4.2,46.2-9.5h1v-16H1189.5z"/>
					<ellipse class="st19" cx="1142.3" cy="840.5" rx="46.3" ry="9.8"/>
				</g>
				<line class="st20" x1="1099.5" y1="849.7" x2="1099.5" y2="859.7"/>
				<line class="st20" x1="1107.5" y1="852.7" x2="1107.5" y2="862.7"/>
				<line class="st20" x1="1111.5" y1="853.7" x2="1111.5" y2="863.7"/>
				<line class="st20" x1="1119.5" y1="855.7" x2="1119.5" y2="859.7"/>
				<line class="st20" x1="1119.5" y1="864.7" x2="1119.5" y2="865.7"/>
				<line class="st21" x1="1186.5" y1="848.7" x2="1186.5" y2="859.7"/>
				<line class="st21" x1="1179.5" y1="850.7" x2="1179.5" y2="853.7"/>
			</g>
			<g>
				<g>
					<path class="st18" d="M1187.5,821.7h-94v16h0.5c0.6,5.3,21.1,9.5,46.2,9.5s45.6-4.2,46.2-9.5h1v-16H1187.5z"/>
					<ellipse class="st19" cx="1140.3" cy="820.5" rx="46.3" ry="9.8"/>
				</g>
				<line class="st20" x1="1097.5" y1="829.7" x2="1097.5" y2="839.7"/>
				<line class="st20" x1="1105.5" y1="832.7" x2="1105.5" y2="842.7"/>
				<line class="st20" x1="1109.5" y1="833.7" x2="1109.5" y2="843.7"/>
				<line class="st20" x1="1117.5" y1="835.7" x2="1117.5" y2="839.7"/>
				<line class="st20" x1="1117.5" y1="844.7" x2="1117.5" y2="845.7"/>
				<line class="st21" x1="1184.5" y1="828.7" x2="1184.5" y2="839.7"/>
				<line class="st21" x1="1177.5" y1="830.7" x2="1177.5" y2="833.7"/>
			</g>
			<g>
				<g>
					<path class="st18" d="M1187.5,803.7h-94v16h0.5c0.6,5.3,21.1,9.5,46.2,9.5s45.6-4.2,46.2-9.5h1v-16H1187.5z"/>
					<ellipse class="st19" cx="1140.3" cy="802.5" rx="46.3" ry="9.8"/>
				</g>
				<line class="st20" x1="1097.5" y1="811.7" x2="1097.5" y2="821.7"/>
				<line class="st20" x1="1105.5" y1="814.7" x2="1105.5" y2="824.7"/>
				<line class="st20" x1="1109.5" y1="815.7" x2="1109.5" y2="825.7"/>
				<line class="st20" x1="1117.5" y1="817.7" x2="1117.5" y2="821.7"/>
				<line class="st20" x1="1117.5" y1="826.7" x2="1117.5" y2="827.7"/>
				<line class="st21" x1="1184.5" y1="810.7" x2="1184.5" y2="821.7"/>
				<line class="st21" x1="1177.5" y1="812.7" x2="1177.5" y2="815.7"/>
			</g>
			<g>
				<g>
					<path class="st18" d="M1193.5,784.7h-94v16h0.5c0.6,5.3,21.1,9.5,46.2,9.5s45.6-4.2,46.2-9.5h1v-16H1193.5z"/>
					<ellipse class="st19" cx="1146.3" cy="783.5" rx="46.3" ry="9.8"/>
				</g>
				<line class="st20" x1="1103.5" y1="792.7" x2="1103.5" y2="802.7"/>
				<line class="st20" x1="1111.5" y1="795.7" x2="1111.5" y2="805.7"/>
				<line class="st20" x1="1115.5" y1="796.7" x2="1115.5" y2="806.7"/>
				<line class="st20" x1="1123.5" y1="798.7" x2="1123.5" y2="802.7"/>
				<line class="st20" x1="1123.5" y1="807.7" x2="1123.5" y2="808.7"/>
				<line class="st21" x1="1190.5" y1="791.7" x2="1190.5" y2="802.7"/>
				<line class="st21" x1="1183.5" y1="793.7" x2="1183.5" y2="796.7"/>
			</g>
			<g>
				<g>
					<path class="st18" d="M1203.5,765.7h-94v16h0.5c0.6,5.3,21.1,9.5,46.2,9.5s45.6-4.2,46.2-9.5h1v-16H1203.5z"/>
					<ellipse class="st19" cx="1156.3" cy="764.5" rx="46.3" ry="9.8"/>
					<g>
						<line class="st20" x1="1137" y1="757" x2="1154" y2="761.2"/>
						<line class="st20" x1="1156.7" y1="756" x2="1155.2" y2="761.5"/>
						<line class="st20" x1="1142.6" y1="762.1" x2="1168" y2="760.1"/>
						<line class="st20" x1="1151.1" y1="766.3" x2="1175" y2="764.2"/>
						<line class="st20" x1="1155.2" y1="761.5" x2="1171.2" y2="769.6"/>
					</g>
					<ellipse class="st22" cx="1156.3" cy="763.5" rx="46.3" ry="9.8"/>
				</g>
				<line class="st20" x1="1113.5" y1="773.7" x2="1113.5" y2="783.7"/>
				<line class="st20" x1="1121.5" y1="776.7" x2="1121.5" y2="786.7"/>
				<line class="st20" x1="1125.5" y1="777.7" x2="1125.5" y2="787.7"/>
				<line class="st20" x1="1133.5" y1="779.7" x2="1133.5" y2="783.7"/>
				<line class="st20" x1="1133.5" y1="788.7" x2="1133.5" y2="789.7"/>
				<line class="st21" x1="1200.5" y1="772.7" x2="1200.5" y2="783.7"/>
				<line class="st21" x1="1193.5" y1="774.7" x2="1193.5" y2="777.7"/>
			</g>
			<g>
				<g>
					<path class="st18" d="M1292.5,899.7h-94v16h0.5c0.6,5.3,21.1,9.5,46.2,9.5s45.6-4.2,46.2-9.5h1v-16H1292.5z"/>
					<ellipse class="st19" cx="1245.3" cy="898.5" rx="46.3" ry="9.8"/>
				</g>
				<line class="st20" x1="1202.5" y1="907.7" x2="1202.5" y2="917.7"/>
				<line class="st20" x1="1210.5" y1="910.7" x2="1210.5" y2="920.7"/>
				<line class="st20" x1="1214.5" y1="911.7" x2="1214.5" y2="921.7"/>
				<line class="st20" x1="1222.5" y1="913.7" x2="1222.5" y2="917.7"/>
				<line class="st20" x1="1222.5" y1="922.7" x2="1222.5" y2="923.7"/>
				<line class="st21" x1="1289.5" y1="906.7" x2="1289.5" y2="917.7"/>
				<line class="st21" x1="1282.5" y1="908.7" x2="1282.5" y2="911.7"/>
			</g>
			<g>
				<g>
					<path class="st18" d="M1288.5,880.7h-94v16h0.5c0.6,5.3,21.1,9.5,46.2,9.5s45.6-4.2,46.2-9.5h1v-16H1288.5z"/>
					<ellipse class="st19" cx="1241.3" cy="879.5" rx="46.3" ry="9.8"/>
				</g>
				<line class="st20" x1="1198.5" y1="888.7" x2="1198.5" y2="898.7"/>
				<line class="st20" x1="1206.5" y1="891.7" x2="1206.5" y2="901.7"/>
				<line class="st20" x1="1210.5" y1="892.7" x2="1210.5" y2="902.7"/>
				<line class="st20" x1="1218.5" y1="894.7" x2="1218.5" y2="898.7"/>
				<line class="st20" x1="1218.5" y1="903.7" x2="1218.5" y2="904.7"/>
				<line class="st21" x1="1285.5" y1="887.7" x2="1285.5" y2="898.7"/>
				<line class="st21" x1="1278.5" y1="889.7" x2="1278.5" y2="892.7"/>
			</g>
			<g>
				<g>
					<path class="st18" d="M1288.5,861.7h-94v16h0.5c0.6,5.3,21.1,9.5,46.2,9.5s45.6-4.2,46.2-9.5h1v-16H1288.5z"/>
					<ellipse class="st19" cx="1241.3" cy="860.5" rx="46.3" ry="9.8"/>
				</g>
				<line class="st20" x1="1198.5" y1="869.7" x2="1198.5" y2="879.7"/>
				<line class="st20" x1="1206.5" y1="872.7" x2="1206.5" y2="882.7"/>
				<line class="st20" x1="1210.5" y1="873.7" x2="1210.5" y2="883.7"/>
				<line class="st20" x1="1218.5" y1="875.7" x2="1218.5" y2="879.7"/>
				<line class="st20" x1="1218.5" y1="884.7" x2="1218.5" y2="885.7"/>
				<line class="st21" x1="1285.5" y1="868.7" x2="1285.5" y2="879.7"/>
				<line class="st21" x1="1278.5" y1="870.7" x2="1278.5" y2="873.7"/>
			</g>
			<g>
				<g>
					<path class="st18" d="M1290.5,842.7h-94v16h0.5c0.6,5.3,21.1,9.5,46.2,9.5s45.6-4.2,46.2-9.5h1v-16H1290.5z"/>
					<ellipse class="st19" cx="1243.3" cy="841.5" rx="46.3" ry="9.8"/>
				</g>
				<line class="st20" x1="1200.5" y1="850.7" x2="1200.5" y2="860.7"/>
				<line class="st20" x1="1208.5" y1="853.7" x2="1208.5" y2="863.7"/>
				<line class="st20" x1="1212.5" y1="854.7" x2="1212.5" y2="864.7"/>
				<line class="st20" x1="1220.5" y1="856.7" x2="1220.5" y2="860.7"/>
				<line class="st20" x1="1220.5" y1="865.7" x2="1220.5" y2="866.7"/>
				<line class="st21" x1="1287.5" y1="849.7" x2="1287.5" y2="860.7"/>
				<line class="st21" x1="1280.5" y1="851.7" x2="1280.5" y2="854.7"/>
				<g>
					<line class="st20" x1="1224" y1="834" x2="1241" y2="838.2"/>
					<line class="st20" x1="1243.7" y1="833" x2="1242.2" y2="838.5"/>
					<line class="st20" x1="1229.6" y1="839.1" x2="1255" y2="837.1"/>
					<line class="st20" x1="1238.1" y1="843.3" x2="1262" y2="841.2"/>
					<line class="st20" x1="1242.2" y1="838.5" x2="1258.2" y2="846.6"/>
				</g>
				<ellipse class="st22" cx="1243.3" cy="840.5" rx="46.3" ry="9.8"/>
			</g>
			<g>
				<g>
					<path class="st18" d="M1392.5,902.7h-94v16h0.5c0.6,5.3,21.1,9.5,46.2,9.5s45.6-4.2,46.2-9.5h1v-16H1392.5z"/>
					<ellipse class="st19" cx="1345.3" cy="901.5" rx="46.3" ry="9.8"/>
				</g>
				<line class="st20" x1="1302.5" y1="910.7" x2="1302.5" y2="920.7"/>
				<line class="st20" x1="1310.5" y1="913.7" x2="1310.5" y2="923.7"/>
				<line class="st20" x1="1314.5" y1="914.7" x2="1314.5" y2="924.7"/>
				<line class="st20" x1="1322.5" y1="916.7" x2="1322.5" y2="920.7"/>
				<line class="st20" x1="1322.5" y1="925.7" x2="1322.5" y2="926.7"/>
				<line class="st21" x1="1389.5" y1="909.7" x2="1389.5" y2="920.7"/>
				<line class="st21" x1="1382.5" y1="911.7" x2="1382.5" y2="914.7"/>
				<g>
					<line class="st20" x1="1326" y1="894" x2="1343" y2="898.2"/>
					<line class="st20" x1="1345.7" y1="893" x2="1344.2" y2="898.5"/>
					<line class="st20" x1="1331.6" y1="899.1" x2="1357" y2="897.1"/>
					<line class="st20" x1="1340.1" y1="903.3" x2="1364" y2="901.2"/>
					<line class="st20" x1="1344.2" y1="898.5" x2="1360.2" y2="906.6"/>
				</g>
				<ellipse class="st22" cx="1345.3" cy="900.5" rx="46.3" ry="9.8"/>
			</g>
			<g>
				<g>
					<path class="st18" d="M1362.8,890.9l-65-67.9l-11.6,11.1l0.4,0.4c-3.4,4.1,7.7,21.8,25.1,39.9c17.4,18.2,34.6,30,38.8,26.8
						l0.7,0.7L1362.8,890.9z"/>
					
						<ellipse transform="matrix(0.7221 -0.6917 0.6917 0.7221 -222.2855 1158.4928)" class="st19" cx="1330.9" cy="855.9" rx="9.8" ry="46.3"/>
				</g>
				<line class="st20" x1="1294.8" y1="831.4" x2="1287.6" y2="838.3"/>
				<line class="st20" x1="1298.1" y1="839.3" x2="1290.9" y2="846.2"/>
				<line class="st20" x1="1300.2" y1="842.9" x2="1293" y2="849.8"/>
				<line class="st20" x1="1304.3" y1="850" x2="1301.4" y2="852.8"/>
				<line class="st20" x1="1297.8" y1="856.2" x2="1297.1" y2="856.9"/>
				<line class="st21" x1="1355.7" y1="893.6" x2="1347.7" y2="901.2"/>
				<line class="st21" x1="1349.4" y1="889.9" x2="1347.2" y2="892"/>
				<g>
					<line class="st20" x1="1323.1" y1="836.8" x2="1331.8" y2="852"/>
					<line class="st20" x1="1337.5" y1="850.3" x2="1332.5" y2="853.1"/>
					<line class="st20" x1="1323.3" y1="844.5" x2="1342.3" y2="861.3"/>
					<line class="st20" x1="1326.1" y1="853.4" x2="1344.2" y2="869.3"/>
					<line class="st20" x1="1332.5" y1="853.1" x2="1337.6" y2="870.2"/>
				</g>
				
					<ellipse transform="matrix(0.7221 -0.6917 0.6917 0.7221 -221.551 1158.8185)" class="st22" cx="1331.7" cy="855.2" rx="9.8" ry="46.3"/>
			</g>
		</g>
		<g>
			<g>
				<polyline class="st23" points="1105,646.2 1241,754.2 1297,723.2 1362,805.5 				"/>
				<g>
					<polygon class="st24" points="1318.6,823 1402,856.2 1389.1,767.4 					"/>
				</g>
			</g>
		</g>
	</g>
</g>
<g id="_x32_">
	<g>
		<g>
			<path class="st13" d="M1227.5,617.8v-38.3c0-55.4-62.3-100.8-138.4-100.8H362.9c-76.1,0-138.4,45.3-138.4,100.8v38.3"/>
			<g>
				<path class="st14" d="M1250.1,616.6c0,12.5-10.1,22.6-22.6,22.6s-22.6-10.1-22.6-22.6s10.1-22.6,22.6-22.6
					S1250.1,604.2,1250.1,616.6z"/>
			</g>
			<g>
				<path class="st14" d="M201.9,616.6c0,12.5,10.1,22.6,22.6,22.6s22.6-10.1,22.6-22.6S237,594,224.5,594S201.9,604.2,201.9,616.6z
					"/>
			</g>
		</g>
	</g>
</g>
<g id="_x31_铅">
	<g>
		<circle class="st14" cx="725.8" cy="401.6" r="341.6"/>
		<circle class="st25" cx="661.1" cy="287.3" r="198.4"/>
		<g>
			<path class="st26" d="M978.8,401.6c0,139.7-113.3,253-253,253c-59.3,0-104.1-21.5-119.1-29.7"/>
			<circle class="st27" cx="598.1" cy="222.3" r="47.8"/>
			<circle class="st28" cx="524.8" cy="562.6" r="34.5"/>
			<line class="st29" x1="624.6" y1="469.8" x2="624.6" y2="309.8"/>
			<line class="st29" x1="675.1" y1="309.8" x2="624.6" y2="309.8"/>
			<line class="st29" x1="678" y1="409.9" x2="628.6" y2="409.9"/>
			<path class="st29" d="M678,409.9c27.6,0,50-22.4,50-50c0-27.6-22.4-50-50-50"/>
			<line class="st29" x1="773.7" y1="309.8" x2="773.7" y2="469.8"/>
			<line class="st29" x1="824.2" y1="469.8" x2="773.7" y2="469.8"/>
			<line class="st29" x1="818.1" y1="387.9" x2="777.6" y2="387.9"/>
			<path class="st29" d="M818.1,387.9c17.5,0,31.6,18.4,31.6,41s-14.2,41-31.6,41"/>
			<text transform="matrix(0.8848 0 0 1 686.1577 594.2701)" class="st30 st31 st32">82</text>
		</g>
	</g>
</g>
</svg>
