<?xml version="1.0" encoding="utf-8"?>
<!-- Generator: Adobe Illustrator 23.0.0, SVG Export Plug-In . SVG Version: 6.00 Build 0)  -->
<svg version="1.1" xmlns="http://www.w3.org/2000/svg" xmlns:xlink="http://www.w3.org/1999/xlink" x="0px" y="0px"
	 viewBox="0 0 1920 2160" style="enable-background:new 0 0 1920 2160;" xml:space="preserve">
<style type="text/css">
	.st0{fill:none;stroke:#444444;stroke-width:20;stroke-miterlimit:10;}
	.st1{font-family:'Rubrik-SemiBold';}
	.st2{font-size:29px;}
	.st3{fill:#85AA41;}
</style>
<g id="_x34_线">
	<line class="st0" x1="952" y1="1088" x2="1126" y2="1299"/>
	<line class="st0" x1="1298" y1="1088" x2="1126" y2="1299"/>
	<polyline class="st0" points="629,847 629,1480 844,1674 	"/>
	<polyline class="st0" points="1126,1289 1126,1494 931,1674 	"/>
</g>
<g id="_x33_线">
	<g>
		<line class="st0" x1="1088" y1="835" x2="952" y2="1006"/>
	</g>
	<line class="st0" x1="1299" y1="1008" x2="1156" y2="823"/>
</g>
<g id="_x31_线">
	<g>
		<line class="st0" x1="843" y1="293" x2="679" y2="445"/>
	</g>
	<line class="st0" x1="920" y1="294" x2="1088" y2="448"/>
	<g id="图层_4">
	</g>
</g>
<g id="_x32_线">
	<line class="st0" x1="631" y1="561" x2="631" y2="726"/>
	<line class="st0" x1="1126" y1="551" x2="1126" y2="726"/>
</g>
<g id="字_3_">
	<text transform="matrix(1 0 0 1 762.8936 1819.5107)" class="st1 st2">formation of pyro</text>
</g>
<g id="_x35_">
	<g>
		<path class="st3" d="M884.5,1661c26.19,0,47.5,21.31,47.5,47.5s-21.31,47.5-47.5,47.5s-47.5-21.31-47.5-47.5
			S858.31,1661,884.5,1661 M884.5,1641c-37.28,0-67.5,30.22-67.5,67.5s30.22,67.5,67.5,67.5s67.5-30.22,67.5-67.5
			S921.78,1641,884.5,1641L884.5,1641z"/>
	</g>
</g>
<g id="字_2_">
	<text transform="matrix(1 0 0 1 875.0386 1306.9365)"><tspan x="0" y="0" class="st1 st2">Accumulation</tspan><tspan x="80.75" y="34.8" class="st1 st2">of</tspan><tspan x="4.63" y="69.6" class="st1 st2">heavy metals</tspan></text>
	<text transform="matrix(1 0 0 1 1176.7656 1307.0215)"><tspan x="0" y="0" class="st1 st2">A good culture</tspan><tspan x="28.85" y="34.8" class="st1 st2">medium of</tspan><tspan x="24.92" y="69.6" class="st1 st2">engineered</tspan><tspan x="45.24" y="104.4" class="st1 st2">bacteria</tspan></text>
</g>
<g id="_x34_">
	<g>
		<path class="st3" d="M918.5,1000c26.19,0,47.5,21.31,47.5,47.5c0,26.19-21.31,47.5-47.5,47.5s-47.5-21.31-47.5-47.5
			C871,1021.31,892.31,1000,918.5,1000 M918.5,980c-37.28,0-67.5,30.22-67.5,67.5c0,37.28,30.22,67.5,67.5,67.5
			s67.5-30.22,67.5-67.5C986,1010.22,955.78,980,918.5,980L918.5,980z"/>
	</g>
	<g>
		<path class="st3" d="M1329.5,1000c26.19,0,47.5,21.31,47.5,47.5c0,26.19-21.31,47.5-47.5,47.5s-47.5-21.31-47.5-47.5
			C1282,1021.31,1303.31,1000,1329.5,1000 M1329.5,980c-37.28,0-67.5,30.22-67.5,67.5c0,37.28,30.22,67.5,67.5,67.5
			s67.5-30.22,67.5-67.5C1397,1010.22,1366.78,980,1329.5,980L1329.5,980z"/>
	</g>
</g>
<g id="字_1_">
	<text transform="matrix(1 0 0 1 713.1602 722.2764)"><tspan x="0" y="0" class="st1 st2">by virtue of</tspan><tspan x="-6" y="34.8" class="st1 st2">the function</tspan><tspan x="47.44" y="69.6" class="st1 st2">from</tspan><tspan x="7.58" y="104.4" class="st1 st2">phosphate</tspan><tspan x="-2.48" y="139.2" class="st1 st2">-solubilizing</tspan><tspan x="-22.21" y="174" class="st1 st2">microorganism</tspan></text>
	<text transform="matrix(1 0 0 1 1212.4893 793.4468)" class="st1 st2">Earthworms</text>
</g>
<g id="_x33_">
	<g>
		<path class="st3" d="M631.5,732c26.19,0,47.5,21.31,47.5,47.5S657.69,827,631.5,827S584,805.69,584,779.5S605.31,732,631.5,732
			 M631.5,712c-37.28,0-67.5,30.22-67.5,67.5s30.22,67.5,67.5,67.5s67.5-30.22,67.5-67.5S668.78,712,631.5,712L631.5,712z"/>
	</g>
	<g>
		<path class="st3" d="M1126.5,732c26.19,0,47.5,21.31,47.5,47.5s-21.31,47.5-47.5,47.5s-47.5-21.31-47.5-47.5
			S1100.31,732,1126.5,732 M1126.5,712c-37.28,0-67.5,30.22-67.5,67.5s30.22,67.5,67.5,67.5s67.5-30.22,67.5-67.5
			S1163.78,712,1126.5,712L1126.5,712z"/>
	</g>
</g>
<g id="字">
	<text transform="matrix(1 0 0 1 663.2905 585.6597)"><tspan x="0" y="0" class="st1 st2">a significant amount</tspan><tspan x="51.23" y="34.8" class="st1 st2">of phosphate</tspan></text>
	<text transform="matrix(1 0 0 1 1172.5186 585.6597)"><tspan x="0" y="0" class="st1 st2">a certain</tspan><tspan x="14.98" y="34.8" class="st1 st2">way to</tspan><tspan x="-19.08" y="69.6" class="st1 st2">accumulate</tspan><tspan x="-0.43" y="104.4" class="st1 st2">lead ions</tspan></text>
</g>
<g id="_x32_">
	<g>
		<path class="st3" d="M631.5,446c26.19,0,47.5,21.31,47.5,47.5S657.69,541,631.5,541S584,519.69,584,493.5S605.31,446,631.5,446
			 M631.5,426c-37.28,0-67.5,30.22-67.5,67.5s30.22,67.5,67.5,67.5s67.5-30.22,67.5-67.5S668.78,426,631.5,426L631.5,426z"/>
	</g>
	<g>
		<path class="st3" d="M1126.5,446c26.19,0,47.5,21.31,47.5,47.5s-21.31,47.5-47.5,47.5s-47.5-21.31-47.5-47.5
			S1100.31,446,1126.5,446 M1126.5,426c-37.28,0-67.5,30.22-67.5,67.5s30.22,67.5,67.5,67.5s67.5-30.22,67.5-67.5
			S1163.78,426,1126.5,426L1126.5,426z"/>
	</g>
</g>
<g id="_x31_">
	<g>
		<path class="st3" d="M884.5,211c26.19,0,47.5,21.31,47.5,47.5S910.69,306,884.5,306S837,284.69,837,258.5S858.31,211,884.5,211
			 M884.5,191c-37.28,0-67.5,30.22-67.5,67.5c0,37.28,30.22,67.5,67.5,67.5s67.5-30.22,67.5-67.5C952,221.22,921.78,191,884.5,191
			L884.5,191z"/>
	</g>
</g>
</svg>
