<?xml version="1.0" encoding="utf-8"?>
<!-- Generator: Adobe Illustrator 23.0.0, SVG Export Plug-In . SVG Version: 6.00 Build 0)  -->
<svg version="1.1" id="图层_1" xmlns="http://www.w3.org/2000/svg" xmlns:xlink="http://www.w3.org/1999/xlink" x="0px" y="0px"
	 viewBox="0 0 706 154" style="enable-background:new 0 0 706 154;" xml:space="preserve">
<style type="text/css">
	.st0{fill:#FFB25F;}
	.st1{font-family:'Rubrik-SemiBold';}
	.st2{font-size:12px;}
	.st3{font-size:7px;}
	.st4{fill:none;stroke:#FFF5D9;stroke-width:4;stroke-linecap:round;stroke-linejoin:round;stroke-miterlimit:10;}
	.st5{fill:#AF2434;stroke:#CC5C6C;stroke-width:4;stroke-miterlimit:10;}
	.st6{fill:#FFFFFF;}
	.st7{fill:#EE7A65;}
	.st8{fill:#C9C305;stroke:#FFCE55;stroke-width:4;stroke-miterlimit:10;}
</style>
<g id="pliag">
	<g>
		<path class="st0" d="M101.2,61.89c0.84,0.75,0.84,2.02,0,2.78l-7.22,6.53l-5.36,4.84c-1.27,1.15-3.38,0.29-3.38-1.39V68.8H73.28
			c-1.25,0-2.26,0.97-2.26,2.16v25.03H59.75V61.43c0-2.03,1.72-3.67,3.85-3.67h21.65v-5.84c0-1.68,2.1-2.54,3.38-1.39l5.35,4.86
			L101.2,61.89z"/>
	</g>
	<text transform="matrix(1 0 0 1 56.3828 108.2339)"><tspan x="0" y="0" class="st0 st1 st2">P</tspan><tspan x="7.78" y="0" class="st0 st1 st3">liaG</tspan></text>
</g>
<g id="pci">
	<g>
		<path class="st0" d="M384.2,61.89c0.84,0.75,0.84,2.02,0,2.78l-7.22,6.53l-5.36,4.84c-1.27,1.15-3.38,0.29-3.38-1.39V68.8h-11.97
			c-1.25,0-2.26,0.97-2.26,2.16v25.03h-11.26V61.43c0-2.03,1.72-3.67,3.85-3.67h21.65v-5.84c0-1.68,2.1-2.54,3.38-1.39l5.35,4.86
			L384.2,61.89z"/>
	</g>
	<text transform="matrix(1 0 0 1 342.3828 108.2339)"><tspan x="0" y="0" class="st0 st1 st2">P</tspan><tspan x="7.78" y="0" class="st0 st1 st3">CI</tspan></text>
</g>
<g>
	<line class="st4" x1="33.5" y1="95" x2="668" y2="95"/>
</g>
<g id="trigger_rna">
	<path class="st5" d="M220.83,110.04h-82.12c-7.8,0-14.17-6.38-14.17-14.17v-1.88c0-7.8,6.38-14.17,14.17-14.17h82.12
		c7.8,0,14.17,6.38,14.17,14.17v1.88C235,103.66,228.62,110.04,220.83,110.04z"/>
	<g>
		<g>
			<path class="st6" d="M137.18,102.35c-0.55,0.3-1.24,0.43-2.08,0.43c-0.98,0-1.67-0.33-2.03-1.18c-0.37-0.85-0.42-2.11-0.14-3.87
				c0.74-4.68,1.25-7.93,1.66-10.58c0.05-0.32,0.19-0.55,0.43-0.72c0.24-0.16,0.51-0.23,0.82-0.23c0.31,0,0.56,0.06,0.75,0.23
				c0.19,0.17,0.26,0.39,0.21,0.72c-0.07,0.46-0.11,0.73-0.21,1.33c0.82,0,1.24,0,2.06,0c0.27,0,0.49,0.12,0.66,0.39
				c0.16,0.26,0.21,0.61,0.14,1.05c-0.06,0.41-0.22,0.78-0.48,1.09c-0.25,0.31-0.52,0.47-0.79,0.47c-0.82,0-1.24,0-2.06,0
				c-0.37,2.32-0.58,3.72-0.97,6.16c-0.23,1.46,0.02,2.12,0.74,2.12c0.24,0,0.6-0.11,1.07-0.3c0.41-0.17,0.74-0.08,0.94,0.25
				c0.21,0.33,0.27,0.76,0.19,1.26C137.98,101.64,137.68,102.08,137.18,102.35z"/>
			<path class="st6" d="M146.07,88.1c0.64,0.24,0.91,0.72,0.77,1.59c-0.06,0.39-0.21,0.77-0.46,1.13c-0.24,0.36-0.53,0.55-0.85,0.55
				c-0.11,0-0.29-0.05-0.55-0.14c-0.25-0.09-0.47-0.13-0.65-0.11c-0.57,0.05-0.96,0.62-1.15,1.87c-0.53,3.36-0.85,5.42-1.29,8.21
				c-0.07,0.48-0.24,0.84-0.5,1.12c-0.26,0.28-0.54,0.41-0.85,0.41c-0.31,0-0.55-0.13-0.72-0.42c-0.17-0.29-0.22-0.65-0.15-1.11
				c0.48-3.03,0.84-5.36,1.41-8.94c0.24-1.53,0.66-2.6,1.27-3.32c0.61-0.72,1.37-1,2.31-1C145.27,87.93,145.73,87.99,146.07,88.1z"
				/>
			<path class="st6" d="M151.18,86.1c-0.03,0.16-0.17,0.37-0.44,0.57c-0.26,0.2-0.56,0.33-0.88,0.33c-0.33,0-0.59-0.12-0.78-0.32
				c-0.19-0.2-0.27-0.41-0.25-0.58c0.03-0.17,0.15-0.25,0.37-0.28c0.23-0.04,0.5-0.03,0.85-0.03c0.32,0,0.59-0.01,0.82,0.03
				C151.1,85.85,151.2,85.93,151.18,86.1z M149.71,88c0.31,0,0.55,0.13,0.72,0.42c0.17,0.29,0.22,0.67,0.14,1.15
				c-0.64,4.04-1.2,7.6-1.83,11.61c-0.08,0.48-0.24,0.85-0.5,1.14s-0.54,0.42-0.85,0.42c-0.3,0-0.53-0.13-0.71-0.43
				c-0.17-0.29-0.23-0.66-0.15-1.12c0.63-4.01,1.19-7.57,1.83-11.61c0.08-0.48,0.24-0.86,0.49-1.15
				C149.11,88.13,149.39,88,149.71,88z"/>
			<path class="st6" d="M160.37,90.52c-0.68,4.31-1.23,7.81-1.8,11.45c-0.26,1.64-0.75,2.35-1.56,2.65
				c-0.81,0.3-1.86,0.23-3.21,0.23c-0.69,0-1.35,0-1.96-0.01c-0.31-0.01-0.54-0.02-0.7-0.08c-0.16-0.06-0.23-0.15-0.21-0.28
				c0.03-0.17,0.18-0.38,0.45-0.58c0.27-0.2,0.61-0.28,1-0.19c0.7,0.15,1.22,0.21,1.55,0.21c1.42,0,2.19-0.38,2.45-2.03
				c-0.68,0.4-1.37,0.57-2.08,0.57c-1.06,0-1.83-0.35-2.3-1.22c-0.47-0.87-0.62-2.19-0.42-4c0.14-1.28,0.36-2.6,0.61-3.88
				c0.37-1.83,0.96-3.2,1.8-4.13c0.84-0.93,1.78-1.29,2.86-1.29c1.36,0,2.48,0.37,3.33,1.36C160.39,89.55,160.46,89.95,160.37,90.52
				z M156.45,91.04c-1.06,0-1.78,0.9-2.17,2.91c-0.12,0.6-0.26,1.48-0.41,2.59c-0.13,0.93-0.09,1.63,0.1,2.13
				c0.19,0.5,0.54,0.74,1.03,0.74c0.69,0,1.32-0.27,1.9-0.85c0.41-2.61,0.66-4.18,1.06-6.76c-0.07-0.15-0.26-0.32-0.54-0.49
				C157.14,91.13,156.81,91.04,156.45,91.04z"/>
			<path class="st6" d="M170.25,90.52c-0.68,4.31-1.23,7.81-1.8,11.45c-0.26,1.64-0.75,2.35-1.56,2.65
				c-0.81,0.3-1.86,0.23-3.21,0.23c-0.69,0-1.35,0-1.96-0.01c-0.31-0.01-0.54-0.02-0.7-0.08c-0.16-0.06-0.23-0.15-0.21-0.28
				c0.03-0.17,0.18-0.38,0.45-0.58c0.27-0.2,0.61-0.28,1-0.19c0.7,0.15,1.22,0.21,1.55,0.21c1.42,0,2.19-0.38,2.45-2.03
				c-0.68,0.4-1.37,0.57-2.08,0.57c-1.06,0-1.83-0.35-2.3-1.22c-0.47-0.87-0.62-2.19-0.42-4c0.14-1.28,0.36-2.6,0.61-3.88
				c0.37-1.83,0.96-3.2,1.8-4.13c0.84-0.93,1.78-1.29,2.86-1.29c1.36,0,2.48,0.37,3.33,1.36C170.27,89.55,170.34,89.95,170.25,90.52
				z M166.32,91.04c-1.06,0-1.78,0.9-2.17,2.91c-0.12,0.6-0.26,1.48-0.41,2.59c-0.13,0.93-0.09,1.63,0.1,2.13
				c0.19,0.5,0.54,0.74,1.03,0.74c0.69,0,1.32-0.27,1.9-0.85c0.41-2.61,0.66-4.18,1.06-6.76c-0.07-0.15-0.26-0.32-0.54-0.49
				C167.01,91.13,166.69,91.04,166.32,91.04z"/>
			<path class="st6" d="M179.48,94.07c-0.04,0.27-0.06,0.4-0.1,0.67c-0.21,1.36-0.7,2.04-1.46,2.04c-1.75,0-2.63,0-4.38,0
				c-0.02,0.12-0.03,0.18-0.05,0.3c-0.14,0.92-0.08,1.61,0.19,2.09c0.27,0.48,0.69,0.71,1.27,0.71c0.54,0,1.16-0.2,1.86-0.61
				c0.45-0.26,0.78-0.22,1.01,0.13c0.23,0.34,0.3,0.79,0.22,1.3c-0.1,0.62-0.35,1.05-0.77,1.35c-0.73,0.52-1.67,0.74-2.84,0.74
				c-1.12,0-1.99-0.35-2.56-1.28c-0.57-0.93-0.77-2.33-0.55-4.21c0.13-1.13,0.33-2.44,0.6-3.79c0.38-1.92,1.03-3.35,1.88-4.28
				c0.86-0.93,1.8-1.29,2.88-1.29c1.13,0,1.98,0.39,2.51,1.42C179.71,90.39,179.81,91.95,179.48,94.07z M173.97,94.01
				c1.29,0,1.93,0,3.21,0c0.12,0,0.2-0.12,0.24-0.36c0.15-0.91,0.14-1.64-0.07-2.17c-0.21-0.52-0.59-0.77-1.11-0.77
				c-0.57,0-1.05,0.27-1.44,0.85C174.41,92.13,174.13,92.94,173.97,94.01z"/>
			<path class="st6" d="M186.58,88.1c0.64,0.24,0.91,0.72,0.77,1.59c-0.06,0.39-0.21,0.77-0.46,1.13c-0.24,0.36-0.53,0.55-0.85,0.55
				c-0.11,0-0.29-0.05-0.55-0.14c-0.25-0.09-0.47-0.13-0.65-0.11c-0.57,0.05-0.96,0.62-1.15,1.87c-0.53,3.36-0.85,5.42-1.29,8.21
				c-0.07,0.48-0.24,0.84-0.5,1.12c-0.26,0.28-0.54,0.41-0.85,0.41c-0.31,0-0.55-0.13-0.72-0.42c-0.17-0.29-0.22-0.65-0.15-1.11
				c0.48-3.03,0.84-5.36,1.41-8.94c0.24-1.53,0.66-2.6,1.27-3.32c0.61-0.72,1.37-1,2.31-1C185.78,87.93,186.25,87.99,186.58,88.1z"
				/>
			<path class="st6" d="M196.28,96.05c-0.56,0-0.84,0-1.4,0c-0.34,2.18-0.52,3.3-0.8,5.07c-0.08,0.48-0.25,0.86-0.51,1.16
				c-0.27,0.3-0.55,0.44-0.86,0.44c-0.31,0-0.55-0.13-0.73-0.44c-0.18-0.3-0.23-0.68-0.16-1.16c0.86-5.46,1.8-11.45,2.28-14.47
				c0.05-0.35,0.22-0.54,0.5-0.66c0.28-0.12,0.65-0.14,1.13-0.14c1.35,0,2.03,0,3.38,0c1.13,0,2.08,0.02,2.79,0.48
				c0.7,0.46,0.94,1.38,0.66,3.16c-0.21,1.35-0.62,2.69-1.19,3.75c-0.57,1.06-1.2,1.8-1.88,2.17c0.55,1.89,0.82,2.87,1.41,4.55
				c0.14,0.34,0.17,0.77,0.08,1.24c-0.09,0.48-0.25,0.85-0.5,1.11c-0.29,0.3-0.6,0.43-0.91,0.43c-0.31-0.01-0.55-0.14-0.72-0.43
				c-0.78-1.71-1.11-2.91-1.79-5.29c-0.1-0.34-0.2-0.59-0.3-0.74C196.64,96.13,196.49,96.05,196.28,96.05z M195.47,92.26
				c0.96,0,1.43,0,2.39,0c1.32,0,2.14-1.06,2.41-2.72c0.26-1.67-0.29-2.18-1.55-2.18c-0.99,0-1.48,0-2.47,0
				C196.02,88.79,195.84,89.92,195.47,92.26z"/>
			<path class="st6" d="M208.74,86.27c1.46,1.93,1.69,6.04,2.59,11.5c0.01,0,0.02,0,0.03,0c0.27-1.95,0.52-3.6,0.7-4.77
				c0.55-3.49,0.83-5.28,1.04-6.63c0.03-0.22,0.17-0.35,0.4-0.43c0.23-0.08,0.5-0.1,0.81-0.1c0.32,0,0.58,0.02,0.78,0.1
				c0.2,0.08,0.29,0.21,0.25,0.43c-0.39,2.46-1.28,8.13-2.18,13.86c-0.12,0.78-0.37,1.38-0.74,1.83c-0.37,0.45-0.8,0.65-1.28,0.65
				c-0.71,0-1.2-0.37-1.43-1.36c-1.09-4.57-1.27-9.13-2.45-13.12c-0.01,0-0.02,0-0.03,0c-0.1,0.75-0.3,2.11-0.65,4.35
				c-0.54,3.46-0.89,5.65-1.35,8.57c-0.08,0.49-0.24,0.88-0.5,1.17c-0.26,0.29-0.54,0.43-0.86,0.43c-0.31,0-0.55-0.14-0.73-0.44
				c-0.18-0.3-0.23-0.68-0.16-1.16c0.82-5.23,1.7-10.8,2.23-14.15c0.08-0.53,0.29-0.81,0.65-0.97c0.35-0.16,0.79-0.18,1.33-0.18
				C207.9,85.84,208.44,85.86,208.74,86.27z"/>
			<path class="st6" d="M223.14,101.73c-0.13-1.5-0.16-2.45-0.22-4.38c-1.84,0-2.76,0-4.6,0c-0.67,1.92-1,2.88-1.6,4.38
				c-0.18,0.4-0.43,0.67-0.74,0.83c-0.31,0.16-0.6,0.17-0.86,0.03c-0.26-0.14-0.43-0.39-0.48-0.8c-0.05-0.41,0.01-0.84,0.18-1.29
				c2.12-5.51,3.61-11.01,5.31-13.86c0.25-0.43,0.57-0.61,0.97-0.71c0.4-0.09,0.84-0.1,1.34-0.1c1.08,0,1.82-0.06,2.06,0.81
				c0.79,2.85,0.55,8.35,0.92,13.86c0.03,0.43-0.05,0.86-0.23,1.27c-0.19,0.41-0.43,0.66-0.72,0.8c-0.31,0.15-0.6,0.15-0.87-0.01
				C223.33,102.39,223.18,102.13,223.14,101.73z M221.9,87.53c-0.82,1.77-1.32,3.25-2.31,6.12c1.29,0,1.94,0,3.23,0
				c-0.08-2.88-0.12-4.35-0.37-6.12c-0.02-0.16-0.09-0.23-0.23-0.23C222.07,87.3,221.97,87.37,221.9,87.53z"/>
		</g>
	</g>
</g>
<path id="终止子" class="st7" d="M271.48,79h-8.3c-3.53,0-6.81,1.83-8.66,4.84l-3.59,5.84c-2.01,3.26-2.01,7.38,0,10.64
	l3.59,5.84c1.85,3.01,5.13,4.84,8.66,4.84h8.3c3.53,0,6.81-1.83,8.66-4.84l3.59-5.84c2.01-3.26,2.01-7.38,0-10.64l-3.59-5.84
	C278.29,80.83,275.02,79,271.48,79z"/>
<path id="终止子_18_" class="st7" d="M311.48,79h-8.3c-3.53,0-6.81,1.83-8.66,4.84l-3.59,5.84c-2.01,3.26-2.01,7.38,0,10.64
	l3.59,5.84c1.85,3.01,5.13,4.84,8.66,4.84h8.3c3.53,0,6.81-1.83,8.66-4.84l3.59-5.84c2.01-3.26,2.01-7.38,0-10.64l-3.59-5.84
	C318.29,80.83,315.02,79,311.48,79z"/>
<path id="终止子_20_" class="st7" d="M589.48,79h-8.3c-3.53,0-6.81,1.83-8.66,4.84l-3.59,5.84c-2.01,3.26-2.01,7.38,0,10.64
	l3.59,5.84c1.85,3.01,5.13,4.84,8.66,4.84h8.3c3.53,0,6.81-1.83,8.66-4.84l3.59-5.84c2.01-3.26,2.01-7.38,0-10.64l-3.59-5.84
	C596.29,80.83,593.02,79,589.48,79z"/>
<path id="终止子_19_" class="st7" d="M629.48,79h-8.3c-3.53,0-6.81,1.83-8.66,4.84l-3.59,5.84c-2.01,3.26-2.01,7.38,0,10.64
	l3.59,5.84c1.85,3.01,5.13,4.84,8.66,4.84h8.3c3.53,0,6.81-1.83,8.66-4.84l3.59-5.84c2.01-3.26,2.01-7.38,0-10.64l-3.59-5.84
	C636.29,80.83,633.02,79,629.48,79z"/>
<g id="switch_RNA">
	<path class="st5" d="M489.83,110.04h-82.12c-7.8,0-14.17-6.38-14.17-14.17v-1.88c0-7.8,6.38-14.17,14.17-14.17h82.12
		c7.8,0,14.17,6.38,14.17,14.17v1.88C504,103.66,497.62,110.04,489.83,110.04z"/>
	<g>
		<g>
			<path class="st6" d="M407.42,96.11c1.52,0.9,2.03,2.99,1.7,5.11c-0.23,1.48-0.67,2.14-1.38,2.41c-0.71,0.28-1.54,0.21-2.54,0.21
				c-1.37,0-2.45,0.1-3.15-0.33c-0.18-0.11-0.28-0.28-0.28-0.56c0-0.28,0.11-0.6,0.31-0.89c0.22-0.33,0.47-0.55,0.74-0.6
				c0.27-0.05,0.53,0.06,0.77,0.31c0.48,0.55,1.12,0.76,1.88,0.76c0.85,0,1.32-0.28,1.45-1.09c0.09-0.58-0.16-1.09-0.76-1.36
				c-0.59-0.28-0.99-0.46-1.16-0.54c-1.51-0.81-2.04-2.63-1.57-5.6c0.32-2.02,0.87-3.52,1.66-4.5c0.79-0.98,1.68-1.39,2.69-1.39
				c1.22,0,2.06,0.42,2.51,1.43c0.17,0.38,0.22,0.89,0.13,1.56c-0.09,0.66-0.27,1.22-0.53,1.65c-0.51,0.91-1.01,1-1.51,0.3
				c-0.39-0.56-0.85-0.83-1.33-0.83c-0.79,0-1.28,0.54-1.45,1.63c-0.13,0.82,0.12,1.39,0.74,1.72
				C406.76,95.75,406.98,95.87,407.42,96.11z"/>
			<path class="st6" d="M417.46,103.01c-0.15-1.87,0.02-4.33,0.23-8.53c0.01-0.1-0.02-0.15-0.06-0.15c-0.06,0-0.09,0.05-0.11,0.15
				c-1.11,4.19-1.72,6.64-2.46,8.51c-0.43,1.1-1,0.87-1.95,0.87c-0.95,0-1.6,0.23-1.7-0.83c-0.24-2.43,0.09-6.47,0.3-11.72
				c0.03-0.93,0.2-1.69,0.5-2.31c0.3-0.62,0.65-0.89,1.06-0.89c0.6,0,0.89,0.52,0.82,1.81c-0.22,4.52-0.54,8.13-0.6,11.58
				c0,0.07,0.02,0.1,0.07,0.1s0.08-0.03,0.1-0.1c0.97-3.16,1.69-6.27,2.84-10.59c0.24-0.91,0.55-1.6,0.92-2.09
				c0.37-0.49,0.76-0.71,1.19-0.71c0.4,0,0.72,0.22,0.95,0.71c0.22,0.49,0.32,1.17,0.28,2.09c-0.2,4.33-0.45,7.44-0.47,10.59
				c-0.01,0.07,0.01,0.1,0.07,0.1c0.04,0,0.08-0.03,0.1-0.1c1.02-3.45,1.83-7.07,3.01-11.58c0.35-1.28,0.8-1.81,1.39-1.81
				c0.41,0,0.68,0.27,0.78,0.89c0.1,0.62,0.03,1.38-0.23,2.31c-1.44,5.25-2.38,9.3-3.37,11.72c-0.43,1.06-1.01,0.83-1.98,0.83
				c-0.45,0-0.84,0.02-1.15-0.06C417.68,103.72,417.49,103.54,417.46,103.01z"/>
			<path class="st6" d="M429.46,85.27c-0.04,0.26-0.21,0.57-0.49,0.88c-0.28,0.31-0.59,0.49-0.92,0.49c-0.34,0-0.59-0.18-0.77-0.48
				c-0.18-0.3-0.25-0.62-0.2-0.89s0.17-0.39,0.41-0.44c0.23-0.06,0.52-0.04,0.86-0.04c0.32,0,0.61-0.01,0.83,0.04
				C429.41,84.88,429.5,85.01,429.46,85.27z M427.82,88.13c0.31,0,0.55,0.2,0.7,0.62c0.15,0.42,0.17,0.97,0.07,1.65
				c-0.9,5.73-1.7,10.78-2.04,12.96c-0.04,0.26-0.17,0.38-0.4,0.45s-0.49,0.05-0.8,0.05c-0.3,0-0.57,0.01-0.78-0.05
				c-0.21-0.06-0.31-0.19-0.27-0.44c0.34-2.17,1.14-7.22,2.04-12.96c0.11-0.68,0.3-1.23,0.58-1.65
				C427.2,88.33,427.5,88.13,427.82,88.13z"/>
			<path class="st6" d="M433.96,103.81c-0.52,0.06-1.2,0.04-2.05,0.04c-1,0-1.76,0.09-2.21-0.29c-0.45-0.37-0.57-1.23-0.29-3
				c0.74-4.71,1.53-9.71,2.15-13.68c0.08-0.49,0.24-0.83,0.5-1.08c0.26-0.25,0.54-0.35,0.85-0.35s0.56,0.09,0.74,0.35
				c0.18,0.25,0.23,0.6,0.16,1.08c-0.11,0.68-0.17,1.09-0.31,1.96c0.84,0,1.26,0,2.1,0c0.28,0,0.49,0.18,0.64,0.56
				c0.15,0.38,0.17,0.87,0.07,1.5c-0.09,0.58-0.27,1.09-0.55,1.51c-0.27,0.43-0.55,0.64-0.83,0.64c-0.84,0-1.26,0-2.1,0
				c-0.49,3.14-0.78,4.94-1.17,7.42c-0.23,1.48,0.06,1.93,0.79,1.93c0.25,0,0.61-0.08,1.08-0.24c0.42-0.14,0.74-0.06,0.97,0.2
				c0.22,0.26,0.3,0.59,0.26,0.88C434.69,103.64,434.44,103.76,433.96,103.81z"/>
			<path class="st6" d="M440.08,102.36c0.75,0,1.37-0.38,1.92-1.56c0.28-0.6,0.64-0.95,1.04-0.95c0.32,0,0.55,0.22,0.69,0.62
				c0.14,0.4,0.16,0.87,0.09,1.35c-0.13,0.83-0.57,1.45-1.3,1.78c-0.73,0.33-1.62,0.25-2.74,0.25c-1.08,0-2.01,0.1-2.68-0.35
				c-0.67-0.45-0.93-1.48-0.72-3.33c0.16-1.42,0.44-3.12,0.76-4.82c0.43-2.29,1.13-4.17,2.08-5.48c0.95-1.31,1.95-1.84,3.05-1.84
				c1.12,0,1.94,0.46,2.44,1.58c0.5,1.12,0.65,2.36,0.45,3.63c-0.11,0.71-0.31,1.33-0.59,1.84c-0.28,0.51-0.58,0.76-0.91,0.76
				c-0.4,0-0.64-0.38-0.71-1.15c-0.12-1.51-0.56-2.25-1.31-2.25c-0.54,0-1.01,0.32-1.42,0.97c-0.41,0.65-0.74,1.57-0.97,2.69
				c-0.23,1.12-0.42,2.32-0.54,3.42c-0.11,0.99-0.03,1.69,0.2,2.17C439.15,102.18,439.54,102.36,440.08,102.36z"/>
			<path class="st6" d="M450.58,85.54c-0.15,0.94-0.28,1.8-0.59,3.73c0.25-0.35,0.59-0.64,1.02-0.88c0.43-0.24,0.86-0.35,1.29-0.35
				c1.07,0,1.82,0.53,2.21,1.82c0.39,1.29,0.36,3.39-0.06,6.06c-0.61,3.89-0.94,6-1.17,7.41c-0.04,0.27-0.17,0.41-0.39,0.47
				c-0.22,0.06-0.5,0.05-0.83,0.05c-0.31,0-0.58,0.01-0.78-0.05c-0.2-0.06-0.29-0.2-0.24-0.47c0.22-1.37,0.53-3.37,1.12-7.14
				c0.18-1.13,0.19-2.04,0.02-2.67c-0.17-0.64-0.49-0.95-0.96-0.95c-0.34,0-0.69,0.15-1.06,0.46c-0.37,0.3-0.68,0.69-0.94,1.15
				c-0.74,4.68-1.19,7.56-1.45,9.19c-0.04,0.26-0.17,0.38-0.39,0.45c-0.22,0.06-0.48,0.05-0.8,0.05c-0.31,0-0.58,0.01-0.8-0.05
				c-0.21-0.06-0.31-0.19-0.27-0.44c0.49-3.13,2.21-14.05,2.8-17.82c0.05-0.31,0.19-0.49,0.42-0.59c0.23-0.1,0.5-0.12,0.82-0.12
				c0.31,0,0.58,0.01,0.78,0.12C450.55,85.05,450.63,85.22,450.58,85.54z"/>
			<path class="st6" d="M464.96,98.76c-0.57,0-0.86,0-1.43,0c-0.39,2.46-0.56,3.59-0.72,4.57c-0.04,0.27-0.17,0.4-0.41,0.47
				c-0.24,0.07-0.5,0.06-0.81,0.06c-0.31,0-0.59,0.01-0.8-0.06c-0.22-0.07-0.31-0.2-0.27-0.47c0.48-3.02,1.98-12.61,2.71-17.2
				c0.08-0.53,0.27-0.83,0.56-1.02c0.3-0.19,0.68-0.22,1.16-0.22c1.38,0,2.06,0,3.44,0c1.15,0,2.12,0.03,2.8,0.74
				c0.68,0.71,0.85,2.14,0.45,4.67c-0.3,1.92-0.79,3.72-1.41,5.08c-0.62,1.36-1.28,2.23-1.99,2.65c0.52,2.21,0.79,3.25,1.45,4.53
				c0.16,0.26,0.21,0.56,0.16,0.82c-0.05,0.25-0.18,0.38-0.4,0.43c-0.26,0.07-0.55,0.05-0.86,0.05c-0.31,0-0.58,0.01-0.8-0.05
				c-1.01-0.36-1.37-1.44-2.04-3.98c-0.1-0.36-0.2-0.64-0.3-0.81C465.33,98.85,465.17,98.76,464.96,98.76z M464.27,94.09
				c0.97,0,1.46,0,2.43,0c1.34,0,2.23-1.38,2.6-3.72c0.37-2.37-0.15-3.17-1.43-3.17c-1.01,0-1.51,0-2.52,0
				C465.02,89.33,464.75,91.01,464.27,94.09z"/>
			<path class="st6" d="M478.16,85.54c1.32,2.97,1.18,9.58,2.11,15.06c0.01,0,0.02,0,0.03,0c0.28-1.96,0.59-4.04,0.82-5.55
				c0.71-4.5,1.15-7.3,1.47-9.36c0.05-0.34,0.2-0.54,0.44-0.67c0.24-0.13,0.52-0.15,0.83-0.15c0.32,0,0.59,0.03,0.79,0.15
				c0.2,0.13,0.27,0.33,0.22,0.67c-0.59,3.77-2.04,12.94-2.68,17.07c-0.09,0.56-0.29,0.85-0.62,0.98c-0.33,0.14-0.73,0.12-1.22,0.12
				c-0.73,0-1.3,0.09-1.61-0.41c-1.48-2.3-1.32-9.13-2.24-14.98c-0.01,0-0.02,0-0.03,0c-0.15,1.1-0.46,3.11-0.92,6.04
				c-0.71,4.52-1.14,7.23-1.39,8.83c-0.04,0.27-0.17,0.4-0.39,0.46c-0.22,0.06-0.49,0.05-0.81,0.05c-0.31,0-0.59,0.01-0.81-0.05
				c-0.22-0.06-0.31-0.2-0.27-0.46c0.45-2.86,1.83-11.64,2.63-16.7c0.13-0.8,0.36-1.23,0.74-1.48c0.37-0.25,0.82-0.28,1.37-0.28
				C477.34,84.88,477.88,84.9,478.16,85.54z"/>
			<path class="st6" d="M492.45,103.62c-0.27-0.61-0.33-1.45-0.38-3.45c-1.87,0-2.81,0-4.68,0c-0.68,2-1,2.84-1.47,3.45
				c-0.15,0.16-0.36,0.2-0.65,0.22c-0.29,0.02-0.58,0.02-0.87,0c-0.29-0.01-0.49-0.04-0.58-0.2c-0.09-0.16-0.06-0.4,0.09-0.7
				c1.86-3.73,3.88-12.51,5.84-16.85c0.29-0.66,0.63-0.94,1.04-1.09c0.41-0.15,0.86-0.16,1.37-0.16c1.1,0,1.85-0.08,2.03,1.25
				c0.58,4.34-0.17,13.12,0.5,16.85c0.05,0.29,0.01,0.53-0.14,0.7c-0.15,0.16-0.36,0.19-0.64,0.21c-0.29,0.02-0.59,0.02-0.89,0
				C492.72,103.82,492.52,103.78,492.45,103.62z M491.45,87.44c-0.96,2.63-1.58,4.82-2.7,8.45c1.32,0,1.97,0,3.29,0
				c0.03-3.62,0.1-5.81-0.03-8.45c-0.01-0.24-0.08-0.35-0.21-0.35C491.65,87.09,491.54,87.2,491.45,87.44z"/>
		</g>
	</g>
</g>
<g id="gfp">
	<path class="st8" d="M535.65,110.04L535.65,110.04c-8.31,0-15.11-6.8-15.11-15.11v0c0-8.31,6.8-15.11,15.11-15.11l0,0
		c8.31,0,15.11,6.8,15.11,15.11v0C550.76,103.24,543.96,110.04,535.65,110.04z"/>
	<g>
		<g>
			<path class="st6" d="M533.85,91.35c-0.45,3.15-0.82,5.76-1.21,8.48c-0.18,1.23-0.5,1.76-1.02,1.99
				c-0.52,0.23-1.19,0.18-2.05,0.18c-0.44,0-0.86,0-1.25-0.01c-0.2-0.01-0.35-0.02-0.45-0.06c-0.1-0.04-0.15-0.11-0.13-0.21
				c0.02-0.13,0.12-0.29,0.29-0.44s0.39-0.21,0.64-0.14c0.45,0.11,0.78,0.16,0.99,0.16c0.91,0,1.4-0.29,1.58-1.52
				c-0.44,0.3-0.88,0.43-1.34,0.43c-0.68,0-1.17-0.26-1.47-0.91c-0.3-0.65-0.38-1.63-0.24-2.98c0.1-0.95,0.24-1.93,0.41-2.87
				c0.24-1.35,0.63-2.35,1.17-3.02c0.54-0.68,1.14-0.93,1.83-0.93c0.87,0,1.59,0.27,2.13,0.98
				C533.86,90.64,533.91,90.93,533.85,91.35z M531.34,91.72c-0.68,0-1.14,0.66-1.4,2.14c-0.08,0.44-0.17,1.09-0.27,1.91
				c-0.09,0.69-0.07,1.21,0.05,1.58c0.12,0.37,0.34,0.55,0.65,0.55c0.44,0,0.85-0.2,1.22-0.63c0.28-1.94,0.44-3.1,0.72-5
				c-0.05-0.11-0.16-0.23-0.34-0.36C531.77,91.79,531.57,91.72,531.34,91.72z"/>
			<path class="st6" d="M535.95,89.86c0.02-0.17,0.03-0.24,0.06-0.39c0.12-0.86,0.34-1.2,0.69-1.35c0.35-0.14,0.81-0.11,1.39-0.11
				c0.39,0,0.75,0,1.06,0.01c0.36,0.01,0.54,0.04,0.51,0.26c-0.02,0.11-0.09,0.23-0.23,0.35c-0.14,0.11-0.31,0.18-0.51,0.18
				c-0.07,0-0.19-0.02-0.36-0.05c-0.17-0.03-0.32-0.05-0.44-0.05c-0.4,0-0.63,0.19-0.72,0.83c-0.02,0.12-0.03,0.19-0.05,0.32
				c0.49,0,0.73,0,1.22,0c0.18,0,0.31,0.09,0.41,0.28c0.1,0.19,0.13,0.44,0.08,0.76c-0.04,0.3-0.14,0.57-0.3,0.8
				c-0.16,0.23-0.33,0.35-0.5,0.35c-0.49,0-0.73,0-1.22,0c-0.39,2.74-0.67,4.68-1.02,7.14c-0.05,0.37-0.16,0.66-0.33,0.88
				c-0.17,0.22-0.35,0.32-0.55,0.32c-0.2,0-0.35-0.1-0.45-0.32c-0.11-0.22-0.13-0.51-0.08-0.88c0.35-2.45,0.63-4.39,1.02-7.14
				c-0.1,0-0.15,0-0.25,0c-0.18,0-0.32-0.11-0.42-0.34c-0.09-0.22-0.12-0.5-0.07-0.81c0.05-0.32,0.15-0.57,0.3-0.76
				c0.15-0.19,0.32-0.28,0.5-0.28C535.79,89.86,535.84,89.86,535.95,89.86z"/>
			<path class="st6" d="M544.04,96.49c-0.26,1.4-0.63,2.39-1.13,3.04c-0.5,0.65-1.09,0.9-1.78,0.9c-0.42,0-0.81-0.12-1.15-0.39
				c-0.14,0.97-0.19,1.36-0.25,1.73c-0.02,0.12-0.09,0.18-0.23,0.2c-0.14,0.03-0.31,0.02-0.5,0.02c-0.2,0-0.36,0.01-0.5-0.02
				c-0.13-0.03-0.19-0.08-0.18-0.2c0.2-1.43,0.89-6.2,1.52-10.61c0.04-0.28,0.13-0.49,0.27-0.63c0.26-0.27,0.61-0.52,1.05-0.74
				c0.45-0.22,0.91-0.32,1.41-0.32c0.72,0,1.26,0.25,1.6,0.91c0.34,0.66,0.45,1.66,0.31,3.04
				C544.38,94.42,544.23,95.47,544.04,96.49z M543,93.89c0.16-1.49-0.11-2.14-0.79-2.14c-0.18,0-0.38,0.06-0.61,0.19
				c-0.23,0.13-0.4,0.27-0.53,0.43c-0.28,1.99-0.46,3.21-0.75,5.21c0.08,0.14,0.21,0.27,0.4,0.39c0.19,0.12,0.38,0.17,0.59,0.17
				c0.66,0,1.11-0.64,1.37-2.07C542.82,95.38,542.92,94.65,543,93.89z"/>
		</g>
	</g>
</g>
</svg>
