<?xml version="1.0" encoding="utf-8"?>
<!-- Generator: Adobe Illustrator 23.0.0, SVG Export Plug-In . SVG Version: 6.00 Build 0)  -->
<svg version="1.1" id="图层_1" xmlns="http://www.w3.org/2000/svg" xmlns:xlink="http://www.w3.org/1999/xlink" x="0px" y="0px"
	 viewBox="0 0 591 151" style="enable-background:new 0 0 591 151;" xml:space="preserve">
<style type="text/css">
	.st0{fill:#FFB25F;}
	.st1{font-family:'Rubrik-SemiBold';}
	.st2{font-size:12px;}
	.st3{font-size:7px;}
	.st4{fill:none;stroke:#FFF5D9;stroke-width:4;stroke-linecap:round;stroke-linejoin:round;stroke-miterlimit:10;}
	.st5_2{fill-rule:evenodd;clip-rule:evenodd;fill:#EE7A65;}
	.st6{fill:#FFFFFF;}
	.st7_2{font-size:19.1917px;}
	.st8_2{fill-rule:evenodd;clip-rule:evenodd;fill:#AF2434;stroke:#CC5C6C;stroke-width:4;stroke-miterlimit:10;}
	.st9{fill:#EE7A65;}
	.st10{fill:#C9C305;stroke:#FFCE55;stroke-width:4;stroke-miterlimit:10;}
</style>
<g id="pnar_2_">
	<g>
		<path class="st0" d="M102.2,56.89c0.84,0.75,0.84,2.02,0,2.78l-7.22,6.53l-5.36,4.84c-1.27,1.15-3.38,0.29-3.38-1.39V63.8H74.28
			c-1.25,0-2.26,0.97-2.26,2.16v25.03H60.75V56.43c0-2.03,1.72-3.67,3.85-3.67h21.65v-5.84c0-1.68,2.1-2.54,3.38-1.39l5.35,4.86
			L102.2,56.89z"/>
	</g>
	<text transform="matrix(1 0 0 1 57.3828 103.2339)"><tspan x="0" y="0" class="st0 st1 st2">P</tspan><tspan x="7.78" y="0" class="st0 st1 st3">nar</tspan></text>
</g>
<g id="pci_3_">
	<g>
		<path class="st0" d="M352.2,56.89c0.84,0.75,0.84,2.02,0,2.78l-7.22,6.53l-5.36,4.84c-1.27,1.15-3.38,0.29-3.38-1.39V63.8h-11.97
			c-1.25,0-2.26,0.97-2.26,2.16v25.03h-11.26V56.43c0-2.03,1.72-3.67,3.85-3.67h21.65v-5.84c0-1.68,2.1-2.54,3.38-1.39l5.35,4.86
			L352.2,56.89z"/>
	</g>
	<text transform="matrix(1 0 0 1 310.3828 103.2339)"><tspan x="0" y="0" class="st0 st1 st2">P</tspan><tspan x="7.78" y="0" class="st0 st1 st3">CI</tspan></text>
</g>
<g>
	<line class="st4" x1="36" y1="90" x2="562" y2="90"/>
</g>
<g id="rbs_1_">
	<ellipse class="st5_2" cx="129" cy="91" rx="23" ry="16"/>
	<text transform="matrix(1 0 0 1 110.3359 97.79)" class="st6 st1 st7_2">RBS</text>
</g>
<g id="rbs">
	<ellipse class="st5_2" cx="381" cy="91" rx="23" ry="16"/>
	<text transform="matrix(1 0 0 1 362.3359 97.79)" class="st6 st1 st7_2">RBS</text>
</g>
<g id="ci_1_">
	<circle class="st8_2" cx="182" cy="90" r="17"/>
	<g>
		<g>
			<path class="st6" d="M179.01,95.77c1.23,0,2.2-0.42,2.99-1.84c0.39-0.65,0.82-1.02,1.3-1.02c0.32,0,0.59,0.17,0.81,0.48
				c0.22,0.31,0.3,0.69,0.25,1.1c-0.04,0.27-0.12,0.54-0.25,0.78c-0.55,0.97-1.27,1.39-2.22,1.57c-0.95,0.18-1.95,0.14-3.05,0.14
				c-1.6,0-2.95,0.13-3.91-0.47c-0.97-0.61-1.37-2-1.17-4.25c0.13-1.48,0.36-3.08,0.64-4.5c0.45-2.25,1.24-3.65,2.39-4.27
				c1.14-0.62,2.45-0.48,4.05-0.48c1.1,0,2.12-0.04,3.01,0.14c0.9,0.18,1.5,0.6,1.77,1.57c0.05,0.25,0.06,0.51,0.02,0.79
				c-0.06,0.41-0.25,0.78-0.56,1.1c-0.31,0.31-0.63,0.48-0.95,0.48c-0.46,0-0.79-0.37-1.01-1.02c-0.39-1.42-1.23-1.84-2.46-1.84
				c-0.91,0-1.68,0.24-2.34,0.92c-0.66,0.68-1.11,1.7-1.38,3.09c-0.23,1.19-0.41,2.46-0.52,3.65c-0.13,1.39,0.03,2.38,0.5,3.02
				C177.39,95.54,178.09,95.77,179.01,95.77z"/>
			<path class="st6" d="M186.41,96.53c0.37-2.55,1.52-10.62,1.87-13.09c0.03-0.21,0.18-0.32,0.45-0.37
				c0.27-0.06,0.58-0.05,0.94-0.05c0.37,0,0.68,0,0.92,0.05c0.24,0.06,0.35,0.16,0.32,0.37c-0.35,2.47-1.51,10.53-1.87,13.09
				c-0.03,0.22-0.17,0.34-0.43,0.4c-0.26,0.06-0.57,0.06-0.94,0.06c-0.36,0-0.67,0-0.92-0.06
				C186.49,96.86,186.38,96.74,186.41,96.53z"/>
		</g>
	</g>
</g>
<path id="终止子_6_" class="st9" d="M280.83,74h-6.99c-3.61,0-6.96,1.92-8.78,5.04l-3.4,5.84c-1.85,3.16-1.85,7.08,0,10.24
	l3.4,5.84c1.82,3.12,5.16,5.04,8.78,5.04h6.99c3.61,0,6.96-1.92,8.78-5.04l3.4-5.84c1.85-3.16,1.85-7.08,0-10.24l-3.4-5.84
	C287.79,75.92,284.44,74,280.83,74z"/>
<path id="终止子_9_" class="st9" d="M241.83,74h-6.99c-3.61,0-6.96,1.92-8.78,5.04l-3.4,5.84c-1.85,3.16-1.85,7.08,0,10.24
	l3.4,5.84c1.82,3.12,5.16,5.04,8.78,5.04h6.99c3.61,0,6.96-1.92,8.78-5.04l3.4-5.84c1.85-3.16,1.85-7.08,0-10.24l-3.4-5.84
	C248.79,75.92,245.44,74,241.83,74z"/>
<path id="终止子_5_" class="st9" d="M492.83,74h-6.99c-3.61,0-6.96,1.92-8.78,5.04l-3.4,5.84c-1.85,3.16-1.85,7.08,0,10.24
	l3.4,5.84c1.82,3.12,5.16,5.04,8.78,5.04h6.99c3.61,0,6.96-1.92,8.78-5.04l3.4-5.84c1.85-3.16,1.85-7.08,0-10.24l-3.4-5.84
	C499.79,75.92,496.44,74,492.83,74z"/>
<path id="终止子_10_" class="st9" d="M531.83,74h-6.99c-3.61,0-6.96,1.92-8.78,5.04l-3.4,5.84c-1.85,3.16-1.85,7.08,0,10.24
	l3.4,5.84c1.82,3.12,5.16,5.04,8.78,5.04h6.99c3.61,0,6.96-1.92,8.78-5.04l3.4-5.84c1.85-3.16,1.85-7.08,0-10.24l-3.4-5.84
	C538.79,75.92,535.44,74,531.83,74z"/>
<g id="gfp_3_">
	<path class="st10" d="M437.65,105.04L437.65,105.04c-8.31,0-15.11-6.8-15.11-15.11v0c0-8.31,6.8-15.11,15.11-15.11h0
		c8.31,0,15.11,6.8,15.11,15.11v0C452.76,98.24,445.96,105.04,437.65,105.04z"/>
	<g>
		<g>
			<path class="st6" d="M435.85,86.35c-0.45,3.15-0.82,5.76-1.21,8.48c-0.18,1.23-0.5,1.76-1.02,1.99
				c-0.52,0.23-1.19,0.18-2.05,0.18c-0.44,0-0.86,0-1.25-0.01c-0.2-0.01-0.35-0.02-0.45-0.06c-0.1-0.04-0.15-0.11-0.13-0.21
				c0.02-0.13,0.12-0.29,0.29-0.44s0.39-0.21,0.64-0.14c0.45,0.11,0.78,0.16,0.99,0.16c0.91,0,1.4-0.29,1.58-1.52
				c-0.44,0.3-0.88,0.43-1.34,0.43c-0.68,0-1.17-0.26-1.47-0.91c-0.3-0.65-0.38-1.63-0.24-2.98c0.1-0.95,0.24-1.93,0.41-2.87
				c0.24-1.35,0.63-2.35,1.17-3.02c0.54-0.68,1.14-0.93,1.83-0.93c0.87,0,1.59,0.27,2.13,0.98
				C435.86,85.64,435.91,85.93,435.85,86.35z M433.34,86.72c-0.68,0-1.14,0.66-1.4,2.14c-0.08,0.44-0.17,1.09-0.27,1.91
				c-0.09,0.69-0.07,1.21,0.05,1.58c0.12,0.37,0.34,0.55,0.65,0.55c0.44,0,0.85-0.2,1.22-0.63c0.28-1.94,0.44-3.1,0.72-5
				c-0.05-0.11-0.16-0.23-0.34-0.36C433.77,86.79,433.57,86.72,433.34,86.72z"/>
			<path class="st6" d="M437.95,84.86c0.02-0.17,0.03-0.24,0.06-0.39c0.12-0.86,0.34-1.2,0.69-1.35c0.35-0.14,0.81-0.11,1.39-0.11
				c0.39,0,0.75,0,1.06,0.01c0.36,0.01,0.54,0.04,0.51,0.26c-0.02,0.11-0.09,0.23-0.23,0.35c-0.14,0.11-0.31,0.18-0.51,0.18
				c-0.07,0-0.19-0.02-0.36-0.05c-0.17-0.03-0.32-0.05-0.44-0.05c-0.4,0-0.63,0.19-0.72,0.83c-0.02,0.12-0.03,0.19-0.05,0.32
				c0.49,0,0.73,0,1.22,0c0.18,0,0.31,0.09,0.41,0.28c0.1,0.19,0.13,0.44,0.08,0.76c-0.04,0.3-0.14,0.57-0.3,0.8
				c-0.16,0.23-0.33,0.35-0.5,0.35c-0.49,0-0.73,0-1.22,0c-0.39,2.74-0.67,4.68-1.02,7.14c-0.05,0.37-0.16,0.66-0.33,0.88
				c-0.17,0.22-0.35,0.32-0.55,0.32c-0.2,0-0.35-0.1-0.45-0.32c-0.11-0.22-0.13-0.51-0.08-0.88c0.35-2.45,0.63-4.39,1.02-7.14
				c-0.1,0-0.15,0-0.25,0c-0.18,0-0.32-0.11-0.42-0.34c-0.09-0.22-0.12-0.5-0.07-0.81c0.05-0.32,0.15-0.57,0.3-0.76
				c0.15-0.19,0.32-0.28,0.5-0.28C437.79,84.86,437.84,84.86,437.95,84.86z"/>
			<path class="st6" d="M446.04,91.49c-0.26,1.4-0.63,2.39-1.13,3.04c-0.5,0.65-1.09,0.9-1.78,0.9c-0.42,0-0.81-0.12-1.15-0.39
				c-0.14,0.97-0.19,1.36-0.25,1.73c-0.02,0.12-0.09,0.18-0.23,0.2c-0.14,0.03-0.31,0.02-0.5,0.02c-0.2,0-0.36,0.01-0.5-0.02
				c-0.13-0.03-0.19-0.08-0.18-0.2c0.2-1.43,0.89-6.2,1.52-10.61c0.04-0.28,0.13-0.49,0.27-0.63c0.26-0.27,0.61-0.52,1.05-0.74
				c0.45-0.22,0.91-0.32,1.41-0.32c0.72,0,1.26,0.25,1.6,0.91c0.34,0.66,0.45,1.66,0.31,3.04
				C446.38,89.42,446.23,90.47,446.04,91.49z M445,88.89c0.16-1.49-0.11-2.14-0.79-2.14c-0.18,0-0.38,0.06-0.61,0.19
				c-0.23,0.13-0.4,0.27-0.53,0.43c-0.28,1.99-0.46,3.21-0.75,5.21c0.08,0.14,0.21,0.27,0.4,0.39c0.19,0.12,0.38,0.17,0.59,0.17
				c0.66,0,1.11-0.64,1.37-2.07C444.82,90.38,444.92,89.65,445,88.89z"/>
		</g>
	</g>
</g>
</svg>
