<?xml version="1.0" encoding="utf-8"?>
<!-- Generator: Adobe Illustrator 23.0.0, SVG Export Plug-In . SVG Version: 6.00 Build 0)  -->
<svg version="1.1" id="图层_1" xmlns="http://www.w3.org/2000/svg" xmlns:xlink="http://www.w3.org/1999/xlink" x="0px" y="0px"
	 viewBox="0 0 790 196" style="enable-background:new 0 0 790 196;" xml:space="preserve">
<style type="text/css">
	.st0{fill:#FFB25F;}
	.st1{font-family:'Rubrik-SemiBold';}
	.st2{font-size:12px;}
	.st3{font-size:7px;}
	.st4{fill:none;stroke:#FFF5D9;stroke-width:4;stroke-linecap:round;stroke-linejoin:round;stroke-miterlimit:10;}
	.st5{fill-rule:evenodd;clip-rule:evenodd;fill:#EE7A65;}
	.st6{fill:#FFFFFF;}
	.st7{font-size:19.1917px;}
	.st8{fill-rule:evenodd;clip-rule:evenodd;fill:#AF2434;stroke:#CC5C6C;stroke-width:4;stroke-miterlimit:10;}
	.st9{fill:#C9C305;stroke:#FFCE55;stroke-width:4;stroke-miterlimit:10;}
	.st10{fill:#EE7A65;}
</style>
<g id="pliag_1_">
	<g>
		<path class="st0" d="M116.2,94.89c0.84,0.75,0.84,2.02,0,2.78l-7.22,6.53l-5.36,4.84c-1.27,1.15-3.38,0.29-3.38-1.39v-5.85H88.28
			c-1.25,0-2.26,0.97-2.26,2.16v25.03H74.75V94.43c0-2.03,1.72-3.67,3.85-3.67h21.65v-5.84c0-1.68,2.1-2.54,3.38-1.39l5.35,4.86
			L116.2,94.89z"/>
	</g>
	<text transform="matrix(1 0 0 1 71.3828 141.2339)"><tspan x="0" y="0" class="st0 st1 st2">P</tspan><tspan x="7.78" y="0" class="st0 st1 st3">liaG</tspan></text>
</g>
<g id="pgrac">
	<g>
		<path class="st0" d="M348.2,94.89c0.84,0.75,0.84,2.02,0,2.78l-7.22,6.53l-5.36,4.84c-1.27,1.15-3.38,0.29-3.38-1.39v-5.85h-11.97
			c-1.25,0-2.26,0.97-2.26,2.16v25.03h-11.26V94.43c0-2.03,1.72-3.67,3.85-3.67h21.65v-5.84c0-1.68,2.1-2.54,3.38-1.39l5.35,4.86
			L348.2,94.89z"/>
	</g>
	<text transform="matrix(1 0 0 1 303.3828 141.2339)"><tspan x="0" y="0" class="st0 st1 st2">P</tspan><tspan x="7.78" y="0" class="st0 st1 st3">grac</tspan></text>
</g>
<g id="pci_1_">
	<g>
		<path class="st0" d="M560.2,93.89c0.84,0.75,0.84,2.02,0,2.78l-7.22,6.53l-5.36,4.84c-1.27,1.15-3.38,0.29-3.38-1.39v-5.85h-11.97
			c-1.25,0-2.26,0.97-2.26,2.16v25.03h-11.26V93.43c0-2.03,1.72-3.67,3.85-3.67h21.65v-5.84c0-1.68,2.1-2.54,3.38-1.39l5.35,4.86
			L560.2,93.89z"/>
	</g>
	<text transform="matrix(1 0 0 1 518.3828 140.2339)"><tspan x="0" y="0" class="st0 st1 st2">P</tspan><tspan x="7.78" y="0" class="st0 st1 st3">CI</tspan></text>
</g>
<g>
	<line class="st4" x1="48.5" y1="128" x2="744" y2="128"/>
</g>
<g>
	<ellipse class="st5" cx="133" cy="128" rx="23" ry="16"/>
	<text transform="matrix(1 0 0 1 114.3359 134.79)" class="st6 st1 st7">RBS</text>
</g>
<g>
	<ellipse class="st5" cx="357" cy="128" rx="23" ry="16"/>
	<text transform="matrix(1 0 0 1 338.3359 134.79)" class="st6 st1 st7">RBS</text>
</g>
<g>
	<ellipse class="st5" cx="570" cy="128" rx="23" ry="16"/>
	<text transform="matrix(1 0 0 1 551.3359 134.79)" class="st6 st1 st7">RBS</text>
</g>
<g id="laci">
	<ellipse class="st8" cx="187" cy="129" rx="21" ry="17"/>
	<g>
		<g>
			<path class="st6" d="M173.66,121.36c0.26-0.04,0.56-0.03,0.92-0.03s0.66-0.01,0.9,0.03c0.24,0.04,0.34,0.14,0.3,0.33
				c-0.51,2.34-2.32,10.76-2.84,13.17c-0.04,0.2-0.19,0.3-0.44,0.34c-0.25,0.05-0.56,0.04-0.93,0.04c-0.35,0-0.65,0.01-0.89-0.04
				c-0.25-0.05-0.35-0.15-0.31-0.34c0.52-2.4,2.33-10.82,2.84-13.17C173.26,121.49,173.4,121.4,173.66,121.36z"/>
			<path class="st6" d="M185.13,128.73c-0.61,2.82-0.95,4.4-1.24,5.76c-0.06,0.29-0.25,0.43-0.57,0.52c-1.1,0.3-2.44,0.23-4.1,0.23
				c-1.32,0-2.33,0.06-2.97-0.19c-0.64-0.25-0.86-0.8-0.63-1.87c0.21-0.99,0.77-2.05,1.61-2.9c0.84-0.86,1.93-1.31,3.26-1.31
				c0.61,0,1.29,0.14,2.04,0.43c0.07-0.31,0.1-0.46,0.17-0.77c0.17-0.77,0.15-1.33-0.06-1.69c-0.2-0.36-0.63-0.53-1.29-0.53
				c-0.55,0-1.2,0.16-1.95,0.48c-0.58,0.25-1,0.21-1.26-0.1c-0.26-0.31-0.32-0.76-0.2-1.33c0.16-0.76,0.56-1.24,1.17-1.52
				c0.82-0.37,1.8-0.55,2.94-0.55C184.88,123.36,185.97,124.84,185.13,128.73z M179.59,134.31c0.72,0,1.36-0.12,1.96-0.43
				c0.14-0.65,0.23-1.06,0.42-1.96c-0.63-0.27-1.24-0.41-1.83-0.41c-0.51,0-0.95,0.16-1.32,0.46c-0.36,0.3-0.6,0.68-0.69,1.09
				c-0.1,0.46-0.01,0.76,0.25,0.96C178.65,134.23,179.06,134.31,179.59,134.31z"/>
			<path class="st6" d="M190.95,134.09c0.86,0,1.56-0.29,2.18-1.2c0.32-0.46,0.71-0.72,1.17-0.72c0.37,0,0.64,0.17,0.8,0.47
				c0.16,0.31,0.2,0.67,0.12,1.03c-0.14,0.63-0.63,1.11-1.46,1.37c-0.83,0.25-1.85,0.19-3.13,0.19c-1.24,0-2.3,0.08-3.07-0.27
				c-0.77-0.35-1.08-1.15-0.87-2.56c0.16-1.08,0.45-2.38,0.79-3.66c0.45-1.72,1.21-3.12,2.27-4.07c1.06-0.95,2.19-1.32,3.44-1.32
				c1.28,0,2.24,0.32,2.84,1.14c0.6,0.81,0.79,1.73,0.58,2.68c-0.11,0.53-0.33,0.99-0.64,1.38c-0.31,0.38-0.65,0.57-1.03,0.57
				c-0.46,0-0.74-0.29-0.83-0.86c-0.17-1.13-0.68-1.68-1.54-1.68c-0.61,0-1.15,0.24-1.6,0.72c-0.46,0.48-0.82,1.17-1.06,2.02
				c-0.24,0.85-0.44,1.76-0.56,2.6c-0.11,0.76-0.01,1.29,0.27,1.66C189.88,133.95,190.33,134.09,190.95,134.09z"/>
			<path class="st6" d="M197.33,134.82c0.53-2.45,2.28-10.55,2.82-13.06c0.05-0.21,0.2-0.32,0.48-0.38
				c0.27-0.06,0.58-0.05,0.94-0.05c0.37,0,0.68,0,0.92,0.05c0.24,0.06,0.34,0.17,0.29,0.38c-0.54,2.51-2.29,10.61-2.82,13.06
				c-0.05,0.21-0.19,0.32-0.45,0.37c-0.26,0.05-0.57,0.05-0.94,0.05c-0.36,0-0.67,0.01-0.92-0.05
				C197.39,135.14,197.29,135.03,197.33,134.82z"/>
		</g>
	</g>
</g>
<g id="ci">
	<circle class="st8" cx="403" cy="128" r="17"/>
	<g>
		<g>
			<path class="st6" d="M400.01,133.77c1.23,0,2.2-0.42,2.99-1.84c0.39-0.65,0.82-1.02,1.3-1.02c0.32,0,0.59,0.17,0.81,0.48
				c0.22,0.31,0.3,0.69,0.24,1.1c-0.04,0.27-0.12,0.54-0.25,0.78c-0.55,0.97-1.27,1.39-2.22,1.57c-0.95,0.18-1.95,0.14-3.05,0.14
				c-1.6,0-2.95,0.13-3.91-0.47c-0.97-0.61-1.37-2-1.17-4.25c0.13-1.48,0.36-3.08,0.64-4.5c0.45-2.25,1.24-3.65,2.39-4.27
				c1.14-0.62,2.45-0.48,4.05-0.48c1.1,0,2.12-0.04,3.01,0.14c0.9,0.18,1.5,0.6,1.77,1.57c0.05,0.25,0.06,0.51,0.02,0.79
				c-0.06,0.41-0.25,0.79-0.56,1.1c-0.31,0.31-0.63,0.48-0.95,0.48c-0.46,0-0.79-0.37-1.01-1.02c-0.38-1.42-1.23-1.84-2.46-1.84
				c-0.91,0-1.68,0.24-2.34,0.92c-0.66,0.68-1.11,1.7-1.38,3.09c-0.23,1.19-0.41,2.46-0.52,3.65c-0.13,1.39,0.03,2.38,0.5,3.02
				C398.39,133.54,399.09,133.77,400.01,133.77z"/>
			<path class="st6" d="M407.41,134.53c0.37-2.55,1.52-10.62,1.87-13.09c0.03-0.21,0.18-0.32,0.45-0.37
				c0.27-0.06,0.58-0.05,0.94-0.05c0.37,0,0.68,0,0.92,0.05c0.24,0.06,0.35,0.16,0.32,0.37c-0.35,2.47-1.51,10.53-1.87,13.09
				c-0.03,0.22-0.17,0.34-0.43,0.4c-0.26,0.06-0.57,0.06-0.94,0.06c-0.36,0-0.67,0-0.92-0.06
				C407.49,134.86,407.38,134.74,407.41,134.53z"/>
		</g>
	</g>
</g>
<g id="gfp_2_">
	<path class="st9" d="M620.65,143.04L620.65,143.04c-8.31,0-15.11-6.8-15.11-15.11v0c0-8.31,6.8-15.11,15.11-15.11l0,0
		c8.31,0,15.11,6.8,15.11,15.11v0C635.76,136.24,628.96,143.04,620.65,143.04z"/>
	<g>
		<g>
			<path class="st6" d="M618.85,124.35c-0.45,3.15-0.82,5.76-1.21,8.48c-0.18,1.23-0.5,1.76-1.02,1.99
				c-0.52,0.23-1.19,0.18-2.05,0.18c-0.44,0-0.86,0-1.25-0.01c-0.2-0.01-0.35-0.02-0.45-0.06c-0.1-0.04-0.15-0.11-0.13-0.21
				c0.02-0.13,0.12-0.29,0.29-0.44s0.39-0.21,0.64-0.14c0.45,0.11,0.78,0.16,0.99,0.16c0.91,0,1.4-0.29,1.58-1.52
				c-0.44,0.3-0.88,0.43-1.34,0.43c-0.68,0-1.17-0.26-1.47-0.91c-0.3-0.65-0.38-1.63-0.24-2.98c0.1-0.95,0.24-1.93,0.41-2.87
				c0.24-1.35,0.63-2.35,1.17-3.02c0.54-0.68,1.14-0.93,1.83-0.93c0.87,0,1.59,0.27,2.13,0.98
				C618.86,123.64,618.91,123.93,618.85,124.35z M616.34,124.72c-0.68,0-1.14,0.66-1.4,2.14c-0.08,0.44-0.17,1.09-0.27,1.91
				c-0.09,0.69-0.07,1.21,0.05,1.58c0.12,0.37,0.34,0.55,0.65,0.55c0.44,0,0.85-0.2,1.22-0.63c0.28-1.94,0.44-3.1,0.72-5
				c-0.05-0.11-0.16-0.23-0.34-0.36C616.77,124.79,616.57,124.72,616.34,124.72z"/>
			<path class="st6" d="M620.95,122.86c0.02-0.17,0.03-0.24,0.06-0.39c0.12-0.86,0.34-1.2,0.69-1.35c0.35-0.14,0.81-0.11,1.39-0.11
				c0.39,0,0.75,0,1.06,0.01c0.36,0.01,0.54,0.04,0.51,0.26c-0.02,0.11-0.09,0.23-0.23,0.35c-0.14,0.11-0.31,0.18-0.51,0.18
				c-0.07,0-0.19-0.02-0.36-0.05c-0.17-0.03-0.32-0.05-0.44-0.05c-0.4,0-0.63,0.19-0.72,0.83c-0.02,0.12-0.03,0.19-0.05,0.32
				c0.49,0,0.73,0,1.22,0c0.18,0,0.31,0.09,0.41,0.28c0.1,0.19,0.13,0.44,0.08,0.76c-0.04,0.3-0.14,0.57-0.3,0.8
				c-0.16,0.23-0.33,0.35-0.5,0.35c-0.49,0-0.73,0-1.22,0c-0.39,2.74-0.67,4.68-1.02,7.14c-0.05,0.37-0.16,0.66-0.33,0.88
				c-0.17,0.22-0.35,0.32-0.55,0.32c-0.2,0-0.35-0.1-0.45-0.32c-0.11-0.22-0.13-0.51-0.08-0.88c0.35-2.45,0.63-4.39,1.02-7.14
				c-0.1,0-0.15,0-0.25,0c-0.18,0-0.32-0.11-0.42-0.34c-0.09-0.22-0.12-0.5-0.07-0.81c0.05-0.32,0.15-0.57,0.3-0.76
				c0.15-0.19,0.32-0.28,0.5-0.28C620.79,122.86,620.84,122.86,620.95,122.86z"/>
			<path class="st6" d="M629.04,129.49c-0.26,1.4-0.63,2.39-1.13,3.04c-0.5,0.65-1.09,0.9-1.78,0.9c-0.42,0-0.81-0.12-1.15-0.39
				c-0.14,0.97-0.19,1.36-0.25,1.73c-0.02,0.12-0.09,0.18-0.23,0.2c-0.14,0.03-0.31,0.02-0.5,0.02c-0.2,0-0.36,0.01-0.5-0.02
				c-0.13-0.03-0.19-0.08-0.18-0.2c0.2-1.43,0.89-6.2,1.52-10.61c0.04-0.28,0.13-0.49,0.27-0.63c0.26-0.27,0.61-0.52,1.05-0.74
				c0.45-0.22,0.91-0.32,1.41-0.32c0.72,0,1.26,0.25,1.6,0.91c0.34,0.66,0.45,1.66,0.31,3.04
				C629.38,127.42,629.23,128.47,629.04,129.49z M628,126.89c0.16-1.49-0.11-2.14-0.79-2.14c-0.18,0-0.38,0.06-0.61,0.19
				c-0.23,0.13-0.4,0.27-0.53,0.43c-0.28,1.99-0.46,3.21-0.75,5.21c0.08,0.14,0.21,0.27,0.4,0.39c0.19,0.12,0.38,0.17,0.59,0.17
				c0.66,0,1.11-0.64,1.37-2.07C627.82,128.38,627.92,127.65,628,126.89z"/>
		</g>
	</g>
</g>
<path id="终止子_2_" class="st10" d="M493.48,112h-8.3c-3.53,0-6.81,1.83-8.66,4.84l-3.59,5.84c-2.01,3.26-2.01,7.38,0,10.64
	l3.59,5.84c1.85,3.01,5.13,4.84,8.66,4.84h8.3c3.53,0,6.81-1.83,8.66-4.84l3.59-5.84c2.01-3.26,2.01-7.38,0-10.64l-3.59-5.84
	C500.29,113.83,497.02,112,493.48,112z"/>
<path id="终止子_14_" class="st10" d="M453.48,112h-8.3c-3.53,0-6.81,1.83-8.66,4.84l-3.59,5.84c-2.01,3.26-2.01,7.38,0,10.64
	l3.59,5.84c1.85,3.01,5.13,4.84,8.66,4.84h8.3c3.53,0,6.81-1.83,8.66-4.84l3.59-5.84c2.01-3.26,2.01-7.38,0-10.64l-3.59-5.84
	C460.29,113.83,457.02,112,453.48,112z"/>
<path id="终止子_16_" class="st10" d="M279.48,112h-8.3c-3.53,0-6.81,1.83-8.66,4.84l-3.59,5.84c-2.01,3.26-2.01,7.38,0,10.64
	l3.59,5.84c1.85,3.01,5.13,4.84,8.66,4.84h8.3c3.53,0,6.81-1.83,8.66-4.84l3.59-5.84c2.01-3.26,2.01-7.38,0-10.64l-3.59-5.84
	C286.29,113.83,283.02,112,279.48,112z"/>
<path id="终止子_15_" class="st10" d="M240.48,112h-8.3c-3.53,0-6.81,1.83-8.66,4.84l-3.59,5.84c-2.01,3.26-2.01,7.38,0,10.64
	l3.59,5.84c1.85,3.01,5.13,4.84,8.66,4.84h8.3c3.53,0,6.81-1.83,8.66-4.84l3.59-5.84c2.01-3.26,2.01-7.38,0-10.64l-3.59-5.84
	C247.29,113.83,244.02,112,240.48,112z"/>
<path id="终止子_13_" class="st10" d="M714.48,112h-8.3c-3.53,0-6.81,1.83-8.66,4.84l-3.59,5.84c-2.01,3.26-2.01,7.38,0,10.64
	l3.59,5.84c1.85,3.01,5.13,4.84,8.66,4.84h8.3c3.53,0,6.81-1.83,8.66-4.84l3.59-5.84c2.01-3.26,2.01-7.38,0-10.64l-3.59-5.84
	C721.29,113.83,718.02,112,714.48,112z"/>
<path id="终止子_17_" class="st10" d="M675.48,112h-8.3c-3.53,0-6.81,1.83-8.66,4.84l-3.59,5.84c-2.01,3.26-2.01,7.38,0,10.64
	l3.59,5.84c1.85,3.01,5.13,4.84,8.66,4.84h8.3c3.53,0,6.81-1.83,8.66-4.84l3.59-5.84c2.01-3.26,2.01-7.38,0-10.64l-3.59-5.84
	C682.29,113.83,679.02,112,675.48,112z"/>
</svg>
