<?xml version="1.0" encoding="utf-8"?>
<!-- Generator: Adobe Illustrator 23.0.0, SVG Export Plug-In . SVG Version: 6.00 Build 0)  -->
<svg version="1.1" id="图层_1" xmlns="http://www.w3.org/2000/svg" xmlns:xlink="http://www.w3.org/1999/xlink" x="0px" y="0px"
	 viewBox="0 0 391 127" style="enable-background:new 0 0 391 127;" xml:space="preserve">
<style type="text/css">
	.st0{fill:#FFB25F;}
	.st1{font-family:'Rubrik-SemiBold';}
	.st2{font-size:12px;}
	.st3{font-size:7px;}
	.st4{fill:none;stroke:#FFF5D9;stroke-width:4;stroke-linecap:round;stroke-linejoin:round;stroke-miterlimit:10;}
	.st5{fill-rule:evenodd;clip-rule:evenodd;fill:#EE7A65;}
	.st6{fill:#FFFFFF;}
	.st7{font-size:19.1917px;}
	.st8{fill:#C9C305;stroke:#FFCE55;stroke-width:4;stroke-miterlimit:10;}
	.st9{fill:#EE7A65;}
</style>
<g id="pnar">
	<g>
		<path class="st0" d="M121.2,44.89c0.84,0.75,0.84,2.02,0,2.78l-7.22,6.53l-5.36,4.84c-1.27,1.15-3.38,0.29-3.38-1.39V51.8H93.28
			c-1.25,0-2.26,0.97-2.26,2.16v25.03H79.75V44.43c0-2.03,1.72-3.67,3.85-3.67h21.65v-5.84c0-1.68,2.1-2.54,3.38-1.39l5.35,4.86
			L121.2,44.89z"/>
	</g>
	<text transform="matrix(1 0 0 1 76.3828 91.2339)"><tspan x="0" y="0" class="st0 st1 st2">P</tspan><tspan x="7.78" y="0" class="st0 st1 st3">nar</tspan></text>
</g>
<g>
	<line class="st4" x1="61" y1="78" x2="345" y2="78"/>
</g>
<g id="RBS">
	<ellipse class="st5" cx="155" cy="79" rx="23" ry="16"/>
	<text transform="matrix(1 0 0 1 136.3359 85.79)" class="st6 st1 st7">RBS</text>
</g>
<g id="gfp_1_">
	<path class="st8" d="M204.65,94.04L204.65,94.04c-8.31,0-15.11-6.8-15.11-15.11v0c0-8.31,6.8-15.11,15.11-15.11h0
		c8.31,0,15.11,6.8,15.11,15.11v0C219.76,87.24,212.96,94.04,204.65,94.04z"/>
	<g>
		<g>
			<path class="st6" d="M202.85,75.35c-0.45,3.15-0.82,5.76-1.21,8.48c-0.18,1.23-0.5,1.76-1.02,1.99
				c-0.52,0.23-1.19,0.18-2.05,0.18c-0.44,0-0.86,0-1.25-0.01c-0.2-0.01-0.35-0.02-0.45-0.06c-0.1-0.04-0.15-0.11-0.13-0.21
				c0.02-0.13,0.12-0.29,0.29-0.44c0.18-0.15,0.39-0.21,0.64-0.14c0.45,0.11,0.78,0.16,0.99,0.16c0.91,0,1.4-0.29,1.58-1.52
				c-0.44,0.3-0.88,0.43-1.34,0.43c-0.67,0-1.17-0.26-1.47-0.91c-0.3-0.65-0.38-1.63-0.24-2.98c0.1-0.95,0.24-1.93,0.41-2.87
				c0.24-1.35,0.63-2.35,1.17-3.02c0.54-0.68,1.14-0.93,1.83-0.93c0.87,0,1.59,0.27,2.13,0.98
				C202.86,74.64,202.91,74.93,202.85,75.35z M200.33,75.72c-0.67,0-1.14,0.66-1.4,2.14c-0.08,0.44-0.17,1.09-0.27,1.91
				c-0.09,0.69-0.07,1.21,0.05,1.58c0.12,0.37,0.34,0.55,0.65,0.55c0.44,0,0.85-0.2,1.22-0.63c0.28-1.94,0.44-3.1,0.72-5
				c-0.05-0.11-0.16-0.23-0.34-0.36C200.77,75.79,200.57,75.72,200.33,75.72z"/>
			<path class="st6" d="M204.94,73.86c0.02-0.17,0.03-0.24,0.06-0.39c0.12-0.86,0.34-1.2,0.69-1.35c0.35-0.14,0.81-0.11,1.39-0.11
				c0.39,0,0.75,0,1.06,0.01c0.36,0.01,0.54,0.04,0.51,0.26c-0.02,0.11-0.09,0.23-0.23,0.35c-0.14,0.11-0.31,0.18-0.51,0.18
				c-0.07,0-0.19-0.02-0.36-0.05c-0.17-0.03-0.32-0.05-0.44-0.05c-0.4,0-0.63,0.19-0.72,0.83c-0.02,0.12-0.03,0.19-0.05,0.32
				c0.49,0,0.73,0,1.22,0c0.18,0,0.31,0.09,0.41,0.28c0.1,0.19,0.13,0.44,0.08,0.76c-0.04,0.3-0.14,0.57-0.3,0.8
				s-0.33,0.35-0.5,0.35c-0.49,0-0.73,0-1.22,0c-0.39,2.74-0.67,4.68-1.02,7.14c-0.05,0.37-0.16,0.66-0.33,0.88
				c-0.17,0.22-0.35,0.32-0.55,0.32c-0.2,0-0.35-0.1-0.45-0.32c-0.11-0.22-0.13-0.51-0.08-0.88c0.35-2.45,0.63-4.39,1.02-7.14
				c-0.1,0-0.15,0-0.25,0c-0.18,0-0.32-0.11-0.42-0.34c-0.09-0.22-0.12-0.5-0.07-0.81c0.05-0.32,0.15-0.57,0.3-0.76
				c0.15-0.19,0.32-0.28,0.5-0.28C204.79,73.86,204.84,73.86,204.94,73.86z"/>
			<path class="st6" d="M213.04,80.49c-0.26,1.4-0.63,2.39-1.13,3.04c-0.5,0.65-1.09,0.9-1.78,0.9c-0.42,0-0.81-0.12-1.15-0.39
				c-0.14,0.97-0.19,1.36-0.25,1.73c-0.02,0.12-0.09,0.18-0.23,0.2c-0.14,0.03-0.31,0.02-0.5,0.02c-0.2,0-0.36,0.01-0.5-0.02
				c-0.13-0.03-0.19-0.08-0.18-0.2c0.2-1.43,0.89-6.2,1.52-10.61c0.04-0.28,0.13-0.49,0.27-0.63c0.26-0.27,0.61-0.52,1.05-0.74
				c0.45-0.22,0.91-0.32,1.41-0.32c0.72,0,1.26,0.25,1.6,0.91c0.34,0.66,0.45,1.66,0.31,3.04
				C213.38,78.42,213.23,79.47,213.04,80.49z M212,77.89c0.16-1.49-0.11-2.14-0.79-2.14c-0.18,0-0.38,0.06-0.61,0.19
				c-0.23,0.13-0.4,0.27-0.53,0.43c-0.28,1.99-0.46,3.21-0.75,5.21c0.08,0.14,0.21,0.27,0.4,0.39c0.19,0.12,0.38,0.17,0.59,0.17
				c0.66,0,1.11-0.64,1.37-2.07C211.82,79.38,211.92,78.65,212,77.89z"/>
		</g>
	</g>
</g>
<path id="终止子_1_" class="st9" d="M267.48,62h-8.3c-3.53,0-6.81,1.83-8.66,4.84l-3.59,5.84c-2.01,3.26-2.01,7.38,0,10.64
	l3.59,5.84c1.85,3.01,5.13,4.84,8.66,4.84h8.3c3.53,0,6.81-1.83,8.66-4.84l3.59-5.84c2.01-3.26,2.01-7.38,0-10.64l-3.59-5.84
	C274.29,63.83,271.02,62,267.48,62z"/>
<path id="终止子_21_" class="st9" d="M309.48,62h-8.3c-3.53,0-6.81,1.83-8.66,4.84l-3.59,5.84c-2.01,3.26-2.01,7.38,0,10.64
	l3.59,5.84c1.85,3.01,5.13,4.84,8.66,4.84h8.3c3.53,0,6.81-1.83,8.66-4.84l3.59-5.84c2.01-3.26,2.01-7.38,0-10.64l-3.59-5.84
	C316.29,63.83,313.02,62,309.48,62z"/>
</svg>
