<?xml version="1.0" encoding="utf-8"?>
<!-- Generator: Adobe Illustrator 23.0.0, SVG Export Plug-In . SVG Version: 6.00 Build 0)  -->
<svg version="1.1" id="BBa_x5F_K3408006" xmlns="http://www.w3.org/2000/svg" xmlns:xlink="http://www.w3.org/1999/xlink" x="0px"
	 y="0px" viewBox="0 0 433 133" style="enable-background:new 0 0 433 133;" xml:space="preserve">
<style type="text/css">
	.st0{fill:#FFB25F;}
	.st1{font-family:'Rubrik-SemiBold';}
	.st2{font-size:12px;}
	.st3{font-size:7px;}
	.st4{fill:none;stroke:#FFF5D9;stroke-width:4;stroke-linecap:round;stroke-linejoin:round;stroke-miterlimit:10;}
	.st5{fill:#AF2434;stroke:#CC5C6C;stroke-width:4;stroke-miterlimit:10;}
	.st6{fill:#FFFFFF;}
	.st7{fill-rule:evenodd;clip-rule:evenodd;fill:#EE7A65;}
	.st8{font-size:19.1917px;}
	.st9{fill:#EE7A65;}
</style>
<g id="pnar_3_">
	<g>
		<path class="st0" d="M95.2,42.89c0.84,0.75,0.84,2.02,0,2.78l-7.22,6.53l-5.36,4.84c-1.27,1.15-3.38,0.29-3.38-1.39V49.8H67.28
			c-1.25,0-2.26,0.97-2.26,2.16v25.03H53.75V42.43c0-2.03,1.72-3.67,3.85-3.67h21.65v-5.84c0-1.68,2.1-2.54,3.38-1.39l5.35,4.86
			L95.2,42.89z"/>
	</g>
	<text transform="matrix(1 0 0 1 50.3828 89.2339)"><tspan x="0" y="0" class="st0 st1 st2">P</tspan><tspan x="7.78" y="0" class="st0 st1 st3">nar</tspan></text>
</g>
<g>
	<line class="st4" x1="32" y1="76" x2="416" y2="76"/>
</g>
<g id="phy">
	<path class="st5" d="M272.83,91.04h-82.12c-7.8,0-14.17-6.38-14.17-14.17v-1.88c0-7.8,6.38-14.17,14.17-14.17h82.12
		c7.8,0,14.17,6.38,14.17,14.17v1.88C287,84.66,280.62,91.04,272.83,91.04z"/>
	<g>
		<g>
			<path class="st6" d="M196.28,79.13c-0.4,1.75-1.08,2.97-2.08,3.76c-1,0.79-2.22,1.09-3.71,1.09c-0.9,0-1.74-0.14-2.49-0.47
				c-0.18,1.18-0.26,1.64-0.33,2.09c-0.02,0.14-0.18,0.21-0.48,0.24c-0.3,0.03-0.65,0.02-1.07,0.02c-0.42,0-0.78,0.01-1.07-0.02
				c-0.29-0.03-0.42-0.1-0.4-0.24c0.27-1.71,1.16-7.34,2.11-13.38c0.06-0.38,0.23-0.67,0.52-0.87c0.53-0.38,1.26-0.73,2.19-1.05
				c0.94-0.32,1.93-0.47,2.98-0.47c1.53,0,2.71,0.39,3.5,1.32c0.79,0.93,1.11,2.29,0.95,4.09
				C196.78,76.52,196.57,77.86,196.28,79.13z M193.78,75.83c0.18-1.91-0.46-2.82-1.9-2.82c-0.38,0-0.8,0.09-1.28,0.26
				c-0.48,0.17-0.84,0.36-1.08,0.57c-0.41,2.63-0.66,4.17-1.04,6.64c0.18,0.17,0.48,0.34,0.89,0.48c0.41,0.14,0.84,0.22,1.27,0.22
				c1.41,0,2.3-0.78,2.7-2.57C193.54,77.74,193.69,76.8,193.78,75.83z"/>
			<path class="st6" d="M203.98,67.87c-0.13,0.83-0.23,1.45-0.45,2.84c0.3-0.25,0.72-0.46,1.28-0.64c0.56-0.17,1.13-0.25,1.7-0.25
				c1.44,0,2.5,0.39,3.15,1.31s0.82,2.39,0.5,4.41c-0.46,2.95-0.72,4.6-1.09,6.93c-0.07,0.45-0.27,0.8-0.6,1.07
				c-0.33,0.27-0.71,0.39-1.17,0.39c-0.42,0-0.76-0.12-1-0.39c-0.24-0.27-0.33-0.62-0.26-1.07c0.36-2.26,0.61-3.85,1.06-6.72
				c0.14-0.86,0.06-1.52-0.23-1.99c-0.29-0.46-0.75-0.69-1.38-0.69c-0.45,0-0.91,0.11-1.38,0.33c-0.47,0.22-0.85,0.5-1.15,0.84
				c-0.54,3.44-0.87,5.53-1.3,8.28c-0.07,0.44-0.26,0.77-0.59,1.03c-0.33,0.26-0.7,0.38-1.12,0.38c-0.42,0-0.76-0.12-1.02-0.39
				c-0.26-0.27-0.36-0.6-0.29-1.02c0.83-5.27,1.78-11.31,2.3-14.64c0.04-0.28,0.22-0.46,0.53-0.59c0.31-0.13,0.68-0.18,1.1-0.18
				s0.77,0.05,1.04,0.18C203.9,67.4,204.02,67.59,203.98,67.87z"/>
			<path class="st6" d="M214.84,83.03c-1.02-3.39-1.29-6.55-2.18-10.77c-0.14-0.65-0.01-1.21,0.38-1.7c0.39-0.49,0.87-0.7,1.44-0.7
				c0.75,0,1.21,0.36,1.37,1.21c0.55,2.78,0.75,4.71,1.24,7.87c0.01,0.11,0.05,0.17,0.11,0.17c0.06,0,0.11-0.05,0.16-0.17
				c1.43-3.16,2.21-5.09,3.58-7.87c0.42-0.85,0.99-1.21,1.74-1.21c0.59,0,1,0.22,1.23,0.71s0.17,1.06-0.17,1.71
				c-2.41,4.59-3.81,8.16-6.02,11.45c-1.16,1.73-2.2,2.02-3.33,2.1c-0.44,0.03-0.85,0.02-1.24,0.02c-0.42,0-0.78,0.01-1.07-0.02
				c-0.29-0.02-0.43-0.08-0.41-0.21c0.02-0.15,0.28-0.34,0.76-0.52C213.46,84.75,214.25,84.13,214.84,83.03z"/>
			<path class="st6" d="M227.9,75.94c-0.66,4.2-0.05,7.43,1.97,8.83c0.24,0.17,0.38,0.35,0.4,0.52c0.03,0.17-0.07,0.3-0.27,0.38
				c-0.25,0.1-0.59,0.13-1.02,0.14c-0.43,0.01-0.84,0.01-1.22-0.07c-1.43-0.3-2.38-1.28-2.83-3.09c-0.45-1.81-0.44-4.24-0.05-6.71
				c0.39-2.47,1.13-4.83,2.13-6.52c1-1.68,2.23-2.5,3.72-2.62c0.4-0.03,0.8-0.02,1.23-0.02c0.43,0,0.77,0,0.99,0.05
				c0.19,0.05,0.25,0.13,0.17,0.26c-0.07,0.13-0.26,0.28-0.55,0.42C230.16,68.7,228.56,71.74,227.9,75.94z"/>
			<path class="st6" d="M235.1,83.03c-1.02-3.39-1.29-6.55-2.18-10.77c-0.14-0.65-0.01-1.21,0.38-1.7c0.39-0.49,0.87-0.7,1.44-0.7
				c0.75,0,1.21,0.36,1.37,1.21c0.55,2.78,0.75,4.71,1.24,7.87c0.01,0.11,0.05,0.17,0.11,0.17c0.06,0,0.11-0.05,0.16-0.17
				c1.43-3.16,2.21-5.09,3.58-7.87c0.42-0.85,0.99-1.21,1.74-1.21c0.59,0,1,0.22,1.23,0.71s0.17,1.06-0.17,1.71
				c-2.41,4.59-3.81,8.16-6.02,11.45c-1.16,1.73-2.2,2.02-3.33,2.1c-0.44,0.03-0.85,0.02-1.24,0.02c-0.42,0-0.78,0.01-1.07-0.02
				c-0.29-0.02-0.43-0.08-0.41-0.21c0.02-0.15,0.28-0.34,0.76-0.52C233.72,84.75,234.51,84.13,235.1,83.03z"/>
			<path class="st6" d="M249.57,81.17c1.01,0,1.84-0.5,2.51-1.6c0.34-0.56,0.79-0.86,1.33-0.86c0.44,0,0.76,0.19,0.97,0.56
				c0.21,0.37,0.28,0.81,0.2,1.32c-0.14,0.87-0.72,1.68-1.75,2.4c-1.03,0.72-2.28,1-3.78,1c-1.46,0-2.63-0.33-3.48-1.2
				c-0.85-0.87-1.22-2.13-1.07-3.79c0.12-1.27,0.34-2.61,0.61-3.88c0.36-1.71,1.11-3.04,2.26-3.97c1.15-0.94,2.44-1.32,3.92-1.32
				c1.5,0,2.65,0.34,3.44,1.14c0.78,0.8,1.1,1.68,0.95,2.6c-0.08,0.52-0.29,0.97-0.62,1.35c-0.33,0.38-0.71,0.57-1.15,0.57
				c-0.54,0-0.89-0.29-1.06-0.86c-0.31-1.11-0.97-1.64-1.97-1.64c-0.72,0-1.32,0.23-1.81,0.7s-0.84,1.14-1.05,2
				c-0.2,0.85-0.35,1.8-0.43,2.75c-0.07,0.85,0.08,1.53,0.41,2.02C248.32,80.94,248.85,81.17,249.57,81.17z"/>
			<path class="st6" d="M262.51,83.83c-1.38,0-2.07,0-3.45,0c-0.69,0-1.21-0.16-1.55-0.54c-0.34-0.37-0.46-0.88-0.35-1.56
				c0.78-4.96,1.53-9.71,2.09-13.26c0.08-0.49,0.32-0.8,0.74-1.01c0.42-0.21,0.98-0.28,1.69-0.28c1.38,0,2.07,0,3.45,0
				c2.36,0,4.13,0.16,5.24,1.01c1.11,0.85,1.54,2.39,1.3,4.86c-0.1,0.96-0.24,2-0.46,3.05c-0.55,2.65-1.58,4.7-3,5.98
				C266.78,83.38,264.9,83.83,262.51,83.83z M268.12,75.97c0.16-0.75,0.3-1.53,0.39-2.33c0.39-3.35-0.89-4.45-3.63-4.45
				c-1.06,0-1.6,0-2.66,0c-0.55,3.48-1.12,7.12-1.83,11.63c1.06,0,1.6,0,2.66,0C265.76,80.81,267.42,79.29,268.12,75.97z"/>
			<path class="st6" d="M276.17,75.94c0.66-4.18,0.01-7.23-2.06-8.42c-0.25-0.14-0.39-0.3-0.42-0.42c-0.03-0.13,0.05-0.21,0.25-0.26
				c0.25-0.06,0.59-0.05,1.02-0.05c0.44,0,0.84-0.01,1.21,0.02c1.45,0.12,2.43,0.93,2.9,2.62c0.47,1.68,0.47,4.04,0.08,6.52
				c-0.39,2.48-1.14,4.9-2.16,6.71c-1.02,1.81-2.28,2.79-3.8,3.09c-0.39,0.07-0.79,0.08-1.23,0.07c-0.43-0.01-0.77-0.04-0.99-0.14
				c-0.18-0.08-0.23-0.21-0.15-0.38c0.08-0.17,0.27-0.35,0.57-0.52C273.88,83.36,275.51,80.12,276.17,75.94z"/>
		</g>
	</g>
</g>
<g id="rbs_2_">
	<ellipse class="st7" cx="132.5" cy="76" rx="23" ry="16"/>
	<text transform="matrix(1 0 0 1 113.8359 82.79)" class="st6 st1 st8">RBS</text>
</g>
<path id="终止子_7_" class="st9" d="M334.13,60h-9.6c-3.45,0-6.67,1.75-8.54,4.65l-3.77,5.84c-2.17,3.36-2.17,7.67,0,11.03
	l3.77,5.84c1.87,2.9,5.09,4.65,8.54,4.65h9.6c3.45,0,6.67-1.75,8.54-4.65l3.77-5.84c2.17-3.36,2.17-7.67,0-11.03l-3.77-5.84
	C340.8,61.75,337.58,60,334.13,60z"/>
<path id="终止子_8_" class="st9" d="M377.13,60h-9.6c-3.45,0-6.67,1.75-8.54,4.65l-3.77,5.84c-2.17,3.36-2.17,7.67,0,11.03
	l3.77,5.84c1.87,2.9,5.09,4.65,8.54,4.65h9.6c3.45,0,6.67-1.75,8.54-4.65l3.77-5.84c2.17-3.36,2.17-7.67,0-11.03l-3.77-5.84
	C383.8,61.75,380.58,60,377.13,60z"/>
</svg>
