<?xml version="1.0" encoding="utf-8"?>
<!-- Generator: Adobe Illustrator 23.0.0, SVG Export Plug-In . SVG Version: 6.00 Build 0)  -->
<svg version="1.1" id="图层_1" xmlns="http://www.w3.org/2000/svg" xmlns:xlink="http://www.w3.org/1999/xlink" x="0px" y="0px"
	 viewBox="0 0 1015.8 1080" style="enable-background:new 0 0 1015.8 1080;" xml:space="preserve">
<style type="text/css">
	.st0{fill:url(#SVGID_1_);}
	.st1{opacity:0.99;}
	.st2{fill:#F9D1B1;}
	.st3{display:none;fill:none;stroke:#8E725F;stroke-width:2;stroke-miterlimit:10;}
	.st4{fill:#FFDD33;stroke:#FFFC97;stroke-width:3;stroke-linecap:round;stroke-linejoin:round;stroke-miterlimit:10;}
	.st5{fill:#FFDD33;stroke:#FFFC97;stroke-width:4;stroke-linecap:round;stroke-linejoin:round;stroke-miterlimit:10;}
	.st6{fill:#FFDD33;stroke:#FFFC97;stroke-width:2;stroke-linecap:round;stroke-linejoin:round;stroke-miterlimit:10;}
	.st7{fill:#FFDD33;stroke:#FFFC97;stroke-linecap:round;stroke-linejoin:round;stroke-miterlimit:10;}
	.st8{fill:#FFDD33;stroke:#FFFC97;stroke-width:5;stroke-linecap:round;stroke-linejoin:round;stroke-miterlimit:10;}
	.st9{fill:none;stroke:#FFFFFF;stroke-width:3;stroke-miterlimit:10;stroke-dasharray:12;}
</style>
<g id="光">
	
		<radialGradient id="SVGID_1_" cx="282.0749" cy="341.8061" r="329.5159" fx="283.8293" fy="671.3174" gradientTransform="matrix(1.7435 0 0 1.5607 -8.3976 -107.3568)" gradientUnits="userSpaceOnUse">
		<stop  offset="0" style="stop-color:#FFFFFF"/>
		<stop  offset="0.8977" style="stop-color:#FFFFFF;stop-opacity:0"/>
		<stop  offset="0.8977" style="stop-color:#000000;stop-opacity:0"/>
	</radialGradient>
	<polygon class="st0" points="709.6,852.2 257.2,852.2 424.6,0 542.2,0 	"/>
</g>
<g id="地">
	<g>
		<g class="st1">
			<path class="st2" d="M56.4,896.8c0,19.1,30,36.7,81,51.2v-53.6c0,11.8,24.7,21.4,55.3,21.4s55.3-9.6,55.3-21.4v75.5h-0.1
				c0,0,0,0,0,0.1c74,10.3,164.3,16.4,261.8,16.4c250.2,0,453.1-40.2,453.1-89.6c0-49.4-202.8-89.6-453.1-89.6
				S56.6,847.3,56.4,896.8z"/>
		</g>
		<g id="遮罩">
			<g id="图层_7_1_">
				<g>
					<g class="st1">
						<path class="st2" d="M137.6,894.4V948c29.9,8.5,66.9,15.9,109.5,21.9h0.9v-75.5c0,11.8-24.8,21.4-55.3,21.4
							S137.6,906.3,137.6,894.4z"/>
					</g>
					<path class="st3" d="M246.7,895c0,11.8-24.1,21.4-54,21.4s-54-9.6-54-21.4"/>
				</g>
			</g>
		</g>
	</g>
</g>
<g id="星星1">
	<polygon class="st4" points="147.4,341.8 140.6,328.1 125.5,325.9 136.4,315.2 133.8,300.2 147.4,307.3 160.9,300.2 158.3,315.2 
		169.2,325.9 154.1,328.1 	"/>
	<polygon class="st5" points="832.5,576.2 823,564.3 807.7,565.4 816.1,552.6 810.4,538.5 825.1,542.5 836.8,532.7 837.5,547.9 
		850.5,556 836.2,561.4 	"/>
	<polygon class="st4" points="783.5,431.2 782.7,420.6 773.4,415.2 783.3,411.1 785.6,400.6 792.5,408.8 803.2,407.7 797.6,416.8 
		801.9,426.6 791.5,424.1 	"/>
	<polygon class="st6" points="228.6,403.2 225,395.9 217,394.8 222.8,389.1 221.5,381.1 228.6,384.9 235.8,381.1 234.4,389.1 
		240.2,394.8 232.2,395.9 	"/>
	<polygon class="st6" points="169.2,554.4 168.6,543.6 159.4,537.8 169.6,533.9 172.2,523.4 179,531.9 189.9,531 183.9,540.2 
		188,550.3 177.5,547.4 	"/>
	<polygon class="st6" points="682.8,496.4 675.5,492.9 668.5,496.9 669.6,488.9 663.6,483.5 671.6,482 674.9,474.7 678.8,481.8 
		686.8,482.7 681.2,488.5 	"/>
	<polygon class="st7" points="94.7,464.1 90.1,461.8 85.6,464.4 86.3,459.3 82.5,455.8 87.6,454.9 89.7,450.2 92.1,454.7 
		97.3,455.3 93.7,459 	"/>
	<polygon class="st7" points="346.2,516.6 341.6,514.3 337.1,516.9 337.8,511.8 334,508.3 339.1,507.4 341.2,502.7 343.6,507.2 
		348.8,507.8 345.2,511.5 	"/>
	<polygon class="st7" points="541,414.5 536.4,412.3 531.9,414.8 532.6,409.7 528.8,406.2 533.9,405.3 536,400.6 538.5,405.2 
		543.6,405.7 540,409.5 	"/>
	<polygon class="st7" points="699,327.8 694.4,325.5 689.9,328.1 690.6,323 686.8,319.5 691.9,318.6 694,313.9 696.4,318.4 
		701.6,319 698,322.7 	"/>
	<polygon class="st7" points="925.4,610.2 920.8,607.9 916.3,610.5 917,605.4 913.2,601.9 918.2,601 920.4,596.3 922.8,600.8 
		927.9,601.4 924.4,605.1 	"/>
</g>
<g id="星星2">
	<polygon class="st8" points="302.8,446.6 288,442.8 276.5,452.9 275.5,437.7 262.4,429.8 276.6,424.2 280,409.3 289.7,421 
		305,419.7 296.8,432.6 	"/>
	<polygon class="st8" points="321.7,253 316.7,242.2 305,240.3 313.7,232.1 311.9,220.4 322.3,226.1 333,220.8 330.7,232.5 339,241 
		327.2,242.5 	"/>
	<polygon class="st4" points="604.3,288.8 594.8,290.8 591,299.8 586.2,291.3 576.5,290.5 583,283.3 580.8,273.8 589.7,277.8 
		598,272.7 597,282.4 	"/>
	<polygon class="st4" points="693.4,405.8 684.1,403.1 676.5,409.3 676.2,399.5 668,394.3 677.2,391 679.7,381.5 685.6,389.2 
		695.4,388.7 689.9,396.8 	"/>
	<polygon class="st4" points="198.2,345.1 189.5,349.4 188.1,359 181.3,352 171.7,353.7 176.2,345.1 171.7,336.4 181.3,338.1 
		188.1,331.1 189.5,340.8 	"/>
	<polygon class="st4" points="413.6,348.6 404,350.2 399.8,359 395.3,350.4 385.7,349.2 392.5,342.2 390.6,332.7 399.4,337 
		407.9,332.3 406.4,341.9 	"/>
	<polygon class="st7" points="573.9,430.8 569.3,428.5 564.8,431.1 565.5,426 561.7,422.5 566.8,421.6 568.9,416.9 571.3,421.4 
		576.5,422 572.9,425.7 	"/>
	<polygon class="st7" points="917.2,279.5 912.6,277.3 908.1,279.8 908.8,274.7 905,271.3 910.1,270.3 912.2,265.6 914.6,270.2 
		919.8,270.8 916.2,274.5 	"/>
	<polygon class="st7" points="162.2,509 157.6,506.8 153.1,509.3 153.8,504.2 150,500.7 155.1,499.8 157.2,495.1 159.6,499.7 
		164.8,500.2 161.2,503.9 	"/>
	<polygon class="st7" points="319.7,320.3 315.1,318 310.6,320.6 311.3,315.5 307.5,312 312.6,311.1 314.7,306.4 317.1,310.9 
		322.3,311.5 318.7,315.2 	"/>
	<polygon class="st7" points="774.3,498.8 769.7,496.5 765.2,499.1 765.9,493.9 762.1,490.5 767.2,489.6 769.3,484.9 771.7,489.4 
		776.9,490 773.3,493.7 	"/>
</g>
<g id="星星3">
	<polygon class="st7" points="236.3,386.5 231.6,384.3 227.2,386.8 227.9,381.7 224,378.2 229.1,377.3 231.3,372.6 233.7,377.2 
		238.8,377.8 235.2,381.5 	"/>
	<polygon class="st7" points="32.8,271 28.2,268.8 23.7,271.3 24.4,266.2 20.6,262.7 25.7,261.8 27.8,257.1 30.2,261.7 35.4,262.2 
		31.8,266 	"/>
	<polygon class="st7" points="909.9,140.2 905.2,137.9 900.7,140.5 901.4,135.4 897.6,131.9 902.7,131 904.8,126.3 907.3,130.8 
		912.4,131.4 908.8,135.1 	"/>
	<polygon class="st7" points="811,291.2 806.3,288.9 801.8,291.5 802.5,286.4 798.7,282.9 803.8,282 805.9,277.3 808.4,281.8 
		813.5,282.4 809.9,286.1 	"/>
	<polygon class="st7" points="421.9,252.4 417.2,250.2 412.7,252.7 413.4,247.6 409.6,244.1 414.7,243.2 416.8,238.5 419.3,243.1 
		424.4,243.6 420.8,247.4 	"/>
	<polygon class="st7" points="155.1,147.3 150.4,145.1 145.9,147.6 146.6,142.5 142.8,139 147.9,138.1 150,133.4 152.5,137.9 
		157.6,138.5 154,142.2 	"/>
	<polygon class="st8" points="698.6,206.6 683.8,202.8 672.3,212.9 671.3,197.7 658.2,189.8 672.3,184.2 675.7,169.3 685.5,181 
		700.7,179.7 692.5,192.6 	"/>
	<polygon class="st8" points="298.3,219.5 288.4,204.7 270.5,204.4 281.6,190.4 276.3,173.4 293,179.6 307.6,169.3 306.9,187.1 
		321.2,197.8 304,202.6 	"/>
	<polygon class="st8" points="173.1,253.4 160.2,249.2 149.2,257.3 149.4,244 138.3,236.5 151.3,232.4 155.4,219.8 163.3,230.5 
		176.9,230.2 168.7,240.9 	"/>
	<polygon class="st4" points="951.6,362.4 938,362.7 930.3,373.9 926.2,361.4 913.2,357.9 924.1,349.8 923.8,336.5 934.8,344 
		947.6,339.2 943.4,352 	"/>
	<polygon class="st6" points="746.5,404.1 736.9,407.2 733.8,416.8 728.1,408.8 718.2,409.1 724.2,401 721.2,391.6 730.6,394.6 
		738.7,388.5 738.4,398.5 	"/>
</g>
<g id="路径2">
	<path class="st9" d="M481.5,835.5c-0.8-37.7-1.9-100.5-1.5-178.5c0.6-136,5-194.9,5-321c0-44-0.5-111.7-3.5-195.5"/>
</g>
</svg>
