<?xml version="1.0" encoding="utf-8"?>
<!-- Generator: Adobe Illustrator 23.0.0, SVG Export Plug-In . SVG Version: 6.00 Build 0)  -->
<svg version="1.1" id="图层_1" xmlns="http://www.w3.org/2000/svg" xmlns:xlink="http://www.w3.org/1999/xlink" x="0px" y="0px"
	 viewBox="0 0 985 1080" style="enable-background:new 0 0 985 1080;" xml:space="preserve">
<style type="text/css">
	.st0{opacity:0.99;}
	.st1{fill:#F9D1B1;}
	.st2{display:none;opacity:0.99;}
	.st3{display:inline;fill:#F9D1B1;}
	.st4{fill:#DBAF91;}
	.st5{fill:#8E725F;}
	.st6{display:none;}
	
		.st7{display:inline;fill:none;stroke:#FFFFFF;stroke-width:3;stroke-linecap:round;stroke-linejoin:round;stroke-miterlimit:10;stroke-dasharray:12;}
	.st8{fill:#A54E23;}
	.st9{fill:none;stroke:#A54E23;stroke-width:34;stroke-linecap:round;stroke-linejoin:round;stroke-miterlimit:10;}
	.st10{fill:none;stroke:#5B402E;stroke-width:25;stroke-linecap:round;stroke-linejoin:round;stroke-miterlimit:10;}
	.st11{fill:none;stroke:#875F49;stroke-width:25;stroke-linecap:round;stroke-linejoin:round;stroke-miterlimit:10;}
	.st12{fill:#FFDB76;}
	.st13{fill:#7AF93E;}
	.st14{fill:#B6FF57;}
	.st15{fill:#8DE852;}
	.st16{fill:#7EE23D;}
	.st17{fill:#919191;}
	.st18{fill:#999999;}
	.st19{fill:#ADADAD;}
	.st20{fill:#EFEFEF;}
	.st21{fill:#FFFFFF;}
	.st22{font-family:'Rubrik-SemiBold';}
	.st23{font-size:17.8991px;}
	.st24{fill:none;stroke:#7A7A7A;stroke-width:7;stroke-linecap:round;stroke-miterlimit:10;}
	.st25{fill:#7A7A7A;}
	
		.st26{fill:none;stroke:#FFFFFF;stroke-width:2;stroke-linecap:round;stroke-linejoin:round;stroke-miterlimit:10;stroke-dasharray:12;}
	.st27{fill:#E8702D;}
	.st28{fill:none;stroke:#E8702D;stroke-width:34;stroke-linecap:round;stroke-linejoin:round;stroke-miterlimit:10;}
	.st29{fill:none;stroke:#F29F77;stroke-width:5;stroke-linecap:round;stroke-linejoin:round;stroke-miterlimit:10;}
	.st30{fill:#CE915B;}
	.st31{fill:#D69D72;}
	.st32{fill:#493A1F;}
	.st33{fill:#634B23;}
	.st34{font-family:'Rubrik-Medium';}
	.st35{font-size:28px;}
	.st36{fill:none;stroke:#8E725F;stroke-width:2;stroke-miterlimit:10;}
</style>
<g id="光_1_">
	<g id="光">
		
			<image style="overflow:visible;enable-background:new    ;" width="1920" height="1080" xlink:href="FE2098D3.png"  transform="matrix(-0.6099 0 0 1.0722 1090 -2)">
		</image>
	</g>
</g>
<g id="地_2_">
	<g id="底_2_">
		<g class="st0">
			<path class="st1" d="M45.4,914.8c0,19.1,30,36.7,81,51.2v-53.6c0,11.8,24.7,21.4,55.3,21.4s55.3-9.6,55.3-21.4v75.5h-0.1
				c0,0,0,0,0,0.1c74,10.3,164.3,16.4,261.8,16.4c250.2,0,453.1-40.2,453.1-89.6c0-49.4-202.8-89.6-453.1-89.6
				S45.5,865.3,45.4,914.8z"/>
		</g>
		<g class="st2">
			<path class="st3" d="M177.8,953.7c-0.5,0-0.9-0.1-1.4-0.2C176.9,953.6,177.3,953.6,177.8,953.7z"/>
		</g>
		<g class="st2">
			<path class="st3" d="M185.1,955.1c-0.5,0-0.8-0.1-1.3-0.2C184.1,954.9,184.6,955,185.1,955.1z"/>
		</g>
		<g class="st2">
			<path class="st3" d="M174,953c-0.5,0-0.8-0.1-1.3-0.2C173.3,952.8,173.7,952.9,174,953z"/>
		</g>
		<g class="st2">
			<path class="st3" d="M166.9,951.6c-0.2-0.1-0.6-0.1-0.9-0.2C166.3,951.3,166.7,951.5,166.9,951.6z"/>
		</g>
		<g class="st2">
			<path class="st3" d="M214.6,960.3c-0.6-0.1-1.2-0.2-1.8-0.3C213.4,959.9,214,960,214.6,960.3z"/>
		</g>
		<g class="st2">
			<path class="st3" d="M170.5,952.2c-0.4,0-0.7-0.1-1.2-0.2C169.7,952,170.1,952.2,170.5,952.2z"/>
		</g>
		<g class="st2">
			<path class="st3" d="M210.6,959.5c-0.6-0.1-1.2-0.2-1.8-0.3C209.4,959.3,210,959.3,210.6,959.5z"/>
		</g>
	</g>
	<g>
		<ellipse class="st4" cx="181.7" cy="912.4" rx="54" ry="20.3"/>
		<path class="st5" d="M181.7,893.3c14.5,0,28,2.2,38.2,6.1c9.3,3.6,14.6,8.3,14.6,12.9s-5.4,9.3-14.6,12.9
			c-10.2,4-23.6,6.1-38.2,6.1s-28-2.1-38.2-6.1c-9.3-3.6-14.6-8.3-14.6-12.9s5.4-9.3,14.6-12.9C153.7,895.4,167.2,893.3,181.7,893.3
			 M181.7,890.9c-30.4,0-55.2,9.6-55.3,21.4c0,11.8,24.7,21.4,55.3,21.4s55.3-9.6,55.3-21.4S212.2,890.9,181.7,890.9L181.7,890.9z"
			/>
	</g>
</g>
<g id="路径_2_" class="st6">
	<path class="st7" d="M1059,134.1c-24.2,2.3-441.6,43.8-532.1,138.4c-11.7,12.2-38.4,40.1-39.1,78.8c-0.9,45.6,34.5,79.3,41.3,85.8
		c83.2,79.3,211.6,16.4,254.8,85.8c8.8,14.1,16.3,37.4,11.8,61c-5.8,30.7-29.5,49.5-38.2,56.4c-82.8,65.8-265.3-42.3-387.9,37.6
		c-36.2,23.6-21.2,33.6-181.2,208.2c-3.7,4-17.5,13.8-29.4,31.7c-9.8,14.8-20.2,37.4-23.5,83c-2.1,29-1.9,76.9,15.1,136.4"/>
</g>
<g id="内层滑梯">
	<g>
		<path class="st8" d="M202.5,894.4c-9-10.4,3.2-41.7,23.3-56.2c14.5-10.5,25.5-7.2,65.8-12.9c33.7-4.8,50.6-7.2,64.2-15
			c35.7-20.6,22.9-52.2,55.9-79.7c34.8-28.9,60.9-3.7,103.4-32.2c42.2-28.3,26.8-62.3,64.5-78.5c32.4-13.9,61.6,3.3,99.5-18.3
			c13.5-7.7,23.7-15.1,23.7-15.1c12.5-9.1,18.5-15.3,36.7-28.5c6.1-4.4,10.8-7.6,17.6-10.6c37.2-16.3,49.7,6.5,108-0.8
			c55.2-6.9,73-30.3,103.4-18.4c20.5,8,32.6,26.5,39.8,41.4c-29.8-6.2-70.5-11.8-118.6-9.5c-18.3,0.8-62.3,3.9-116.4,20.1
			C711,598.8,668.1,625,638.2,643.6c-65.8,40.8-64.3,54.7-144.2,109.9c-46.3,32-81.7,51.1-121.4,72.8
			C284.8,874,216.9,910.9,202.5,894.4z"/>
		<path class="st9" d="M1016.3,571.1c-115.6-18.7-198.7-1.9-251.2,15.3c-168.7,55.2-229.7,182.1-463.4,273.4
			c-36.7,14.3-67.3,23.8-85.8,29.1"/>
	</g>
	<g>
		<line class="st10" x1="719.7" y1="804.9" x2="854.4" y2="804.9"/>
		<path class="st10" d="M846.5,903.7H715.3c-7.3,0-13.3-7.8-13.3-17.5L757.4,593c0.4-1.9,0.6-3.8,0.8-5.8
			c0.9-8.5,6.4-15.1,13.2-15.1h75.1c7.3,0,13.3,7.8,13.3,17.5v296.6C859.8,895.9,853.9,903.7,846.5,903.7z"/>
	</g>
	<g>
		<line class="st11" x1="729.8" y1="811.2" x2="864.6" y2="811.2"/>
		<path class="st11" d="M856.7,910H725.5c-7.3,0-13.3-7.8-13.3-17.5l55.4-293.2c0.4-1.9,0.6-3.8,0.8-5.8c0.9-8.5,6.4-15.1,13.2-15.1
			h75.1c7.3,0,13.3,7.8,13.3,17.5v296.6C870,902.2,864,910,856.7,910z"/>
	</g>
</g>
<g id="焦晶石2">
	<g>
		<path class="st12" d="M503.1,731.7l-14.2-17.1c-2.9-3.5-2.9-9.1,0-12.6l14.2-17.1c2.9-3.5,7.6-3.5,10.5,0l14.2,17.1
			c2.9,3.5,2.9,9.1,0,12.6l-14.2,17.1C510.7,735.2,506,735.2,503.1,731.7z"/>
		<path class="st13" d="M513.2,687.5c-1.4-1.6-3.2-2.5-5-2.5v23.4h19.5c0-2.2-0.7-4.3-2-6L513.2,687.5z"/>
		<path class="st14" d="M503.2,687.5c1.4-1.6,3.2-2.5,5-2.5v23.4h-19.5c0-2.2,0.7-4.3,2-6L503.2,687.5z"/>
		<path class="st15" d="M503.2,729.3c1.4,1.6,3.2,2.5,5,2.5v-23.4h-19.5c0,2.2,0.7,4.3,2,6L503.2,729.3z"/>
		<path class="st16" d="M513.2,729.3c-1.4,1.6-3.2,2.5-5,2.5v-23.4h19.5c0,2.2-0.7,4.3-2,6L513.2,729.3z"/>
	</g>
</g>
<g id="铅2">
	<g>
		<circle class="st17" cx="508" cy="708.2" r="25.5"/>
		<circle class="st18" cx="510.2" cy="701.8" r="17.8"/>
		
			<ellipse transform="matrix(0.9239 -0.3827 0.3827 0.9239 -227.0451 249.1665)" class="st19" cx="512.8" cy="695.3" rx="9.9" ry="9.9"/>
		<circle class="st20" cx="515.3" cy="692.3" r="2.7"/>
		<text transform="matrix(1 0 0 1 496.8727 714.2942)" class="st21 st22 st23">Pb</text>
		<path class="st24" d="M512.4,726.2c-7.1,1.9-14.7-1.4-19-7.9"/>
		<circle class="st25" cx="490.2" cy="708.2" r="3.5"/>
	</g>
</g>
<g id="焦晶石1">
	<g>
		<path class="st12" d="M678.2,625.4L664,608.3c-2.9-3.5-2.9-9.1,0-12.6l14.2-17.1c2.9-3.5,7.6-3.5,10.5,0l14.2,17.1
			c2.9,3.5,2.9,9.1,0,12.6l-14.3,17.1C685.8,628.9,681,628.9,678.2,625.4z"/>
		<path class="st13" d="M688.2,581.2c-1.4-1.6-3.2-2.5-5-2.5v23.4h19.5c0-2.2-0.7-4.3-2-6L688.2,581.2z"/>
		<path class="st14" d="M678.3,581.2c1.4-1.6,3.2-2.5,5-2.5v23.4h-19.5c0-2.2,0.7-4.3,2-6L678.3,581.2z"/>
		<path class="st15" d="M678.3,623c1.4,1.6,3.2,2.5,5,2.5v-23.4h-19.5c0,2.2,0.7,4.3,2,6L678.3,623z"/>
		<path class="st16" d="M688.2,623c-1.4,1.6-3.2,2.5-5,2.5v-23.4h19.5c0,2.2-0.7,4.3-2,6L688.2,623z"/>
	</g>
</g>
<g id="铅1">
	<g id="铅2_1_">
		<g>
			<circle class="st17" cx="683" cy="602" r="25.5"/>
			<circle class="st18" cx="685.3" cy="595.6" r="17.8"/>
			<circle class="st19" cx="687.8" cy="589.1" r="9.9"/>
			<circle class="st20" cx="690.3" cy="586.1" r="2.7"/>
			<text transform="matrix(1 0 0 1 671.8638 608.1154)" class="st21 st22 st23">Pb</text>
			<path class="st24" d="M687.5,620c-7.1,1.9-14.7-1.4-19-7.9"/>
			<circle class="st25" cx="665.3" cy="602" r="3.5"/>
		</g>
	</g>
</g>
<path id="路径_1_" class="st26" d="M1014.2,545.4c-116.8-18.7-200.7-1.9-253.7,15.3c-213.6,69.2-261.8,222.4-468,273.4
	c-24.8,6.1-67.3,14.5-95.1,49.9c-30.7,39.1-31.1,95.3-31.6,181.5c-0.2,28.7,1,52.6,2.1,69.4"/>
<g id="外层">
	<path class="st27" d="M206.4,903.6c-9-10.4,3.2-41.7,23.3-56.2c14.5-10.5,25.5-7.2,65.8-12.9c33.7-4.8,50.6-7.2,64.2-15
		c35.7-20.6,22.9-52.2,55.9-79.7c34.8-28.9,60.9-3.7,103.4-32.2c42.2-28.3,26.8-62.3,64.5-78.5c32.4-13.9,61.6,3.3,99.5-18.3
		c13.5-7.7,23.7-15.1,23.7-15.1c12.5-9.1,18.5-15.3,36.7-28.5c6.1-4.4,10.8-7.6,17.6-10.6c37.2-16.3,49.7,6.5,108-0.8
		c55.2-6.9,73-30.3,103.4-18.4c20.5,8,32.6,26.5,39.8,41.4c-29.8-6.2-70.5-11.8-118.6-9.5c-18.3,0.8-62.3,3.9-116.4,20.1
		C714.8,608,671.9,634.2,642,652.8c-65.8,40.8-64.3,54.7-144.2,109.9c-46.3,32-81.7,51.1-121.4,72.8
		C288.7,883.3,220.8,920.2,206.4,903.6z"/>
	<path class="st28" d="M1020.2,580.4c-115.6-18.7-198.7-1.9-251.2,15.3c-168.7,55.2-229.7,182.1-463.4,273.4
		c-36.7,14.3-67.3,23.8-85.8,29.1"/>
	<path class="st29" d="M233.1,866.1c-2.5,2.6-5.5,6.2-8.1,11.1c-4.4,8.3-5.4,16-5.7,20.7"/>
	<path class="st29" d="M425.8,749c-3.4,3.1-7.5,7.3-11.2,12.8c-5.8,8.5-8.7,16.7-10.2,22.5"/>
	<path class="st29" d="M590.2,640.3c-3.8,1.8-10,5.3-15.6,12c-7.4,8.8-9.5,18.2-10.2,22.5"/>
	<path class="st29" d="M787.1,562.4c-4.1-0.1-11.3,0.4-19.3,4c-10.5,4.7-16.5,12.2-19,15.8"/>
</g>
<g id="图层_4">
	<path class="st30" d="M656.3,928.5L656.3,928.5c-8.6,0-15.6-7-15.6-15.6v-87.6c0-8.6,7-15.6,15.6-15.6l0,0c8.6,0,15.6,7,15.6,15.6
		v87.6C671.9,921.5,664.9,928.5,656.3,928.5z"/>
	<path class="st31" d="M659,930L659,930c-8.6,0-15.6-7-15.6-15.6v-87.6c0-8.6,7-15.6,15.6-15.6l0,0c8.6,0,15.6,7,15.6,15.6v87.6
		C674.6,923,667.6,930,659,930z"/>
	<path class="st32" d="M799.2,886.9H524.4c-16.7,0-30.4-13.7-30.4-30.4v-8.6c0-16.7,13.7-30.4,30.4-30.4h274.7
		c16.7,0,30.4,13.7,30.4,30.4v8.6C829.6,873.2,815.9,886.9,799.2,886.9z"/>
	<path class="st33" d="M799.1,891.4H524.4c-16.7,0-30.4-13.7-30.4-30.4v-8.6c0-16.7,13.7-30.4,30.4-30.4h274.7
		c16.7,0,30.4,13.7,30.4,30.4v8.6C829.6,877.7,815.9,891.4,799.1,891.4z"/>
	<text transform="matrix(1 0 0 1 519.9842 863.7793)" class="st21 st34 st35">in the intestinal tract </text>
</g>
<g id="遮罩">
	<g id="图层_7_1_">
		<g>
			<g class="st0">
				<path class="st1" d="M126.6,912.4V966c29.9,8.5,66.9,15.9,109.5,21.9h0.9v-75.5c0,11.8-24.8,21.4-55.3,21.4
					S126.6,924.3,126.6,912.4z"/>
			</g>
			<path class="st36" d="M235.7,913c0,11.8-24.1,21.4-54,21.4s-54-9.6-54-21.4"/>
		</g>
	</g>
</g>
</svg>
